<svg width="203" height="323" viewBox="0 0 203 323" fill="none" xmlns="http://www.w3.org/2000/svg">
<g clip-path="url(#clip0_4758_432)">
<path opacity="0.5" d="M72.3628 171.627C72.3628 171.627 53.3311 151.009 46.9872 136.735C43.3163 128.476 33.5064 101.844 46.9872 75.6754C52.7919 59.4671 68.8923 49.0929 77.9137 44.7491C99.3244 34.44 145.318 28.0966 163.556 79.6406C181.795 131.185 143.732 132.77 141.353 156.56C138.974 180.35 163.556 204.933 163.556 204.933C163.556 204.933 179.416 230.308 157.212 237.445C135.009 244.582 129.458 220.792 123.907 211.276C118.356 201.76 102.496 182.729 99.3244 167.662C96.1524 152.595 92.9805 124.048 115.184 101.844C137.388 79.6404 157.212 84.3985 157.212 84.3985" stroke="#E0CEFF" stroke-width="4"/>
<path opacity="0.5" d="M203.206 62.9879C190.254 36.0263 146.428 -13.6147 74.742 3.51386C30.3345 9.85775 -22.0023 74.0897 9.717 138.322C41.4363 202.554 55.7103 212.069 65.2259 231.101L89.8087 290.575C89.8087 290.575 105.668 331.018 154.834 321.502C203.999 311.986 203.206 260.442 203.206 260.442" stroke="#E0CEFF" stroke-width="4"/>
</g>
<defs>
<clipPath id="clip0_4758_432">
<rect width="203" height="323" fill="white"/>
</clipPath>
</defs>
</svg>
