<svg width="26" height="26" viewBox="0 0 26 26" fill="none" xmlns="http://www.w3.org/2000/svg">
<rect width="26" height="26" fill="transparent"/>
<circle cx="13" cy="13" r="13" fill="#FEFCFC"/>
<path d="M11.9393 23.0607C12.5251 23.6464 13.4749 23.6464 14.0607 23.0607L23.6066 13.5147C24.1924 12.9289 24.1924 11.9792 23.6066 11.3934C23.0208 10.8076 22.0711 10.8076 21.4853 11.3934L13 19.8787L4.51472 11.3934C3.92893 10.8076 2.97918 10.8076 2.3934 11.3934C1.80761 11.9792 1.80761 12.9289 2.3934 13.5147L11.9393 23.0607ZM11.5 -6.55671e-08L11.5 22L14.5 22L14.5 6.55671e-08L11.5 -6.55671e-08Z" fill="#DCDCDC"/>
</svg>
