<svg width="100" height="41" viewBox="0 0 100 41" fill="none" xmlns="http://www.w3.org/2000/svg">
<path d="M7.74635 40.7646L0.918659 35.0789L46.585 35.0789L57.1335 40.7646L7.74635 40.7646Z" fill="#C7A6FF"/>
<path d="M57.1279 6.21696L57.1296 40.7681L46.5449 35.1381L46.5449 0.768502L57.1279 6.21696Z" fill="#C7A6FF"/>
<path d="M99.9185 6.37917L99.9185 40.7646L97.9434 38.4647L97.9434 3.74173L99.9185 6.37917Z" fill="#C7A6FF"/>
<path d="M97.9434 3.7417L52.3152 3.74171V38.0854H97.9434V22.5193V3.7417Z" fill="#AE80FF"/>
<path d="M64.7498 28.3313V13.9433H73.4178V16.0993H67.3018V19.7733H72.4718V21.9293H67.3018V26.1753H73.6378V28.3313H64.7498ZM80.7897 28.5953C79.8217 28.5953 78.8831 28.412 77.9737 28.0453C77.0791 27.6786 76.2871 27.158 75.5977 26.4833L77.0937 24.7453C77.6071 25.2293 78.1937 25.6253 78.8537 25.9333C79.5137 26.2266 80.1737 26.3733 80.8337 26.3733C81.6551 26.3733 82.2784 26.2046 82.7037 25.8673C83.1291 25.53 83.3417 25.0826 83.3417 24.5253C83.3417 24.232 83.2831 23.9826 83.1657 23.7773C83.0631 23.572 82.9091 23.396 82.7037 23.2493C82.5131 23.088 82.2784 22.9413 81.9997 22.8093C81.7357 22.6773 81.4424 22.5453 81.1197 22.4133L79.1397 21.5553C78.7877 21.4086 78.4357 21.2253 78.0837 21.0053C77.7464 20.7853 77.4384 20.5213 77.1597 20.2133C76.8811 19.9053 76.6537 19.546 76.4777 19.1353C76.3164 18.7246 76.2357 18.2553 76.2357 17.7273C76.2357 17.1553 76.3531 16.6273 76.5877 16.1433C76.8371 15.6446 77.1744 15.212 77.5997 14.8453C78.0251 14.4786 78.5311 14.1926 79.1177 13.9873C79.7191 13.782 80.3717 13.6793 81.0757 13.6793C81.9117 13.6793 82.7184 13.848 83.4957 14.1853C84.2731 14.508 84.9404 14.948 85.4977 15.5053L84.1997 17.1333C83.7304 16.752 83.2464 16.4513 82.7477 16.2313C82.2491 16.0113 81.6917 15.9013 81.0757 15.9013C80.3864 15.9013 79.8364 16.0553 79.4257 16.3633C79.0151 16.6566 78.8097 17.0673 78.8097 17.5953C78.8097 17.874 78.8684 18.116 78.9857 18.3213C79.1177 18.512 79.2864 18.688 79.4917 18.8493C79.7117 18.996 79.9611 19.1353 80.2397 19.2673C80.5184 19.3846 80.8044 19.502 81.0977 19.6193L83.0557 20.4333C83.4811 20.6093 83.8697 20.8146 84.2217 21.0493C84.5737 21.284 84.8744 21.5553 85.1237 21.8633C85.3877 22.1713 85.5931 22.5306 85.7397 22.9413C85.8864 23.3373 85.9597 23.7993 85.9597 24.3273C85.9597 24.914 85.8424 25.464 85.6077 25.9773C85.3731 26.4906 85.0284 26.9453 84.5737 27.3413C84.1337 27.7226 83.5911 28.0306 82.9457 28.2653C82.3151 28.4853 81.5964 28.5953 80.7897 28.5953Z" fill="#3D206C"/>
<path d="M46.5469 0.768066H0.918701V35.0788H46.5469V0.768066Z" fill="#E0CEFF"/>
<path d="M12.4038 25.3416V10.9096H20.7198V12.4496H14.2298V16.9816H19.7078V18.5436H14.2298V23.7796H20.9398V25.3416H12.4038ZM24.0054 25.3416V10.9096H25.8974L31.1114 19.9736L32.6734 22.9656H32.7614C32.7174 22.2322 32.6661 21.4769 32.6074 20.6996C32.5634 19.9076 32.5414 19.1302 32.5414 18.3676V10.9096H34.2794V25.3416H32.3874L27.1514 16.2556L25.5894 13.2856H25.5014C25.5601 14.0189 25.6114 14.7669 25.6554 15.5296C25.7141 16.2776 25.7434 17.0329 25.7434 17.7956V25.3416H24.0054Z" fill="#3D206C"/>
<path d="M55.0909 40.7646L52.2788 38.0855L97.9477 38.0855L99.9143 40.7646L55.0909 40.7646Z" fill="#C7A6FF"/>
</svg>
