<?xml version="1.0" encoding="utf-8"?>
<!-- Generator: Adobe Illustrator 24.1.0, SVG Export Plug-In . SVG Version: 6.00 Build 0)  -->
<svg version="1.1" xmlns="http://www.w3.org/2000/svg" xmlns:xlink="http://www.w3.org/1999/xlink" x="0px" y="0px"
	 viewBox="0 0 1920 1080" style="enable-background:new 0 0 1920 1080;" xml:space="preserve">
<style type="text/css">
	.st0{fill:#1DAD7A;}
	.st1{fill:#A0D19C;}
	.st2{fill:#424242;}
	.st3{font-family:'SourceSansPro-SemiBold';}
	.st4{font-size:14px;}
	.st5{fill:#CFA149;}
	.st6{fill:#C7C7C7;}
	.st7{fill:#35B6ED;}
	.st8{fill:#66D9E0;}
	.st9{fill:#666666;}
	.st10{font-size:20px;}
	.st11{enable-background:new    ;}
	.st12{fill:#78BC2E;}
	.st13{font-family:'SourceSansPro-Regular';}
	.st14{fill:#1EAACB;}
</style>
<g id="Layer_1">
	<g transform="translate(133.33333333333334,133.33333333333334)">
		<g>
			<path class="st1" d="M-43.4-22.8c6.6,0,11.9,5.3,11.9,11.9S-36.8,1.1-43.4,1.1s-11.9-5.3-11.9-11.9S-50-22.8-43.4-22.8z"/>
		</g>
		<g>
			<text transform="matrix(1 0 0 1 -48.2786 -7.8182)" class="st2 st3 st4">30</text>
		</g>
	</g>
	<g transform="translate(400,133.33333333333334)">
		<g>
			<path class="st0" d="M-51.7,9.7C-63.1-3.8-61.3-24-47.7-35.4c5.8-4.8,13.1-7.5,20.6-7.5v32L-51.7,9.7z"/>
		</g>
		<g>
			<path class="st1" d="M-27.2-42.9c17.7,0,32,14.3,32,32s-14.3,32-32,32c-9.5,0-18.5-4.2-24.5-11.4l24.5-20.6V-42.9z"/>
		</g>
		<g>
			<text transform="matrix(1 0 0 1 -48.3438 -16.0555)" class="st2 st3 st4">78</text>
		</g>
		<g>
			<text transform="matrix(1 0 0 1 -24.1484 -2.5179)" class="st2 st3 st4">138</text>
		</g>
	</g>
	<g transform="translate(666.6666666666667,133.33333333333334)">
		<g>
			<path class="st0" d="M-9.6,28.6c-21.8-5.8-34.8-28.1-29-49.9c4.8-17.9,21-30.4,39.5-30.4v40.8L-9.6,28.6z"/>
		</g>
		<g>
			<path class="st1" d="M0.9-51.7c22.6,0,40.8,18.3,40.8,40.8S23.5,30,0.9,30c-3.5,0-7.1-0.5-10.5-1.4L0.9-10.9V-51.7z"/>
		</g>
		<g>
			<text transform="matrix(1 0 0 1 -30.8249 -11.9295)" class="st2 st3 st4">161</text>
		</g>
		<g>
			<text transform="matrix(1 0 0 1 9.6658 -6.6449)" class="st2 st3 st4">190</text>
		</g>
	</g>
	<g transform="translate(933.3333333333334,133.33333333333334)">
		<g>
			<path class="st0" d="M62.9,36.3C36.9,41.7,11.4,25,6-1s11.3-51.5,37.3-57c3.2-0.7,6.5-1,9.8-1v48.1L62.9,36.3z"/>
		</g>
		<g>
			<path class="st1" d="M53.1-59c26.6,0,48.1,21.6,48.1,48.1c0,22.8-16,42.5-38.3,47.1l-9.8-47.1V-59z"/>
		</g>
		<g>
			<text transform="matrix(1 0 0 1 17.6393 -6.8109)" class="st2 st3 st4">260</text>
		</g>
		<g>
			<text transform="matrix(1 0 0 1 65.5329 -11.7616)" class="st2 st3 st4">228</text>
		</g>
	</g>
	<g transform="translate(1200,133.33333333333334)">
		<g>
			<path class="st0" d="M116.6,28C95.2,44.9,64,41.3,47,19.9s-13.4-52.6,8.1-69.5c8.7-6.9,19.6-10.7,30.7-10.7v49.5L116.6,28z"/>
		</g>
		<g>
			<path class="st1" d="M85.9-60.4c27.3,0,49.5,22.2,49.5,49.5c0,15.1-6.9,29.4-18.8,38.8L85.9-10.9V-60.4z"/>
		</g>
		<g>
			<text transform="matrix(1 0 0 1 50.9775 -1.1517)" class="st2 st3 st4">313</text>
		</g>
		<g>
			<text transform="matrix(1 0 0 1 97.7383 -17.4227)" class="st2 st3 st4">203</text>
		</g>
	</g>
	<g transform="translate(1466.6666666666667,133.33333333333334)">
		<g>
			<path class="st0" d="M183.7,29.9c-22.5,16.9-54.4,12.4-71.3-10.1s-12.4-54.4,10.1-71.3c8.8-6.6,19.6-10.2,30.6-10.2v50.9
				L183.7,29.9z"/>
		</g>
		<g>
			<path class="st1" d="M153.1-61.8c28.1,0,50.9,22.8,50.9,50.9c0,16-7.5,31.1-20.3,40.7l-30.6-40.7V-61.8z"/>
		</g>
		<g>
			<text transform="matrix(1 0 0 1 117.476 -1.223)" class="st2 st3 st4">329</text>
		</g>
		<g>
			<text transform="matrix(1 0 0 1 165.7826 -17.3504)" class="st2 st3 st4">217</text>
		</g>
	</g>
	<g transform="translate(133.33333333333334,400)">
		<g>
			<path class="st0" d="M-30,37.6C-58.4,45-87.3,28-94.7-0.3s9.6-57.3,38-64.7c4.4-1.1,8.9-1.7,13.4-1.7v53L-30,37.6z"/>
		</g>
		<g>
			<path class="st1" d="M-43.4-66.7c29.3,0,53,23.7,53,53C9.6,10.4-6.7,31.5-30,37.6l-13.4-51.3V-66.7z"/>
		</g>
		<g>
			<text transform="matrix(1 0 0 1 -81.2083 -8.7612)" class="st2 st3 st4">320</text>
		</g>
		<g>
			<text transform="matrix(1 0 0 1 -28.6068 -15.4976)" class="st2 st3 st4">272</text>
		</g>
	</g>
	<g transform="translate(400,400)">
		<g>
			<path class="st0" d="M-22.8,41.4c-30.4,2.4-57-20.3-59.4-50.7c-2.4-30.4,20.3-57,50.7-59.4c1.4-0.1,2.9-0.2,4.3-0.2v55.2
				L-22.8,41.4z"/>
		</g>
		<g>
			<path class="st1" d="M-27.2-68.9c30.5,0,55.2,24.7,55.2,55.2c0,28.8-22.2,52.8-50.9,55.1l-4.3-55.1V-68.9z"/>
		</g>
		<g>
			<text transform="matrix(1 0 0 1 -66.2544 -11.0483)" class="st2 st3 st4">329</text>
		</g>
		<g>
			<text transform="matrix(1 0 0 1 -11.0713 -13.21)" class="st2 st3 st4">313</text>
		</g>
	</g>
	<g transform="translate(666.6666666666667,400)">
		<g>
			<path class="st0" d="M10.2,35.3C-16.9,40.4-43,22.6-48.1-4.5s12.7-53.1,39.8-58.2c3-0.6,6.1-0.9,9.2-0.9v49.8L10.2,35.3z"/>
		</g>
		<g>
			<path class="st1" d="M0.9-63.5c27.5,0,49.8,22.3,49.8,49.8c0,24-17.1,44.5-40.6,49l-9.2-49V-63.5z"/>
		</g>
		<g>
			<text transform="matrix(1 0 0 1 -35.3942 -9.812)" class="st2 st3 st4">277</text>
		</g>
		<g>
			<text transform="matrix(1 0 0 1 14.2347 -14.4458)" class="st2 st3 st4">246</text>
		</g>
	</g>
	<g transform="translate(933.3333333333334,400)">
		<g>
			<path class="st0" d="M70.8,29.9C46.7,39.6,19.3,28,9.5,4s1.8-51.5,25.9-61.2c5.6-2.3,11.6-3.4,17.7-3.4v47L70.8,29.9z"/>
		</g>
		<g>
			<path class="st1" d="M53.1-60.7c26,0,47,21,47,47c0,19.1-11.6,36.4-29.3,43.6L53.1-13.7V-60.7z"/>
		</g>
		<g>
			<text transform="matrix(1 0 0 1 18.5222 -7.6318)" class="st2 st3 st4">261</text>
		</g>
		<g>
			<text transform="matrix(1 0 0 1 64.653 -16.6255)" class="st2 st3 st4">204</text>
		</g>
	</g>
	<g transform="translate(1200,400)">
		<g>
			<path class="st0" d="M117.8,26.1c-22,17.6-54.1,14.1-71.7-7.8s-14.1-54.1,7.8-71.7c9.1-7.3,20.3-11.2,31.9-11.2v51L117.8,26.1z"
				/>
		</g>
		<g>
			<path class="st1" d="M85.9-64.7c28.2,0,51,22.8,51,51c0,15.5-7,30.1-19.1,39.8L85.9-13.7V-64.7z"/>
		</g>
		<g>
			<text transform="matrix(1 0 0 1 50.292 -3.6641)" class="st2 st3 st4">333</text>
		</g>
		<g>
			<text transform="matrix(1 0 0 1 98.4238 -20.5942)" class="st2 st3 st4">215</text>
		</g>
	</g>
	<g transform="translate(1466.6666666666667,400)">
		<g>
			<path class="st0" d="M168.2,3c-9.2,8.3-23.5,7.6-31.8-1.6c-8.3-9.2-7.6-23.5,1.6-31.8c4.1-3.7,9.5-5.8,15.1-5.8v22.5L168.2,3z"/>
		</g>
		<g>
			<path class="st1" d="M153.1-36.2c12.5,0,22.5,10.1,22.5,22.5c0,6.4-2.7,12.5-7.4,16.7l-15.1-16.7V-36.2z"/>
		</g>
		<g>
			<text transform="matrix(1 0 0 1 135.9418 -8.0859)" class="st2 st3 st4">66</text>
		</g>
		<g>
			<text transform="matrix(1 0 0 1 156.9857 -16.1758)" class="st2 st3 st4">41</text>
		</g>
	</g>
	<g transform="translate(133.33333333333334,666.6666666666667)">
		<g>
			<path class="st0" d="M-69.1,8.2c-4.4-3.2-5.3-9.3-2.2-13.6c1.8-2.5,4.8-4,7.9-4v9.7L-69.1,8.2z"/>
		</g>
		<g>
			<path class="st1" d="M-63.4-9.4c5.4,0,9.7,4.4,9.7,9.7s-4.4,9.7-9.7,9.7c-2.1,0-4.1-0.7-5.7-1.9l5.7-7.9V-9.4z"/>
		</g>
		<g>
			<text transform="matrix(1 0 0 1 -69.8758 0.3831)" class="st2 st3 st4">8</text>
		</g>
		<g>
			<text transform="matrix(1 0 0 1 -65.4422 3.3948)" class="st2 st3 st4">12</text>
		</g>
	</g>
	<g transform="translate(400,666.6666666666667)">
		<g>
			<path class="st0" d="M-41.5,7.1C-45.2-0.8-41.9-10.2-34-14c2.1-1,4.5-1.5,6.8-1.5V0.3L-41.5,7.1z"/>
		</g>
		<g>
			<path class="st1" d="M-27.2-15.5c8.8,0,15.9,7.1,15.9,15.9s-7.1,15.9-15.9,15.9c-6.1,0-11.7-3.5-14.3-9l14.3-6.8V-15.5z"/>
		</g>
		<g>
			<text transform="matrix(1 0 0 1 -40.5352 -2.3464)" class="st2 st3 st4">17</text>
		</g>
		<g>
			<text transform="matrix(1 0 0 1 -27.1182 6.1243)" class="st2 st3 st4">36</text>
		</g>
	</g>
	<g transform="translate(666.6666666666667,666.6666666666667)">
		<g>
			<path class="st0" d="M-10.7,26.5c-14.5-6.4-21-23.4-14.6-37.8c4.6-10.4,14.9-17,26.2-17V0.3L-10.7,26.5z"/>
		</g>
		<g>
			<path class="st1" d="M0.9-28.3c15.8,0,28.7,12.8,28.7,28.7S16.8,29,0.9,29c-4,0-8-0.8-11.6-2.5L0.9,0.3V-28.3z"/>
		</g>
		<g>
			<text transform="matrix(1 0 0 1 -19.7673 -1.0827)" class="st2 st3 st4">75</text>
		</g>
		<g>
			<text transform="matrix(1 0 0 1 8.2776 4.8607)" class="st2 st3 st4">98</text>
		</g>
	</g>
	<g transform="translate(933.3333333333334,666.6666666666667)">
		<g>
			<path class="st0" d="M30.6-0.7C31.1-12.7,41-22.2,53.1-22.2V0.3L30.6-0.7z"/>
		</g>
		<g>
			<path class="st1" d="M53.1-22.2c12.5,0,22.5,10.1,22.5,22.5S65.5,22.9,53.1,22.9S30.5,12.8,30.5,0.3c0-0.3,0-0.7,0-1l22.5,1
				V-22.2z"/>
		</g>
		<g>
			<text transform="matrix(1 0 0 1 38.6237 -6.2556)" class="st2 st3 st4">26</text>
		</g>
		<g>
			<text transform="matrix(1 0 0 1 54.2106 10.0335)" class="st2 st3 st4">81</text>
		</g>
	</g>
	<g transform="translate(1200,666.6666666666667)">
		<g>
			<path class="st0" d="M54,3.1C52.4-14.5,65.4-30,83.1-31.6c0.9-0.1,1.9-0.1,2.8-0.1v32L54,3.1z"/>
		</g>
		<g>
			<path class="st1" d="M85.9-31.7c17.7,0,32,14.3,32,32s-14.3,32-32,32C69.3,32.4,55.4,19.7,54,3.1l31.9-2.8V-31.7z"/>
		</g>
		<g>
			<text transform="matrix(1 0 0 1 67.3857 -8.9313)" class="st2 st3 st4">57</text>
		</g>
		<g>
			<text transform="matrix(1 0 0 1 86.166 12.7093)" class="st2 st3 st4">159</text>
		</g>
	</g>
	<g transform="translate(1466.6666666666667,666.6666666666667)">
		<g>
			<path class="st0" d="M156.3,37.7c-20.6,1.8-38.8-13.5-40.5-34.2C114-17.1,129.3-35.3,150-37c1.1-0.1,2.1-0.1,3.2-0.1V0.3
				L156.3,37.7z"/>
		</g>
		<g>
			<path class="st1" d="M153.1-37.2c20.7,0,37.5,16.8,37.5,37.5c0,19.5-14.9,35.7-34.3,37.4l-3.2-37.4V-37.2z"/>
		</g>
		<g>
			<text transform="matrix(1 0 0 1 122.8959 2.6849)" class="st2 st3 st4">152</text>
		</g>
		<g>
			<text transform="matrix(1 0 0 1 160.3607 1.0931)" class="st2 st3 st4">144</text>
		</g>
	</g>
	<g transform="translate(133.33333333333334,933.3333333333334)">
		<g>
			<path class="st0" d="M-47.3,14.5C-51,23.4-61.2,27.7-70.1,24c-8.9-3.7-13.1-13.9-9.4-22.8c2.7-6.5,9.1-10.8,16.1-10.8V7.9
				L-47.3,14.5z"/>
		</g>
		<g>
			<path class="st1" d="M-63.4-9.6C-53.8-9.6-46-1.8-46,7.9c0,2.3-0.5,4.6-1.3,6.7l-16.1-6.7V-9.6z"/>
		</g>
		<g>
			<text transform="matrix(1 0 0 1 -79.953 14.2682)" class="st2 st3 st4">44</text>
		</g>
		<g>
			<text transform="matrix(1 0 0 1 -64.5799 5.4557)" class="st2 st3 st4">20</text>
		</g>
	</g>
	<g transform="translate(400,933.3333333333334)">
		<g>
			<path class="st0" d="M-31.1,26c-10-2.2-16.4-12.1-14.2-22.2c1.9-8.6,9.4-14.6,18.2-14.6V7.9L-31.1,26z"/>
		</g>
		<g>
			<path class="st1" d="M-27.2-10.8c10.3,0,18.6,8.3,18.6,18.6s-8.3,18.6-18.6,18.6c-1.3,0-2.7-0.1-4-0.4l4-18.2V-10.8z"/>
		</g>
		<g>
			<text transform="matrix(1 0 0 1 -43.084 8.4245)" class="st2 st3 st4">34</text>
		</g>
		<g>
			<text transform="matrix(1 0 0 1 -24.5688 10.4245)" class="st2 st3 st4">39</text>
		</g>
	</g>
	<g transform="translate(666.6666666666667,933.3333333333334)">
		<g>
			<path class="st0" d="M22.1,33.3C8,45-12.9,43.1-24.5,29s-9.8-35,4.3-46.7c5.9-4.9,13.4-7.7,21.2-7.7V7.9L22.1,33.3z"/>
		</g>
		<g>
			<path class="st1" d="M0.9-25.3c18.3,0,33.1,14.8,33.1,33.1c0,9.8-4.4,19.2-11.9,25.5L0.9,7.9V-25.3z"/>
		</g>
		<g>
			<text transform="matrix(1 0 0 1 -26.1608 15.0544)" class="st2 st3 st4">141</text>
		</g>
		<g>
			<text transform="matrix(1 0 0 1 9.8289 3.7946)" class="st2 st3 st4">90</text>
		</g>
	</g>
	<g transform="translate(933.3333333333334,933.3333333333334)">
		<g>
			<path class="st0" d="M71.7,32.1c-13.4,10.3-32.6,7.7-42.9-5.7s-7.7-32.6,5.7-42.9c5.3-4.1,11.9-6.3,18.6-6.3V7.9L71.7,32.1z"/>
		</g>
		<g>
			<path class="st1" d="M53.1-22.7C70-22.7,83.7-9,83.7,7.9c0,9.5-4.4,18.5-12,24.3L53.1,7.9V-22.7z"/>
		</g>
		<g>
			<text transform="matrix(1 0 0 1 27.2614 14.3366)" class="st2 st3 st4">119</text>
		</g>
		<g>
			<text transform="matrix(1 0 0 1 60.903 4.5134)" class="st2 st3 st4">78</text>
		</g>
	</g>
	<g transform="translate(1200,933.3333333333334)">
		<g>
			<path class="st0" d="M102.9,42.8c-19.3,9.4-42.6,1.4-52-17.9s-1.4-42.6,17.9-52C74.1-29.7,80-31,85.9-31V7.9L102.9,42.8z"/>
		</g>
		<g>
			<path class="st1" d="M85.9-31c21.5,0,38.9,17.4,38.9,38.9c0,14.9-8.5,28.4-21.8,34.9L85.9,7.9V-31z"/>
		</g>
		<g>
			<text transform="matrix(1 0 0 1 55.4268 13.8024)" class="st2 st3 st4">182</text>
		</g>
		<g>
			<text transform="matrix(1 0 0 1 93.2949 5.0475)" class="st2 st3 st4">136</text>
		</g>
	</g>
	<g transform="translate(133.33333333333334,133.33333333333334)">
		<g>
			<path class="st6" d="M11.7-23.2c5.4,0,9.8,4.4,9.8,9.8S17-3.7,11.7-3.7S1.9-8,1.9-13.4S6.3-23.2,11.7-23.2z"/>
		</g>
		<g>
			<text transform="matrix(1 0 0 1 6.6862 -9.3802)" class="st2 st3 st4">19</text>
		</g>
	</g>
	<g transform="translate(400,133.33333333333334)">
		<g>
			<path class="st5" d="M75.4,4.7c-10,14.8-30.1,18.7-45,8.7s-18.7-30.1-8.7-45c6-8.9,16.1-14.3,26.8-14.3v32.4L75.4,4.7z"/>
		</g>
		<g>
			<path class="st6" d="M48.6-45.8C66.5-45.8,81-31.3,81-13.4C81-7,79.1-0.7,75.4,4.7L48.6-13.4V-45.8z"/>
		</g>
		<g>
			<text transform="matrix(1 0 0 1 19.9404 -3.0623)" class="st2 st3 st4">137</text>
		</g>
		<g>
			<text transform="matrix(1 0 0 1 54.3257 -18.2635)" class="st2 st3 st4">72</text>
		</g>
	</g>
	<g transform="translate(666.6666666666667,133.33333333333334)">
		<g>
			<path class="st5" d="M120.1,10.9c-13.5,16-37.3,18-53.3,4.6s-18-37.3-4.6-53.3c7.2-8.5,17.8-13.5,28.9-13.5v37.8L120.1,10.9z"/>
		</g>
		<g>
			<path class="st6" d="M91.2-51.2c20.9,0,37.8,16.9,37.8,37.8c0,8.9-3.1,17.5-8.9,24.4L91.2-13.4V-51.2z"/>
		</g>
		<g>
			<text transform="matrix(1 0 0 1 59.6942 -2.6859)" class="st2 st3 st4">182</text>
		</g>
		<g>
			<text transform="matrix(1 0 0 1 93.9881 -18.639)" class="st2 st3 st4">103</text>
		</g>
	</g>
	<g transform="translate(933.3333333333334,133.33333333333334)">
		<g>
			<path class="st5" d="M143.2,27.5c-22.6-10.8-32.2-37.8-21.5-60.5c7.5-15.8,23.5-25.9,41-25.9v45.4L143.2,27.5z"/>
		</g>
		<g>
			<path class="st6" d="M162.7-58.8c25.1,0,45.4,20.3,45.4,45.4s-20.3,45.4-45.4,45.4c-6.7,0-13.4-1.5-19.5-4.4l19.5-41V-58.8z"/>
		</g>
		<g>
			<text transform="matrix(1 0 0 1 126.235 -15.6619)" class="st2 st3 st4">176</text>
		</g>
		<g>
			<text transform="matrix(1 0 0 1 170.485 -5.6644)" class="st2 st3 st4">234</text>
		</g>
	</g>
	<g transform="translate(1200,133.33333333333334)">
		<g>
			<path class="st5" d="M248.2-6c-4.1,27.3-29.5,46.1-56.8,42s-46.1-29.5-42-56.8c3.7-24.5,24.7-42.6,49.4-42.6v49.9L248.2-6z"/>
		</g>
		<g>
			<path class="st6" d="M198.9-63.4c27.6,0,49.9,22.4,49.9,49.9c0,2.5-0.2,4.9-0.6,7.4l-49.4-7.4V-63.4z"/>
		</g>
		<g>
			<text transform="matrix(1 0 0 1 165.5801 5.6379)" class="st2 st3 st4">361</text>
		</g>
		<g>
			<text transform="matrix(1 0 0 1 203.4229 -26.9627)" class="st2 st3 st4">136</text>
		</g>
	</g>
	<g transform="translate(1466.6666666666667,133.33333333333334)">
		<g>
			<path class="st5" d="M324.2-22.9c5.2,28.8-13.9,56.4-42.7,61.6S225.1,24.9,219.8-4s13.9-56.4,42.7-61.6c3.1-0.6,6.3-0.9,9.5-0.9
				v53L324.2-22.9z"/>
		</g>
		<g>
			<path class="st6" d="M272-66.4c25.6,0,47.6,18.3,52.2,43.6L272-13.4V-66.4z"/>
		</g>
		<g>
			<text transform="matrix(1 0 0 1 240.6517 9.6872)" class="st2 st3 st4">436</text>
		</g>
		<g>
			<text transform="matrix(1 0 0 1 274.6302 -31.0111)" class="st2 st3 st4">124</text>
		</g>
	</g>
	<g transform="translate(133.33333333333334,400)">
		<g>
			<path class="st5" d="M133.4,0.6c-9.3,30.2-41.3,47.1-71.5,37.8S14.8-2.9,24.1-33.1c7.4-24,29.6-40.4,54.7-40.4v57.2L133.4,0.6z"
				/>
		</g>
		<g>
			<path class="st6" d="M78.7-73.5c31.6,0,57.2,25.6,57.2,57.2c0,5.7-0.9,11.4-2.5,16.8L78.7-16.3V-73.5z"/>
		</g>
		<g>
			<text transform="matrix(1 0 0 1 41.3659 3.4868)" class="st2 st3 st4">458</text>
		</g>
		<g>
			<text transform="matrix(1 0 0 1 87.3884 -30.4971)" class="st2 st3 st4">194</text>
		</g>
	</g>
	<g transform="translate(400,400)">
		<g>
			<path class="st5" d="M167.8-30c7.6,35.2-14.8,69.8-50,77.4s-69.8-14.8-77.4-50s14.8-69.8,50-77.4c4.5-1,9.1-1.5,13.7-1.5v65.2
				L167.8-30z"/>
		</g>
		<g>
			<path class="st6" d="M104.1-81.4c30.7,0,57.3,21.4,63.7,51.5l-63.7,13.7V-81.4z"/>
		</g>
		<g>
			<text transform="matrix(1 0 0 1 69.2578 11.8398)" class="st2 st3 st4">663</text>
		</g>
		<g>
			<text transform="matrix(1 0 0 1 110.2119 -38.8496)" class="st2 st3 st4">183</text>
		</g>
	</g>
	<g transform="translate(666.6666666666667,400)">
		<g>
			<path class="st5" d="M155.4,24.6c-22.5,21-57.8,19.7-78.8-2.8s-19.7-57.8,2.8-78.8c10.3-9.6,23.9-15,38-15v55.8L155.4,24.6z"/>
		</g>
		<g>
			<path class="st6" d="M117.4-72.1c30.8,0,55.8,25,55.8,55.8c0,15.5-6.4,30.3-17.8,40.8l-38-40.8V-72.1z"/>
		</g>
		<g>
			<text transform="matrix(1 0 0 1 77.116 -3.29)" class="st2 st3 st4">384</text>
		</g>
		<g>
			<text transform="matrix(1 0 0 1 129.0291 -23.7231)" class="st2 st3 st4">236</text>
		</g>
	</g>
	<g transform="translate(933.3333333333334,400)">
		<g>
			<path class="st5" d="M214.8,21.7c-20.4,24.3-56.7,27.5-81,7.1s-27.5-56.7-7.1-81c10.9-13,27.1-20.5,44-20.5v57.5L214.8,21.7z"/>
		</g>
		<g>
			<path class="st6" d="M170.7-72.8c31.8,0,57.5,25.8,57.5,57.5c0,13.5-4.8,26.6-13.5,37l-44-37V-72.8z"/>
		</g>
		<g>
			<text transform="matrix(1 0 0 1 130.2946 -0.3564)" class="st2 st3 st4">421</text>
		</g>
		<g>
			<text transform="matrix(1 0 0 1 182.4255 -24.6572)" class="st2 st3 st4">238</text>
		</g>
	</g>
	<g transform="translate(1200,400)">
		<g>
			<path class="st5" d="M271.4-32.6c9,33.4-10.8,67.8-44.3,76.8S159.3,33.5,150.3,0c-9-33.4,10.8-67.8,44.3-76.8
				c5.3-1.4,10.8-2.2,16.3-2.2v62.7L271.4-32.6z"/>
		</g>
		<g>
			<path class="st6" d="M210.9-79c28.4,0,53.2,19,60.5,46.4l-60.5,16.3V-79z"/>
		</g>
		<g>
			<text transform="matrix(1 0 0 1 177.4316 11.373)" class="st2 st3 st4">620</text>
		</g>
		<g>
			<text transform="matrix(1 0 0 1 215.5713 -38.3843)" class="st2 st3 st4">163</text>
		</g>
	</g>
	<g transform="translate(1466.6666666666667,400)">
		<g>
			<path class="st5" d="M295.8,10.1c-14.6,27.5-48.6,38-76.1,23.4s-38-48.6-23.4-76.1c9.8-18.4,28.9-30,49.8-30v56.3L295.8,10.1z"/>
		</g>
		<g>
			<path class="st6" d="M246-72.6c31.1,0,56.3,25.2,56.3,56.3c0,9.2-2.2,18.2-6.6,26.4L246-16.3V-72.6z"/>
		</g>
		<g>
			<text transform="matrix(1 0 0 1 207.514 1.0176)" class="st2 st3 st4">425</text>
		</g>
		<g>
			<text transform="matrix(1 0 0 1 255.7699 -28.0293)" class="st2 st3 st4">207</text>
		</g>
	</g>
	<g transform="translate(133.33333333333334,666.6666666666667)">
		<g>
			<path class="st5" d="M48.3,38.1c-22.3,18-54.9,14.6-72.9-7.7s-14.6-54.9,7.7-72.9C-7.7-50,3.9-54.1,15.7-54.1v51.9L48.3,38.1z"/>
		</g>
		<g>
			<path class="st6" d="M15.7-54.1c28.6,0,51.9,23.2,51.9,51.9c0,15.7-7.1,30.5-19.3,40.3L15.7-2.2V-54.1z"/>
		</g>
		<g>
			<text transform="matrix(1 0 0 1 -23.0804 9.1614)" class="st2 st3 st4">326</text>
		</g>
		<g>
			<text transform="matrix(1 0 0 1 25.8219 -8.1335)" class="st2 st3 st4">210</text>
		</g>
	</g>
	<g transform="translate(400,666.6666666666667)">
		<g>
			<path class="st5" d="M44.2,49.7C15.5,38.1,1.6,5.5,13.2-23.1c8.5-21.2,29.1-35.1,51.9-35.1v56L44.2,49.7z"/>
		</g>
		<g>
			<path class="st6" d="M65.1-58.2c30.9,0,56,25.1,56,56s-25.1,56-56,56c-7.2,0-14.3-1.4-20.9-4L65.1-2.2V-58.2z"/>
		</g>
		<g>
			<text transform="matrix(1 0 0 1 23.2617 -4.8083)" class="st2 st3 st4">274</text>
		</g>
		<g>
			<text transform="matrix(1 0 0 1 78.2065 5.8343)" class="st2 st3 st4">350</text>
		</g>
	</g>
	<g transform="translate(666.6666666666667,666.6666666666667)">
		<g>
			<path class="st5" d="M122.8,54.9c-31.6,11-66.1-5.6-77.1-37.2s5.6-66.1,37.2-77.1c6.4-2.2,13.2-3.4,19.9-3.4v60.5L122.8,54.9z"/>
		</g>
		<g>
			<path class="st6" d="M102.8-62.8c33.4,0,60.5,27.1,60.5,60.5c0,25.7-16.3,48.7-40.6,57.2L102.8-2.2V-62.8z"/>
		</g>
		<g>
			<text transform="matrix(1 0 0 1 58.657 5.5696)" class="st2 st3 st4">404</text>
		</g>
		<g>
			<text transform="matrix(1 0 0 1 118.3416 -4.5417)" class="st2 st3 st4">326</text>
		</g>
	</g>
	<g transform="translate(933.3333333333334,666.6666666666667)">
		<g>
			<path class="st5" d="M122.2,58.9C88.4,32.7,82.3-15.9,108.5-49.7c14.7-18.9,37.3-30,61.2-30v77.5L122.2,58.9z"/>
		</g>
		<g>
			<path class="st6" d="M169.7-79.7c42.8,0,77.5,34.7,77.5,77.5s-34.7,77.5-77.5,77.5c-17.2,0-33.9-5.7-47.5-16.3l47.5-61.2V-79.7z"
				/>
		</g>
		<g>
			<text transform="matrix(1 0 0 1 118.7243 -12.0319)" class="st2 st3 st4">472</text>
		</g>
		<g>
			<text transform="matrix(1 0 0 1 191.9977 13.0589)" class="st2 st3 st4">723</text>
		</g>
	</g>
	<g transform="translate(1200,666.6666666666667)">
		<g>
			<path class="st5" d="M182.4,74.6C139.9,57.2,119.6,8.7,137-33.7c12.8-31.2,43.1-51.6,76.9-51.6v83L182.4,74.6z"/>
		</g>
		<g>
			<path class="st6" d="M213.9-85.3c45.9,0,83,37.2,83,83s-37.2,83-83,83c-10.8,0-21.5-2.1-31.5-6.2l31.5-76.9V-85.3z"/>
		</g>
		<g>
			<text transform="matrix(1 0 0 1 158.7588 -7.5065)" class="st2 st3 st4">602</text>
		</g>
		<g>
			<text transform="matrix(1 0 0 1 240.2441 8.5335)" class="st2 st3 st4">772</text>
		</g>
	</g>
	<g transform="translate(1466.6666666666667,666.6666666666667)">
		<g>
			<path class="st5" d="M305,80.9c-45.9,10-91.2-19.2-101.2-65.1C193.9-30.1,223-75.4,269-85.4c5.9-1.3,12-1.9,18-1.9v85.1L305,80.9
				z"/>
		</g>
		<g>
			<path class="st6" d="M287-87.3c47,0,85.1,38.1,85.1,85.1c0,40-27.9,74.7-67.1,83.1L287-2.2V-87.3z"/>
		</g>
		<g>
			<text transform="matrix(1 0 0 1 230.3441 5.0472)" class="st2 st3 st4">770</text>
		</g>
		<g>
			<text transform="matrix(1 0 0 1 314.9388 -4.0192)" class="st2 st3 st4">672</text>
		</g>
	</g>
	<g transform="translate(133.33333333333334,933.3333333333334)">
		<g>
			<path class="st5" d="M20.3,88C-25.3,66.8-45.1,12.6-23.9-33.1C-9-65.3,23.3-85.9,58.7-85.9V5.3L20.3,88z"/>
		</g>
		<g>
			<path class="st6" d="M58.7-85.9c50.3,0,91.1,40.8,91.1,91.1s-40.8,91.1-91.1,91.1c-13.3,0-26.4-2.9-38.4-8.5L58.7,5.3V-85.9z"/>
		</g>
		<g>
			<text transform="matrix(1 0 0 1 -0.1199 -1.7786)" class="st2 st3 st4">713</text>
		</g>
		<g>
			<text transform="matrix(1 0 0 1 88.881 17.8757)" class="st2 st3 st4">942</text>
		</g>
	</g>
	<g transform="translate(400,933.3333333333334)">
		<g>
			<path class="st5" d="M24,61.6C-7.1,20.1,1.3-38.7,42.8-69.8c16.2-12.2,36-18.7,56.3-18.7V5.3L24,61.6z"/>
		</g>
		<g>
			<path class="st6" d="M99.1-88.5c51.8,0,93.8,42,93.8,93.8s-42,93.8-93.8,93.8c-29.6,0-57.4-13.9-75.1-37.6L99.1,5.3V-88.5z"/>
		</g>
		<g>
			<text transform="matrix(1 0 0 1 42.7773 -12.9437)" class="st2 st3 st4">618</text>
		</g>
		<g>
			<text transform="matrix(1 0 0 1 117.8892 29.0407)" class="st2 st3 st4">1,136</text>
		</g>
	</g>
	<g transform="translate(666.6666666666667,933.3333333333334)">
		<g>
			<path class="st5" d="M108.4,88.9C58.4,69.5,33.5,13.2,53-36.9C67.5-74.3,103.5-99,143.6-99v97.2L108.4,88.9z"/>
		</g>
		<g>
			<path class="st6" d="M143.6-99c53.7,0,97.2,43.5,97.2,97.2s-43.5,97.2-97.2,97.2c-12,0-24-2.2-35.2-6.6l35.2-90.7V-99z"/>
		</g>
		<g>
			<text transform="matrix(1 0 0 1 81.4808 -7.8997)" class="st2 st3 st4">831</text>
		</g>
		<g>
			<text transform="matrix(1 0 0 1 168.264 9.9968)" class="st2 st3 st4">1,053</text>
		</g>
	</g>
	<g transform="translate(933.3333333333334,933.3333333333334)">
		<g>
			<path class="st5" d="M150.2,81.4c-42.1-15.2-63.9-61.6-48.7-103.6c11.6-32.1,42-53.5,76.2-53.5v81L150.2,81.4z"/>
		</g>
		<g>
			<path class="st6" d="M177.7-75.7c44.7,0,81,36.3,81,81s-36.3,81-81,81c-9.4,0-18.7-1.6-27.5-4.8l27.5-76.2V-75.7z"/>
		</g>
		<g>
			<text transform="matrix(1 0 0 1 123.4821 1.071)" class="st2 st3 st4">581</text>
		</g>
		<g>
			<text transform="matrix(1 0 0 1 203.238 15.0231)" class="st2 st3 st4">725</text>
		</g>
	</g>
	<g transform="translate(1200,933.3333333333334)">
		<g>
			<path class="st5" d="M220.9,83.5c-43.2,3.9-81.3-28-85.2-71.1s28-81.3,71.1-85.2c2.3-0.2,4.7-0.3,7-0.3V5.3L220.9,83.5z"/>
		</g>
		<g>
			<path class="st6" d="M213.9-73.2c43.3,0,78.5,35.1,78.5,78.5c0,40.6-31,74.5-71.5,78.2l-7-78.2V-73.2z"/>
		</g>
		<g>
			<text transform="matrix(1 0 0 1 160.3008 9.8063)" class="st2 st3 st4">631</text>
		</g>
		<g>
			<text transform="matrix(1 0 0 1 238.7021 6.2897)" class="st2 st3 st4">596</text>
		</g>
	</g>
</g>
<g id="Layer_3">
	<g transform="translate(133.33333333333334,133.33333333333334)">
		<g>
			<path class="st8" d="M-43.4,13.9c2.7,0,4.9,2.2,4.9,4.9s-2.2,4.9-4.9,4.9c-2.7,0-4.9-2.2-4.9-4.9S-46.1,13.9-43.4,13.9z"/>
		</g>
		<g>
			<text transform="matrix(1 0 0 1 -59.4964 19.8664)" class="st2 st3 st4">5</text>
		</g>
	</g>
	<g transform="translate(400,133.33333333333334)">
		<g>
			<path class="st7" d="M-23.6,48.8c-4.1,2-8.9,0.2-10.9-3.8s-0.2-8.9,3.8-10.9c1.1-0.5,2.3-0.8,3.5-0.8v8.2L-23.6,48.8z"/>
		</g>
		<g>
			<path class="st8" d="M-27.2,33.3c4.5,0,8.2,3.7,8.2,8.2c0,3.1-1.8,6-4.6,7.4l-3.5-7.4V33.3z"/>
		</g>
		<g>
			<text transform="matrix(1 0 0 1 -47.2256 41.0119)" class="st2 st3 st4">8</text>
		</g>
		<g>
			<text transform="matrix(1 0 0 1 -14.2651 42.195)" class="st2 st3 st4">6</text>
		</g>
	</g>
	<g transform="translate(666.6666666666667,133.33333333333334)">
		<g>
			<path class="st7" d="M3.7,66.8C-2,68.3-7.9,64.9-9.4,59.2c-1.5-5.7,1.9-11.6,7.6-13.1c0.9-0.2,1.8-0.4,2.8-0.4v10.7L3.7,66.8z"/>
		</g>
		<g>
			<path class="st8" d="M0.9,45.8c5.9,0,10.7,4.8,10.7,10.7c0,4.8-3.3,9.1-7.9,10.3L0.9,56.5V45.8z"/>
		</g>
		<g>
			<text transform="matrix(1 0 0 1 -30.5554 55.8005)" class="st2 st3 st4">13</text>
		</g>
		<g>
			<text transform="matrix(1 0 0 1 15.1116 58.405)" class="st2 st3 st4">11</text>
		</g>
	</g>
	<g transform="translate(933.3333333333334,133.33333333333334)">
		<g>
			<path class="st7" d="M45.1,74.7c-5.6-5-6.2-13.6-1.2-19.2c2.6-2.9,6.3-4.6,10.2-4.6v13.6L45.1,74.7z"/>
		</g>
		<g>
			<path class="st8" d="M54.1,50.8c7.5,0,13.6,6.1,13.6,13.6s-6.1,13.6-13.6,13.6c-3.3,0-6.5-1.2-9-3.4l9-10.2V50.8z"/>
		</g>
		<g>
			<text transform="matrix(1 0 0 1 23.5378 60.6857)" class="st2 st3 st4">15</text>
		</g>
		<g>
			<text transform="matrix(1 0 0 1 71.4997 71.4801)" class="st2 st3 st4">24</text>
		</g>
	</g>
	<g transform="translate(1200,133.33333333333334)">
		<g>
			<path class="st7" d="M88.1,79.4C81,80.6,74.2,75.9,73,68.7c-1.3-7.1,3.5-13.9,10.6-15.2c0.8-0.1,1.5-0.2,2.3-0.2v13.1L88.1,79.4z
				"/>
		</g>
		<g>
			<path class="st8" d="M85.9,53.4c7.2,0,13.1,5.9,13.1,13.1c0,6.4-4.6,11.8-10.8,12.9l-2.3-12.9V53.4z"/>
		</g>
		<g>
			<text transform="matrix(1 0 0 1 54.1631 65.673)" class="st2 st3 st4">19</text>
		</g>
		<g>
			<text transform="matrix(1 0 0 1 101.3291 68.5324)" class="st2 st3 st4">17</text>
		</g>
	</g>
	<g transform="translate(1466.6666666666667,133.33333333333334)">
		<g>
			<path class="st7" d="M157.7,78.3c-6.6,2.5-13.9-0.7-16.5-7.3c-2.5-6.6,0.7-13.9,7.3-16.5c1.5-0.6,3-0.9,4.6-0.9v12.7L157.7,78.3z
				"/>
		</g>
		<g>
			<path class="st8" d="M153.1,53.7c7,0,12.7,5.7,12.7,12.7c0,5.3-3.2,10-8.1,11.9l-4.6-11.9V53.7z"/>
		</g>
		<g>
			<text transform="matrix(1 0 0 1 118.7025 66.2717)" class="st2 st3 st4">19</text>
		</g>
		<g>
			<text transform="matrix(1 0 0 1 169.3734 64.5324)" class="st2 st3 st4">15</text>
		</g>
	</g>
	<g transform="translate(133.33333333333334,400)">
		<g>
			<path class="st7" d="M-43.4,82c-8.4,0-15.1-6.8-15.1-15.1s6.8-15.1,15.1-15.1v15.1V82z"/>
		</g>
		<g>
			<path class="st8" d="M-43.4,51.7c8.4,0,15.1,6.8,15.1,15.1S-35.1,82-43.4,82V66.9V51.7z"/>
		</g>
		<g>
			<text transform="matrix(1 0 0 1 -78.2464 68.1934)" class="st2 st3 st4">24</text>
		</g>
		<g>
			<text transform="matrix(1 0 0 1 -24.0654 76.3154)" class="st2 st3 st4">24</text>
		</g>
	</g>
	<g transform="translate(400,400)">
		<g>
			<path class="st7" d="M-21.1,83c-7.3,3.3-15.9,0.1-19.2-7.2s-0.1-15.9,7.2-19.2c1.9-0.9,3.9-1.3,6-1.3v14.5L-21.1,83z"/>
		</g>
		<g>
			<path class="st8" d="M-27.2,55.4c8,0,14.5,6.5,14.5,14.5c0,5.7-3.3,10.8-8.5,13.2l-6-13.2V55.4z"/>
		</g>
		<g>
			<text transform="matrix(1 0 0 1 -62.4077 70.0312)" class="st2 st3 st4">25</text>
		</g>
		<g>
			<text transform="matrix(1 0 0 1 -7.4805 70.3018)" class="st2 st3 st4">19</text>
		</g>
	</g>
	<g transform="translate(666.6666666666667,400)">
		<g>
			<path class="st7" d="M-6.1,82.3c-6.9-3.9-9.3-12.6-5.5-19.5c2.5-4.5,7.3-7.3,12.5-7.3v14.3L-6.1,82.3z"/>
		</g>
		<g>
			<path class="st8" d="M0.9,55.6c7.9,0,14.3,6.4,14.3,14.3S8.8,84.2,0.9,84.2c-2.5,0-4.9-0.6-7-1.8l7-12.5V55.6z"/>
		</g>
		<g>
			<text transform="matrix(1 0 0 1 -32.1779 66.6826)" class="st2 st3 st4">18</text>
		</g>
		<g>
			<text transform="matrix(1 0 0 1 19.6664 76.3154)" class="st2 st3 st4">25</text>
		</g>
	</g>
	<g transform="translate(933.3333333333334,400)">
		<g>
			<path class="st7" d="M51,84.2c-7.9-1.1-13.4-8.5-12.3-16.4c1-7.1,7.1-12.4,14.3-12.4v14.5L51,84.2z"/>
		</g>
		<g>
			<path class="st8" d="M53.1,55.4c8,0,14.5,6.5,14.5,14.5s-6.5,14.5-14.5,14.5c-0.7,0-1.4,0-2.1-0.1l2.1-14.3V55.4z"/>
		</g>
		<g>
			<text transform="matrix(1 0 0 1 17.6901 67.9766)" class="st2 st3 st4">21</text>
		</g>
		<g>
			<text transform="matrix(1 0 0 1 70.9862 79.9847)" class="st2 st3 st4">23</text>
		</g>
	</g>
	<g transform="translate(1200,400)">
		<g>
			<path class="st7" d="M86.9,84.5C78.8,85,71.8,79,71.3,70.9c-0.6-8.1,5.5-15.1,13.6-15.6c0.3,0,0.7,0,1,0v14.6L86.9,84.5z"/>
		</g>
		<g>
			<path class="st8" d="M85.9,55.2c8.1,0,14.6,6.6,14.6,14.6c0,7.7-5.9,14.1-13.6,14.6l-1-14.6V55.2z"/>
		</g>
		<g>
			<text transform="matrix(1 0 0 1 50.3691 68.748)" class="st2 st3 st4">23</text>
		</g>
		<g>
			<text transform="matrix(1 0 0 1 105.4577 76.3154)" class="st2 st3 st4">22</text>
		</g>
	</g>
	<g transform="translate(1466.6666666666667,400)">
		<g>
			<path class="st7" d="M146.3,57.8c-7.1-3.8-9.8-12.7-6.1-19.8c2.5-4.8,7.5-7.8,12.9-7.8v14.6L146.3,57.8z"/>
		</g>
		<g>
			<path class="st8" d="M153.1,30.2c8.1,0,14.6,6.6,14.6,14.6s-6.6,14.6-14.6,14.6c-2.4,0-4.8-0.6-6.9-1.7l6.9-12.9V30.2z"/>
		</g>
		<g>
			<text transform="matrix(1 0 0 1 117.8549 41.7207)" class="st2 st3 st4">19</text>
		</g>
		<g>
			<text transform="matrix(1 0 0 1 170.3734 57.7909)" class="st2 st3 st4">26</text>
		</g>
	</g>
	<g transform="translate(133.33333333333334,666.6666666666667)">
		<g>
			<path class="st7" d="M-72.7,58.2c-6.3-5.2-7.3-14.5-2.1-20.8c2.8-3.5,7-5.5,11.5-5.5v14.8L-72.7,58.2z"/>
		</g>
		<g>
			<path class="st8" d="M-63.4,31.9c8.2,0,14.8,6.6,14.8,14.8s-6.6,14.8-14.8,14.8c-3.4,0-6.7-1.2-9.3-3.3l9.3-11.5V31.9z"/>
		</g>
		<g>
			<text transform="matrix(1 0 0 1 -98.5584 42.8568)" class="st2 st3 st4">18</text>
		</g>
		<g>
			<text transform="matrix(1 0 0 1 -46.4493 58.1884)" class="st2 st3 st4">28</text>
		</g>
	</g>
	<g transform="translate(400,666.6666666666667)">
		<g>
			<path class="st7" d="M-43.2,45.8c0.5-8.5,7.5-15.1,16-15.1v16L-43.2,45.8z"/>
		</g>
		<g>
			<path class="st8" d="M-27.2,30.7c8.9,0,16,7.2,16,16s-7.2,16-16,16s-16-7.2-16-16c0-0.3,0-0.6,0-0.9l16,0.9V30.7z"/>
		</g>
		<g>
			<text transform="matrix(1 0 0 1 -60.8389 39.5032)" class="st2 st3 st4">13</text>
		</g>
		<g>
			<text transform="matrix(1 0 0 1 -10.9994 62.7438)" class="st2 st3 st4">41</text>
		</g>
	</g>
	<g transform="translate(666.6666666666667,666.6666666666667)">
		<g>
			<path class="st7" d="M-17.3,63.8c-2.8-10.1,3.1-20.5,13.1-23.3c1.7-0.5,3.4-0.7,5.1-0.7v18.9L-17.3,63.8z"/>
		</g>
		<g>
			<path class="st8" d="M0.9,39.8c10.4,0,18.9,8.5,18.9,18.9S11.4,77.6,0.9,77.6c-8.5,0-15.9-5.6-18.2-13.8l18.2-5.1V39.8z"/>
		</g>
		<g>
			<text transform="matrix(1 0 0 1 -34.7819 51.6214)" class="st2 st3 st4">22</text>
		</g>
		<g>
			<text transform="matrix(1 0 0 1 21.4135 74.6066)" class="st2 st3 st4">53</text>
		</g>
	</g>
	<g transform="translate(933.3333333333334,666.6666666666667)">
		<g>
			<path class="st7" d="M34.4,55.9c1.4-9.3,9.3-16.1,18.7-16.1v18.9L34.4,55.9z"/>
		</g>
		<g>
			<path class="st8" d="M53.1,39.8c10.4,0,18.9,8.5,18.9,18.9s-8.5,18.9-18.9,18.9s-18.9-8.5-18.9-18.9c0-0.9,0.1-1.8,0.2-2.8
				l18.7,2.8V39.8z"/>
		</g>
		<g>
			<text transform="matrix(1 0 0 1 18.7331 50.1819)" class="st2 st3 st4">17</text>
		</g>
		<g>
			<text transform="matrix(1 0 0 1 71.4997 77.6066)" class="st2 st3 st4">58</text>
		</g>
	</g>
	<g transform="translate(1200,666.6666666666667)">
		<g>
			<path class="st7" d="M66.3,71.8C65.6,61,73.9,51.7,84.7,51.1c0.4,0,0.8,0,1.1,0v19.6L66.3,71.8z"/>
		</g>
		<g>
			<path class="st8" d="M85.9,51.1c10.8,0,19.6,8.8,19.6,19.6s-8.8,19.6-19.6,19.6c-10.4,0-19-8.1-19.6-18.5l19.6-1.1V51.1z"/>
		</g>
		<g>
			<text transform="matrix(1 0 0 1 50.543 62.595)" class="st2 st3 st4">21</text>
		</g>
		<g>
			<text transform="matrix(1 0 0 1 106.4577 88.8348)" class="st2 st3 st4">60</text>
		</g>
	</g>
	<g transform="translate(1466.6666666666667,666.6666666666667)">
		<g>
			<path class="st7" d="M136.1,76.8c-3.4-9.4,1.6-19.8,11-23.2c1.9-0.7,4-1,6.1-1v18.1L136.1,76.8z"/>
		</g>
		<g>
			<path class="st8" d="M153.1,52.6c10,0,18.1,8.1,18.1,18.1s-8.1,18.1-18.1,18.1c-7.7,0-14.5-4.8-17.1-12.1l17.1-6.1V52.6z"/>
		</g>
		<g>
			<text transform="matrix(1 0 0 1 117.5531 64.1077)" class="st2 st3 st4">21</text>
		</g>
		<g>
			<text transform="matrix(1 0 0 1 170.3734 88.8348)" class="st2 st3 st4">48</text>
		</g>
	</g>
	<g transform="translate(133.33333333333334,933.3333333333334)">
		<g>
			<path class="st7" d="M-84.7,62.7c1.5-10.6,10.6-18.4,21.3-18.4v21.5L-84.7,62.7z"/>
		</g>
		<g>
			<path class="st8" d="M-63.4,44.4c11.9,0,21.5,9.6,21.5,21.5s-9.6,21.5-21.5,21.5s-21.5-9.6-21.5-21.5c0-1,0.1-2.1,0.2-3.1
				l21.3,3.1V44.4z"/>
		</g>
		<g>
			<text transform="matrix(1 0 0 1 -95.5584 49.7549)" class="st2 st3 st4">22</text>
		</g>
		<g>
			<text transform="matrix(1 0 0 1 -46.4493 94.0792)" class="st2 st3 st4">75</text>
		</g>
	</g>
	<g transform="translate(400,933.3333333333334)">
		<g>
			<path class="st7" d="M-49.3,69.2c-0.2-12.2,9.6-22.3,21.8-22.5c0.1,0,0.2,0,0.3,0v22.1L-49.3,69.2z"/>
		</g>
		<g>
			<path class="st8" d="M-27.2,46.7C-14.9,46.7-5,56.6-5,68.9S-14.9,91-27.2,91c-12.1,0-22-9.7-22.1-21.8l22.1-0.3V46.7z"/>
		</g>
		<g>
			<text transform="matrix(1 0 0 1 -62.2271 54.7282)" class="st2 st3 st4">26</text>
		</g>
		<g>
			<text transform="matrix(1 0 0 1 -9.9994 96.4343)" class="st2 st3 st4">77</text>
		</g>
	</g>
	<g transform="translate(666.6666666666667,933.3333333333334)">
		<g>
			<path class="st7" d="M-19.6,82.1c-1.8-11.4,6-22,17.3-23.8c1.1-0.2,2.1-0.3,3.2-0.3v20.8L-19.6,82.1z"/>
		</g>
		<g>
			<path class="st8" d="M0.9,58.1c11.5,0,20.8,9.3,20.8,20.8S12.4,99.7,0.9,99.7c-10.3,0-19-7.5-20.6-17.6l20.6-3.2V58.1z"/>
		</g>
		<g>
			<text transform="matrix(1 0 0 1 -35.1642 70.7302)" class="st2 st3 st4">25</text>
		</g>
		<g>
			<text transform="matrix(1 0 0 1 22.4135 96.4343)" class="st2 st3 st4">66</text>
		</g>
	</g>
	<g transform="translate(933.3333333333334,933.3333333333334)">
		<g>
			<path class="st7" d="M32.7,78.1c-2.9-11.3,3.8-22.7,15.1-25.6c1.7-0.4,3.5-0.7,5.3-0.7v21L32.7,78.1z"/>
		</g>
		<g>
			<path class="st8" d="M53.1,51.8c11.6,0,21,9.4,21,21s-9.4,21-21,21c-9.6,0-18-6.5-20.4-15.8l20.4-5.3V51.8z"/>
		</g>
		<g>
			<text transform="matrix(1 0 0 1 16.5905 65.0573)" class="st2 st3 st4">27</text>
		</g>
		<g>
			<text transform="matrix(1 0 0 1 76.4997 91.0191)" class="st2 st3 st4">66</text>
		</g>
	</g>
	<g transform="translate(1200,933.3333333333334)">
		<g>
			<path class="st7" d="M67.2,86.8C62.9,76.5,67.7,64.6,78,60.2c2.5-1.1,5.2-1.6,7.9-1.6v20.2L67.2,86.8z"/>
		</g>
		<g>
			<path class="st8" d="M85.9,58.6c11.2,0,20.2,9.1,20.2,20.2S97,99.1,85.9,99.1c-8.1,0-15.5-4.9-18.6-12.3l18.6-7.9V58.6z"/>
		</g>
		<g>
			<text transform="matrix(1 0 0 1 49.248 71.9157)" class="st2 st3 st4">27</text>
		</g>
		<g>
			<text transform="matrix(1 0 0 1 109.7168 99.109)" class="st2 st3 st4">59</text>
		</g>
	</g>
</g>
<g id="year">
	<g>
		<text transform="matrix(1 0 0 1 98.3875 578.8885)" class="st9 st3 st10">1931</text>
		<text transform="matrix(1 0 0 1 400.3544 578.8885)" class="st9 st3 st10">1932</text>
		<text transform="matrix(1 0 0 1 701.3212 578.8885)" class="st9 st3 st10">1933</text>
		<text transform="matrix(1 0 0 1 99.7273 836.5993)" class="st9 st3 st10">1937</text>
		<text transform="matrix(1 0 0 1 401.3411 836.5993)" class="st9 st3 st10">1938</text>
		<text transform="matrix(1 0 0 1 701.9551 836.5993)" class="st9 st3 st10">1939</text>
		<text transform="matrix(1 0 0 1 1027.1963 300.1017)" class="st9 st3 st10">1928</text>
		<text transform="matrix(1 0 0 1 1320.8992 300.1017)" class="st9 st3 st10">1929</text>
		<text transform="matrix(1 0 0 1 1650.6025 300.1017)" class="st9 st3 st10">1930</text>
		<text transform="matrix(1 0 0 1 1026.2878 578.8883)" class="st9 st3 st10">1934</text>
		<text transform="matrix(1 0 0 1 1320.2552 578.8883)" class="st9 st3 st10">1935</text>
		<text transform="matrix(1 0 0 1 1650.2227 578.8883)" class="st9 st3 st10">1936</text>
		<text transform="matrix(1 0 0 1 1026.5691 836.5988)" class="st9 st3 st10">1940</text>
		<text transform="matrix(1 0 0 1 1320.1835 836.5988)" class="st9 st3 st10">1941</text>
		<text transform="matrix(1 0 0 1 98.7476 57.5815)" class="st9 st3 st10">1919</text>
		<text transform="matrix(1 0 0 1 400.6065 57.5815)" class="st9 st3 st10">1920</text>
		<text transform="matrix(1 0 0 1 701.4653 57.5815)" class="st9 st3 st10">1921</text>
		<text transform="matrix(1 0 0 1 1026.3245 57.5815)" class="st9 st3 st10">1922</text>
		<text transform="matrix(1 0 0 1 1320.1835 57.5815)" class="st9 st3 st10">1923</text>
		<text transform="matrix(1 0 0 1 1650.042 57.5815)" class="st9 st3 st10">1924</text>
		<text transform="matrix(1 0 0 1 100.0874 300.1017)" class="st9 st3 st10">1925</text>
		<text transform="matrix(1 0 0 1 401.7908 300.1017)" class="st9 st3 st10">1926</text>
		<text transform="matrix(1 0 0 1 702.4934 300.1017)" class="st9 st3 st10">1927</text>
	</g>
</g>
<g id="Layer_4">
	<g transform="translate(2,5)">
		<g>
			<text transform="matrix(1 0 0 1 1541.4901 999.3605)" class="st11"><tspan x="0" y="0" class="st12 st3 st10">renewed </tspan><tspan x="0" y="20" class="st12 st13 st10">members</tspan></text>
		</g>
	</g>
	<g transform="translate(2,5)">
		<g>
			<text transform="matrix(1 0 0 1 1739.0708 999.3607)" class="st11"><tspan x="0" y="0" class="st12 st3 st10">new </tspan><tspan x="0" y="20" class="st12 st13 st10">members</tspan></text>
		</g>
	</g>
	<g transform="translate(2,5)">
		<g>
			<text transform="matrix(1 0 0 1 1739.0712 947.1917)" class="st11"><tspan x="0" y="0" class="st14 st3 st10">new </tspan><tspan x="0" y="20" class="st14 st13 st10">borrowers</tspan></text>
		</g>
	</g>
	<g transform="translate(2,5)">
		<g>
			<text transform="matrix(1 0 0 1 1541.4901 947.1919)" class="st11"><tspan x="0" y="0" class="st14 st3 st10">renewed </tspan><tspan x="0" y="20" class="st14 st13 st10">borrowers</tspan></text>
		</g>
	</g>
	<g transform="translate(2,5)">
		<g>
			<text transform="matrix(1 0 0 1 1541.4904 896.7424)" class="st11"><tspan x="0" y="0" class="st9 st13 st10">borrowing events</tspan><tspan x="0" y="20" class="st9 st3 st10">renewed members</tspan></text>
		</g>
	</g>
	<g transform="translate(2,5)">
		<g>
			<text transform="matrix(1 0 0 1 1739.0708 896.7433)" class="st11"><tspan x="0" y="0" class="st9 st13 st10">borrowing events</tspan><tspan x="0" y="20" class="st9 st3 st10">new members</tspan></text>
		</g>
	</g>
	<path class="st1" d="M1718.1,994.2c0-0.6,0.5-1.1,1.1-1.1h10.8c0.6,0,1.1,0.5,1.1,1.1v10.8c0,0.6-0.5,1.1-1.1,1.1h-10.8
		c-0.6,0-1.1-0.5-1.1-1.1V994.2z"/>
	<path class="st0" d="M1522.4,995.2c0-0.6,0.5-1.1,1.1-1.1h10.8c0.6,0,1.1,0.5,1.1,1.1v10.8c0,0.6-0.5,1.1-1.1,1.1h-10.8
		c-0.6,0-1.1-0.5-1.1-1.1V995.2z"/>
	<path class="st8" d="M1718.1,943c0-0.6,0.5-1.1,1.1-1.1h10.8c0.6,0,1.1,0.5,1.1,1.1v10.8c0,0.6-0.5,1.1-1.1,1.1h-10.8
		c-0.6,0-1.1-0.5-1.1-1.1V943z"/>
	<path class="st7" d="M1522.4,944c0-0.6,0.5-1.1,1.1-1.1h10.8c0.6,0,1.1,0.5,1.1,1.1v10.8c0,0.6-0.5,1.1-1.1,1.1h-10.8
		c-0.6,0-1.1-0.5-1.1-1.1V944z"/>
	<path class="st6" d="M1718.1,891.6c0-0.6,0.5-1.1,1.1-1.1h10.8c0.6,0,1.1,0.5,1.1,1.1v10.8c0,0.6-0.5,1.1-1.1,1.1h-10.8
		c-0.6,0-1.1-0.5-1.1-1.1V891.6z"/>
	<path class="st5" d="M1522.4,892.6c0-0.6,0.5-1.1,1.1-1.1h10.8c0.6,0,1.1,0.5,1.1,1.1v10.8c0,0.6-0.5,1.1-1.1,1.1h-10.8
		c-0.6,0-1.1-0.5-1.1-1.1V892.6z"/>
</g>
</svg>
