<svg width="54" height="56" viewBox="0 0 54 56" fill="none" xmlns="http://www.w3.org/2000/svg">
<path d="M26.6498 49.1826V55.9251L18.172 49.1826H26.6498Z" fill="#E8E8E8"/>
<path d="M26.6499 49.1826H26.5762V55.8127L18.2826 49.2201H26.6499V49.1826H26.5762H26.6499V49.1077H18.0246L26.6867 56V49.1077H26.6499V49.1826Z" fill="#E8E8E8"/>
<path d="M26.6498 49.1826V55.9251L35.4962 49.1826H26.6498Z" fill="#EFEFEF"/>
<path d="M26.6498 49.1826H26.576V56L35.6068 49.1077H26.576V49.1826H26.6498V49.2201H35.3488L26.6866 55.8127V49.1826H26.6498V49.2201V49.1826Z" fill="#EFEFEF"/>
<path d="M26.6498 6.85486L6.74535 25.9585L27.0184 30.0789L26.6498 6.85486Z" fill="#FCFCFC"/>
<path d="M26.6498 6.85487L26.613 6.81741L6.63483 25.9586L27.0553 30.1164L26.6867 6.74249L26.613 6.81741L26.6498 6.85487H26.5761L26.9447 30.004L6.81913 25.9211L26.6498 6.85487H26.5761H26.6498Z" fill="#EFEFEF"/>
<path d="M27.0184 30.079L26.6498 49.5572L6.74535 25.9586L27.0184 30.079Z" fill="#EAEAEA"/>
<path d="M27.0185 30.0789H26.9448L26.5762 49.4073L6.85603 26.0334L26.9816 30.1164L27.0185 30.0789H26.9448H27.0185V30.004L6.59801 25.8836L26.6867 49.6696L27.0553 30.0415L27.0185 30.004V30.0789Z" fill="#EFEFEF"/>
<path d="M26.6498 6.85486L47.2914 27.4569L27.0184 30.0789L26.6498 6.85486Z" fill="#E8E8E8"/>
<path d="M26.6498 6.85487H26.6129L47.1808 27.4194L27.0552 30.004L26.6866 6.85487H26.6498H26.6129H26.6498H26.576L26.9447 30.1164L47.3651 27.4569L26.576 6.74249V6.85487H26.6498Z" fill="#E8E8E8"/>
<path d="M26.6498 49.5572L47.2914 27.4568L27.0184 30.0789L26.6498 49.5572Z" fill="#D1D1D1"/>
<path d="M26.6498 49.5572L47.402 27.382L26.9447 30.004L26.576 49.6696L26.6498 49.5572H26.6866L27.0552 30.1164L47.144 27.4943L26.6129 49.5197L26.6498 49.5572H26.6866H26.6498Z" fill="#D6D6D6"/>
<path d="M26.6498 6.85486H6.74535V25.9585L26.6498 6.85486Z" fill="#0BFFDC"/>
<path d="M26.6498 6.85486L47.2914 27.4569V6.85486H26.6498Z" fill="#0BFFDC"/>
<path d="M47.2914 27.4568L26.6498 49.5572L47.2914 48.808V27.4568Z" fill="#0BFFDC"/>
<path d="M26.6498 49.5572L6.74535 25.9586V49.5572H26.6498Z" fill="#0BFFDC"/>
<path d="M26.6498 6.85484V0.112366L35.1276 6.85484H26.6498Z" fill="#E8E8E8"/>
<path d="M26.6498 6.85485H26.6866V0.187291L34.9802 6.77993H26.6498V6.85485H26.6866H26.6498V6.89231H35.2382L26.576 0V6.89231H26.6498V6.85485Z" fill="#E8E8E8"/>
<path d="M26.6498 6.85484V0.112366L17.8034 6.85484H26.6498Z" fill="#EFEFEF"/>
<path d="M26.6499 6.85485H26.6867V0L17.656 6.89231H26.6867V6.85485H26.6499V6.77993H17.914L26.5761 0.187291V6.85485H26.6499V6.77993V6.85485Z" fill="#FCFCFC"/>
<path d="M47.2914 27.4568H53.9262L47.2914 36.0722V27.4568Z" fill="#E8E8E8"/>
<path d="M47.2915 27.4569V27.4943H53.8157L47.3283 35.9224V27.4569H47.2915V27.4943V27.4569H47.2177V36.1846L54 27.382H47.2177V27.4569H47.2915Z" fill="#E8E8E8"/>
<path d="M47.2914 27.4569H53.9262L47.2914 18.4669V27.4569Z" fill="#EFEFEF"/>
<path d="M47.2915 27.4569V27.4943H54L47.2177 18.3171V27.4943H47.2915V27.4569H47.3283V18.5793L53.8157 27.382H47.2915V27.4569H47.3283H47.2915Z" fill="#EFEFEF"/>
<path d="M6.74539 25.9585H0.11058L6.74539 17.3431V25.9585Z" fill="#E8E8E8"/>
<path d="M6.74539 25.9585V25.8836H0.1843L6.67167 17.4555V25.9585H6.74539V25.8836V25.9585H6.78225V17.1933L0 25.996H6.78225V25.9585H6.74539Z" fill="#E8E8E8"/>
<path d="M6.74539 25.9586H0.11058L6.74539 34.9485V25.9586Z" fill="#EFEFEF"/>
<path d="M6.74539 25.9585V25.8836H0L6.78225 35.0609V25.8836H6.74539V25.9585H6.67167V34.7987L0.1843 25.996H6.74539V25.9585H6.67167H6.74539Z" fill="#EFEFEF"/>
</svg>
