<svg width="53" height="56" viewBox="0 0 53 56" fill="none" xmlns="http://www.w3.org/2000/svg">
<path d="M34.9011 31.8431V55.8864H38.6875V31.8431" fill="#05D6AE"/>
<path d="M42.5874 44.2245H42.5496V44.2623V44.3002V44.3381L42.5874 44.3002V44.2623V44.2245Z" fill="white"/>
<path d="M42.5874 44.2245H42.5496V44.2623V44.3002V44.3381L42.5874 44.3002V44.2623V44.2245Z" fill="black"/>
<path d="M41.3001 3.97569L36.0749 0.795166L31.6828 4.54364L29.2595 11.7377L28.843 19.8405L30.3576 27.3753L33.6895 32.714L38.4225 33.5092L43.1554 27.186L44.3292 13.5551L41.3001 3.97569Z" fill="#0BFFDC"/>
<path d="M35.6206 0.492188L40.0128 0.643641L35.6206 0.492188Z" fill="#0BFFDC"/>
<path d="M40.0128 0.643641L35.8857 0.908685L35.6206 0.492188H35.5828L31.7207 4.46785L40.0128 0.643641Z" fill="#0BFFDC"/>
<path d="M40.202 0.643677L48.6456 6.39892L47.2825 29.9878L42.8146 27.1859L44.2534 13.8201L41.1865 4.08925L36.1128 0.908721L40.202 0.643677Z" fill="#00EAC3"/>
<path d="M48.6458 6.51252L53.0001 17.6065L47.2827 29.95L48.6458 6.39893" fill="#05D6AE"/>
<path d="M42.8148 27.1859L47.2826 29.9499L38.4226 33.4712L42.8148 27.1859Z" fill="#05D6AE"/>
<path d="M48.6456 6.43681L41.1108 4.01355L44.1778 13.8959L48.6456 6.43681Z" fill="#05D6AE"/>
<path d="M35.5449 0.416504L35.7721 0.946592L40.2021 0.643684L35.5449 0.416504Z" fill="#05D6AE"/>
<path d="M14.123 27.2238V56H17.9094V27.2238" fill="#D6D6D6"/>
<path d="M0.113525 13.29L9.01143 13.3658L17.8715 36.3489L0.113525 13.29Z" fill="#D6D6D6"/>
<path d="M0.11359 13.2901V13.3658L8.97363 13.4415L17.7201 36.046L0.151454 13.2901H0.11359V13.3658V13.2901L0.0757269 13.3279L18.023 36.6518L9.04936 13.3279L0 13.2522L0.0757269 13.3279L0.11359 13.2901Z" fill="#D6D6D6"/>
<path d="M0.113525 13.2901L9.01143 13.3658L18.0229 0L0.113525 13.2901Z" fill="#E8E8E8"/>
<path d="M15.9785 27.2238V56H19.0076V27.2238" fill="#EFEFEF"/>
<path d="M34.0684 31.8431V55.8864H37.0974V31.8431" fill="#0BFFDC"/>
<path d="M17.9851 0L8.97363 13.2901L17.6444 36.3489L25.2928 16.4327L17.9851 0Z" fill="#EFEFEF"/>
</svg>
