<svg width="58" height="49" viewBox="0 0 58 49" fill="none" xmlns="http://www.w3.org/2000/svg">
<path fill-rule="evenodd" clip-rule="evenodd" d="M40.9997 40L15.0748 40L0 49H42.9249L57.9997 40H48.9997L40.9997 44V40Z" fill="#EAEAEA"/>
<path fill-rule="evenodd" clip-rule="evenodd" d="M15 0H58V40H49V16V6L45 8V18L41 20V40H15V0Z" fill="#E8E8E8"/>
<path d="M31 14L19 20H41.1L45 18H37V14H31Z" fill="#F1F1F1"/>
<path d="M41 6L37 8.00001H45L49 5.99997L41 6Z" fill="#F1F1F1"/>
<path d="M41 20H19V44H41V20Z" fill="#D1D1D1"/>
<path d="M45 8H37V18H45V8Z" fill="#D1D1D1"/>
</svg>
