<svg width="54" height="57" viewBox="0 0 54 57" fill="none" xmlns="http://www.w3.org/2000/svg">
<path d="M26.6497 50.1478V56.8903L18.1719 50.1478H26.6497Z" fill="#E8E8E8"/>
<path d="M26.6499 50.1478H26.5762V56.7779L18.2827 50.1853H26.6499V50.1478H26.5762H26.6499V50.0729H18.0247L26.6868 56.9652V50.0729H26.6499V50.1478Z" fill="#E8E8E8"/>
<path d="M26.6499 50.1478V56.8903L35.4963 50.1478H26.6499Z" fill="#EFEFEF"/>
<path d="M26.6496 50.1478H26.5759V56.9652L35.6066 50.0729H26.5759V50.1478H26.6496V50.1853H35.3486L26.6865 56.7779V50.1478H26.6496V50.1853V50.1478Z" fill="#EFEFEF"/>
<path d="M26.6498 7.82007L6.74536 26.9237L27.0184 31.0441L26.6498 7.82007Z" fill="#EFEFEF"/>
<path d="M26.6498 7.82005L26.6129 7.78259L6.63477 26.9237L27.0552 31.0816L26.6866 7.70767L26.6129 7.78259L26.6498 7.82005H26.5761L26.9447 30.9692L6.81907 26.8863L26.6498 7.82005H26.5761H26.6498Z" fill="#EFEFEF"/>
<path d="M27.0184 31.0441L26.6498 50.5224L6.74536 26.9237L27.0184 31.0441Z" fill="#EAEAEA"/>
<path d="M27.0184 31.0441H26.9447L26.5761 50.3726L6.85592 26.9986L26.9815 31.0816L27.0184 31.0441H26.9447H27.0184V30.9692L6.5979 26.8488L26.6866 50.6348L27.0552 31.0067L27.0184 30.9692V31.0441Z" fill="#EFEFEF"/>
<path d="M26.6499 7.82007L47.2915 28.4221L27.0185 31.0441L26.6499 7.82007Z" fill="#E8E8E8"/>
<path d="M26.6496 7.82005H26.6128L47.1807 28.3846L27.0551 30.9692L26.6865 7.82005H26.6496H26.6128H26.6496H26.5759L26.9445 31.0816L47.365 28.4221L26.5759 7.70767V7.82005H26.6496Z" fill="#E8E8E8"/>
<path d="M26.6499 50.5224L47.2915 28.4221L27.0185 31.0441L26.6499 50.5224Z" fill="#D1D1D1"/>
<path d="M26.6496 50.5224L47.4019 28.3471L26.9445 30.9692L26.5759 50.6348L26.6496 50.5224H26.6865L27.0551 31.0816L47.1438 28.4595L26.6128 50.4849L26.6496 50.5224H26.6865H26.6496Z" fill="#D6D6D6"/>
<path d="M26.6498 7.82007H6.74536V26.9237L26.6498 7.82007Z" fill="#0BFFDC"/>
<path d="M26.6499 7.82007L47.2915 28.4221V7.82007H26.6499Z" fill="#0BFFDC"/>
<path d="M47.2915 28.4221L26.6499 50.5224L47.2915 49.7732V28.4221Z" fill="#0BFFDC"/>
<path d="M26.6498 50.5224L6.74536 26.9237V50.5224H26.6498Z" fill="#0BFFDC"/>
<path d="M26.6499 7.82005V1.07758L35.1277 7.82005H26.6499Z" fill="#E8E8E8"/>
<path d="M26.6496 7.82006H26.6865V1.1525L34.98 7.74514H26.6496V7.82006H26.6865H26.6496V7.85752H35.238L26.5759 0.96521V7.85752H26.6496V7.82006Z" fill="#E8E8E8"/>
<path d="M26.6499 7.82005V1.07758L17.8035 7.82005H26.6499Z" fill="#EFEFEF"/>
<path d="M26.6499 7.82006H26.6867V0.96521L17.656 7.85752H26.6867V7.82006H26.6499V7.74514H17.914L26.5761 1.1525V7.82006H26.6499V7.74514V7.82006Z" fill="#EFEFEF"/>
<path d="M47.2915 28.4221H53.9263L47.2915 37.0374V28.4221Z" fill="#E8E8E8"/>
<path d="M47.2915 28.4221V28.4595H53.8157L47.3283 36.8876V28.4221H47.2915V28.4595V28.4221H47.2178V37.1498L54 28.3471H47.2178V28.4221H47.2915Z" fill="#E8E8E8"/>
<path d="M47.2915 28.4221H53.9263L47.2915 19.4321V28.4221Z" fill="#EFEFEF"/>
<path d="M47.2915 28.4221V28.4595H54L47.2178 19.2823V28.4595H47.2915V28.4221H47.3283V19.5445L53.8157 28.3471H47.2915V28.4221H47.3283H47.2915Z" fill="#EFEFEF"/>
<path d="M6.74541 26.9237H0.110596L6.74541 18.3083V26.9237Z" fill="#E8E8E8"/>
<path d="M6.74539 26.9237V26.8488H0.1843L6.67167 18.4207V26.9237H6.74539V26.8488V26.9237H6.78225V18.1585L0 26.9612H6.78225V26.9237H6.74539Z" fill="#E8E8E8"/>
<path d="M6.74541 26.9237H0.110596L6.74541 35.9137V26.9237Z" fill="#EFEFEF"/>
<path d="M6.74539 26.9237V26.8488H0L6.78225 36.0261V26.8488H6.74539V26.9237H6.67167V35.7639L0.1843 26.9612H6.74539V26.9237H6.67167H6.74539Z" fill="#EFEFEF"/>
</svg>
