<svg width="53" height="57" viewBox="0 0 53 57" fill="none" xmlns="http://www.w3.org/2000/svg">
<path d="M34.9011 32.8083V56.8516H38.6875V32.8083" fill="#05D6AE"/>
<path d="M42.5874 45.1897H42.5496V45.2276V45.2654V45.3033L42.5874 45.2654V45.2276V45.1897Z" fill="white"/>
<path d="M42.5874 45.1897H42.5496V45.2276V45.2654V45.3033L42.5874 45.2654V45.2276V45.1897Z" fill="black"/>
<path d="M41.3001 4.9409L36.0749 1.76038L31.6828 5.50885L29.2595 12.7029L28.843 20.8057L30.3576 28.3405L33.6895 33.6792L38.4225 34.4744L43.1554 28.1512L44.3292 14.5203L41.3001 4.9409Z" fill="#0BFFDC"/>
<path d="M35.6206 1.4574L40.0128 1.60885L35.6206 1.4574Z" fill="#0BFFDC"/>
<path d="M40.0128 1.60885L35.8857 1.8739L35.6206 1.4574H35.5828L31.7207 5.43306L40.0128 1.60885Z" fill="#0BFFDC"/>
<path d="M40.202 1.60889L48.6456 7.36413L47.2825 30.953L42.8146 28.1511L44.2534 14.7854L41.1865 5.05446L36.1128 1.87393L40.202 1.60889Z" fill="#00EAC3"/>
<path d="M48.6458 7.47773L53.0001 18.5717L47.2827 30.9152L48.6458 7.36414" fill="#05D6AE"/>
<path d="M42.8148 28.1511L47.2826 30.9152L38.4226 34.4365L42.8148 28.1511Z" fill="#05D6AE"/>
<path d="M48.6456 7.40202L41.1108 4.97876L44.1778 14.8611L48.6456 7.40202Z" fill="#05D6AE"/>
<path d="M35.5449 1.38171L35.7721 1.9118L40.2021 1.60889L35.5449 1.38171Z" fill="#05D6AE"/>
<path d="M14.123 28.189V56.9652H17.9094V28.189" fill="#D6D6D6"/>
<path d="M0.113525 14.2552L9.01143 14.331L17.8715 37.3141L0.113525 14.2552Z" fill="#D6D6D6"/>
<path d="M0.11359 14.2553V14.331L8.97363 14.4067L17.7201 37.0112L0.151454 14.2553H0.11359V14.331V14.2553L0.0757269 14.2931L18.023 37.617L9.04936 14.2931L0 14.2174L0.0757269 14.2931L0.11359 14.2553Z" fill="#D6D6D6"/>
<path d="M0.113525 14.2553L9.01143 14.331L18.0229 0.96521L0.113525 14.2553Z" fill="#E8E8E8"/>
<path d="M15.9785 28.189V56.9652H19.0076V28.189" fill="#EFEFEF"/>
<path d="M34.0684 32.8083V56.8516H37.0974V32.8083" fill="#0BFFDC"/>
<path d="M17.9851 0.96521L8.97363 14.2553L17.6444 37.3141L25.2928 17.3979L17.9851 0.96521Z" fill="#EFEFEF"/>
</svg>
