<svg width="45" height="57" viewBox="0 0 45 57" fill="none" xmlns="http://www.w3.org/2000/svg">
<path d="M42.509 0.997467H3.76904V33.6426H42.509V0.997467Z" fill="#E8E8E8"/>
<path d="M42.5419 33.6426V33.6104H3.80188V1.02973H42.4763V33.6426H42.5419V33.6104V33.6426H42.5746V0.96521H3.73633V33.6749H42.5746V33.6426H42.5419Z" fill="#E8E8E8"/>
<path d="M44.9344 56.933H0.0327148L3.76906 33.6426H42.5418L44.9344 56.933Z" fill="#EFEFEF"/>
<path d="M44.9345 56.933V56.9007H0.0983248L3.80189 33.6749H42.4763L44.9017 56.933H44.9345V56.9007V56.933H45L42.5747 33.6104H3.73634L0 56.9652H45V56.933H44.9345Z" fill="#EFEFEF"/>
<path d="M15.1421 18.3846L9.01318 33.5458H13.3395L15.1421 18.3846Z" fill="#DBDBDB"/>
<path d="M15.1422 18.3846H15.1094L8.98047 33.5781H13.3723L15.2077 18.0942L15.1094 18.3846H15.1422H15.1094L13.3068 33.5136H9.07879L15.1749 18.4168L15.1422 18.3846H15.1094H15.1422Z" fill="#D6D6D6"/>
<path d="M13.7983 33.5458H9.01318L13.3395 43.3523L13.7983 33.5458Z" fill="#D1D1D1"/>
<path d="M13.7984 33.5459V33.5136H8.98047L13.3723 43.5136L13.8312 33.5136H13.7984V33.5459H13.7328L13.3068 43.1588L9.07879 33.5781H13.7984V33.5459H13.7328H13.7984Z" fill="#D6D6D6"/>
<path d="M15.1421 18.3846L11.9629 33.5458L13.3394 43.3523L13.405 33.6426L15.1421 18.3846Z" fill="#999999"/>
<path d="M15.1421 18.3846H15.1093L11.9302 33.5458L13.2739 43.3523H13.3723L13.4378 33.6426L15.1749 18.3846H15.1093H15.1421H15.1093L13.3723 33.6426L13.3067 42.7717L12.0285 33.5458L15.1749 18.3846H15.1421H15.1093H15.1421Z" fill="#D6D6D6"/>
<path d="M31.2018 26.8039H13.405L15.2404 18.32H29.2026L31.2018 26.8039Z" fill="#F4F4F4"/>
<path d="M31.2018 26.8039H13.4377V43.32H31.2018V26.8039Z" fill="#D1D1D1"/>
<path d="M13.4378 26.8039H13.405V43.3846H31.2674V26.7717H13.405V26.8039H13.4378V26.8684H31.169V43.2878H13.4706V26.8039H13.4378V26.8684V26.8039Z" fill="#D6D6D6"/>
<path d="M30.0546 12.7071H22.3853L23.1719 9.96521H29.2024L30.0546 12.7071Z" fill="#F4F4F4"/>
<path d="M30.0546 12.7072H22.3853V20.7394H30.0546V12.7072Z" fill="#D1D1D1"/>
<path d="M22.3853 12.7072H22.3525V20.8039H30.0874V12.6749H22.3525V12.7072H22.3853V12.7717H30.0219V20.7072H22.4181V12.7072H22.3853V12.7717V12.7072Z" fill="#D6D6D6"/>
</svg>
