<svg width="916" height="933" viewBox="0 0 916 933" fill="none" xmlns="http://www.w3.org/2000/svg">
<path fill-rule="evenodd" clip-rule="evenodd" d="M124 550.82L171.913 496.5L177 507.812L146.5 542L197.31 542L197.31 550.82L124 550.82Z" fill="#F6F6F6"/>
<path fill-rule="evenodd" clip-rule="evenodd" d="M813.5 874.008L821.722 864.5L822.5 866.755L818 872.008L826.19 872.008L826.19 874.008L813.5 874.008Z" fill="#F6F6F6"/>
<path fill-rule="evenodd" clip-rule="evenodd" d="M402.22 237.969L402.22 303.761L392.22 303.761L392.22 264.367L367.963 291.789L360.473 285.164L402.22 237.969Z" fill="#F6F6F6"/>
<path fill-rule="evenodd" clip-rule="evenodd" d="M863.144 817.677L863.144 829.175L861.144 829.175L861.144 822.956L857.334 827.263L855.836 825.938L863.144 817.677Z" fill="#F6F6F6"/>
<path fill-rule="evenodd" clip-rule="evenodd" d="M585.823 551.278L585.823 64.9462L595.823 64.9462L595.823 541.278L773.394 541.278L773.394 551.278L585.823 551.278Z" fill="#F6F6F6"/>
<path fill-rule="evenodd" clip-rule="evenodd" d="M881.248 874.018L881.248 810.041L889.248 810.041L889.248 866.018L915 866.018L915 874.023L881.248 874.018Z" fill="#F6F6F6"/>
<path fill-rule="evenodd" clip-rule="evenodd" d="M404 551L344 551L344 541.64L394 541.64L394 491.64L404 491.64L404 551Z" fill="#F6F6F6"/>
<path fill-rule="evenodd" clip-rule="evenodd" d="M863 874L851 874L851 872L861 872L861 865L863 865L863 874Z" fill="#F6F6F6"/>
<path fill-rule="evenodd" clip-rule="evenodd" d="M730 930L699 930L699 922L722 922L722 886L730 886L730 930Z" fill="#F6F6F6"/>
<path fill-rule="evenodd" clip-rule="evenodd" d="M730 804L699 804L699 812L722 812L722 848L730 848L730 804Z" fill="#F6F6F6"/>
<path fill-rule="evenodd" clip-rule="evenodd" d="M635 930L666 930L666 922L643 922L643 886L635 886L635 930Z" fill="#F6F6F6"/>
<path fill-rule="evenodd" clip-rule="evenodd" d="M635 804L666 804L666 812L643 812L643 848L635 848L635 804Z" fill="#F6F6F6"/>
<path fill-rule="evenodd" clip-rule="evenodd" d="M585 735.64H774V745.64H595V930H585V735.64Z" fill="#F6F6F6"/>
<path fill-rule="evenodd" clip-rule="evenodd" d="M882 900H915V908H890V930H882V900Z" fill="#F6F6F6"/>
<path fill-rule="evenodd" clip-rule="evenodd" d="M402.431 742.273L402.431 930L392.431 930L392.431 752.273L1.00026 752.274L1.00025 742.274L402.431 742.273Z" fill="#F6F6F6"/>
<path fill-rule="evenodd" clip-rule="evenodd" d="M863.495 900L863.497 929.995L855.364 929.995L855.364 908L815.694 908L815.694 900L863.495 900Z" fill="#F6F6F6"/>
<path fill-rule="evenodd" clip-rule="evenodd" d="M796.788 874.926L857.357 781.82L850.651 777.458L789.997 870.695L767.597 908H798.159V900H782.048L796.788 874.926Z" fill="#F6F6F6"/>
<mask id="mask0" mask-type="alpha" maskUnits="userSpaceOnUse" x="1" y="0" width="344" height="463">
<rect width="344" height="463" transform="matrix(-1 0 0 1 345 0)" fill="#F6F6F6"/>
</mask>
<g mask="url(#mask0)">
<path fill-rule="evenodd" clip-rule="evenodd" d="M412.575 -73.8585L8.63797 432.428L0.82109 426.191L404.758 -80.0952L412.575 -73.8585Z" fill="#F6F6F6"/>
</g>
</svg>
