<svg width="674" height="752" viewBox="0 0 674 752" fill="none" xmlns="http://www.w3.org/2000/svg">
<path fill-rule="evenodd" clip-rule="evenodd" d="M469 655L492.5 655L492.5 663L477 663L477 689L469 689L469 655Z" fill="#F6F6F6"/>
<path fill-rule="evenodd" clip-rule="evenodd" d="M90 473.5L126.792 432.398L133 439.964L112.5 463.5L146.537 463.5L146.538 473.5L90 473.5Z" fill="#F6F6F6"/>
<path fill-rule="evenodd" clip-rule="evenodd" d="M596 710L602.5 702.572L603.5 704.304L600.5 707.773L605.948 707.773L605.948 710L596 710Z" fill="#F6F6F6"/>
<path fill-rule="evenodd" clip-rule="evenodd" d="M299.5 239.339L299.5 291.077L289.2 291.077L289.2 265.737L273.762 283.19L266.272 276.564L299.5 239.339Z" fill="#F6F6F6"/>
<path fill-rule="evenodd" clip-rule="evenodd" d="M634.5 666.962L634.5 676.093L632.285 676.093L632.285 672.242L629.961 674.869L628.463 673.544L634.5 666.962Z" fill="#F6F6F6"/>
<path fill-rule="evenodd" clip-rule="evenodd" d="M430.214 473.791L430.214 116.077L440.214 116.077L440.214 463.791L568.999 463.791L568.999 473.791L430.214 473.791Z" fill="#F6F6F6"/>
<path fill-rule="evenodd" clip-rule="evenodd" d="M646.965 710.026L646.965 662.076L654.965 662.076L654.965 702.026L673 702.026L673 710.027L646.965 710.026Z" fill="#F6F6F6"/>
<path fill-rule="evenodd" clip-rule="evenodd" d="M299.5 473.577L255 473.577L255 463.577L289.5 463.577L289.5 429.077L299.5 429.077L299.5 473.577Z" fill="#F6F6F6"/>
<path fill-rule="evenodd" clip-rule="evenodd" d="M634.5 710L626.5 710L626.5 708L632.5 708L632.5 703L634.5 703L634.5 710Z" fill="#F6F6F6"/>
<path fill-rule="evenodd" clip-rule="evenodd" d="M538 750L514.5 750L514.5 742L530 742L530 716L538 716L538 750Z" fill="#F6F6F6"/>
<path fill-rule="evenodd" clip-rule="evenodd" d="M538 655L514.5 655L514.5 663L530 663L530 689L538 689L538 655Z" fill="#F6F6F6"/>
<path fill-rule="evenodd" clip-rule="evenodd" d="M469 750L492.5 750L492.5 742L477 742L477 716L469 716L469 750Z" fill="#F6F6F6"/>
<path fill-rule="evenodd" clip-rule="evenodd" d="M430 606.077H569.5V616.077H440V749.5H430V606.077Z" fill="#F6F6F6"/>
<path fill-rule="evenodd" clip-rule="evenodd" d="M647.5 726.5H673V734.5H655.5V749.5H647.5V726.5Z" fill="#F6F6F6"/>
<path fill-rule="evenodd" clip-rule="evenodd" d="M299.499 611.078L299.499 749.5L289.499 749.5L289.499 621.078L21.9999 621.078L21.9999 611.078L299.499 611.078Z" fill="#F6F6F6"/>
<path fill-rule="evenodd" clip-rule="evenodd" d="M636.095 726.491L636.094 749.491L628.094 749.491L628.094 734.5L599.999 734.5L599.999 726.5L636.095 726.491Z" fill="#F6F6F6"/>
<path fill-rule="evenodd" clip-rule="evenodd" d="M304.908 15.196L8.90829 386.196L1.09138 379.959L297.091 8.95936L304.908 15.196Z" fill="#F6F6F6"/>
<path fill-rule="evenodd" clip-rule="evenodd" d="M586.89 710.202L631.347 642.267L624.653 637.887L580.111 705.952L563 734.513L587 734.5V726.5H577.065L586.89 710.202Z" fill="#F6F6F6"/>
</svg>
