<svg id="Layer_1" data-name="Layer 1" xmlns="http://www.w3.org/2000/svg" viewBox="0 0 711.98 665.35"><defs><style>.cls-1{fill:#0b80ff;}.cls-2{fill:#1700f2;}.cls-11,.cls-13,.cls-3{font-size:12px;font-family:SourceSansPro-Regular, Source Sans Pro;}.cls-11,.cls-12,.cls-13,.cls-3{fill:#666;}.cls-14,.cls-3{letter-spacing:0.01em;}.cls-4{letter-spacing:-0.01em;}.cls-13,.cls-5{letter-spacing:0em;}.cls-6{letter-spacing:-0.01em;}.cls-7{letter-spacing:-0.01em;}.cls-8{fill:#52deff;}.cls-9{fill:none;stroke:#ccc;stroke-miterlimit:10;stroke-width:0.5px;}.cls-10{fill:#00ffce;}.cls-11{letter-spacing:-0.04em;}.cls-15{letter-spacing:-0.01em;}.cls-16{letter-spacing:0em;}.cls-17{letter-spacing:-0.01em;}</style></defs><title>derrida-refsbytype-chap1</title><path class="cls-1" d="M106.47,598.67H89.7v-171h16.77Z"/><path class="cls-2" d="M15.44,66.18a1.08,1.08,0,0,1,1.08-1.08h10.8a1.08,1.08,0,0,1,1.08,1.08V77a1.08,1.08,0,0,1-1.08,1.08H16.52A1.09,1.09,0,0,1,15.44,77Z"/><text class="cls-3" transform="translate(34.8 75.12)">Ci<tspan class="cls-4" x="10.04" y="0">t</tspan><tspan class="cls-5" x="13.97" y="0">a</tspan><tspan x="19.97" y="0">tion</tspan></text><text class="cls-3" transform="translate(34.78 27.48)">Qu<tspan class="cls-6" x="14.74" y="0">o</tspan><tspan class="cls-7" x="21.16" y="0">t</tspan><tspan class="cls-5" x="25.08" y="0">a</tspan><tspan x="31.08" y="0">tion</tspan></text><path class="cls-8" d="M15.44,18.53a1.08,1.08,0,0,1,1.08-1.08h10.8a1.08,1.08,0,0,1,1.08,1.08v10.8a1.08,1.08,0,0,1-1.08,1.08H16.52a1.08,1.08,0,0,1-1.08-1.08Z"/><path class="cls-9" d="M63.3,484.17h629"/><path class="cls-9" d="M63.3,598.67h629"/><path class="cls-9" d="M63.3,370.17h629"/><path class="cls-9" d="M63.3,257.17h629"/><path class="cls-9" d="M63.3,143.17h629"/><path class="cls-10" d="M81,598.67H64.25v-57H81Z"/><path class="cls-1" d="M463.61,598.67H446.84v-57h16.77Z"/><path class="cls-1" d="M310.05,541.67H293.27v-57.5h16.78Z"/><path class="cls-1" d="M259.15,484.17H242.38V370.42h16.77Z"/><path class="cls-1" d="M208.26,598.67H191.49V370.17h16.77Z"/><path class="cls-1" d="M131.92,541.67H115.15v-57.5h16.77Z"/><path class="cls-1" d="M616,598.67H599.21v-57H616Z"/><path class="cls-8" d="M131.92,598.67H115.15v-57h16.77Z"/><path class="cls-8" d="M233.71,598.67H216.93V484.17h16.78Z"/><path class="cls-8" d="M259.15,598.67H242.38v-114h16.77Z"/><path class="cls-8" d="M310.05,598.67H293.27v-57h16.78Z"/><path class="cls-8" d="M360.94,598.67H344.17v-342h16.77Z"/><path class="cls-8" d="M387,598.67H370.19v-399H387Z"/><path class="cls-8" d="M412.41,598.67H395.64V257.17h16.77Z"/><path class="cls-8" d="M437.86,598.67H421.09v-456h16.77Z"/><path class="cls-8" d="M514.2,598.67H497.43V484.17H514.2Z"/><path class="cls-1" d="M539.8,598.67H523V484.17H539.8Z"/><path class="cls-8" d="M590.54,598.67H573.77v-57h16.77Z"/><path class="cls-8" d="M641.43,598.67H624.66V484.17h16.77Z"/><path class="cls-8" d="M666.88,598.67H650.11V484.17h16.77Z"/><path class="cls-1" d="M692.32,427.67H675.55v-114h16.77Z"/><path class="cls-8" d="M692.32,598.67H675.55v-171h16.77Z"/><path class="cls-2" d="M590.54,541.67H573.77v-57.5h16.77Z"/><text class="cls-11" transform="translate(65.42 619.52)">15</text><text class="cls-11" transform="translate(41.29 487.59)">2</text><text class="cls-11" transform="translate(41.29 599.67)">0</text><text class="cls-11" transform="translate(41.29 374.17)">4</text><text class="cls-11" transform="translate(41.29 261.17)">6</text><text class="cls-11" transform="translate(41.29 146.17)">8</text><path class="cls-12" d="M313.88,651.69V642h.95l.1.79h0a5.49,5.49,0,0,1,1-.68,2.6,2.6,0,0,1,1.15-.28,2.64,2.64,0,0,1,1.16.25,2.3,2.3,0,0,1,.85.7,3.43,3.43,0,0,1,.51,1.09,5.75,5.75,0,0,1,.17,1.44,4.57,4.57,0,0,1-.24,1.54A3.59,3.59,0,0,1,319,648a2.6,2.6,0,0,1-.94.72,2.68,2.68,0,0,1-1.12.24,2.25,2.25,0,0,1-.94-.21,4.78,4.78,0,0,1-.95-.57l0,1.19v2.3ZM316.7,648a1.57,1.57,0,0,0,.77-.19,1.85,1.85,0,0,0,.62-.53,2.48,2.48,0,0,0,.4-.85,4,4,0,0,0,.15-1.13,4.67,4.67,0,0,0-.1-1,2.33,2.33,0,0,0-.31-.79,1.52,1.52,0,0,0-.56-.51,1.74,1.74,0,0,0-.82-.18,1.85,1.85,0,0,0-.88.24,5.88,5.88,0,0,0-.94.68v3.57a3,3,0,0,0,.9.56A2.36,2.36,0,0,0,316.7,648Z"/><path class="cls-12" d="M323.16,649a2,2,0,0,1-1.42-.5,1.8,1.8,0,0,1-.56-1.43,1.88,1.88,0,0,1,1-1.71,8.13,8.13,0,0,1,3.18-.84,2.7,2.7,0,0,0-.07-.63,1.6,1.6,0,0,0-.21-.54,1.16,1.16,0,0,0-.43-.39,1.54,1.54,0,0,0-.69-.14,2.78,2.78,0,0,0-1.11.22,6.12,6.12,0,0,0-.92.5l-.45-.79a6.91,6.91,0,0,1,1.16-.6,3.91,3.91,0,0,1,1.51-.29,2.1,2.1,0,0,1,1.81.77,3.37,3.37,0,0,1,.56,2v4.18h-.95l-.1-.82h0a5.49,5.49,0,0,1-1.05.7A2.66,2.66,0,0,1,323.16,649Zm.34-.92a2,2,0,0,0,.92-.23,4.53,4.53,0,0,0,.93-.68v-1.89a9.81,9.81,0,0,0-1.44.27,3.85,3.85,0,0,0-.94.36,1.4,1.4,0,0,0-.51.48,1.15,1.15,0,0,0-.16.6,1,1,0,0,0,.35.84A1.38,1.38,0,0,0,323.5,648.06Z"/><path class="cls-12" d="M331.09,652a5.08,5.08,0,0,1-1.15-.12,3,3,0,0,1-.89-.35,1.66,1.66,0,0,1-.57-.58,1.42,1.42,0,0,1-.21-.78,1.44,1.44,0,0,1,.27-.83,2.75,2.75,0,0,1,.73-.71v-.06a1.32,1.32,0,0,1-.43-.42,1.23,1.23,0,0,1-.17-.68,1.24,1.24,0,0,1,.23-.76,2.18,2.18,0,0,1,.51-.5v-.06a2.74,2.74,0,0,1-.61-.75,2.11,2.11,0,0,1-.27-1.08,2.34,2.34,0,0,1,.2-1,2.22,2.22,0,0,1,.55-.76,2.42,2.42,0,0,1,.82-.49,2.94,2.94,0,0,1,1-.17,2.87,2.87,0,0,1,.52,0l.44.12h2.37v.88H333a2,2,0,0,1,.4.61,1.86,1.86,0,0,1,.16.79,2.4,2.4,0,0,1-.2,1,2,2,0,0,1-.53.74,2.4,2.4,0,0,1-.79.47,2.83,2.83,0,0,1-1,.17,2.37,2.37,0,0,1-.52-.06,2,2,0,0,1-.5-.18,1.45,1.45,0,0,0-.31.35.76.76,0,0,0-.13.46.69.69,0,0,0,.25.54,1.58,1.58,0,0,0,1,.21h1.31a3.33,3.33,0,0,1,1.79.38,1.38,1.38,0,0,1,.59,1.24,1.78,1.78,0,0,1-.24.9,2.2,2.2,0,0,1-.68.75,3.33,3.33,0,0,1-1.09.51A4.85,4.85,0,0,1,331.09,652Zm.17-.8a3.42,3.42,0,0,0,.88-.11,2.53,2.53,0,0,0,.68-.31,1.67,1.67,0,0,0,.44-.44,1,1,0,0,0,.15-.52.66.66,0,0,0-.35-.66,2.27,2.27,0,0,0-1-.18h-1.18l-.42,0a3.4,3.4,0,0,1-.46-.09,1.74,1.74,0,0,0-.53.56,1.17,1.17,0,0,0-.17.58,1,1,0,0,0,.53.87A2.71,2.71,0,0,0,331.26,651.15Zm-.17-5.26a1.38,1.38,0,0,0,1-.43,1.48,1.48,0,0,0,.32-.51,2.06,2.06,0,0,0,.11-.68,1.55,1.55,0,0,0-.42-1.17,1.45,1.45,0,0,0-2,0,1.55,1.55,0,0,0-.42,1.17,1.83,1.83,0,0,0,.11.68,1.45,1.45,0,0,0,.31.51,1.59,1.59,0,0,0,.46.32A1.51,1.51,0,0,0,331.09,645.89Z"/><path class="cls-12" d="M338.55,649a3.39,3.39,0,0,1-1.28-.24,3.08,3.08,0,0,1-1-.7,3.27,3.27,0,0,1-.69-1.11,4.14,4.14,0,0,1-.25-1.5,4,4,0,0,1,.26-1.51,3.46,3.46,0,0,1,.68-1.12,2.93,2.93,0,0,1,1-.71,2.77,2.77,0,0,1,1.13-.25,2.89,2.89,0,0,1,1.16.23,2.25,2.25,0,0,1,.85.64,2.93,2.93,0,0,1,.52,1,4.17,4.17,0,0,1,.19,1.32c0,.12,0,.24,0,.35a2,2,0,0,1,0,.3h-4.59a2.64,2.64,0,0,0,.68,1.73,2.09,2.09,0,0,0,1.59.64,2.57,2.57,0,0,0,.9-.15,3.38,3.38,0,0,0,.79-.38l.41.75a5.71,5.71,0,0,1-1,.49A3.49,3.49,0,0,1,338.55,649Zm-2.14-4.11h3.64a2.48,2.48,0,0,0-.44-1.58,1.52,1.52,0,0,0-1.24-.54,1.77,1.77,0,0,0-.69.14,1.87,1.87,0,0,0-.6.42,2.24,2.24,0,0,0-.44.66A3,3,0,0,0,336.41,644.87Z"/><path class="cls-12" d="M345.82,648.82V642h.95l.1,1h0a5.62,5.62,0,0,1,1-.82,2.33,2.33,0,0,1,1.25-.33,1.82,1.82,0,0,1,1.57.68,3.23,3.23,0,0,1,.5,2v4.32h-1.15v-4.16a2.45,2.45,0,0,0-.3-1.39,1.13,1.13,0,0,0-1-.43,1.72,1.72,0,0,0-.94.26,6.33,6.33,0,0,0-.93.79v4.93Z"/><path class="cls-12" d="M355.6,649a1.84,1.84,0,0,1-1.59-.67,3.34,3.34,0,0,1-.49-2V642h1.16v4.16a2.47,2.47,0,0,0,.3,1.39,1.09,1.09,0,0,0,1,.43,1.65,1.65,0,0,0,.94-.27,4.54,4.54,0,0,0,.9-.88V642h1.14v6.81H358l-.1-1.07h0a4.6,4.6,0,0,1-1,.9A2.27,2.27,0,0,1,355.6,649Z"/><path class="cls-12" d="M361.37,648.82V642h.95l.1,1h0a5,5,0,0,1,1-.82,2.14,2.14,0,0,1,1.15-.33,1.93,1.93,0,0,1,1.22.35,2,2,0,0,1,.65,1,5.71,5.71,0,0,1,1.07-.95,2.07,2.07,0,0,1,1.17-.36,1.83,1.83,0,0,1,1.56.68,3.23,3.23,0,0,1,.51,2v4.32h-1.14v-4.16a2.44,2.44,0,0,0-.31-1.39,1.1,1.1,0,0,0-.95-.43,2.5,2.5,0,0,0-1.71,1v4.93H365.5v-4.16a2.36,2.36,0,0,0-.31-1.39,1.09,1.09,0,0,0-1-.43,2.5,2.5,0,0,0-1.71,1v4.93Z"/><path class="cls-12" d="M376.13,649a2.3,2.3,0,0,1-1-.23,3.62,3.62,0,0,1-1-.63h0l-.1.7h-.92v-10h1.14v2.71l0,1.24a4.53,4.53,0,0,1,1-.68,2.54,2.54,0,0,1,1.12-.28,2.72,2.72,0,0,1,1.17.25,2.35,2.35,0,0,1,.84.7,3.24,3.24,0,0,1,.52,1.09,5.26,5.26,0,0,1,.18,1.42,4.73,4.73,0,0,1-.24,1.56,3.72,3.72,0,0,1-.65,1.16,2.66,2.66,0,0,1-.93.72A2.72,2.72,0,0,1,376.13,649Zm-.2-1a1.61,1.61,0,0,0,.78-.19,1.92,1.92,0,0,0,.61-.53,2.49,2.49,0,0,0,.41-.85,4,4,0,0,0,.15-1.13,5.37,5.37,0,0,0-.1-1,2.34,2.34,0,0,0-.32-.79,1.45,1.45,0,0,0-.56-.51,1.74,1.74,0,0,0-.82-.18,2.87,2.87,0,0,0-1.82.92v3.57a2.84,2.84,0,0,0,.89.56A2.57,2.57,0,0,0,375.93,648Z"/><path class="cls-12" d="M383.76,649a3.44,3.44,0,0,1-1.29-.24,3,3,0,0,1-1-.7,3,3,0,0,1-.69-1.11,4.14,4.14,0,0,1-.26-1.5,4.23,4.23,0,0,1,.26-1.51,3.48,3.48,0,0,1,.69-1.12,2.89,2.89,0,0,1,1-.71,2.79,2.79,0,0,1,1.14-.25,2.84,2.84,0,0,1,1.15.23,2.18,2.18,0,0,1,.85.64,3,3,0,0,1,.53,1,4.48,4.48,0,0,1,.18,1.32c0,.12,0,.24,0,.35a1.26,1.26,0,0,1,0,.3h-4.59a2.59,2.59,0,0,0,.68,1.73,2.06,2.06,0,0,0,1.58.64,2.67,2.67,0,0,0,.91-.15,3.58,3.58,0,0,0,.79-.38l.41.75a5.47,5.47,0,0,1-1,.49A3.43,3.43,0,0,1,383.76,649Zm-2.15-4.11h3.64a2.42,2.42,0,0,0-.44-1.58,1.51,1.51,0,0,0-1.24-.54,1.81,1.81,0,0,0-.69.14,1.73,1.73,0,0,0-.59.42,2.26,2.26,0,0,0-.45.66A3.29,3.29,0,0,0,381.61,644.87Z"/><path class="cls-12" d="M388.08,648.82V642H389l.1,1.23h0a3.33,3.33,0,0,1,.85-1,1.76,1.76,0,0,1,1.08-.38,1.83,1.83,0,0,1,.73.14l-.22,1-.31-.08a1.69,1.69,0,0,0-.35,0,1.53,1.53,0,0,0-.9.35,2.76,2.76,0,0,0-.82,1.22v4.37Z"/><path class="cls-12" d="M394.8,649a3.57,3.57,0,0,1-1.38-.26,4.29,4.29,0,0,1-1.15-.67l.57-.77a4.85,4.85,0,0,0,.92.58,2.45,2.45,0,0,0,1.08.23,1.42,1.42,0,0,0,1-.31,1,1,0,0,0,.34-.76.81.81,0,0,0-.14-.46,1.67,1.67,0,0,0-.36-.34,2.6,2.6,0,0,0-.5-.26l-.56-.22c-.24-.09-.48-.18-.73-.29a3.5,3.5,0,0,1-.65-.39,2.13,2.13,0,0,1-.46-.54,1.36,1.36,0,0,1-.19-.74,2,2,0,0,1,.16-.77,1.85,1.85,0,0,1,.47-.61A2.07,2.07,0,0,1,394,642a3.2,3.2,0,0,1,2.16.08,3.79,3.79,0,0,1,.93.54l-.54.73a3.88,3.88,0,0,0-.73-.43,2,2,0,0,0-.82-.17,1.35,1.35,0,0,0-.95.29,1,1,0,0,0-.3.69.63.63,0,0,0,.13.41,1.1,1.1,0,0,0,.33.31,2.69,2.69,0,0,0,.48.24l.57.22.74.29a2.56,2.56,0,0,1,.66.39,1.73,1.73,0,0,1,.48.56,1.62,1.62,0,0,1,.19.81,1.89,1.89,0,0,1-.16.79,1.83,1.83,0,0,1-.47.64,2.16,2.16,0,0,1-.79.44A3.21,3.21,0,0,1,394.8,649Z"/><path class="cls-12" d="M24.42,395.45H17.61v-1l1-.09v0a5.62,5.62,0,0,1-.82-1,2.31,2.31,0,0,1-.33-1.25,1.82,1.82,0,0,1,.68-1.57,3.3,3.3,0,0,1,2-.5h4.32v1.15H20.26a2.36,2.36,0,0,0-1.39.31,1.11,1.11,0,0,0-.43,1,1.71,1.71,0,0,0,.26.93,6.33,6.33,0,0,0,.79.93h4.93Z"/><path class="cls-12" d="M24.58,385.66a1.84,1.84,0,0,1-.67,1.59,3.34,3.34,0,0,1-2,.5H17.61v-1.17h4.16a2.47,2.47,0,0,0,1.39-.3,1.09,1.09,0,0,0,.43-1,1.65,1.65,0,0,0-.27-.94,4.54,4.54,0,0,0-.88-.89H17.61v-1.15h6.81v.95l-1.07.1v0a4.6,4.6,0,0,1,.9,1A2.27,2.27,0,0,1,24.58,385.66Z"/><path class="cls-12" d="M24.42,379.89H17.61v-.95l1-.1v0a5,5,0,0,1-.82-1,2.1,2.1,0,0,1-.33-1.14,1.94,1.94,0,0,1,.35-1.23,2,2,0,0,1,1-.65,5.41,5.41,0,0,1-.95-1.07,2.07,2.07,0,0,1-.36-1.17,1.83,1.83,0,0,1,.68-1.56,3.23,3.23,0,0,1,2-.51h4.32v1.15H20.26a2.45,2.45,0,0,0-1.39.3,1.1,1.1,0,0,0-.43,1,2.51,2.51,0,0,0,1,1.7h4.93v1.15H20.26a2.36,2.36,0,0,0-1.39.31,1.11,1.11,0,0,0-.43,1,2.51,2.51,0,0,0,1,1.7h4.93Z"/><path class="cls-12" d="M24.58,365.14a2.29,2.29,0,0,1-.23,1,3.62,3.62,0,0,1-.63,1v0l.7.1v.93h-10V367h2.71l1.24,0a4.48,4.48,0,0,1-.68-1,2.54,2.54,0,0,1-.28-1.12,2.64,2.64,0,0,1,.25-1.16,2.3,2.3,0,0,1,.7-.85,3.24,3.24,0,0,1,1.09-.52,5.27,5.27,0,0,1,1.42-.17,5,5,0,0,1,1.56.23,3.72,3.72,0,0,1,1.16.65,2.6,2.6,0,0,1,.72.94A2.65,2.65,0,0,1,24.58,365.14Zm-1,.19a1.73,1.73,0,0,0-.19-.78,1.92,1.92,0,0,0-.53-.61,2.69,2.69,0,0,0-.85-.41,4,4,0,0,0-1.13-.14,5.41,5.41,0,0,0-1,.09,2.34,2.34,0,0,0-.79.32,1.45,1.45,0,0,0-.51.56,1.74,1.74,0,0,0-.18.82,2.85,2.85,0,0,0,.92,1.82H22.9a3,3,0,0,0,.56-.89A2.52,2.52,0,0,0,23.62,365.33Z"/><path class="cls-12" d="M24.58,357.51a3.43,3.43,0,0,1-.24,1.28,3,3,0,0,1-.7,1,3.23,3.23,0,0,1-1.11.7,4.37,4.37,0,0,1-1.5.25,4.23,4.23,0,0,1-1.51-.26,3.31,3.31,0,0,1-1.12-.69,2.89,2.89,0,0,1-.71-1,2.77,2.77,0,0,1-.25-1.13,2.86,2.86,0,0,1,.23-1.16,2.25,2.25,0,0,1,.64-.85,3,3,0,0,1,1-.53,4.48,4.48,0,0,1,1.32-.18H21a1.26,1.26,0,0,1,.3,0v4.59A2.59,2.59,0,0,0,23,359a2.06,2.06,0,0,0,.64-1.58,2.67,2.67,0,0,0-.15-.91,4.09,4.09,0,0,0-.38-.79l.75-.4a5.37,5.37,0,0,1,.49,1A3.45,3.45,0,0,1,24.58,357.51Zm-4.11,2.14V356a2.42,2.42,0,0,0-1.58.44,1.51,1.51,0,0,0-.54,1.24,1.81,1.81,0,0,0,.14.69,1.87,1.87,0,0,0,.42.6,2.45,2.45,0,0,0,.66.44A3.29,3.29,0,0,0,20.47,359.65Z"/><path class="cls-12" d="M24.42,353.18H17.61v-.95l1.23-.1v0a3.22,3.22,0,0,1-1-.85,1.76,1.76,0,0,1-.38-1.08,1.86,1.86,0,0,1,.14-.73l1,.22a2.37,2.37,0,0,0-.08.31,1.69,1.69,0,0,0,0,.35,1.53,1.53,0,0,0,.35.9,2.68,2.68,0,0,0,1.22.82h4.37Z"/><path class="cls-12" d="M24.58,342.6a3.15,3.15,0,0,1-.23,1.19,2.79,2.79,0,0,1-.7,1,3.39,3.39,0,0,1-1.12.7,4.14,4.14,0,0,1-1.5.26,4.21,4.21,0,0,1-1.52-.26,3.66,3.66,0,0,1-1.13-.7,2.79,2.79,0,0,1-.7-1,3,3,0,0,1-.24-1.19,3.06,3.06,0,0,1,.24-1.2,2.88,2.88,0,0,1,.7-1,3.46,3.46,0,0,1,1.13-.69,4,4,0,0,1,1.52-.26,3.93,3.93,0,0,1,1.5.26,3.22,3.22,0,0,1,1.12.69,2.88,2.88,0,0,1,.7,1A3.24,3.24,0,0,1,24.58,342.6Zm-.95,0a1.66,1.66,0,0,0-.19-.8,1.74,1.74,0,0,0-.53-.62,2.33,2.33,0,0,0-.82-.4,3.53,3.53,0,0,0-1.06-.14,3.6,3.6,0,0,0-1.07.14,2.43,2.43,0,0,0-.84.4,1.88,1.88,0,0,0-.54.62,1.77,1.77,0,0,0-.18.8,1.73,1.73,0,0,0,.18.79,1.91,1.91,0,0,0,.54.63,2.85,2.85,0,0,0,.84.4,4,4,0,0,0,1.07.14,3.89,3.89,0,0,0,1.06-.14,2.73,2.73,0,0,0,.82-.4,1.77,1.77,0,0,0,.53-.63A1.62,1.62,0,0,0,23.63,342.6Z"/><path class="cls-12" d="M24.42,337.32H18.55v.92h-.87l-.07-.92H16.53a2.57,2.57,0,0,1-1.65-.48,1.84,1.84,0,0,1-.6-1.51,3,3,0,0,1,.06-.61,3.53,3.53,0,0,1,.16-.52l.89.25a1.76,1.76,0,0,0-.17.77c0,.63.44.95,1.31.95h1.08v-1.44h.94v1.44h5.87Z"/><path class="cls-12" d="M24.42,330.35H17.61v-1l1.23-.09v-.05a3.07,3.07,0,0,1-1-.84,1.76,1.76,0,0,1-.38-1.09,1.9,1.9,0,0,1,.14-.73l1,.23a2,2,0,0,0-.08.31,1.69,1.69,0,0,0,0,.35,1.53,1.53,0,0,0,.35.9,2.76,2.76,0,0,0,1.22.82h4.37Z"/><path class="cls-12" d="M24.58,322.73a3.35,3.35,0,0,1-.24,1.28,3.08,3.08,0,0,1-.7,1,3.37,3.37,0,0,1-1.11.69A4.14,4.14,0,0,1,21,326a4,4,0,0,1-1.51-.26,3.46,3.46,0,0,1-1.12-.68,2.93,2.93,0,0,1-.71-1,2.77,2.77,0,0,1-.25-1.13,2.81,2.81,0,0,1,.23-1.15,2.29,2.29,0,0,1,.64-.86,2.93,2.93,0,0,1,1-.52,4.47,4.47,0,0,1,1.32-.19H21l.3,0v4.59a2.64,2.64,0,0,0,1.73-.68,2.09,2.09,0,0,0,.64-1.59,2.57,2.57,0,0,0-.15-.9,3.83,3.83,0,0,0-.38-.79l.75-.41a5.47,5.47,0,0,1,.49,1A3.39,3.39,0,0,1,24.58,322.73Zm-4.11,2.14v-3.64a2.48,2.48,0,0,0-1.58.44,1.52,1.52,0,0,0-.54,1.24,1.72,1.72,0,0,0,.56,1.29,2.06,2.06,0,0,0,.66.44A2.7,2.7,0,0,0,20.47,324.87Z"/><path class="cls-12" d="M24.42,318.21H18.55v.92h-.87l-.07-.92H16.53a2.57,2.57,0,0,1-1.65-.48,1.84,1.84,0,0,1-.6-1.51,3,3,0,0,1,.06-.61,3.53,3.53,0,0,1,.16-.52l.89.25a1.76,1.76,0,0,0-.17.77c0,.63.44.95,1.31.95h1.08v-1.44h.94v1.44h5.87Z"/><path class="cls-12" d="M24.58,311.56a3.39,3.39,0,0,1-.24,1.28,3.08,3.08,0,0,1-.7,1,3.37,3.37,0,0,1-1.11.69,4.14,4.14,0,0,1-1.5.25,4,4,0,0,1-1.51-.26,3.46,3.46,0,0,1-1.12-.68,2.93,2.93,0,0,1-.71-1,2.77,2.77,0,0,1-.25-1.13,2.86,2.86,0,0,1,.23-1.16,2.25,2.25,0,0,1,.64-.85,2.93,2.93,0,0,1,1-.52,4.17,4.17,0,0,1,1.32-.19H21a2.16,2.16,0,0,1,.3,0v4.6A2.69,2.69,0,0,0,23,313a2.09,2.09,0,0,0,.64-1.59,2.57,2.57,0,0,0-.15-.9,4.18,4.18,0,0,0-.38-.8l.75-.4a5.71,5.71,0,0,1,.49,1A3.49,3.49,0,0,1,24.58,311.56Zm-4.11,2.14v-3.64a2.48,2.48,0,0,0-1.58.44,1.52,1.52,0,0,0-.54,1.24,1.77,1.77,0,0,0,.14.69,1.87,1.87,0,0,0,.42.6,2.24,2.24,0,0,0,.66.44A3,3,0,0,0,20.47,313.7Z"/><path class="cls-12" d="M24.42,307.23H17.61v-1l1.23-.1v0a3,3,0,0,1-1-.85,1.76,1.76,0,0,1-.38-1.08,1.9,1.9,0,0,1,.14-.73l1,.23a2.26,2.26,0,0,0-.08.3,1.75,1.75,0,0,0,0,.35,1.58,1.58,0,0,0,.35.91,2.85,2.85,0,0,0,1.22.82h4.37Z"/><path class="cls-12" d="M24.58,299.62a3.43,3.43,0,0,1-.24,1.28,2.94,2.94,0,0,1-.7,1,3.23,3.23,0,0,1-1.11.7,4.14,4.14,0,0,1-1.5.25,4.23,4.23,0,0,1-1.51-.26,3.31,3.31,0,0,1-1.12-.69,2.89,2.89,0,0,1-.71-1,2.77,2.77,0,0,1-.25-1.13,2.86,2.86,0,0,1,.23-1.16,2.25,2.25,0,0,1,.64-.85,3,3,0,0,1,1-.53,4.48,4.48,0,0,1,1.32-.18H21a1.26,1.26,0,0,1,.3,0v4.6a2.69,2.69,0,0,0,1.73-.68,2.09,2.09,0,0,0,.64-1.59,2.67,2.67,0,0,0-.15-.91,4.4,4.4,0,0,0-.38-.79l.75-.4a5.71,5.71,0,0,1,.49,1A3.49,3.49,0,0,1,24.58,299.62Zm-4.11,2.14v-3.64a2.48,2.48,0,0,0-1.58.44,1.51,1.51,0,0,0-.54,1.24,1.81,1.81,0,0,0,.14.69,1.87,1.87,0,0,0,.42.6,2.45,2.45,0,0,0,.66.44A3.29,3.29,0,0,0,20.47,301.76Z"/><path class="cls-12" d="M24.42,295.29H17.61v-1l1-.1v0a6,6,0,0,1-.82-1,2.36,2.36,0,0,1-.33-1.25,1.83,1.83,0,0,1,.68-1.58,3.3,3.3,0,0,1,2-.5h4.32V291H20.26a2.44,2.44,0,0,0-1.39.31,1.12,1.12,0,0,0-.43,1,1.72,1.72,0,0,0,.26.94,5.83,5.83,0,0,0,.79.92h4.93Z"/><path class="cls-12" d="M24.58,284.81a3.56,3.56,0,0,1-.23,1.26,2.74,2.74,0,0,1-.7,1,3.18,3.18,0,0,1-1.12.67A4.14,4.14,0,0,1,21,288a4,4,0,0,1-1.52-.27,3.51,3.51,0,0,1-1.13-.71,3,3,0,0,1-.7-1,3.27,3.27,0,0,1-.24-1.25,2.54,2.54,0,0,1,.24-1.15,4.55,4.55,0,0,1,.56-.84l.76.59a3.53,3.53,0,0,0-.44.62,1.64,1.64,0,0,0-.16.74,2,2,0,0,0,.18.85,2.09,2.09,0,0,0,.54.68,2.9,2.9,0,0,0,.84.44,3.59,3.59,0,0,0,1.07.16,3.23,3.23,0,0,0,1.06-.16,2.54,2.54,0,0,0,.82-.42,1.9,1.9,0,0,0,.53-.67,1.86,1.86,0,0,0,.19-.85,2,2,0,0,0-.2-.88,4.51,4.51,0,0,0-.48-.72l.77-.5a3.61,3.61,0,0,1,.63,1A2.92,2.92,0,0,1,24.58,284.81Z"/><path class="cls-12" d="M24.58,278.51a3.43,3.43,0,0,1-.24,1.28,3,3,0,0,1-.7,1,3.23,3.23,0,0,1-1.11.7,4.37,4.37,0,0,1-1.5.25,4.23,4.23,0,0,1-1.51-.26,3.31,3.31,0,0,1-1.12-.69,2.89,2.89,0,0,1-.71-1,2.77,2.77,0,0,1-.25-1.13,2.86,2.86,0,0,1,.23-1.16,2.25,2.25,0,0,1,.64-.85,3,3,0,0,1,1-.53,4.48,4.48,0,0,1,1.32-.18H21a1.26,1.26,0,0,1,.3,0v4.59A2.59,2.59,0,0,0,23,280a2.06,2.06,0,0,0,.64-1.58,2.67,2.67,0,0,0-.15-.91,4.09,4.09,0,0,0-.38-.79l.75-.4a5.37,5.37,0,0,1,.49,1A3.45,3.45,0,0,1,24.58,278.51Zm-4.11,2.14V277a2.42,2.42,0,0,0-1.58.44,1.51,1.51,0,0,0-.54,1.24,1.81,1.81,0,0,0,.14.69,1.87,1.87,0,0,0,.42.6,2.45,2.45,0,0,0,.66.44A3.29,3.29,0,0,0,20.47,280.65Z"/><path class="cls-12" d="M24.58,272.4a3.62,3.62,0,0,1-.26,1.39,4.46,4.46,0,0,1-.67,1.15l-.77-.58a4.56,4.56,0,0,0,.58-.92,2.45,2.45,0,0,0,.23-1.08,1.49,1.49,0,0,0-.31-1,1,1,0,0,0-.76-.33.74.74,0,0,0-.46.14,1.42,1.42,0,0,0-.34.35,2.36,2.36,0,0,0-.26.5c-.07.19-.15.37-.22.56s-.18.48-.29.73a3.2,3.2,0,0,1-.39.65,2.17,2.17,0,0,1-.54.47,1.47,1.47,0,0,1-.74.18,1.83,1.83,0,0,1-.77-.16A1.73,1.73,0,0,1,18,274a2.12,2.12,0,0,1-.41-.74,3,3,0,0,1-.15-1,3,3,0,0,1,.23-1.18,3.79,3.79,0,0,1,.54-.93l.73.54a3.67,3.67,0,0,0-.43.73,2.05,2.05,0,0,0-.17.83,1.32,1.32,0,0,0,.29.94,1,1,0,0,0,.69.3.69.69,0,0,0,.41-.12A1.27,1.27,0,0,0,20,273a2.69,2.69,0,0,0,.24-.48l.22-.57c.09-.24.19-.49.29-.73a2.91,2.91,0,0,1,.38-.67,2,2,0,0,1,.57-.48,1.62,1.62,0,0,1,.81-.19,1.89,1.89,0,0,1,.79.16,1.86,1.86,0,0,1,.64.48,2.12,2.12,0,0,1,.44.78A3.21,3.21,0,0,1,24.58,272.4Z"/><text class="cls-11" transform="translate(90.85 619.52)">16</text><text class="cls-11" transform="translate(116.31 619.33)">17</text><text class="cls-11" transform="translate(141.73 619.42)">18</text><text class="cls-11" transform="translate(167.16 619.42)">19</text><text class="cls-11" transform="translate(192.6 619.42)">20</text><text class="cls-11" transform="translate(218.05 619.42)">21</text><text class="cls-11" transform="translate(243.5 619.42)">22</text><text class="cls-11" transform="translate(268.98 619.42)">23</text><text class="cls-11" transform="translate(294.39 619.42)">24</text><text class="cls-11" transform="translate(319.84 619.42)">25</text><text class="cls-11" transform="translate(345.28 619.42)">26</text><text class="cls-11" transform="translate(370.73 619.42)">27</text><text class="cls-11" transform="translate(396.76 619.42)">28</text><text class="cls-11" transform="translate(422.2 619.42)">29</text><text class="cls-11" transform="translate(447.65 619.42)">30</text><text class="cls-11" transform="translate(473.1 619.42)">31</text><text class="cls-11" transform="translate(498.54 619.42)">32</text><text class="cls-11" transform="translate(523.99 619.42)">33</text><text class="cls-11" transform="translate(549.44 619.42)">34</text><text class="cls-11" transform="translate(574.88 619.42)">35</text><text class="cls-11" transform="translate(600.33 619.42)">36</text><text class="cls-11" transform="translate(625.78 619.42)">37</text><text class="cls-11" transform="translate(651.22 619.42)">38</text><text class="cls-11" transform="translate(676.67 619.42)">39</text><text class="cls-13" transform="translate(34.44 51.46)">F<tspan class="cls-14" x="5.88" y="0">o</tspan><tspan class="cls-6" x="12.5" y="0">o</tspan><tspan class="cls-14" x="18.92" y="0">tn</tspan><tspan class="cls-15" x="29.78" y="0">o</tspan><tspan class="cls-16" x="36.2" y="0">t</tspan><tspan class="cls-14" x="40.21" y="0">e</tspan></text><path class="cls-1" d="M15.44,42.51a1.08,1.08,0,0,1,1.08-1.08h10.8a1.08,1.08,0,0,1,1.08,1.08v10.8a1.08,1.08,0,0,1-1.08,1.08H16.52a1.08,1.08,0,0,1-1.08-1.08Z"/><text class="cls-3" transform="translate(34.48 97.65)">Epig<tspan class="cls-17" x="22.46" y="0">r</tspan><tspan x="26.46" y="0">aph</tspan></text><path class="cls-10" d="M15.44,88.7a1.08,1.08,0,0,1,1.08-1.08h10.8A1.08,1.08,0,0,1,28.4,88.7V99.5a1.08,1.08,0,0,1-1.08,1.08H16.52a1.09,1.09,0,0,1-1.08-1.08Z"/></svg>