<?xml version="1.0" encoding="utf-8"?>
<!-- Generator: Adobe Illustrator 23.0.4, SVG Export Plug-In . SVG Version: 6.00 Build 0)  -->
<svg version="1.1" id="Layer_1" xmlns="http://www.w3.org/2000/svg" xmlns:xlink="http://www.w3.org/1999/xlink" x="0px" y="0px"
	 viewBox="0 0 712 665.3" style="enable-background:new 0 0 712 665.3;" xml:space="preserve">
<style type="text/css">
	.st0{fill:none;stroke:#CCCCCC;stroke-width:0.5;stroke-miterlimit:10;}
	.st1{fill:#1700F2;}
	.st2{fill:#666666;}
	.st3{font-family:'SourceSansPro-Regular';}
	.st4{font-size:12px;}
	.st5{fill:#52DEFF;}
	.st6{fill:#00FFCE;}
	.st7{fill:#0B80FF;}
</style>
<path class="st0" d="M63.3,484.2h629"/>
<path class="st1" d="M15.4,66.2c0-0.6,0.5-1.1,1.1-1.1h0h10.8c0.6,0,1.1,0.5,1.1,1.1l0,0V77c0,0.6-0.5,1.1-1.1,1.1h0H16.5
	c-0.6,0-1.1-0.5-1.1-1.1V66.2z"/>
<text transform="matrix(1 0 0 1 34.8 75.12)" class="st2 st3 st4">Ci</text>
<text transform="matrix(1 0 0 1 44.84 75.12)" class="st2 st3 st4">t</text>
<text transform="matrix(1 0 0 1 48.77 75.12)" class="st2 st3 st4">a</text>
<text transform="matrix(1 0 0 1 54.77 75.12)" class="st2 st3 st4">tion</text>
<text transform="matrix(1 0 0 1 34.78 27.48)" class="st2 st3 st4">Qu</text>
<text transform="matrix(1 0 0 1 49.52 27.48)" class="st2 st3 st4">o</text>
<text transform="matrix(1 0 0 1 55.94 27.48)" class="st2 st3 st4">t</text>
<text transform="matrix(1 0 0 1 59.86 27.48)" class="st2 st3 st4">a</text>
<text transform="matrix(1 0 0 1 65.86 27.48)" class="st2 st3 st4">tion</text>
<path class="st5" d="M15.4,18.5c0-0.6,0.5-1.1,1.1-1.1l0,0h10.8c0.6,0,1.1,0.5,1.1,1.1v10.8c0,0.6-0.5,1.1-1.1,1.1H16.5
	c-0.6,0-1.1-0.5-1.1-1.1L15.4,18.5z"/>
<path class="st0" d="M63.3,598.7h629"/>
<path class="st0" d="M63.3,370.2h629"/>
<path class="st0" d="M63.3,257.2h629"/>
<path class="st0" d="M63.3,143.2h629"/>
<path class="st6" d="M81,598.7H64.2v-57H81V598.7z"/>
<path class="st7" d="M463.6,598.7h-16.8v-57h16.8V598.7z"/>
<path class="st7" d="M310,541.7h-16.8v-57.5H310V541.7z"/>
<path class="st7" d="M259.1,484.2h-16.8V370.4h16.8V484.2z"/>
<path class="st7" d="M208.3,598.7h-16.8V370.2h16.8L208.3,598.7z"/>
<path class="st7" d="M131.9,541.7h-16.8v-57.5h16.8V541.7z"/>
<path class="st7" d="M616,598.7h-16.8v-57H616V598.7z"/>
<path class="st5" d="M131.9,598.7h-16.8v-57h16.8V598.7z"/>
<path class="st5" d="M233.7,598.7h-16.8V484.2h16.8L233.7,598.7z"/>
<path class="st5" d="M259.1,598.7h-16.8v-114h16.8V598.7z"/>
<path class="st5" d="M310,598.7h-16.8v-57H310V598.7z"/>
<path class="st5" d="M360.9,598.7h-16.8v-342h16.8V598.7z"/>
<path class="st5" d="M387,598.7h-16.8v-399H387V598.7z"/>
<path class="st5" d="M412.4,598.7h-16.8V257.2h16.8V598.7z"/>
<path class="st5" d="M437.9,598.7h-16.8v-456h16.8V598.7z"/>
<path class="st5" d="M514.2,598.7h-16.8V484.2h16.8V598.7z"/>
<path class="st7" d="M539.8,598.7H523V484.2h16.8V598.7z"/>
<path class="st5" d="M590.5,598.7h-16.8v-57h16.8L590.5,598.7z"/>
<path class="st5" d="M641.4,598.7h-16.8V484.2h16.8V598.7z"/>
<path class="st5" d="M666.9,598.7h-16.8V484.2h16.8V598.7z"/>
<path class="st7" d="M692.3,427.7h-16.8v-114h16.8V427.7z"/>
<path class="st5" d="M692.3,598.7h-16.8v-171h16.8V598.7z"/>
<path class="st1" d="M590.5,541.7h-16.8v-57.5h16.8L590.5,541.7z"/>
<text transform="matrix(1 0 0 1 65.42 619.52)" class="st2 st3 st4">15</text>
<text transform="matrix(1 0 0 1 41.29 487.59)" class="st2 st3 st4">2</text>
<text transform="matrix(1 0 0 1 41.29 599.67)" class="st2 st3 st4">0</text>
<text transform="matrix(1 0 0 1 41.29 374.17)" class="st2 st3 st4">4</text>
<text transform="matrix(1 0 0 1 41.29 261.17)" class="st2 st3 st4">6</text>
<text transform="matrix(1 0 0 1 41.29 146.17)" class="st2 st3 st4">8</text>
<path class="st2" d="M313.9,651.7V642h1l0.1,0.8l0,0c0.3-0.3,0.6-0.5,1-0.7c0.4-0.2,0.8-0.3,1.1-0.3c0.4,0,0.8,0.1,1.2,0.2
	c0.3,0.2,0.6,0.4,0.9,0.7c0.2,0.3,0.4,0.7,0.5,1.1c0.1,0.5,0.2,1,0.2,1.4c0,0.5-0.1,1-0.2,1.5c-0.1,0.4-0.3,0.8-0.5,1.2
	c-0.3,0.3-0.6,0.6-0.9,0.7c-0.4,0.2-0.7,0.2-1.1,0.2c-0.3,0-0.6-0.1-0.9-0.2c-0.3-0.2-0.7-0.3-1-0.6v1.2v2.3L313.9,651.7z
	 M316.7,648c0.3,0,0.5-0.1,0.8-0.2c0.2-0.1,0.5-0.3,0.6-0.5c0.2-0.3,0.3-0.5,0.4-0.8c0.1-0.4,0.2-0.7,0.1-1.1c0-0.3,0-0.7-0.1-1
	c-0.1-0.3-0.2-0.5-0.3-0.8c-0.1-0.2-0.3-0.4-0.6-0.5c-0.3-0.1-0.5-0.2-0.8-0.2c-0.3,0-0.6,0.1-0.9,0.2c-0.3,0.2-0.6,0.4-0.9,0.7v3.6
	c0.3,0.2,0.6,0.4,0.9,0.6C316.2,648,316.4,648,316.7,648z"/>
<path class="st2" d="M323.2,649c-0.5,0-1-0.2-1.4-0.5c-0.4-0.4-0.6-0.9-0.6-1.4c0-0.7,0.4-1.4,1-1.7c1-0.5,2.1-0.8,3.2-0.8
	c0-0.2,0-0.4-0.1-0.6c0-0.2-0.1-0.4-0.2-0.5c-0.1-0.2-0.3-0.3-0.4-0.4c-0.2-0.1-0.5-0.1-0.7-0.1c-0.4,0-0.8,0.1-1.1,0.2
	c-0.3,0.1-0.6,0.3-0.9,0.5l-0.5-0.8c0.4-0.2,0.8-0.4,1.2-0.6c0.5-0.2,1-0.3,1.5-0.3c0.7-0.1,1.4,0.2,1.8,0.8c0.4,0.6,0.6,1.3,0.6,2
	v4.2h-1l-0.1-0.8l0,0c-0.3,0.3-0.7,0.5-1,0.7C324,648.9,323.6,649,323.2,649z M323.5,648.1c0.3,0,0.6-0.1,0.9-0.2
	c0.3-0.2,0.7-0.4,0.9-0.7v-1.9c-0.5,0.1-1,0.1-1.4,0.3c-0.3,0.1-0.6,0.2-0.9,0.4c-0.2,0.1-0.4,0.3-0.5,0.5c-0.1,0.2-0.2,0.4-0.2,0.6
	c0,0.3,0.1,0.6,0.4,0.8C322.9,648,323.2,648.1,323.5,648.1L323.5,648.1z"/>
<path class="st2" d="M331.1,652c-0.4,0-0.8,0-1.1-0.1c-0.3-0.1-0.6-0.2-0.9-0.3c-0.2-0.1-0.4-0.3-0.6-0.6c-0.1-0.2-0.2-0.5-0.2-0.8
	c0-0.3,0.1-0.6,0.3-0.8c0.2-0.3,0.4-0.5,0.7-0.7v-0.1c-0.2-0.1-0.3-0.2-0.4-0.4c-0.1-0.2-0.2-0.4-0.2-0.7c0-0.3,0.1-0.5,0.2-0.8
	c0.1-0.2,0.3-0.4,0.5-0.5v-0.1c-0.2-0.2-0.5-0.5-0.6-0.8c-0.2-0.3-0.3-0.7-0.3-1.1c0-0.3,0.1-0.7,0.2-1c0.1-0.3,0.3-0.5,0.5-0.8
	c0.2-0.2,0.5-0.4,0.8-0.5c0.3-0.1,0.7-0.2,1-0.2c0.2,0,0.3,0,0.5,0l0.4,0.1h2.4v0.9H333c0.2,0.2,0.3,0.4,0.4,0.6
	c0.1,0.2,0.2,0.5,0.2,0.8c0,0.3-0.1,0.7-0.2,1c-0.1,0.3-0.3,0.5-0.5,0.7c-0.2,0.2-0.5,0.4-0.8,0.5c-0.3,0.1-0.7,0.2-1,0.2
	c-0.2,0-0.3,0-0.5-0.1c-0.2,0-0.3-0.1-0.5-0.2c-0.1,0.1-0.2,0.2-0.3,0.3c-0.1,0.1-0.1,0.3-0.1,0.5c0,0.2,0.1,0.4,0.2,0.5
	c0.3,0.2,0.7,0.3,1,0.2h1.3c0.6,0,1.2,0.1,1.8,0.4c0.4,0.3,0.6,0.8,0.6,1.2c0,0.3-0.1,0.6-0.2,0.9c-0.2,0.3-0.4,0.6-0.7,0.8
	c-0.3,0.2-0.7,0.4-1.1,0.5C332.1,651.9,331.6,652,331.1,652z M331.3,651.2c0.3,0,0.6,0,0.9-0.1c0.2-0.1,0.5-0.2,0.7-0.3
	c0.2-0.1,0.3-0.3,0.4-0.4c0.1-0.2,0.1-0.3,0.1-0.5c0-0.3-0.1-0.5-0.4-0.7c-0.3-0.1-0.7-0.2-1-0.2h-1.2h-0.4c-0.2,0-0.3,0-0.5-0.1
	c-0.2,0.1-0.4,0.3-0.5,0.6c-0.1,0.2-0.2,0.4-0.2,0.6c0,0.4,0.2,0.7,0.5,0.9C330.3,651.1,330.8,651.2,331.3,651.2L331.3,651.2z
	 M331.1,645.9c0.4,0,0.7-0.2,1-0.4c0.1-0.1,0.2-0.3,0.3-0.5c0.1-0.2,0.1-0.4,0.1-0.7c0-0.4-0.1-0.9-0.4-1.2c-0.6-0.5-1.4-0.5-2,0
	c-0.3,0.3-0.4,0.7-0.4,1.2c0,0.2,0,0.5,0.1,0.7c0.1,0.2,0.2,0.4,0.3,0.5c0.1,0.1,0.3,0.2,0.5,0.3
	C330.7,645.9,330.9,645.9,331.1,645.9L331.1,645.9z"/>
<path class="st2" d="M338.5,649c-0.4,0-0.9-0.1-1.3-0.2c-0.4-0.2-0.7-0.4-1-0.7c-0.3-0.3-0.5-0.7-0.7-1.1c-0.2-0.5-0.3-1-0.2-1.5
	c0-0.5,0.1-1,0.3-1.5c0.2-0.4,0.4-0.8,0.7-1.1c0.3-0.3,0.6-0.5,1-0.7c0.4-0.2,0.7-0.2,1.1-0.2c0.4,0,0.8,0.1,1.2,0.2
	c0.3,0.1,0.6,0.4,0.9,0.6c0.2,0.3,0.4,0.6,0.5,1c0.1,0.4,0.2,0.9,0.2,1.3c0,0.1,0,0.2,0,0.3c0,0.1,0,0.2,0,0.3h-4.6
	c0,0.6,0.3,1.3,0.7,1.7c0.4,0.4,1,0.7,1.6,0.6c0.3,0,0.6,0,0.9-0.2c0.3-0.1,0.5-0.2,0.8-0.4l0.4,0.8c-0.3,0.2-0.7,0.4-1,0.5
	C339.5,648.9,339,649,338.5,649z M336.4,644.9h3.6c0-0.6-0.1-1.1-0.4-1.6c-0.3-0.4-0.8-0.6-1.2-0.5c-0.2,0-0.5,0-0.7,0.1
	c-0.2,0.1-0.4,0.2-0.6,0.4c-0.2,0.2-0.3,0.4-0.4,0.7C336.5,644.3,336.4,644.6,336.4,644.9L336.4,644.9z"/>
<path class="st2" d="M345.8,648.8V642h1l0.1,1l0,0c0.3-0.3,0.6-0.6,1-0.8c0.4-0.2,0.8-0.3,1.2-0.3c0.6,0,1.2,0.2,1.6,0.7
	c0.4,0.6,0.6,1.3,0.5,2v4.3H350v-4.2c0-0.5-0.1-1-0.3-1.4c-0.2-0.3-0.6-0.5-1-0.4c-0.3,0-0.7,0.1-0.9,0.3c-0.3,0.2-0.6,0.5-0.9,0.8
	v4.9L345.8,648.8z"/>
<path class="st2" d="M355.6,649c-0.6,0.1-1.2-0.2-1.6-0.7c-0.4-0.6-0.5-1.3-0.5-2V642h1.2v4.2c0,0.5,0.1,1,0.3,1.4
	c0.2,0.3,0.6,0.5,1,0.4c0.3,0,0.7-0.1,0.9-0.3c0.3-0.3,0.6-0.5,0.9-0.9V642h1.1v6.8h-1l-0.1-1.1l0,0c-0.3,0.3-0.6,0.7-1,0.9
	C356.5,648.9,356.1,649,355.6,649z"/>
<path class="st2" d="M361.4,648.8V642h1l0.1,1l0,0c0.3-0.3,0.6-0.6,1-0.8c0.3-0.2,0.7-0.3,1.1-0.3c0.4,0,0.9,0.1,1.2,0.3
	c0.3,0.3,0.5,0.6,0.6,1c0.3-0.4,0.7-0.7,1.1-1c0.3-0.2,0.8-0.4,1.2-0.4c0.6,0,1.2,0.2,1.6,0.7c0.4,0.6,0.6,1.3,0.5,2v4.3h-1.1v-4.2
	c0-0.5-0.1-1-0.3-1.4c-0.2-0.3-0.6-0.5-1-0.4c-0.7,0.1-1.3,0.4-1.7,1v4.9h-1.1v-4.2c0-0.5-0.1-1-0.3-1.4c-0.2-0.3-0.6-0.5-1-0.4
	c-0.7,0.1-1.3,0.4-1.7,1v4.9L361.4,648.8z"/>
<path class="st2" d="M376.1,649c-0.3,0-0.7-0.1-1-0.2c-0.4-0.2-0.7-0.4-1-0.6l0,0l-0.1,0.7h-0.9v-10h1.1v2.7v1.2
	c0.3-0.3,0.6-0.5,1-0.7c0.3-0.2,0.7-0.3,1.1-0.3c0.4,0,0.8,0.1,1.2,0.2c0.3,0.2,0.6,0.4,0.8,0.7c0.2,0.3,0.4,0.7,0.5,1.1
	c0.1,0.5,0.2,0.9,0.2,1.4c0,0.5-0.1,1.1-0.2,1.6c-0.1,0.4-0.4,0.8-0.6,1.2c-0.3,0.3-0.6,0.6-0.9,0.7
	C376.9,648.9,376.5,649,376.1,649z M375.9,648c0.3,0,0.5-0.1,0.8-0.2c0.2-0.1,0.4-0.3,0.6-0.5c0.2-0.3,0.3-0.5,0.4-0.8
	c0.1-0.4,0.2-0.7,0.1-1.1c0-0.3,0-0.7-0.1-1c-0.1-0.3-0.2-0.5-0.3-0.8c-0.1-0.2-0.3-0.4-0.6-0.5c-0.3-0.1-0.5-0.2-0.8-0.2
	c-0.7,0.1-1.3,0.4-1.8,0.9v3.6c0.3,0.2,0.6,0.4,0.9,0.6C375.4,648,375.7,648,375.9,648z"/>
<path class="st2" d="M383.8,649c-0.4,0-0.9-0.1-1.3-0.2c-0.4-0.2-0.7-0.4-1-0.7c-0.3-0.3-0.5-0.7-0.7-1.1c-0.2-0.5-0.3-1-0.3-1.5
	c0-0.5,0.1-1,0.3-1.5c0.2-0.4,0.4-0.8,0.7-1.1c0.3-0.3,0.6-0.5,1-0.7c0.4-0.2,0.7-0.2,1.1-0.2c0.4,0,0.8,0.1,1.1,0.2
	c0.3,0.1,0.6,0.4,0.9,0.6c0.2,0.3,0.4,0.6,0.5,1c0.1,0.4,0.2,0.9,0.2,1.3c0,0.1,0,0.2,0,0.3c0,0.1,0,0.2,0,0.3h-4.6
	c0,0.6,0.2,1.3,0.7,1.7c0.4,0.4,1,0.7,1.6,0.6c0.3,0,0.6,0,0.9-0.2c0.3-0.1,0.5-0.2,0.8-0.4l0.4,0.8c-0.3,0.2-0.7,0.4-1,0.5
	C384.7,648.9,384.2,649,383.8,649z M381.6,644.9h3.6c0-0.6-0.1-1.1-0.4-1.6c-0.3-0.4-0.8-0.6-1.2-0.5c-0.2,0-0.5,0-0.7,0.1
	c-0.2,0.1-0.4,0.2-0.6,0.4c-0.2,0.2-0.3,0.4-0.5,0.7C381.7,644.3,381.6,644.6,381.6,644.9L381.6,644.9z"/>
<path class="st2" d="M388.1,648.8V642h0.9l0.1,1.2l0,0c0.2-0.4,0.5-0.7,0.9-1c0.3-0.2,0.7-0.4,1.1-0.4c0.3,0,0.5,0,0.7,0.1l-0.2,1
	l-0.3-0.1c-0.1,0-0.2,0-0.4,0c-0.3,0-0.6,0.1-0.9,0.3c-0.4,0.3-0.7,0.7-0.8,1.2v4.4L388.1,648.8z"/>
<path class="st2" d="M394.8,649c-0.5,0-0.9-0.1-1.4-0.3c-0.4-0.2-0.8-0.4-1.1-0.7l0.6-0.8c0.3,0.2,0.6,0.4,0.9,0.6
	c0.3,0.2,0.7,0.2,1.1,0.2c0.4,0,0.7-0.1,1-0.3c0.2-0.2,0.3-0.5,0.3-0.8c0-0.2,0-0.3-0.1-0.5c-0.1-0.1-0.2-0.2-0.4-0.3
	c-0.2-0.1-0.3-0.2-0.5-0.3l-0.6-0.2c-0.2-0.1-0.5-0.2-0.7-0.3c-0.2-0.1-0.4-0.2-0.6-0.4c-0.2-0.2-0.3-0.3-0.5-0.5
	c-0.1-0.2-0.2-0.5-0.2-0.7c0-0.3,0.1-0.5,0.2-0.8c0.1-0.2,0.3-0.4,0.5-0.6c0.2-0.2,0.5-0.3,0.8-0.4c0.7-0.2,1.5-0.2,2.2,0.1
	c0.3,0.1,0.6,0.3,0.9,0.5l-0.5,0.7c-0.2-0.2-0.5-0.3-0.7-0.4c-0.3-0.1-0.5-0.2-0.8-0.2c-0.3,0-0.7,0.1-1,0.3
	c-0.2,0.2-0.3,0.4-0.3,0.7c0,0.1,0,0.3,0.1,0.4c0.1,0.1,0.2,0.2,0.3,0.3c0.2,0.1,0.3,0.2,0.5,0.2l0.6,0.2l0.7,0.3
	c0.2,0.1,0.5,0.2,0.7,0.4c0.2,0.1,0.4,0.3,0.5,0.6c0.1,0.2,0.2,0.5,0.2,0.8c0,0.3-0.1,0.5-0.2,0.8c-0.1,0.2-0.3,0.5-0.5,0.6
	c-0.2,0.2-0.5,0.4-0.8,0.4C395.6,649,395.2,649,394.8,649z"/>
<path class="st2" d="M24.4,395.5h-6.8v-1l1-0.1l0,0c-0.3-0.3-0.6-0.6-0.8-1c-0.2-0.4-0.3-0.8-0.3-1.2c0-0.6,0.2-1.2,0.7-1.6
	c0.6-0.4,1.3-0.6,2-0.5h4.3v1.1h-4.2c-0.5,0-1,0.1-1.4,0.3c-0.3,0.2-0.5,0.6-0.4,1c0,0.3,0.1,0.7,0.3,0.9c0.2,0.3,0.5,0.6,0.8,0.9
	h4.9L24.4,395.5z"/>
<path class="st2" d="M24.6,385.7c0.1,0.6-0.2,1.2-0.7,1.6c-0.6,0.4-1.3,0.5-2,0.5h-4.3v-1.2h4.2c0.5,0,1-0.1,1.4-0.3
	c0.3-0.2,0.5-0.6,0.4-1c0-0.3-0.1-0.7-0.3-0.9c-0.3-0.3-0.5-0.6-0.9-0.9h-4.8v-1.1h6.8v1l-1.1,0.1l0,0c0.3,0.3,0.7,0.6,0.9,1
	C24.5,384.7,24.6,385.2,24.6,385.7z"/>
<path class="st2" d="M24.4,379.9h-6.8v-1l1-0.1l0,0c-0.3-0.3-0.6-0.6-0.8-1c-0.2-0.3-0.3-0.7-0.3-1.1c0-0.4,0.1-0.9,0.4-1.2
	c0.3-0.3,0.6-0.5,1-0.6c-0.4-0.3-0.7-0.7-1-1.1c-0.2-0.3-0.4-0.8-0.4-1.2c0-0.6,0.2-1.2,0.7-1.6c0.6-0.4,1.3-0.6,2-0.5h4.3v1.1h-4.2
	c-0.5,0-1,0.1-1.4,0.3c-0.3,0.2-0.5,0.6-0.4,1c0.1,0.7,0.4,1.3,1,1.7h4.9v1.1h-4.1c-0.5,0-1,0.1-1.4,0.3c-0.3,0.2-0.5,0.6-0.4,1
	c0.1,0.7,0.4,1.3,1,1.7h4.9L24.4,379.9z"/>
<path class="st2" d="M24.6,365.1c0,0.3-0.1,0.7-0.2,1c-0.2,0.4-0.4,0.7-0.6,1l0,0l0.7,0.1v0.9h-10V367h2.7h1.2
	c-0.3-0.3-0.5-0.6-0.7-1c-0.2-0.3-0.3-0.7-0.3-1.1c0-0.4,0.1-0.8,0.2-1.2c0.2-0.3,0.4-0.6,0.7-0.9c0.3-0.2,0.7-0.4,1.1-0.5
	c0.5-0.1,0.9-0.2,1.4-0.2c0.5,0,1.1,0.1,1.6,0.2c0.4,0.1,0.8,0.4,1.2,0.6c0.3,0.3,0.6,0.6,0.7,0.9C24.5,364.4,24.6,364.7,24.6,365.1
	z M23.6,365.3c0-0.3-0.1-0.5-0.2-0.8c-0.1-0.2-0.3-0.4-0.5-0.6c-0.3-0.2-0.5-0.3-0.9-0.4c-0.4-0.1-0.7-0.1-1.1-0.1
	c-0.3,0-0.7,0-1,0.1c-0.3,0.1-0.5,0.2-0.8,0.3c-0.2,0.1-0.4,0.3-0.5,0.6c-0.1,0.3-0.2,0.5-0.2,0.8c0.1,0.7,0.4,1.3,0.9,1.8h3.6
	c0.2-0.3,0.4-0.6,0.6-0.9C23.6,365.9,23.6,365.6,23.6,365.3L23.6,365.3z"/>
<path class="st2" d="M24.6,357.5c0,0.4-0.1,0.9-0.2,1.3c-0.2,0.4-0.4,0.7-0.7,1c-0.3,0.3-0.7,0.5-1.1,0.7c-0.5,0.2-1,0.3-1.5,0.2
	c-0.5,0-1-0.1-1.5-0.3c-0.4-0.2-0.8-0.4-1.1-0.7c-0.3-0.3-0.5-0.6-0.7-1c-0.2-0.4-0.2-0.7-0.2-1.1c0-0.4,0.1-0.8,0.2-1.2
	c0.1-0.3,0.4-0.6,0.6-0.9c0.3-0.2,0.6-0.4,1-0.5c0.4-0.1,0.9-0.2,1.3-0.2H21c0.1,0,0.2,0,0.3,0v4.6c0.6,0,1.2-0.2,1.7-0.5
	c0.4-0.4,0.7-1,0.6-1.6c0-0.3,0-0.6-0.1-0.9c-0.1-0.3-0.2-0.5-0.4-0.8l0.8-0.4c0.2,0.3,0.4,0.7,0.5,1
	C24.5,356.7,24.6,357.1,24.6,357.5z M20.5,359.7V356c-0.6,0-1.1,0.1-1.6,0.4c-0.4,0.3-0.6,0.8-0.5,1.2c0,0.2,0,0.5,0.1,0.7
	c0.1,0.2,0.2,0.4,0.4,0.6c0.2,0.2,0.4,0.3,0.7,0.4C19.9,359.5,20.2,359.6,20.5,359.7L20.5,359.7z"/>
<path class="st2" d="M24.4,353.2h-6.8v-1l1.2-0.1l0,0c-0.4-0.2-0.7-0.5-1-0.9c-0.2-0.3-0.4-0.7-0.4-1.1c0-0.3,0-0.5,0.1-0.7l1,0.2
	c0,0.1-0.1,0.2-0.1,0.3c0,0.1,0,0.2,0,0.4c0,0.3,0.1,0.6,0.4,0.9c0.3,0.4,0.7,0.7,1.2,0.8h4.4L24.4,353.2z"/>
<path class="st2" d="M24.6,342.6c0,0.4-0.1,0.8-0.2,1.2c-0.2,0.4-0.4,0.7-0.7,1c-0.3,0.3-0.7,0.5-1.1,0.7c-0.5,0.2-1,0.3-1.5,0.3
	c-0.5,0-1-0.1-1.5-0.3c-0.4-0.2-0.8-0.4-1.1-0.7c-0.3-0.3-0.5-0.6-0.7-1c-0.2-0.4-0.2-0.8-0.2-1.2c0-0.4,0.1-0.8,0.2-1.2
	c0.2-0.4,0.4-0.7,0.7-1c0.3-0.3,0.7-0.5,1.1-0.7c0.5-0.2,1-0.3,1.5-0.3c0.5,0,1,0.1,1.5,0.3c0.4,0.2,0.8,0.4,1.1,0.7
	c0.3,0.3,0.5,0.6,0.7,1C24.5,341.8,24.6,342.2,24.6,342.6z M23.6,342.6c0-0.3-0.1-0.6-0.2-0.8c-0.1-0.2-0.3-0.5-0.5-0.6
	c-0.2-0.2-0.5-0.3-0.8-0.4c-0.3-0.1-0.7-0.1-1.1-0.1c-0.4,0-0.7,0-1.1,0.1c-0.3,0.1-0.6,0.2-0.8,0.4c-0.2,0.2-0.4,0.4-0.5,0.6
	c-0.1,0.2-0.2,0.5-0.2,0.8c0,0.3,0.1,0.5,0.2,0.8c0.1,0.2,0.3,0.5,0.5,0.6c0.3,0.2,0.5,0.3,0.8,0.4c0.3,0.1,0.7,0.1,1.1,0.1
	c0.4,0,0.7,0,1.1-0.1c0.3-0.1,0.6-0.2,0.8-0.4c0.2-0.2,0.4-0.4,0.5-0.6C23.6,343.1,23.6,342.9,23.6,342.6z"/>
<path class="st2" d="M24.4,337.3h-5.9v0.9h-0.9l-0.1-0.9h-1.1c-0.6,0-1.2-0.1-1.6-0.5c-0.4-0.4-0.6-0.9-0.6-1.5c0-0.2,0-0.4,0.1-0.6
	c0-0.2,0.1-0.4,0.2-0.5l0.9,0.2c-0.1,0.2-0.2,0.5-0.2,0.8c0,0.6,0.4,1,1.3,1h1.1v-1.4h0.9v1.4h5.9L24.4,337.3z"/>
<path class="st2" d="M24.4,330.4h-6.8v-1l1.2-0.1v0c-0.4-0.2-0.7-0.5-1-0.8c-0.2-0.3-0.4-0.7-0.4-1.1c0-0.3,0-0.5,0.1-0.7l1,0.2
	c0,0.1-0.1,0.2-0.1,0.3c0,0.1,0,0.2,0,0.4c0,0.3,0.1,0.6,0.4,0.9c0.3,0.4,0.7,0.7,1.2,0.8h4.4L24.4,330.4z"/>
<path class="st2" d="M24.6,322.7c0,0.4-0.1,0.9-0.2,1.3c-0.2,0.4-0.4,0.7-0.7,1c-0.3,0.3-0.7,0.5-1.1,0.7c-0.5,0.2-1,0.3-1.5,0.3
	c-0.5,0-1-0.1-1.5-0.3c-0.4-0.2-0.8-0.4-1.1-0.7c-0.3-0.3-0.5-0.6-0.7-1c-0.2-0.4-0.2-0.7-0.2-1.1c0-0.4,0.1-0.8,0.2-1.1
	c0.1-0.3,0.4-0.6,0.6-0.9c0.3-0.2,0.6-0.4,1-0.5c0.4-0.1,0.9-0.2,1.3-0.2H21h0.3v4.6c0.6,0,1.3-0.3,1.7-0.7c0.4-0.4,0.7-1,0.6-1.6
	c0-0.3,0-0.6-0.1-0.9c-0.1-0.3-0.2-0.5-0.4-0.8l0.8-0.4c0.2,0.3,0.4,0.7,0.5,1C24.5,321.8,24.6,322.3,24.6,322.7z M20.5,324.9v-3.6
	c-0.6,0-1.1,0.1-1.6,0.4c-0.4,0.3-0.6,0.8-0.5,1.2c0,0.5,0.2,1,0.6,1.3c0.2,0.2,0.4,0.3,0.7,0.4C19.9,324.8,20.2,324.8,20.5,324.9
	L20.5,324.9z"/>
<path class="st2" d="M24.4,318.2h-5.9v0.9h-0.9l-0.1-0.9h-1.1c-0.6,0-1.2-0.1-1.6-0.5c-0.4-0.4-0.6-0.9-0.6-1.5c0-0.2,0-0.4,0.1-0.6
	c0-0.2,0.1-0.4,0.2-0.5l0.9,0.2c-0.1,0.2-0.2,0.5-0.2,0.8c0,0.6,0.4,1,1.3,1h1.1v-1.4h0.9v1.4h5.9L24.4,318.2z"/>
<path class="st2" d="M24.6,311.6c0,0.4-0.1,0.9-0.2,1.3c-0.2,0.4-0.4,0.7-0.7,1c-0.3,0.3-0.7,0.5-1.1,0.7c-0.5,0.2-1,0.3-1.5,0.2
	c-0.5,0-1-0.1-1.5-0.3c-0.4-0.2-0.8-0.4-1.1-0.7c-0.3-0.3-0.5-0.6-0.7-1c-0.2-0.4-0.2-0.7-0.2-1.1c0-0.4,0.1-0.8,0.2-1.2
	c0.1-0.3,0.4-0.6,0.6-0.9c0.3-0.2,0.6-0.4,1-0.5c0.4-0.1,0.9-0.2,1.3-0.2H21c0.1,0,0.2,0,0.3,0v4.6c0.6,0,1.2-0.2,1.7-0.6
	c0.4-0.4,0.7-1,0.6-1.6c0-0.3,0-0.6-0.1-0.9c-0.1-0.3-0.2-0.5-0.4-0.8l0.8-0.4c0.2,0.3,0.4,0.7,0.5,1
	C24.5,310.7,24.6,311.1,24.6,311.6z M20.5,313.7v-3.6c-0.6,0-1.1,0.1-1.6,0.4c-0.4,0.3-0.6,0.8-0.5,1.2c0,0.2,0,0.5,0.1,0.7
	c0.1,0.2,0.2,0.4,0.4,0.6c0.2,0.2,0.4,0.3,0.7,0.4C19.9,313.6,20.2,313.7,20.5,313.7z"/>
<path class="st2" d="M24.4,307.2h-6.8v-1l1.2-0.1l0,0c-0.4-0.2-0.7-0.5-1-0.9c-0.2-0.3-0.4-0.7-0.4-1.1c0-0.3,0-0.5,0.1-0.7l1,0.2
	c0,0.1-0.1,0.2-0.1,0.3c0,0.1,0,0.2,0,0.4c0,0.3,0.1,0.7,0.4,0.9c0.3,0.4,0.7,0.7,1.2,0.8h4.4L24.4,307.2z"/>
<path class="st2" d="M24.6,299.6c0,0.4-0.1,0.9-0.2,1.3c-0.2,0.4-0.4,0.7-0.7,1c-0.3,0.3-0.7,0.5-1.1,0.7c-0.5,0.2-1,0.3-1.5,0.2
	c-0.5,0-1-0.1-1.5-0.3c-0.4-0.2-0.8-0.4-1.1-0.7c-0.3-0.3-0.5-0.6-0.7-1c-0.2-0.4-0.2-0.7-0.2-1.1c0-0.4,0.1-0.8,0.2-1.2
	c0.1-0.3,0.4-0.6,0.6-0.9c0.3-0.2,0.6-0.4,1-0.5c0.4-0.1,0.9-0.2,1.3-0.2H21c0.1,0,0.2,0,0.3,0v4.6c0.6,0,1.3-0.3,1.7-0.7
	c0.4-0.4,0.7-1,0.6-1.6c0-0.3,0-0.6-0.1-0.9c-0.1-0.3-0.2-0.5-0.4-0.8l0.8-0.4c0.2,0.3,0.4,0.7,0.5,1
	C24.5,298.7,24.6,299.2,24.6,299.6z M20.5,301.8v-3.6c-0.6,0-1.1,0.1-1.6,0.4c-0.4,0.3-0.6,0.8-0.5,1.2c0,0.2,0,0.5,0.1,0.7
	c0.1,0.2,0.2,0.4,0.4,0.6c0.2,0.2,0.4,0.3,0.7,0.4C19.9,301.6,20.2,301.7,20.5,301.8z"/>
<path class="st2" d="M24.4,295.3h-6.8v-1l1-0.1l0,0c-0.3-0.3-0.6-0.6-0.8-1c-0.2-0.4-0.3-0.8-0.3-1.2c-0.1-0.6,0.2-1.2,0.7-1.6
	c0.6-0.4,1.3-0.6,2-0.5h4.3v1.1h-4.2c-0.5,0-1,0.1-1.4,0.3c-0.3,0.2-0.5,0.6-0.4,1c0,0.3,0.1,0.7,0.3,0.9c0.2,0.3,0.5,0.6,0.8,0.9
	h4.9L24.4,295.3z"/>
<path class="st2" d="M24.6,284.8c0,0.4-0.1,0.9-0.2,1.3c-0.2,0.4-0.4,0.7-0.7,1c-0.3,0.3-0.7,0.5-1.1,0.7c-0.5,0.2-1,0.3-1.5,0.3
	c-0.5,0-1-0.1-1.5-0.3c-0.4-0.2-0.8-0.4-1.1-0.7c-0.3-0.3-0.5-0.6-0.7-1c-0.2-0.4-0.2-0.8-0.2-1.2c0-0.4,0.1-0.8,0.2-1.1
	c0.2-0.3,0.3-0.6,0.6-0.8l0.8,0.6c-0.2,0.2-0.3,0.4-0.4,0.6c-0.1,0.2-0.2,0.5-0.2,0.7c0,0.3,0.1,0.6,0.2,0.9
	c0.1,0.3,0.3,0.5,0.5,0.7c0.3,0.2,0.5,0.3,0.8,0.4c0.3,0.1,0.7,0.2,1.1,0.2c0.4,0,0.7,0,1.1-0.2c0.3-0.1,0.6-0.2,0.8-0.4
	c0.2-0.2,0.4-0.4,0.5-0.7c0.1-0.3,0.2-0.6,0.2-0.9c0-0.3-0.1-0.6-0.2-0.9c-0.1-0.3-0.3-0.5-0.5-0.7l0.8-0.5c0.3,0.3,0.5,0.6,0.6,1
	C24.5,284,24.6,284.4,24.6,284.8z"/>
<path class="st2" d="M24.6,278.5c0,0.4-0.1,0.9-0.2,1.3c-0.2,0.4-0.4,0.7-0.7,1c-0.3,0.3-0.7,0.5-1.1,0.7c-0.5,0.2-1,0.3-1.5,0.2
	c-0.5,0-1-0.1-1.5-0.3c-0.4-0.2-0.8-0.4-1.1-0.7c-0.3-0.3-0.5-0.6-0.7-1c-0.2-0.4-0.2-0.7-0.2-1.1c0-0.4,0.1-0.8,0.2-1.2
	c0.1-0.3,0.4-0.6,0.6-0.9c0.3-0.2,0.6-0.4,1-0.5c0.4-0.1,0.9-0.2,1.3-0.2H21c0.1,0,0.2,0,0.3,0v4.6c0.6,0,1.2-0.2,1.7-0.5
	c0.4-0.4,0.7-1,0.6-1.6c0-0.3,0-0.6-0.1-0.9c-0.1-0.3-0.2-0.5-0.4-0.8l0.8-0.4c0.2,0.3,0.4,0.7,0.5,1
	C24.5,277.7,24.6,278.1,24.6,278.5z M20.5,280.7V277c-0.6,0-1.1,0.1-1.6,0.4c-0.4,0.3-0.6,0.8-0.5,1.2c0,0.2,0,0.5,0.1,0.7
	c0.1,0.2,0.2,0.4,0.4,0.6c0.2,0.2,0.4,0.3,0.7,0.4C19.9,280.5,20.2,280.6,20.5,280.7L20.5,280.7z"/>
<path class="st2" d="M24.6,272.4c0,0.5-0.1,0.9-0.3,1.4c-0.2,0.4-0.4,0.8-0.7,1.1l-0.8-0.6c0.2-0.3,0.4-0.6,0.6-0.9
	c0.2-0.3,0.2-0.7,0.2-1.1c0-0.4-0.1-0.7-0.3-1c-0.2-0.2-0.5-0.3-0.8-0.3c-0.2,0-0.3,0-0.5,0.1c-0.1,0.1-0.2,0.2-0.3,0.4
	c-0.1,0.2-0.2,0.3-0.3,0.5c-0.1,0.2-0.1,0.4-0.2,0.6s-0.2,0.5-0.3,0.7c-0.1,0.2-0.2,0.4-0.4,0.6c-0.2,0.2-0.3,0.3-0.5,0.5
	c-0.2,0.1-0.5,0.2-0.7,0.2c-0.3,0-0.5-0.1-0.8-0.2c-0.2-0.1-0.4-0.3-0.6-0.5c-0.2-0.2-0.3-0.5-0.4-0.7c-0.1-0.3-0.2-0.7-0.1-1
	c0-0.4,0.1-0.8,0.2-1.2c0.1-0.3,0.3-0.6,0.5-0.9l0.7,0.5c-0.2,0.2-0.3,0.5-0.4,0.7c-0.1,0.3-0.2,0.5-0.2,0.8c0,0.3,0.1,0.7,0.3,0.9
	c0.2,0.2,0.4,0.3,0.7,0.3c0.1,0,0.3,0,0.4-0.1c0.1-0.1,0.2-0.2,0.3-0.4c0.1-0.2,0.2-0.3,0.2-0.5l0.2-0.6c0.1-0.2,0.2-0.5,0.3-0.7
	c0.1-0.2,0.2-0.5,0.4-0.7c0.2-0.2,0.4-0.4,0.6-0.5c0.2-0.1,0.5-0.2,0.8-0.2c0.3,0,0.5,0.1,0.8,0.2c0.2,0.1,0.5,0.3,0.6,0.5
	c0.2,0.2,0.4,0.5,0.4,0.8C24.5,271.7,24.6,272,24.6,272.4z"/>
<text transform="matrix(1 0 0 1 90.85 619.52)" class="st2 st3 st4">16</text>
<text transform="matrix(1 0 0 1 116.31 619.33)" class="st2 st3 st4">17</text>
<text transform="matrix(1 0 0 1 141.73 619.42)" class="st2 st3 st4">18</text>
<text transform="matrix(1 0 0 1 167.16 619.42)" class="st2 st3 st4">19</text>
<text transform="matrix(1 0 0 1 192.6 619.42)" class="st2 st3 st4">20</text>
<text transform="matrix(1 0 0 1 218.05 619.42)" class="st2 st3 st4">21</text>
<text transform="matrix(1 0 0 1 243.5 619.42)" class="st2 st3 st4">22</text>
<text transform="matrix(1 0 0 1 268.98 619.42)" class="st2 st3 st4">23</text>
<text transform="matrix(1 0 0 1 294.39 619.42)" class="st2 st3 st4">24</text>
<text transform="matrix(1 0 0 1 319.84 619.42)" class="st2 st3 st4">25</text>
<text transform="matrix(1 0 0 1 345.28 619.42)" class="st2 st3 st4">26</text>
<text transform="matrix(1 0 0 1 370.73 619.42)" class="st2 st3 st4">27</text>
<text transform="matrix(1 0 0 1 396.76 619.42)" class="st2 st3 st4">28</text>
<text transform="matrix(1 0 0 1 422.2 619.42)" class="st2 st3 st4">29</text>
<text transform="matrix(1 0 0 1 447.65 619.42)" class="st2 st3 st4">30</text>
<text transform="matrix(1 0 0 1 473.1 619.42)" class="st2 st3 st4">31</text>
<text transform="matrix(1 0 0 1 498.54 619.42)" class="st2 st3 st4">32</text>
<text transform="matrix(1 0 0 1 523.99 619.42)" class="st2 st3 st4">33</text>
<text transform="matrix(1 0 0 1 549.44 619.42)" class="st2 st3 st4">34</text>
<text transform="matrix(1 0 0 1 574.88 619.42)" class="st2 st3 st4">35</text>
<text transform="matrix(1 0 0 1 600.33 619.42)" class="st2 st3 st4">36</text>
<text transform="matrix(1 0 0 1 625.78 619.42)" class="st2 st3 st4">37</text>
<text transform="matrix(1 0 0 1 651.22 619.42)" class="st2 st3 st4">38</text>
<text transform="matrix(1 0 0 1 676.67 619.42)" class="st2 st3 st4">39</text>
<text transform="matrix(1 0 0 1 34.44 51.46)" class="st2 st3 st4">F</text>
<text transform="matrix(1 0 0 1 40.32 51.46)" class="st2 st3 st4">o</text>
<text transform="matrix(1 0 0 1 46.94 51.46)" class="st2 st3 st4">o</text>
<text transform="matrix(1 0 0 1 53.36 51.46)" class="st2 st3 st4">tn</text>
<text transform="matrix(1 0 0 1 64.22 51.46)" class="st2 st3 st4">o</text>
<text transform="matrix(1 0 0 1 70.64 51.46)" class="st2 st3 st4">t</text>
<text transform="matrix(1 0 0 1 74.65 51.46)" class="st2 st3 st4">e</text>
<path class="st7" d="M15.4,42.5c0-0.6,0.5-1.1,1.1-1.1h0h10.8c0.6,0,1.1,0.5,1.1,1.1l0,0v10.8c0,0.6-0.5,1.1-1.1,1.1h0H16.5
	c-0.6,0-1.1-0.5-1.1-1.1l0,0L15.4,42.5z"/>
<text transform="matrix(1 0 0 1 34.48 97.65)" class="st2 st3 st4">Epig</text>
<text transform="matrix(1 0 0 1 56.94 97.65)" class="st2 st3 st4">r</text>
<text transform="matrix(1 0 0 1 60.94 97.65)" class="st2 st3 st4">aph</text>
<path class="st6" d="M15.4,88.7c0-0.6,0.5-1.1,1.1-1.1h0h10.8c0.6,0,1.1,0.5,1.1,1.1l0,0v10.8c0,0.6-0.5,1.1-1.1,1.1h0H16.5
	c-0.6,0-1.1-0.5-1.1-1.1L15.4,88.7z"/>
<path class="st7" d="M106.5,598.7H89.7v-171h16.8V598.7z"/>
</svg>
