<svg width="153" height="90" viewBox="0 0 153 90" fill="none" xmlns="http://www.w3.org/2000/svg">
<g opacity="0.6">
<path d="M86.4624 86.6418C128.115 87.3134 169.096 45 169.096 45C130.13 1.34327 86.4624 3.3582 86.4624 3.3582C43.4662 2.68656 4.50098 45 4.50098 45C4.50098 45 39.4353 85.903 86.4624 86.6418Z" fill="white"/>
<path d="M87.3359 3.35821C93.7853 3.35821 133.422 5.03731 169.096 45C169.096 45 128.787 86.6418 87.4703 86.6418C87.1344 86.6418 86.7985 86.6418 86.4625 86.6418C39.4355 85.903 4.50116 45 4.50116 45C4.50116 45 42.8618 3.35821 85.4548 3.35821C85.7907 3.35821 86.1266 3.35821 86.4625 3.35821C86.4625 3.35821 86.7313 3.35821 87.3359 3.35821ZM87.3359 0C86.8656 0 86.5297 0 86.3954 0C86.0595 0 85.7235 0 85.3876 0C62.4788 0 41.0479 11.6866 27.007 21.4254C12.0255 31.9701 2.41853 42.3134 2.01544 42.7164L0 44.9328L1.94826 47.2164C2.28417 47.6194 11.1521 57.8955 25.932 68.306C39.6371 77.9776 61.2695 89.597 86.4625 90C86.7985 90 87.1344 90 87.4703 90C105.273 90 124.89 82.8134 145.649 68.5746C161.034 58.097 171.111 47.7537 171.514 47.2836L173.664 45.0672L171.581 42.7164C156.197 25.5224 138.259 13.1642 118.374 6.04478C102.72 0.402985 90.695 0 87.3359 0Z" fill="#D1D1D1"/>
<path d="M55.895 8.39555C55.895 8.39555 29.0224 39.2911 57.9104 82.9478C57.9104 82.9478 88.1421 96.3135 116.694 80.5299C116.694 80.5299 141.551 44.1269 117.03 9.06719C117.03 9.06719 87.2015 -9.1343 55.895 8.39555Z" fill="#D1D1D1"/>
<path d="M86.1938 88.9254C95.5321 88.8582 106.214 86.9776 116.694 81.2015C116.694 81.2015 141.551 44.1269 117.03 9.06715C117.03 9.06715 104.064 1.81342 86.1938 1.4776V88.9254Z" fill="#B2B2B2"/>
<path d="M89.0154 3.35821C95.3305 3.35821 134.296 5.03731 169.432 45C169.432 45 129.727 86.6418 89.0826 86.6418C88.7467 86.6418 88.4108 86.6418 88.1421 86.6418V3.35821C88.1421 3.35821 88.4108 3.35821 89.0154 3.35821ZM89.0154 0C88.3436 0 88.0077 0 87.9405 0L84.7158 0.134328V3.35821V86.6418V89.9328L88.0077 90C88.3436 90 88.6795 90 89.0154 90C106.55 90 125.831 82.8134 146.321 68.5746C161.437 58.097 171.313 47.7537 171.783 47.2836L173.933 45.0672L171.917 42.7836C156.802 25.5224 139.133 13.1642 119.583 6.04478C104.131 0.402985 92.3073 0 89.0154 0Z" fill="#B2B2B2"/>
<path d="M86.1265 62.7985C96.1444 62.7985 104.266 54.6795 104.266 44.6642C104.266 34.6489 96.1444 26.5298 86.1265 26.5298C76.1087 26.5298 67.9875 34.6489 67.9875 44.6642C67.9875 54.6795 76.1087 62.7985 86.1265 62.7985Z" fill="#1E1E1E"/>
</g>
</svg>
