<?xml version="1.0" encoding="utf-8"?>
<!-- Generator: Adobe Illustrator 24.1.0, SVG Export Plug-In . SVG Version: 6.00 Build 0)  -->
<svg version="1.1" id="Layer_1" xmlns="http://www.w3.org/2000/svg" xmlns:xlink="http://www.w3.org/1999/xlink" x="0px" y="0px"
	 viewBox="0 0 600 600" style="enable-background:new 0 0 600 600;" xml:space="preserve">
<style type="text/css">
	.st0{fill:#07AE79;}
	.st1{fill:#FFFFFF;}
	.st2{font-family:'SourceSansPro-SemiBold';}
	.st3{font-size:20px;}
	.st4{fill:#D6D6D6;}
</style>
<path class="st0" d="M300,28.2c150.1,0,271.8,121.7,271.8,271.8S450.1,571.8,300,571.8c-117.8,0-222.1-75.9-258.5-187.9L300,300
	V28.2z"/>
<text transform="matrix(1 0 0 1 397.4932 375.9462)" class="st1 st2 st3">no VIAF</text>
<text transform="matrix(1 0 0 1 401.0439 348.4238)" class="st1 st2 st3">14,583</text>
<path class="st4" d="M41.5,383.9C-4.8,241.1,73.4,87.8,216.1,41.5c27.1-8.8,55.4-13.3,83.9-13.3V300L41.5,383.9z"/>
<g>
	<text transform="matrix(1 0 0 1 160.0171 223.1701)" class="st2 st3">VIAF</text>
</g>
<g>
	<text transform="matrix(1 0 0 1 155.6074 196.043)" class="st2 st3">6,248</text>
</g>
</svg>
