<svg width="198" height="84" viewBox="0 0 198 84" fill="none" xmlns="http://www.w3.org/2000/svg">
<g clip-path="url(#clip0)">
<path d="M168.685 54.0139L190.614 59.4384C191.422 59.6692 191.999 60.4194 191.883 61.285C191.422 64.4589 188.883 71.2684 175.264 68.0367C174.86 67.9213 174.456 67.8059 174.052 67.6328C170.185 66.1324 147.679 57.4186 136.484 56.8993C136.484 56.8993 134.176 56.3222 139.427 55.168C139.427 55.168 151.603 52.2827 168.512 54.0139C168.512 54.0139 168.627 54.0139 168.685 54.0139Z" fill="#EFEFEF" stroke="#EFEFEF" stroke-width="0.25" stroke-miterlimit="10"/>
<path d="M137.35 55.4566C137.35 55.4566 151.719 51.2439 181.035 54.9372C199.79 57.3032 197.077 44.0306 197.077 44.0306L178.495 40.8567C187.613 38.4907 185.536 28.9113 185.536 28.9113L174.225 28.4496L158.067 26.8915C148.545 25.5643 135.561 25.3911 135.561 25.3911L124.192 26.9492C122.577 27.2955 109.477 28.3919 109.477 28.3919C106.13 28.2765 98.397 27.4109 98.397 27.4109C90.2025 26.199 71.5052 28.5073 71.5052 28.5073L41.6125 31.1042C33.3026 31.2196 30.7057 28.8536 30.7057 28.8536L21.1263 22.5058C15.0092 19.2165 -6.97743 0.115417 -6.97743 0.115417L-33.4076 40.7412C-3.74579 58.6305 11.2582 68.383 11.2582 68.383C26.32 84.3679 45.6521 83.2137 45.6521 83.2137C51.8845 83.156 61.464 79.0588 61.464 79.0588C64.2917 76.8082 73.5827 75.2501 73.5827 75.2501C81.7195 74.3845 90.8373 74.096 90.8373 74.096C103.302 73.9806 112.535 70.345 112.535 70.345C118.422 68.6715 119.633 62.5546 119.633 62.5546C124.25 60.7656 141.793 68.7292 141.793 68.7292C155.759 73.692 155.008 64.2281 155.008 64.2281L138.1 57.3609C134.984 55.9759 137.35 55.4566 137.35 55.4566Z" fill="#EFEFEF" stroke="#EFEFEF" stroke-width="0.25" stroke-miterlimit="10"/>
<path d="M105.206 56.6684C105.206 56.6684 108.207 55.168 113.055 56.2645C113.055 56.2645 116.921 56.7261 117.44 61.1696C117.44 61.1696 117.671 66.1324 112.073 67.2865C112.073 67.2865 105.033 69.5948 104.052 64.8051C104.052 64.8051 103.186 60.8233 103.994 58.5728C103.937 58.6305 104.11 57.3032 105.206 56.6684Z" fill="white"/>
<path d="M130.194 58.0534L120.441 58.1688C119.172 57.9957 119.172 57.9957 119.172 57.9957C119.172 57.9957 118.652 55.572 115.421 54.187C115.421 54.187 111.554 51.6479 98.6278 53.5522C98.6278 53.5522 75.9486 58.7459 67.2924 55.168C67.2924 55.168 62.5027 54.1293 58.1169 51.2439C58.1169 51.2439 68.9083 56.8992 89.8562 53.2637C89.8562 53.2637 129.271 44.4922 137.754 41.0298C137.754 41.0298 143.178 39.0677 156.451 40.7989C156.451 40.7989 176.649 41.5491 178.553 40.6835L180.804 41.4337C180.804 41.4337 170.128 44.0883 165.453 43.8574C165.453 43.8574 151.546 43.0495 148.834 44.0305C148.834 44.0305 139.543 45.5886 134.811 50.7246C134.811 50.7246 162.453 48.1277 180.457 54.3601C180.457 54.3601 176.072 54.1293 170.07 53.783C166.954 53.6099 163.145 53.783 159.683 53.783C159.683 53.783 141.216 54.9372 137.754 56.0913C137.754 56.0913 151.026 57.8225 162.568 63.0162C162.51 63.247 145.775 57.4763 130.194 58.0534Z" fill="#D1D1D1" stroke="#D6D6D6" stroke-width="0.25" stroke-miterlimit="10"/>
<path d="M185.709 29.7769C185.709 29.7769 182.708 33.3547 177.918 32.2583C177.918 32.2583 174.86 31.6812 174.687 28.7959L185.594 28.969L185.709 29.7769Z" fill="white"/>
<path d="M186.343 42.5879C186.343 42.5879 185.132 46.6274 190.21 47.2045C190.21 47.2045 194.076 47.6661 197.077 46.1657V44.0883L186.343 42.5879Z" fill="white"/>
<path d="M181.554 57.4763C181.554 57.4763 179.765 60.1886 184.786 61.4004C184.786 61.4004 188.537 62.3237 191.71 61.2273C191.71 61.2273 191.826 61.4004 191.884 60.6502C191.941 60.1886 191.595 59.7269 191.133 59.6115L181.554 57.4763Z" fill="white"/>
</g>
<defs>
<clipPath id="clip0">
<rect width="230.831" height="83.3291" fill="white" transform="matrix(-1 0 0 1 197.308 0)"/>
</clipPath>
</defs>
</svg>
