<svg width="62" height="52" viewBox="0 0 62 52" fill="none" xmlns="http://www.w3.org/2000/svg">
<path fill-rule="evenodd" clip-rule="evenodd" d="M43.5099 42.449L15.9977 42.449L0 52H45.553L61.5507 42.449L51.9997 42.449L43.5099 46.6939V42.449Z" fill="#EAEAEA"/>
<path fill-rule="evenodd" clip-rule="evenodd" d="M15.9184 0H61.551V42.449H15.9184V0ZM52 6.36732L47.7551 8.48977V19.102L43.5102 21.2245V42.449H52V16.9796L47.7551 19.102L52 16.9796V6.36732Z" fill="#E8E8E8"/>
<path d="M32.898 14.8571L20.1633 21.2245H43.6163L47.7551 19.102H39.2653V14.8571H32.898Z" fill="#F1F1F1"/>
<path d="M43.5102 6.36731L39.2653 8.48977H47.7551L52 6.36727L43.5102 6.36731Z" fill="#F1F1F1"/>
<path d="M43.5102 21.2245H20.1633V46.6939H43.5102V21.2245Z" fill="#D1D1D1"/>
<path d="M47.7551 8.48981H39.2653V19.1021H47.7551V8.48981Z" fill="#D1D1D1"/>
</svg>
