<svg width="23" height="64" viewBox="0 0 23 64" fill="none" xmlns="http://www.w3.org/2000/svg">
<path d="M2.38566 9.13068C2.47742 9.13068 2.56917 9.16142 2.66093 9.16142C2.75268 9.16142 2.87502 9.16142 2.99737 9.09993C3.11971 9.06919 3.24205 8.97696 3.3338 8.88473C3.42556 8.7925 3.48673 8.63879 3.48673 8.48507H3.21146L3.48673 8.51581V8.48507C3.48673 8.23913 3.3338 8.05467 3.18088 7.93169C3.02795 7.83946 2.87502 7.77798 2.75268 7.74723C2.69151 7.71649 2.59976 7.71649 2.47742 7.71649C2.41625 7.71649 2.32449 7.71649 2.23274 7.77798C2.07981 7.83946 1.98806 7.99318 1.95747 8.11615C1.92689 8.23913 1.8963 8.3621 1.8963 8.45433V8.51581C1.8963 8.60804 1.8963 8.76176 1.98806 8.91548C2.07981 9.06919 2.20215 9.19216 2.41625 9.19216L2.53859 9.16142L2.38566 8.60804L2.41625 8.73102V8.60804H2.38566L2.41625 8.73102V8.60804V8.66953L2.44683 8.63879C2.44683 8.63879 2.44683 8.63879 2.38566 8.60804V8.66953L2.44683 8.63879C2.44683 8.63879 2.41625 8.5773 2.41625 8.48507H2.14098H2.41625V8.42358C2.41625 8.3621 2.41625 8.30061 2.44683 8.26987V8.23913L2.41625 8.20838L2.44683 8.26987L2.41625 8.23913L2.44683 8.26987V8.23913V8.26987V8.23913V8.26987C2.47742 8.26987 2.508 8.26987 2.56917 8.30061C2.69151 8.33135 2.78327 8.3621 2.84444 8.39284L2.90561 8.45433V8.48507H3.18088L2.90561 8.45433V8.48507H3.18088L2.90561 8.45433L2.87502 8.48507L2.78327 8.54656C2.75268 8.5773 2.7221 8.5773 2.66093 8.5773C2.59976 8.5773 2.53859 8.5773 2.44683 8.5773L2.38566 9.13068Z" fill="#087BC1" fill-opacity="0.5"/>
<path d="M2.96676 8.88476C2.96676 8.42361 3.0891 7.99321 3.0891 7.53206C3.0891 7.50132 3.0891 7.43983 3.0891 7.40909C3.0891 6.88645 2.96676 6.36382 2.875 5.87193C2.75266 5.19558 2.66091 4.51923 2.66091 3.84288C2.66091 2.88984 2.84442 1.9368 3.36436 1.10674L2.84442 0.983765C2.32447 1.87532 2.14096 2.8591 2.14096 3.84288C2.14096 4.51923 2.23272 5.22632 2.35506 5.90267C2.44681 6.4253 2.56915 6.9172 2.56915 7.40909C2.56915 7.43983 2.56915 7.50132 2.56915 7.53206C2.53857 7.96246 2.41623 8.42361 2.41623 8.88476V8.9155L2.96676 8.88476Z" fill="#087BC1" fill-opacity="0.5"/>
<path d="M2.96667 8.88474C2.96667 8.854 2.96667 8.79251 2.96667 8.76177C2.96667 8.45434 2.81375 8.20839 2.72199 7.96245C2.44673 7.31684 2.47731 6.60975 2.47731 5.90266C2.41614 4.08881 2.04912 2.33645 1.65151 0.553345L1.10098 0.614831C1.49859 2.36719 1.86561 4.1503 1.8962 5.90266C1.92678 6.60975 1.86561 7.34758 2.17146 8.02393C2.26322 8.26988 2.41614 8.51583 2.41614 8.73103C2.41614 8.76177 2.41614 8.79251 2.41614 8.82326L2.96667 8.88474Z" fill="#087BC1" fill-opacity="0.5"/>
<path d="M3.11981 8.91554C3.18098 7.80878 3.21156 6.70203 3.27273 5.62602C3.30332 4.94967 3.3339 4.30406 3.51741 3.65846C3.63975 3.25879 3.82326 2.85913 4.06795 2.52096C4.25146 2.21353 4.52672 1.90609 4.55731 1.50643V1.44495H4.00678V1.47569C4.00678 1.75238 3.79268 2.05981 3.57858 2.36724C3.3339 2.7669 3.11981 3.16656 2.99747 3.59697C2.78337 4.27332 2.75279 4.94967 2.7222 5.59528C2.66103 6.70203 2.63045 7.80878 2.56927 8.8848L3.11981 8.91554Z" fill="#087BC1" fill-opacity="0.5"/>
<path d="M2.99731 8.82332C3.02789 7.56285 3.05848 6.27164 3.05848 4.98043C3.05848 4.58077 3.05848 4.1811 3.05848 3.78144C3.05848 3.62773 3.05848 3.44327 3.05848 3.28955C3.05848 2.95138 3.08906 2.6132 3.15023 2.27503C3.21141 1.9676 3.36433 1.62942 3.48667 1.32199L3.51726 1.22976L3.48667 1.32199C3.60901 1.07605 3.70077 0.799356 3.82311 0.553411L3.27258 0.461182C3.15023 0.707127 3.05848 0.983816 2.93614 1.22976C2.8138 1.53719 2.66087 1.87537 2.5997 2.21354C2.50795 2.58246 2.50795 2.92064 2.50795 3.28955C2.50795 3.44327 2.50795 3.62773 2.50795 3.78144C2.50795 4.1811 2.50795 4.58077 2.50795 4.98043C2.50795 6.2409 2.47736 7.53211 2.44678 8.79258L2.99731 8.82332Z" fill="#087BC1" fill-opacity="0.5"/>
<path d="M4.98531 9.09999C5.10765 9.09999 5.22999 9.13073 5.35233 9.13073C5.53584 9.13073 5.71935 9.09999 5.93345 9.06925C5.99462 9.06925 6.08637 9.0385 6.20871 8.97702C6.33105 8.88479 6.42281 8.79256 6.45339 8.63884L6.48398 8.48513C6.48398 8.26992 6.39222 8.11621 6.2393 7.99324C6.05579 7.87026 5.87228 7.80878 5.71935 7.80878H5.62759C5.38291 7.80878 5.16882 7.87026 4.95472 7.96249C4.86297 8.02398 4.71004 8.08547 4.64887 8.26992C4.61829 8.33141 4.61829 8.3929 4.61829 8.45438C4.61829 8.66959 4.74063 8.8233 4.92414 8.94628C5.04648 9.00776 5.13823 9.0385 5.26057 9.0385C5.35233 9.0385 5.4135 9.0385 5.50525 9.00776L5.35233 8.45438H5.26057H5.1994L5.16882 8.48513H5.1994V8.45438L5.16882 8.48513H5.1994H5.10765L5.1994 8.51587V8.48513H5.10765L5.1994 8.51587L5.13823 8.48513L5.1994 8.51587L5.13823 8.48513L5.1994 8.51587L5.26057 8.48513C5.38291 8.42364 5.53584 8.3929 5.68877 8.3929H5.74993C5.84169 8.3929 5.93345 8.42364 5.96403 8.45438L5.99462 8.51587C5.99462 8.51587 5.96403 8.51587 5.90286 8.54661C5.74993 8.57736 5.59701 8.57736 5.44408 8.57736C5.35233 8.57736 5.26057 8.57736 5.16882 8.54661L4.98531 9.09999Z" fill="#087BC1" fill-opacity="0.5"/>
<path d="M5.84176 8.60812C5.81117 8.30069 5.81117 8.024 5.81117 7.71657C5.81117 7.50137 5.81117 7.25542 5.81117 7.04022C5.81117 6.64056 5.81117 6.27164 5.71942 5.87198C5.65825 5.5338 5.5359 5.19563 5.44415 4.85745C5.35239 4.51928 5.32181 4.15036 5.32181 3.81219C5.32181 3.25881 5.41356 2.67469 5.62766 2.15206C5.84176 1.62942 6.14761 1.07604 6.17819 0.461182H5.62766C5.59708 0.983815 5.29122 1.50645 5.07713 2.05983C4.86303 2.6132 4.74069 3.22807 4.74069 3.81219C4.74069 4.1811 4.77128 4.55002 4.86303 4.91894C4.95479 5.25712 5.07713 5.59529 5.1383 5.93347C5.19947 6.30238 5.23005 6.6713 5.23005 7.04022C5.23005 7.25542 5.23005 7.50137 5.23005 7.71657C5.23005 8.024 5.23005 8.30069 5.29122 8.60812H5.84176Z" fill="#087BC1" fill-opacity="0.5"/>
<path d="M5.8417 8.63882C6.11697 8.17767 6.23931 7.65503 6.23931 7.16314H5.99463H6.23931H5.99463H6.23931C6.23931 6.17936 5.74995 5.25707 5.59702 4.33477C5.56644 4.15031 5.56644 3.9966 5.56644 3.81214C5.56644 2.8591 5.93346 1.90606 6.60633 1.13748L6.11697 0.983765C5.38293 1.78309 4.98532 2.79761 4.98532 3.81214C4.98532 3.9966 4.98532 4.18105 5.01591 4.36551C5.16883 5.3493 5.65819 6.24085 5.65819 7.16314H5.90287H5.65819H5.90287H5.65819C5.65819 7.62429 5.53585 8.11618 5.29117 8.54659L5.8417 8.63882Z" fill="#087BC1" fill-opacity="0.5"/>
<path d="M5.84177 8.48506C5.50533 7.99317 5.32182 7.40905 5.32182 6.82492C5.32182 6.60972 5.35241 6.42526 5.38299 6.21006C5.44416 5.96412 5.53592 5.71817 5.5665 5.44148C5.5665 5.34925 5.59709 5.25702 5.59709 5.19554C5.59709 4.4577 5.23006 3.78135 5.07714 3.105C5.01597 2.79757 4.98538 2.52088 4.98538 2.21345C4.98538 1.84453 5.04655 1.44487 5.13831 1.07595L4.58778 1.01447C4.46544 1.41413 4.40427 1.81379 4.40427 2.21345C4.40427 2.52088 4.43485 2.85906 4.52661 3.16649C4.71012 3.87358 5.04655 4.54993 5.04655 5.22628C5.04655 5.31851 5.04655 5.38 5.04655 5.47223C5.01597 5.71817 4.92421 5.96412 4.86304 6.21006C4.80187 6.42526 4.80187 6.64047 4.80187 6.85567C4.80187 7.47053 4.98538 8.11614 5.35241 8.66952L5.84177 8.48506Z" fill="#087BC1" fill-opacity="0.5"/>
<path d="M5.78058 8.51587C6.02526 7.77804 6.26994 7.0402 6.51462 6.27162C6.63696 5.9027 6.7593 5.50304 6.82047 5.10338C6.85106 4.88818 6.85106 4.67298 6.85106 4.45777C6.85106 3.96588 6.78989 3.47399 6.78989 3.01284C6.78989 2.9821 6.78989 2.92061 6.78989 2.88987C6.78989 2.21352 6.94282 1.53717 7.21808 0.922308L6.66755 0.830078C6.39228 1.47568 6.23936 2.18278 6.20877 2.88987C6.20877 2.92061 6.20877 2.9821 6.20877 3.01284C6.20877 3.50473 6.26994 3.99663 6.26994 4.45777C6.26994 4.67298 6.26994 4.85743 6.23936 5.07264C6.17819 5.44156 6.05585 5.84122 5.93351 6.21013C5.68882 6.94797 5.44414 7.68581 5.19946 8.45439L5.78058 8.51587Z" fill="#087BC1" fill-opacity="0.5"/>
<path d="M7.98273 8.91554C8.07448 8.91554 8.19682 8.91554 8.28858 8.91554C8.4415 8.91554 8.59443 8.91554 8.71677 8.8848C8.77794 8.8848 8.86969 8.85405 8.96145 8.82331C9.0532 8.79257 9.17555 8.70034 9.23672 8.54662C9.2673 8.48514 9.2673 8.42365 9.2673 8.36216C9.2673 8.30068 9.2673 8.23919 9.23672 8.17771C9.17555 7.99325 9.0532 7.87027 8.93086 7.80879C8.80852 7.7473 8.68618 7.71656 8.56384 7.68582C8.47209 7.65507 8.34975 7.62433 8.19682 7.62433C8.10507 7.62433 8.01331 7.62433 7.89097 7.68582C7.79922 7.71656 7.67687 7.80879 7.6157 7.93176C7.55453 8.08548 7.55453 8.20845 7.55453 8.26993V8.33142C7.55453 8.39291 7.55453 8.51588 7.64629 8.63885C7.73805 8.76183 7.86039 8.82331 7.98273 8.82331C8.07448 8.82331 8.19682 8.79257 8.25799 8.70034L7.8298 8.33142L7.98273 8.45439V8.26993C7.95214 8.26993 7.89097 8.30068 7.8298 8.33142L7.98273 8.45439V8.26993V8.42365L8.10507 8.33142C8.07448 8.26994 8.0439 8.26993 7.98273 8.26993V8.42365L8.10507 8.33142L8.0439 8.36216H8.10507V8.33142L8.0439 8.36216H8.10507V8.33142V8.30068V8.20845V8.17771H8.07448H8.0439H8.13565C8.19682 8.17771 8.28858 8.17771 8.34975 8.20845C8.4415 8.23919 8.53326 8.26994 8.56384 8.30068C8.62501 8.33142 8.62501 8.36216 8.62501 8.36216H8.6556H8.62501H8.6556H8.62501H8.71677L8.62501 8.33142V8.36216H8.71677L8.62501 8.33142L8.71677 8.36216L8.6556 8.30068L8.62501 8.33142L8.71677 8.36216L8.6556 8.30068L8.68618 8.33142V8.30068L8.71677 8.33142V8.30068C8.71677 8.30068 8.6556 8.30068 8.62501 8.33142C8.50267 8.33142 8.34975 8.33142 8.22741 8.33142C8.13565 8.33142 8.0439 8.33142 7.95214 8.33142L7.98273 8.91554Z" fill="#087BC1" fill-opacity="0.5"/>
<path d="M8.80849 8.63883C8.80849 8.60809 8.80849 8.5466 8.80849 8.51586C8.80849 7.50133 8.62498 6.51755 8.62498 5.50303C8.62498 5.38005 8.62498 5.25708 8.62498 5.13411C8.68615 4.02735 9.02258 2.95134 9.35902 1.87533C9.48136 1.47567 9.6037 1.04527 9.6037 0.614863C9.6037 0.399661 9.57312 0.184459 9.48136 0L8.93083 0.0922295C8.992 0.276689 9.02258 0.461148 9.02258 0.645607C9.02258 1.04527 8.90024 1.44493 8.7779 1.84459C8.44147 2.9206 8.07445 4.02735 8.01328 5.16485C8.01328 5.28782 8.01328 5.4108 8.01328 5.53377C8.01328 6.5483 8.19679 7.53208 8.19679 8.5466C8.19679 8.57734 8.19679 8.63883 8.19679 8.66957L8.80849 8.63883Z" fill="#087BC1" fill-opacity="0.5"/>
<path d="M8.74727 8.48501C8.41083 7.22454 8.0744 5.93333 8.0744 4.67286C8.0744 4.36543 8.10498 4.08874 8.13557 3.78131C8.22732 3.1357 8.44142 2.45935 8.44142 1.75226C8.44142 1.62929 8.44142 1.47557 8.41083 1.3526L7.8603 1.38334C7.89089 1.50632 7.89089 1.62929 7.89089 1.75226C7.89089 2.39787 7.67679 3.07422 7.58503 3.75057C7.55445 4.058 7.52386 4.36543 7.52386 4.67286C7.52386 5.99482 7.8603 7.28603 8.22732 8.5465L8.74727 8.48501Z" fill="#087BC1" fill-opacity="0.5"/>
<path d="M8.80848 8.6388C8.34971 7.56279 8.31912 6.3638 8.28854 5.19556C8.28854 5.10333 8.28854 4.98036 8.28854 4.88813C8.28854 4.5807 8.31912 4.27327 8.38029 3.96584C8.62497 3.04354 9.51194 2.3057 10.0013 1.35267L9.48136 1.26044C9.02258 2.15199 8.10503 2.88982 7.82976 3.93509C7.73801 4.24252 7.73801 4.5807 7.73801 4.88813C7.73801 4.98036 7.73801 5.10333 7.73801 5.19556C7.76859 6.3638 7.79918 7.59353 8.25795 8.70028L8.80848 8.6388Z" fill="#087BC1" fill-opacity="0.5"/>
<path d="M8.86971 8.51591C9.02264 7.13246 9.17556 5.74902 9.17556 4.36558C9.17556 4.05815 9.17556 3.75072 9.05322 3.44328C8.96147 3.22808 8.83913 3.04362 8.71679 2.85916C8.31918 2.2443 7.98274 1.56795 7.73806 0.891602L7.18753 0.953088C7.43221 1.66018 7.76865 2.33653 8.19684 2.98214C8.31918 3.1666 8.44152 3.32031 8.50269 3.50477C8.59445 3.75072 8.62503 4.05815 8.62503 4.36558H8.9003H8.62503V4.39632C8.62503 5.77976 8.47211 7.16321 8.31918 8.51591H8.86971Z" fill="#087BC1" fill-opacity="0.5"/>
<path d="M11.2859 9.13075C11.4082 9.16149 11.5306 9.19223 11.6835 9.19223C11.7446 9.19223 11.8364 9.19223 11.8976 9.16149C12.0199 9.13075 12.1423 9.06926 12.234 8.97703C12.3258 8.8848 12.3869 8.73108 12.3869 8.57737V8.54663L12.1117 8.57737L12.3869 8.54663C12.3869 8.33142 12.234 8.17771 12.1117 8.08548C11.9893 7.99325 11.8364 7.96251 11.6835 7.93176C11.6223 7.93176 11.5306 7.93176 11.4694 7.93176C11.3165 7.93176 11.1941 7.96251 11.0412 7.99325C10.98 7.99325 10.9494 8.02399 10.8577 8.05474C10.7965 8.08548 10.7048 8.14696 10.6742 8.26994L10.6436 8.30068V8.4544V8.48514V8.51588C10.6742 8.6696 10.7659 8.82331 10.8883 8.91554C11.0106 9.00777 11.1329 9.06926 11.2553 9.1C11.4082 9.13075 11.5611 9.16149 11.7141 9.16149C11.7752 9.16149 11.8058 9.16149 11.867 9.16149H11.8976V8.60811H11.867C11.8058 8.60811 11.7752 8.60811 11.7141 8.60811C11.5917 8.60811 11.5 8.60811 11.4082 8.57737C11.347 8.57737 11.2859 8.54663 11.2553 8.51588L11.1941 8.42365L10.9189 8.48514H11.1941V8.39291H10.9189L11.1941 8.48514L11.0718 8.42365L11.1329 8.54663L11.1941 8.48514L11.0718 8.42365L11.1329 8.54663V8.51588V8.54663V8.51588V8.54663H11.1635C11.2553 8.51588 11.3776 8.51588 11.4694 8.51588H11.6223C11.6835 8.51588 11.7446 8.54663 11.8058 8.57737L11.8364 8.60811H11.8058H11.7752H11.867H11.7446H11.8364H11.7141L11.6223 8.6696H11.5306C11.4694 8.6696 11.3776 8.63886 11.2553 8.63886L11.2859 9.13075Z" fill="#087BC1" fill-opacity="0.5"/>
<path d="M11.6834 8.88472C11.5917 8.33134 11.2247 7.83945 10.98 7.3783C10.6741 6.7327 10.5212 6.05635 10.5212 5.34925C10.5212 4.98033 10.5518 4.61142 10.613 4.2425C10.7965 3.16649 11.2247 2.15196 11.6834 1.10669L11.1329 1.01447C10.6741 2.05973 10.2459 3.105 10.0624 4.18101C10.0013 4.54993 9.94009 4.94959 9.94009 5.34925C9.94009 6.08709 10.093 6.79418 10.4295 7.47053C10.6741 7.96242 11.0106 8.42357 11.1023 8.91546L11.6834 8.88472Z" fill="#087BC1" fill-opacity="0.5"/>
<path d="M11.7142 8.82322C11.6836 8.60802 11.6836 8.39282 11.6836 8.17761C11.6836 7.00937 12.02 5.87188 12.3259 4.70364C12.5705 3.81208 12.7846 2.85905 12.7846 1.93675C12.7846 1.44486 12.7235 0.952969 12.5705 0.491821L12.02 0.553308C12.1423 1.01446 12.2035 1.4756 12.2035 1.93675C12.2035 2.8283 11.9894 3.7506 11.7447 4.67289C11.4389 5.84113 11.0719 7.00937 11.0719 8.20836C11.0719 8.42356 11.0719 8.6695 11.1025 8.88471L11.7142 8.82322Z" fill="#087BC1" fill-opacity="0.5"/>
<path d="M11.7752 8.82339C11.7752 8.63894 11.8058 8.45448 11.8058 8.27002C11.8058 7.4707 11.7141 6.70212 11.7141 5.93354C11.7141 5.74908 11.7141 5.53388 11.7446 5.34942C11.8058 4.11969 12.234 2.85922 12.234 1.56801C12.234 1.53726 12.234 1.50652 12.234 1.47578C12.234 1.07612 12.1728 0.645712 11.8976 0.276794L11.3776 0.43051C11.5917 0.737942 11.6529 1.10686 11.6529 1.47578C11.6529 1.50652 11.6529 1.53726 11.6529 1.56801C11.6529 2.82848 11.2247 4.0582 11.1329 5.34942C11.1329 5.53388 11.1024 5.74908 11.1024 5.93354C11.1024 6.73286 11.1941 7.50144 11.1941 8.27002C11.1941 8.45448 11.1941 8.63894 11.1635 8.82339H11.7752Z" fill="#087BC1" fill-opacity="0.5"/>
<path d="M11.653 8.85401C11.2554 7.83949 11.0413 6.79422 11.0413 5.74895C11.0413 5.22632 11.1024 4.67294 11.1024 4.11956C11.1024 3.81213 11.0719 3.47396 11.0413 3.16652C10.9189 2.42869 10.5825 1.75234 10.2461 1.07599L9.69553 1.16822C10.032 1.84457 10.3378 2.52092 10.4602 3.19727C10.5213 3.5047 10.5213 3.81213 10.5213 4.11956C10.5213 4.6422 10.4602 5.19557 10.4602 5.74895C10.4602 6.82496 10.6742 7.90097 11.0719 8.94624L11.653 8.85401Z" fill="#087BC1" fill-opacity="0.5"/>
<path d="M14.6809 9.00767C14.895 8.88469 15.0173 8.63875 15.0173 8.42355C15.0173 8.36206 15.0173 8.30057 14.9867 8.23909C14.9256 8.02389 14.7421 7.87017 14.5891 7.77794C14.4056 7.68571 14.2527 7.65497 14.0692 7.65497H14.008C13.9468 7.65497 13.8857 7.65497 13.8245 7.68571C13.7633 7.71645 13.641 7.7472 13.5798 7.87017C13.5186 7.9624 13.5186 8.05463 13.5186 8.11612C13.5186 8.1776 13.5186 8.23909 13.5492 8.26983C13.5798 8.42355 13.6104 8.54652 13.641 8.70024V8.73098L13.7327 8.88469L13.7939 9.00767L14.0692 9.06915H14.0998H14.1303C14.3444 9.06915 14.528 9.06915 14.7421 9.06915V8.51578C14.528 8.51578 14.3444 8.51578 14.1303 8.51578V8.79247L14.1915 8.51578L13.9468 8.63875L14.2221 8.57726C14.1915 8.42355 14.1609 8.30057 14.1303 8.14686V8.11612H14.008L14.0998 8.1776L14.1303 8.11612H14.008L14.0998 8.1776L14.008 8.11612L14.0386 8.23909L14.0998 8.1776L14.008 8.11612L14.0386 8.23909H14.0692H14.0998C14.1915 8.23909 14.3139 8.26983 14.375 8.30057C14.4362 8.33132 14.4668 8.36206 14.4974 8.3928V8.42355L14.375 8.54652L14.6809 9.00767Z" fill="#087BC1" fill-opacity="0.5"/>
<path d="M14.6503 8.60807C14.6197 8.45435 14.6197 8.30064 14.6197 8.14692C14.6197 7.53206 14.7115 6.88645 14.7115 6.2101C14.7115 5.9949 14.7115 5.7797 14.6809 5.56449C14.6197 5.04186 14.4362 4.58071 14.2833 4.08882C14.0998 3.5047 13.9774 2.88984 13.9774 2.27497V2.24423C13.9774 1.62937 14.1304 1.0145 14.4668 0.491869L13.9469 0.368896C13.5798 0.922274 13.4269 1.59862 13.4269 2.24423H13.7022H13.4269V2.27497C13.4269 2.92058 13.5493 3.53544 13.7328 4.15031C13.8857 4.6422 14.0386 5.10335 14.0998 5.59524C14.1304 5.81044 14.1304 5.9949 14.1304 6.2101C14.1304 6.82496 14.0386 7.47057 14.0386 8.14692C14.0386 8.30064 14.0386 8.4851 14.0692 8.63881L14.6503 8.60807Z" fill="#087BC1" fill-opacity="0.5"/>
<path d="M14.6197 8.54659V8.4851C14.6197 8.0547 14.4668 7.62429 14.375 7.25537C14.1915 6.60977 14.0692 5.90267 14.0692 5.25707C14.0692 4.61146 14.1915 3.96585 14.4362 3.35099C14.7115 2.67464 15.1702 2.05978 15.5679 1.41417L15.0479 1.2912C14.6809 1.93681 14.1915 2.55167 13.8857 3.25876C13.6104 3.90437 13.5186 4.54997 13.5186 5.22632C13.5186 5.93342 13.641 6.64051 13.8245 7.28612C13.9468 7.68578 14.0692 8.08544 14.0692 8.45436V8.51584L14.6197 8.54659Z" fill="#087BC1" fill-opacity="0.5"/>
<path d="M14.5278 8.57727C14.5278 8.14687 14.4972 7.68572 14.4972 7.25532C14.4972 6.73268 14.5278 6.17931 14.589 5.65667C14.7113 4.70363 14.956 3.71985 15.4454 2.88979C15.7207 2.42864 16.1183 1.90601 16.1183 1.32189C16.1183 1.29114 16.1183 1.22966 16.1183 1.19891L15.5677 1.22966C15.5677 1.2604 15.5677 1.29114 15.5677 1.32189C15.5677 1.81378 15.2007 2.27492 14.9254 2.79756C14.4055 3.68911 14.1608 4.67289 14.0385 5.65667C13.9773 6.21005 13.9467 6.73268 13.9467 7.28606C13.9467 7.74721 13.9467 8.17761 13.9773 8.60802L14.5278 8.57727Z" fill="#087BC1" fill-opacity="0.5"/>
<path d="M14.6197 8.51586C14.7114 7.87026 14.742 7.22465 14.742 6.57904C14.742 5.99492 14.7114 5.4108 14.7114 4.82668C14.7114 4.0581 14.742 3.28952 14.895 2.52094C14.9255 2.30574 14.9867 2.09054 14.9867 1.8446C14.9867 1.81385 14.9867 1.78311 14.9867 1.75237C14.9561 1.44493 14.8338 1.1375 14.8338 0.891557C14.8338 0.83007 14.8338 0.768584 14.8644 0.676355L14.3138 0.614868C14.2832 0.707098 14.2832 0.799327 14.2832 0.891557C14.2832 1.19899 14.4056 1.50642 14.4362 1.78311V1.87534C14.4362 2.09054 14.375 2.30574 14.3444 2.52094C14.1915 3.28952 14.1609 4.08885 14.1609 4.85743C14.1609 5.44155 14.1915 6.02567 14.1915 6.60979C14.1915 7.25539 14.1609 7.87026 14.0692 8.51586H14.6197Z" fill="#087BC1" fill-opacity="0.5"/>
<path d="M16.7607 9.13068C16.8524 9.13068 16.9442 9.16142 17.036 9.16142C17.1277 9.16142 17.2501 9.16142 17.3724 9.09993C17.4947 9.06919 17.6171 8.97696 17.7088 8.88473C17.8006 8.7925 17.8618 8.63879 17.8618 8.48507H17.5865L17.8618 8.51581V8.48507C17.8618 8.23913 17.7088 8.05467 17.5559 7.93169C17.403 7.83946 17.2501 7.77798 17.1277 7.74723C17.0665 7.71649 16.9748 7.71649 16.8524 7.71649C16.7913 7.71649 16.6995 7.71649 16.6078 7.77798C16.4548 7.83946 16.3631 7.99318 16.3325 8.11615C16.3019 8.23913 16.2713 8.3621 16.2713 8.45433V8.51581C16.2713 8.60804 16.2713 8.76176 16.3631 8.91548C16.4548 9.06919 16.5772 9.19216 16.7913 9.19216L16.9136 9.16142L16.7607 8.60804L16.7913 8.73102V8.60804H16.7607L16.7913 8.73102V8.60804V8.66953L16.8524 8.63879C16.8524 8.63879 16.8524 8.63879 16.7913 8.60804V8.66953L16.8524 8.63879C16.8524 8.63879 16.8219 8.5773 16.8219 8.48507H16.5466H16.8219V8.42358C16.8219 8.3621 16.8219 8.30061 16.8524 8.26987V8.23913L16.8219 8.20838V8.23913L16.7913 8.20838V8.23913V8.20838V8.23913V8.20838V8.23913C16.8219 8.23913 16.8524 8.23913 16.9136 8.26987C17.036 8.30061 17.1277 8.33135 17.1889 8.3621L17.2501 8.42358V8.45433H17.5253L17.2501 8.42358V8.45433H17.5253L17.2501 8.42358L17.2195 8.45433L17.1277 8.51581C17.1277 8.5773 17.0971 8.5773 17.036 8.5773C16.9748 8.5773 16.9136 8.5773 16.8219 8.5773L16.7607 9.13068Z" fill="#087BC1" fill-opacity="0.5"/>
<path d="M17.3418 8.57739C17.3418 8.11624 17.4641 7.68583 17.4641 7.22469C17.4641 7.19394 17.4641 7.13246 17.4641 7.10171C17.4641 6.57908 17.3418 6.05645 17.25 5.56456C17.1277 4.88821 17.0359 4.21186 17.0359 3.53551C17.0359 2.58247 17.2194 1.62943 17.7394 0.799364L17.2194 0.676392C16.6995 1.56794 16.516 2.55173 16.516 3.53551C16.516 4.21186 16.6077 4.91895 16.7301 5.5953C16.8218 6.11793 16.9442 6.60982 16.9442 7.10171C16.9442 7.13246 16.9442 7.19394 16.9442 7.22469C16.9136 7.65509 16.8218 8.11624 16.8218 8.57739V8.60813L17.3418 8.57739Z" fill="#087BC1" fill-opacity="0.5"/>
<path d="M17.3417 8.57737C17.3417 8.54663 17.3417 8.48514 17.3417 8.4544C17.3417 8.14697 17.1888 7.90102 17.097 7.65507C16.8218 7.00947 16.8523 6.30238 16.8523 5.59528C16.8218 3.78144 16.4242 2.02908 16.0265 0.245972L15.476 0.276715C15.8736 2.02908 16.2406 3.81218 16.2712 5.56454C16.3018 6.27163 16.2406 7.00947 16.5465 7.68582C16.6382 7.93176 16.7912 8.17771 16.7912 8.39291C16.7912 8.42365 16.7912 8.4544 16.7912 8.48514L17.3417 8.57737Z" fill="#087BC1" fill-opacity="0.5"/>
<path d="M17.4947 8.60816C17.5559 7.50141 17.5865 6.39466 17.6477 5.31864C17.6783 4.64229 17.7088 3.99669 17.8924 3.35108C18.0147 2.95142 18.1982 2.55176 18.4429 2.21358C18.6264 1.90615 18.9017 1.59872 18.9322 1.19906V1.13757H18.3817V1.16832C18.3817 1.44501 18.1676 1.75244 17.9535 2.05987C17.7088 2.45953 17.4947 2.85919 17.3724 3.2896C17.1583 3.96595 17.1277 4.64229 17.0971 5.31864C17.036 6.4254 17.0054 7.53215 16.9442 8.60816H17.4947Z" fill="#087BC1" fill-opacity="0.5"/>
<path d="M17.3724 8.51583C17.403 7.25536 17.4335 5.96415 17.4335 4.67293C17.4335 4.27327 17.4335 3.87361 17.4335 3.47395C17.4335 3.32023 17.4335 3.13577 17.4335 2.98206C17.4335 2.64388 17.4641 2.30571 17.5253 1.96753C17.5865 1.6601 17.7394 1.32193 17.8617 1.0145L17.8923 0.922266L17.8617 1.0145C17.9841 0.76855 18.0758 0.491861 18.1982 0.245916L17.6476 0.153687C17.5253 0.399632 17.4335 0.67632 17.3112 0.922266C17.1889 1.2297 17.0359 1.56787 16.9748 1.90605C16.883 2.27497 16.883 2.61314 16.883 2.98206C16.883 3.13577 16.883 3.32023 16.883 3.47395C16.883 3.87361 16.883 4.27327 16.883 4.67293C16.883 5.9334 16.8524 7.22462 16.8218 8.48509L17.3724 8.51583Z" fill="#087BC1" fill-opacity="0.5"/>
<path d="M19.3603 9.09999C19.4827 9.09999 19.605 9.13073 19.7274 9.13073C19.9109 9.13073 20.0944 9.09999 20.3085 9.06925C20.3697 9.06925 20.4614 9.0385 20.5837 8.97702C20.7061 8.88479 20.7978 8.79256 20.8284 8.63884L20.859 8.48513C20.859 8.26992 20.7673 8.11621 20.6143 7.99324C20.4308 7.87026 20.2473 7.80878 20.0944 7.80878H20.0026C19.7579 7.80878 19.5439 7.87026 19.3298 7.96249C19.238 8.02398 19.0851 8.08547 19.0239 8.26992C18.9933 8.33141 18.9933 8.3929 18.9933 8.45438C18.9933 8.66959 19.1157 8.8233 19.2992 8.94628C19.4215 9.00776 19.5133 9.0385 19.6356 9.0385C19.7274 9.0385 19.7885 9.0385 19.8803 9.00776L19.7274 8.45438H19.6356H19.5744L19.5439 8.48513H19.5744V8.45438L19.5439 8.48513H19.5744H19.4827L19.5744 8.51587V8.48513H19.4827L19.5744 8.51587L19.5133 8.48513L19.5744 8.51587L19.5133 8.48513L19.5744 8.51587L19.6356 8.48513C19.7579 8.42364 19.9109 8.3929 20.0638 8.3929H20.125C20.2167 8.3929 20.3085 8.42364 20.3391 8.45438L20.3696 8.51587C20.3696 8.51587 20.3391 8.51587 20.2779 8.54661C20.125 8.57736 19.972 8.57736 19.8191 8.57736C19.7274 8.57736 19.6356 8.57736 19.5439 8.54661L19.3603 9.09999Z" fill="#087BC1" fill-opacity="0.5"/>
<path d="M20.2167 8.60812C20.1861 8.30069 20.1861 8.024 20.1861 7.71657C20.1861 7.50137 20.1861 7.25542 20.1861 7.04022C20.1861 6.64056 20.1861 6.27164 20.0944 5.87198C20.0332 5.5338 19.9109 5.19563 19.8191 4.85745C19.7274 4.51928 19.6968 4.15036 19.6968 3.81219C19.6968 3.25881 19.7885 2.67469 20.0026 2.15206C20.2167 1.62942 20.5226 1.07604 20.5532 0.461182H20.0026C19.972 0.983815 19.6662 1.50645 19.4521 2.05983C19.238 2.6132 19.1157 3.22807 19.1157 3.81219C19.1157 4.1811 19.1462 4.55002 19.238 4.91894C19.3298 5.25712 19.4521 5.59529 19.5133 5.93347C19.5744 6.30238 19.605 6.6713 19.605 7.04022C19.605 7.25542 19.605 7.50137 19.605 7.71657C19.605 8.024 19.605 8.30069 19.6662 8.60812H20.2167Z" fill="#087BC1" fill-opacity="0.5"/>
<path d="M20.2167 8.63882C20.492 8.17767 20.6143 7.65503 20.6143 7.16314H20.3696H20.6143H20.3696H20.6143C20.6143 6.17936 20.1249 5.25707 19.972 4.33477C19.9414 4.15031 19.9414 3.9966 19.9414 3.81214C19.9414 2.8591 20.3085 1.90606 20.9813 1.13748L20.492 0.983765C19.7579 1.78309 19.3603 2.79761 19.3603 3.81214C19.3603 3.9966 19.3603 4.18105 19.3909 4.36551C19.5438 5.3493 20.0332 6.24085 20.0332 7.16314H20.2779H20.0332H20.2779H20.0332C20.0332 7.62429 19.9109 8.11618 19.6662 8.54659L20.2167 8.63882Z" fill="#087BC1" fill-opacity="0.5"/>
<path d="M20.2168 8.48506C19.8804 7.99317 19.6969 7.40905 19.6969 6.82492C19.6969 6.60972 19.7274 6.42526 19.758 6.21006C19.8192 5.96412 19.9109 5.71817 19.9415 5.44148C19.9415 5.34925 19.9721 5.25702 19.9721 5.19554C19.9721 4.4577 19.6051 3.78135 19.4522 3.105C19.391 2.79757 19.3604 2.52088 19.3604 2.21345C19.3604 1.84453 19.4216 1.44487 19.5133 1.07595L18.9628 1.01447C18.8405 1.41413 18.7793 1.81379 18.7793 2.21345C18.7793 2.52088 18.8099 2.85906 18.9016 3.16649C19.0851 3.87358 19.4216 4.54993 19.4216 5.22628C19.4216 5.31851 19.4216 5.38 19.4216 5.47223C19.391 5.71817 19.2992 5.96412 19.2381 6.21006C19.1769 6.42526 19.1769 6.64047 19.1769 6.85567C19.1769 7.47053 19.3604 8.11614 19.7274 8.66952L20.2168 8.48506Z" fill="#087BC1" fill-opacity="0.5"/>
<path d="M20.1555 8.51587C20.4002 7.77804 20.6449 7.0402 20.8896 6.27162C21.0119 5.9027 21.1342 5.50304 21.1954 5.10338C21.226 4.88818 21.226 4.67298 21.226 4.45777C21.226 3.96588 21.1648 3.47399 21.1648 3.01284C21.1648 2.9821 21.1648 2.92061 21.1648 2.88987C21.1648 2.21352 21.3178 1.53717 21.593 0.922308L21.0425 0.830078C20.7672 1.47568 20.6143 2.18278 20.5837 2.88987C20.5837 2.92061 20.5837 2.9821 20.5837 3.01284C20.5837 3.50473 20.6449 3.99663 20.6449 4.45777C20.6449 4.67298 20.6449 4.85743 20.6143 5.07264C20.5531 5.44156 20.4308 5.84122 20.3084 6.21013C20.0638 6.94797 19.8191 7.68581 19.5744 8.45439L20.1555 8.51587Z" fill="#087BC1" fill-opacity="0.5"/>
<path d="M20.3392 54.4154C20.2474 54.4154 20.1557 54.3847 20.0639 54.3847C19.9722 54.3847 19.8498 54.3847 19.7275 54.4462C19.6051 54.4769 19.4828 54.5691 19.3911 54.6614C19.2993 54.7536 19.2381 54.9073 19.2381 55.061H19.5134L19.2381 55.0303V55.061C19.2381 55.307 19.3911 55.4914 19.544 55.6144C19.6969 55.7066 19.8498 55.7681 19.9722 55.7989C20.0333 55.8296 20.1251 55.8296 20.2474 55.8296C20.3086 55.8296 20.4004 55.8296 20.4921 55.7681C20.645 55.7066 20.7368 55.5529 20.7674 55.43C20.798 55.307 20.8286 55.184 20.8286 55.0918V55.0303C20.8286 54.9381 20.8286 54.7843 20.7368 54.6306C20.645 54.4769 20.5227 54.3539 20.3086 54.3539L20.1863 54.3847L20.3392 54.9381L20.3086 54.8151V54.9381H20.3392L20.3086 54.8151V54.9381V54.8766L20.2474 54.9073C20.2474 54.9073 20.2474 54.9073 20.3086 54.9381V54.8766L20.2474 54.9073C20.2474 54.9073 20.278 54.9688 20.278 55.061H20.5533H20.278V55.1225C20.278 55.184 20.278 55.2455 20.2474 55.2762V55.307L20.278 55.3377V55.307L20.3086 55.3377V55.307V55.3377V55.307V55.3377V55.307C20.278 55.307 20.2474 55.307 20.1863 55.2762C20.0639 55.2455 19.9722 55.2148 19.911 55.184L19.8498 55.1225V55.0918H19.5746L19.8498 55.1225V55.0918H19.5746L19.8498 55.1225L19.8804 55.0918L19.9722 55.0303C20.0028 55.0303 20.0639 54.9996 20.1251 54.9996C20.1863 54.9996 20.2474 54.9996 20.3392 54.9996V54.4154Z" fill="#087BC1" fill-opacity="0.5"/>
<path d="M19.7274 54.6614C19.7274 55.1226 19.6051 55.553 19.6051 56.0141C19.6051 56.0449 19.6051 56.1063 19.6051 56.1371C19.6051 56.6597 19.7274 57.1824 19.8192 57.6743C19.9415 58.3506 20.0333 59.027 20.0333 59.7033C20.0333 60.6563 19.8498 61.6094 19.3298 62.4394L19.8498 62.5624C20.4003 61.6709 20.5838 60.6871 20.5838 59.7033C20.5838 59.027 20.4921 58.3199 20.3697 57.6435C20.278 57.1209 20.1556 56.629 20.1556 56.1371C20.1556 56.1063 20.1556 56.0449 20.1556 56.0141C20.1862 55.5837 20.278 55.1226 20.278 54.6614V54.6307L19.7274 54.6614Z" fill="#087BC1" fill-opacity="0.5"/>
<path d="M19.7579 54.6614C19.7579 54.6921 19.7579 54.7536 19.7579 54.7844C19.7579 55.0918 19.9109 55.3377 20.0026 55.5837C20.2779 56.2293 20.2473 56.9364 20.2473 57.6435C20.2779 59.4573 20.6755 61.2097 21.0731 62.9928L21.6236 62.962C21.226 61.2097 20.859 59.4266 20.8284 57.6742C20.7978 56.9671 20.859 56.2293 20.5531 55.5529C20.4614 55.307 20.3085 55.061 20.3085 54.8458C20.3085 54.8151 20.3085 54.7844 20.3085 54.7536L19.7579 54.6614Z" fill="#087BC1" fill-opacity="0.5"/>
<path d="M19.5744 54.6307C19.5132 55.7374 19.4826 56.8442 19.4215 57.9202C19.3909 58.5965 19.3603 59.2422 19.1768 59.8878C19.0545 60.2874 18.8709 60.6871 18.6263 61.0253C18.4428 61.3327 18.1675 61.6401 18.1369 62.0398V62.1013H18.6874V62.0705C18.6874 61.7938 18.9015 61.4864 19.1156 61.179C19.3603 60.7793 19.5744 60.3797 19.6967 59.9492C19.9108 59.2729 19.9414 58.5965 19.972 57.9202C20.0332 56.8134 20.0638 55.7067 20.1249 54.6307H19.5744Z" fill="#087BC1" fill-opacity="0.5"/>
<path d="M19.7273 54.7228C19.6968 55.9833 19.6662 57.2745 19.6662 58.5657C19.6662 58.9654 19.6662 59.3651 19.6662 59.7647C19.6662 59.9184 19.6662 60.1029 19.6662 60.2566C19.6662 60.5948 19.6356 60.933 19.5744 61.2711C19.5133 61.5786 19.3603 61.9167 19.238 62.2242L19.2074 62.3164L19.238 62.2242C19.1156 62.4701 19.0239 62.7468 18.9016 62.9928L19.4521 63.085C19.5744 62.839 19.6662 62.5624 19.7885 62.3164C19.9109 62.009 20.0638 61.6708 20.125 61.3326C20.2167 60.9637 20.2167 60.6255 20.2167 60.2566C20.2167 60.1029 20.2167 59.9184 20.2167 59.7647C20.2167 59.3651 20.2167 58.9654 20.2167 58.5657C20.2167 57.3053 20.2473 56.0141 20.2779 54.7536L19.7273 54.7228Z" fill="#087BC1" fill-opacity="0.5"/>
<path d="M17.7393 54.4461C17.6169 54.4461 17.4946 54.4154 17.3723 54.4154C17.1887 54.4154 17.0052 54.4461 16.7911 54.4769C16.73 54.4769 16.6382 54.5076 16.5159 54.5691C16.3935 54.6614 16.3018 54.7536 16.2712 54.9073L16.2406 55.061C16.2406 55.2762 16.3324 55.4299 16.4853 55.5529C16.6688 55.6759 16.8523 55.7374 17.0052 55.7374H17.097C17.3417 55.7374 17.5558 55.6759 17.7699 55.5836C17.8616 55.5222 18.0145 55.4607 18.0757 55.2762C18.1063 55.2147 18.1063 55.1532 18.1063 55.0918C18.1063 54.8766 17.984 54.7228 17.8004 54.5999C17.6781 54.5384 17.5863 54.5076 17.464 54.5076C17.3723 54.5076 17.3111 54.5076 17.2193 54.5384L17.3723 55.0918H17.464H17.5252L17.5558 55.061H17.5252V55.0918L17.5558 55.061H17.5252H17.6169L17.5252 55.0303V55.061H17.6169L17.5252 55.0303L17.5863 55.061L17.5252 55.0303L17.5863 55.061L17.5252 55.0303L17.464 55.061C17.3417 55.1225 17.1887 55.1532 17.0358 55.1532H16.9746C16.8829 55.1532 16.7911 55.1225 16.7605 55.0918L16.73 55.0303C16.73 55.0303 16.7605 55.0303 16.8217 54.9995C16.9746 54.9688 17.1276 54.9688 17.2805 54.9688C17.3723 54.9688 17.464 54.9688 17.5558 54.9995L17.7393 54.4461Z" fill="#087BC1" fill-opacity="0.5"/>
<path d="M16.8523 54.938C16.8829 55.2147 16.9135 55.5221 16.9135 55.7988C16.9135 56.014 16.9135 56.2599 16.9135 56.4751C16.9135 56.8748 16.9135 57.2437 17.0053 57.6434C17.0664 57.9815 17.1888 58.3197 17.2805 58.6579C17.3723 58.9961 17.4029 59.365 17.4029 59.7032C17.4029 60.2565 17.3111 60.8407 17.097 61.3633C16.8829 61.8859 16.5771 62.4393 16.5465 63.0542H17.097C17.1276 62.5315 17.4334 62.0089 17.6475 61.4555C17.8616 60.9021 17.984 60.2873 17.984 59.7032C17.984 59.3342 17.9534 58.9653 17.8616 58.5964C17.7699 58.2582 17.6475 57.9201 17.5864 57.5819C17.5252 57.213 17.4946 56.844 17.4946 56.4751C17.4946 56.2599 17.4946 56.014 17.4946 55.7988C17.4946 55.4913 17.4946 55.2147 17.4334 54.9072L16.8523 54.938Z" fill="#087BC1" fill-opacity="0.5"/>
<path d="M16.8523 54.9072C16.5771 55.3684 16.4547 55.891 16.4547 56.3829H16.6994H16.4547H16.6994H16.4547C16.4547 57.3667 16.9441 58.289 17.097 59.2113C17.1276 59.3957 17.1276 59.5494 17.1276 59.7339C17.1276 60.6869 16.7606 61.64 16.0877 62.4086L16.5771 62.5623C17.3111 61.763 17.7087 60.7484 17.7087 59.7339C17.7087 59.5494 17.7087 59.365 17.6781 59.1805C17.5252 58.1967 17.0358 57.3052 17.0358 56.3829H16.7912H17.0358H16.7912H17.0358C17.0358 55.9218 17.1582 55.4299 17.4029 54.9995L16.8523 54.9072Z" fill="#087BC1" fill-opacity="0.5"/>
<path d="M16.883 55.061C17.2194 55.5529 17.4029 56.137 17.4029 56.7211C17.4029 56.9363 17.3724 57.1208 17.3418 57.336C17.2806 57.5819 17.1888 57.8279 17.1583 58.1046C17.1583 58.1968 17.1277 58.289 17.1277 58.3505C17.1277 59.0883 17.4947 59.7647 17.6476 60.441C17.7088 60.7485 17.7394 61.0252 17.7394 61.3326C17.7394 61.7015 17.6782 62.1012 17.5865 62.4701L18.137 62.5316C18.2593 62.1319 18.3205 61.7322 18.3205 61.3326C18.3205 61.0252 18.2899 60.687 18.1982 60.3795C18.0146 59.6725 17.6782 58.9961 17.6782 58.3198C17.6782 58.2275 17.6782 58.166 17.6782 58.0738C17.7088 57.8279 17.8005 57.5819 17.8617 57.336C17.9229 57.1208 17.9229 56.9056 17.9229 56.6904C17.9229 56.0755 17.7394 55.4299 17.3724 54.8765L16.883 55.061Z" fill="#087BC1" fill-opacity="0.5"/>
<path d="M16.9442 55.0303C16.6995 55.7681 16.4548 56.5059 16.2101 57.2745C16.0878 57.6434 15.9654 58.0431 15.9043 58.4428C15.8737 58.658 15.8737 58.8732 15.8737 59.0884C15.8737 59.5803 15.9348 60.0721 15.9348 60.5333C15.9348 60.564 15.9348 60.6255 15.9348 60.6563C15.9348 61.3326 15.7819 62.009 15.5067 62.6238L16.0572 62.7161C16.3325 62.0705 16.4854 61.3634 16.516 60.6563C16.516 60.6255 16.516 60.564 16.516 60.5333C16.516 60.0414 16.4548 59.5495 16.4548 59.0884C16.4548 58.8732 16.4548 58.6887 16.4854 58.4735C16.5465 58.1046 16.6689 57.7049 16.7912 57.336C17.0359 56.5982 17.2806 55.8603 17.5253 55.0918L16.9442 55.0303Z" fill="#087BC1" fill-opacity="0.5"/>
<path d="M14.742 54.6307C14.6502 54.6307 14.5279 54.6307 14.4362 54.6307C14.2832 54.6307 14.1303 54.6307 14.008 54.6614C13.9468 54.6614 13.855 54.6922 13.7633 54.7229C13.6715 54.7537 13.5492 54.8459 13.488 54.9996C13.4574 55.0611 13.4574 55.1226 13.4574 55.1841C13.4574 55.2455 13.4574 55.307 13.488 55.3685C13.5492 55.553 13.6715 55.6759 13.7939 55.7374C13.9162 55.7989 14.0385 55.8297 14.1609 55.8604C14.2526 55.8911 14.375 55.9219 14.5279 55.9219C14.6197 55.9219 14.7114 55.9219 14.8338 55.8604C14.9255 55.8297 15.0479 55.7374 15.109 55.6145C15.1702 55.4607 15.1702 55.3378 15.1702 55.2763V55.2148C15.1702 55.1533 15.1702 55.0303 15.0784 54.9074C14.9867 54.7844 14.8643 54.7229 14.742 54.7229C14.6502 54.7229 14.5279 54.7536 14.4667 54.8459L14.8949 55.2148L14.742 55.0918V55.2763C14.7726 55.2763 14.8338 55.2455 14.8949 55.2148L14.742 55.0918V55.2763V55.1226L14.6197 55.2148C14.6502 55.2763 14.6808 55.2763 14.742 55.2763V55.1226L14.6197 55.2148L14.6808 55.1841H14.6197V55.2148L14.6808 55.1841H14.6197V55.2148V55.2455V55.3378V55.3685H14.6502H14.6808H14.5891C14.5279 55.3685 14.4362 55.3685 14.375 55.3378C14.2832 55.307 14.1915 55.2763 14.1609 55.2455C14.0997 55.2148 14.0997 55.1841 14.0997 55.1841H14.0691H14.0997H14.0691H14.0997H14.008L14.0997 55.2148V55.1841H14.008L14.0997 55.2148L14.008 55.1841L14.0691 55.2455L14.0997 55.2148L14.008 55.1841L14.0691 55.2455L14.0385 55.2148V55.2455L14.008 55.2148V55.2455C14.008 55.2455 14.0691 55.2455 14.0997 55.2148C14.2221 55.2148 14.375 55.2148 14.4973 55.2148C14.5891 55.2148 14.6808 55.2148 14.7726 55.2148L14.742 54.6307Z" fill="#087BC1" fill-opacity="0.5"/>
<path d="M13.8856 54.9073C13.8856 54.938 13.8856 54.9995 13.8856 55.0302C13.8856 56.0448 14.0691 57.0285 14.0691 58.0431C14.0691 58.166 14.0691 58.289 14.0691 58.412C14.0079 59.5187 13.6715 60.5947 13.335 61.6708C13.2127 62.0704 13.0904 62.5008 13.0904 62.9312C13.0904 63.1464 13.1209 63.3616 13.2127 63.5461L13.7632 63.4539C13.7021 63.2694 13.6715 63.0849 13.6715 62.9005C13.6715 62.5008 13.7938 62.1012 13.9162 61.7015C14.2526 60.6255 14.6196 59.5187 14.6808 58.3812C14.6808 58.2583 14.6808 58.1353 14.6808 58.0123C14.6808 56.9978 14.4973 56.014 14.4973 54.9995C14.4973 54.9688 14.4973 54.9073 14.4973 54.8765L13.8856 54.9073Z" fill="#087BC1" fill-opacity="0.5"/>
<path d="M13.9467 55.0611C14.2832 56.3215 14.6196 57.6127 14.6196 58.8732C14.6196 59.1806 14.589 59.4573 14.5584 59.7648C14.4667 60.4104 14.2526 61.0867 14.2526 61.7938C14.2526 61.9168 14.2526 62.0705 14.2832 62.1935L14.8337 62.1627C14.8031 62.0398 14.8031 61.9168 14.8031 61.7938C14.8031 61.1482 15.0172 60.4719 15.109 59.7955C15.1395 59.4881 15.1701 59.1806 15.1701 58.8732C15.1701 57.5513 14.8337 56.26 14.4667 54.9996L13.9467 55.0611Z" fill="#087BC1" fill-opacity="0.5"/>
<path d="M13.9162 54.9073C14.375 55.9833 14.4056 57.1823 14.4362 58.3505C14.4362 58.4428 14.4362 58.5657 14.4362 58.658C14.4362 58.9654 14.4056 59.2728 14.3444 59.5803C14.0997 60.5026 13.2128 61.2404 12.7234 62.1934L13.2433 62.2857C13.7021 61.3941 14.6197 60.6563 14.8949 59.611C14.9867 59.3036 14.9867 58.9654 14.9867 58.658C14.9867 58.5657 14.9867 58.4428 14.9867 58.3505C14.9561 57.1823 14.9255 55.9526 14.4667 54.8458L13.9162 54.9073Z" fill="#087BC1" fill-opacity="0.5"/>
<path d="M13.855 55.0303C13.7021 56.4137 13.5492 57.7972 13.5492 59.1806C13.5492 59.488 13.5492 59.7955 13.6715 60.1029C13.7633 60.3181 13.8856 60.5026 14.0079 60.687C14.4055 61.3019 14.742 61.9782 14.9867 62.6546L15.5372 62.5931C15.2925 61.886 14.9561 61.2096 14.5279 60.564C14.4055 60.3796 14.2832 60.2259 14.222 60.0414C14.1303 59.7955 14.0997 59.488 14.0997 59.1806H13.8244H14.0997V59.1499C14.0997 57.7664 14.2526 56.383 14.4055 55.0303H13.855Z" fill="#087BC1" fill-opacity="0.5"/>
<path d="M11.4083 54.4154C11.2859 54.3847 11.1636 54.3539 11.0107 54.3539C10.9495 54.3539 10.8578 54.3539 10.7966 54.3847C10.6742 54.4154 10.5519 54.4769 10.4601 54.5691C10.3684 54.6614 10.3072 54.8151 10.3072 54.9688V54.9996L10.5825 54.9688L10.3072 54.9996C10.3072 55.2148 10.4601 55.3685 10.5825 55.4607C10.7048 55.5529 10.8578 55.5837 11.0107 55.6144C11.0718 55.6144 11.1636 55.6144 11.2248 55.6144C11.3777 55.6144 11.5 55.5837 11.653 55.5529C11.7141 55.5529 11.7447 55.5222 11.8365 55.4914C11.8976 55.4607 11.9894 55.3992 12.02 55.2762L12.0506 55.2455V55.0918V55.061V55.0303C12.02 54.8766 11.9282 54.7229 11.8059 54.6306C11.6835 54.5384 11.5612 54.4769 11.4389 54.4462C11.2859 54.4154 11.133 54.3847 10.9801 54.3847C10.9189 54.3847 10.8883 54.3847 10.8272 54.3847H10.7966V54.9381H10.8272C10.8883 54.9381 10.9189 54.9381 10.9801 54.9381C11.1024 54.9381 11.1942 54.9381 11.2859 54.9688C11.3471 54.9688 11.4083 54.9996 11.4389 55.0303L11.5 55.1225L11.7753 55.061H11.5V55.1533H11.7753L11.5 55.061L11.6224 55.1225L11.5612 54.9996L11.5 55.061L11.6224 55.1225L11.5612 54.9996V55.0303V54.9996V55.0303V54.9996H11.5306C11.4389 55.0303 11.3165 55.0303 11.2248 55.0303H11.0718C11.0107 55.0303 10.9495 54.9996 10.8883 54.9688L10.8578 54.9381H10.8883H10.9189H10.8272H10.9495H10.8578H10.9801L11.0718 54.8766H11.1636C11.2248 54.8766 11.3165 54.9073 11.4389 54.9073L11.4083 54.4154Z" fill="#087BC1" fill-opacity="0.5"/>
<path d="M11.0412 54.6614C11.1329 55.2148 11.4999 55.7067 11.7446 56.1678C12.0505 56.8134 12.2034 57.4898 12.2034 58.1969C12.2034 58.5658 12.1728 58.9347 12.1116 59.3036C11.9281 60.3796 11.4999 61.3942 11.0412 62.4394L11.5917 62.5317C12.0505 61.4864 12.4787 60.4411 12.6622 59.3651C12.7233 58.9962 12.7845 58.5965 12.7845 58.1969C12.7845 57.459 12.6316 56.752 12.2952 56.0756C12.0505 55.5837 11.714 55.1226 11.6223 54.6307L11.0412 54.6614Z" fill="#087BC1" fill-opacity="0.5"/>
<path d="M11.0106 54.7229C11.0412 54.9381 11.0412 55.1533 11.0412 55.3685C11.0412 56.5367 10.7047 57.6742 10.3989 58.8424C10.1542 59.734 9.94009 60.687 9.94009 61.6093C9.94009 62.1012 10.0013 62.5931 10.1542 63.0543L10.7047 62.9928C10.5824 62.5316 10.5212 62.0705 10.5212 61.6093C10.5212 60.7178 10.7353 59.7955 10.98 58.8732C11.2858 57.705 11.6529 56.5367 11.6529 55.3377C11.6529 55.1225 11.6529 54.8766 11.6223 54.6614L11.0106 54.7229Z" fill="#087BC1" fill-opacity="0.5"/>
<path d="M10.9495 54.7228C10.9495 54.9073 10.9189 55.0918 10.9189 55.2762C10.9189 56.0755 11.0107 56.8441 11.0107 57.6127C11.0107 57.7972 11.0107 58.0124 10.9801 58.1968C10.8883 59.4573 10.4601 60.7178 10.4601 62.009C10.4601 62.0397 10.4601 62.0705 10.4601 62.1012C10.4601 62.5009 10.5213 62.9313 10.7966 63.3002L11.3165 63.1465C11.1024 62.839 11.0413 62.4701 11.0413 62.1012C11.0413 62.0705 11.0413 62.0397 11.0413 62.009C11.0413 60.7485 11.4695 59.5188 11.5612 58.2276C11.5612 58.0431 11.5918 57.8279 11.5918 57.6434C11.5918 56.8441 11.5 56.0755 11.5 55.307C11.5 55.1225 11.5 54.938 11.5306 54.7536L10.9495 54.7228Z" fill="#087BC1" fill-opacity="0.5"/>
<path d="M11.0719 54.6921C11.4695 55.7066 11.6836 56.7519 11.6836 57.7971C11.6836 58.3198 11.6224 58.8732 11.6224 59.4265C11.6224 59.734 11.653 60.0721 11.6836 60.3796C11.8059 61.1174 12.1423 61.7938 12.4788 62.4701L13.0293 62.3779C12.6929 61.7015 12.387 61.0252 12.2647 60.3488C12.2035 60.0414 12.2035 59.734 12.2035 59.4265C12.2035 58.9039 12.2647 58.3505 12.2647 57.7971C12.2647 56.7211 12.0506 55.6451 11.653 54.5999L11.0719 54.6921Z" fill="#087BC1" fill-opacity="0.5"/>
<path d="M8.04392 54.5384C7.82983 54.6613 7.70749 54.9073 7.70749 55.1225C7.70749 55.184 7.70749 55.2454 7.73807 55.3069C7.79924 55.5221 7.98275 55.6759 8.13568 55.7681C8.31919 55.8603 8.47212 55.8911 8.65563 55.8911H8.7168C8.77797 55.8911 8.83914 55.8911 8.90031 55.8603C8.96148 55.8296 9.08382 55.7988 9.14499 55.6759C9.20616 55.5836 9.20616 55.4914 9.20616 55.4299C9.20616 55.3684 9.20616 55.3069 9.17557 55.2762C9.14499 55.1225 9.1144 54.9995 9.08382 54.8458V54.815L8.99206 54.6613L8.93089 54.5384L8.65563 54.4769H8.62504H8.59446C8.38036 54.4769 8.19685 54.4769 7.98275 54.4769V55.0302C8.19685 55.0302 8.38036 55.0302 8.59446 55.0302V54.7536L8.56387 54.9995L8.80855 54.8765L8.53329 54.938C8.56387 55.0917 8.59446 55.2147 8.62504 55.3684V55.3992H8.74738L8.65563 55.3377L8.62504 55.3992H8.74738L8.65563 55.3377L8.74738 55.3992L8.7168 55.2762L8.65563 55.3377L8.74738 55.3992L8.7168 55.2762H8.68621H8.65563C8.56387 55.2762 8.44153 55.2454 8.38036 55.2147C8.31919 55.184 8.28861 55.1532 8.25802 55.1225V55.0917L8.31919 54.9995L8.04392 54.5384Z" fill="#087BC1" fill-opacity="0.5"/>
<path d="M8.07444 54.938C8.10503 55.0917 8.10503 55.2454 8.10503 55.3991C8.10503 56.014 8.01328 56.6596 8.01328 57.3359C8.01328 57.5511 8.01327 57.7663 8.04386 57.9815C8.10503 58.5042 8.28854 58.9653 8.44147 59.4572C8.62498 60.0413 8.74732 60.6562 8.74732 61.2711V61.3018C8.74732 61.9167 8.59439 62.5315 8.25796 63.0542L8.7779 63.1771C9.14492 62.6238 9.29785 61.9474 9.29785 61.3018H9.02258H9.29785V61.2711C9.29785 60.6255 9.17551 60.0106 8.992 59.3957C8.83907 58.9038 8.68615 58.4427 8.62498 57.9508C8.59439 57.7356 8.59439 57.5511 8.59439 57.3359C8.59439 56.7211 8.68615 56.0755 8.68615 55.3991C8.68615 55.2454 8.68615 55.0609 8.65556 54.9072L8.07444 54.938Z" fill="#087BC1" fill-opacity="0.5"/>
<path d="M8.10512 54.9996V55.0611C8.10512 55.4915 8.25805 55.9219 8.3498 56.2908C8.53331 56.9364 8.65565 57.6435 8.65565 58.2891C8.65565 58.9347 8.53331 59.5803 8.28863 60.1952C8.01337 60.8715 7.55459 61.4864 7.15698 62.132L7.67693 62.255C8.04395 61.6094 8.53331 60.9945 8.83916 60.2874C9.11443 59.6418 9.20618 58.9962 9.20618 58.3198C9.20618 57.6127 9.08384 56.9057 8.90033 56.26C8.77799 55.8604 8.65565 55.4607 8.65565 55.0918V55.0303L8.10512 54.9996Z" fill="#087BC1" fill-opacity="0.5"/>
<path d="M8.19672 54.9688C8.19672 55.3992 8.2273 55.8603 8.2273 56.2907C8.2273 56.8134 8.19672 57.3668 8.13555 57.8894C8.01321 58.8424 7.76853 59.8262 7.27916 60.6563C7.0039 61.1174 6.60629 61.6401 6.60629 62.2242C6.60629 62.2549 6.60629 62.3164 6.60629 62.3472L7.15682 62.3164C7.15682 62.2857 7.15682 62.2549 7.15682 62.2242C7.15682 61.7323 7.52385 61.2711 7.79911 60.7485C8.31906 59.857 8.56374 58.8732 8.68608 57.8894C8.74725 57.336 8.77783 56.8134 8.77783 56.26C8.77783 55.7989 8.77783 55.3685 8.74725 54.938L8.19672 54.9688Z" fill="#087BC1" fill-opacity="0.5"/>
<path d="M8.07451 55.0303C7.98275 55.6759 7.95217 56.3215 7.95217 56.9671C7.95217 57.5512 7.98275 58.1353 7.98275 58.7195C7.98275 59.488 7.95217 60.2566 7.79924 61.0252C7.76866 61.2404 7.70749 61.4556 7.70749 61.7015C7.70749 61.7323 7.70749 61.763 7.70749 61.7938C7.73807 62.1012 7.86041 62.4086 7.86041 62.6546C7.86041 62.7161 7.86041 62.7776 7.82983 62.8698L8.38036 62.9313C8.41095 62.839 8.41095 62.7468 8.41095 62.6546C8.41095 62.3471 8.28861 62.0397 8.25802 61.763V61.6708C8.25802 61.4556 8.31919 61.2404 8.34978 61.0252C8.5027 60.2566 8.53329 59.4573 8.53329 58.6887C8.53329 58.1046 8.5027 57.5205 8.5027 56.9363C8.5027 56.2907 8.53329 55.6759 8.62504 55.0303H8.07451Z" fill="#087BC1" fill-opacity="0.5"/>
<path d="M5.96416 54.4154C5.87241 54.4154 5.78065 54.3847 5.6889 54.3847C5.59714 54.3847 5.4748 54.3847 5.35246 54.4462C5.23012 54.4769 5.10778 54.5691 5.01602 54.6614C4.92427 54.7536 4.8631 54.9073 4.8631 55.061H5.13836L4.8631 55.0303V55.061C4.8631 55.307 5.01602 55.4914 5.16895 55.6144C5.32187 55.7066 5.4748 55.7681 5.59714 55.7989C5.65831 55.8296 5.75007 55.8296 5.87241 55.8296C5.93358 55.8296 6.02533 55.8296 6.11709 55.7681C6.27001 55.7066 6.36177 55.5529 6.39235 55.43C6.42294 55.307 6.45352 55.184 6.45352 55.0918V55.0303C6.45352 54.9381 6.45352 54.7843 6.36177 54.6306C6.27001 54.4769 6.14767 54.3539 5.93358 54.3539L5.81124 54.3847L5.96416 54.9381L5.93358 54.8151V54.9381H5.96416L5.93358 54.8151V54.9381V54.8766L5.87241 54.9073C5.87241 54.9073 5.87241 54.9073 5.93358 54.9381V54.8766L5.87241 54.9073C5.87241 54.9073 5.90299 54.9688 5.90299 55.061H6.17826H5.90299V55.1225C5.90299 55.184 5.90299 55.2455 5.87241 55.2762V55.307L5.90299 55.3377V55.307L5.93358 55.3377V55.307V55.3377V55.307V55.3377V55.307C5.90299 55.307 5.87241 55.307 5.81124 55.2762C5.6889 55.2455 5.59714 55.2148 5.53597 55.184L5.4748 55.1225V55.0918H5.19953L5.4748 55.1225V55.0918H5.19953L5.4748 55.1225L5.50539 55.0918L5.59714 55.0303C5.62773 55.0303 5.6889 54.9996 5.75007 54.9996C5.81124 54.9996 5.87241 54.9996 5.96416 54.9996V54.4154Z" fill="#087BC1" fill-opacity="0.5"/>
<path d="M5.35244 54.9688C5.35244 55.4299 5.2301 55.8603 5.2301 56.3215C5.2301 56.3522 5.2301 56.4137 5.2301 56.4445C5.2301 56.9671 5.35244 57.4897 5.4442 57.9816C5.56654 58.658 5.65829 59.3343 5.65829 60.0107C5.65829 60.9637 5.47478 61.9168 4.95483 62.7468L5.47478 62.8698C6.02531 61.9782 6.20882 60.9945 6.20882 60.0107C6.20882 59.3343 6.11707 58.6272 5.99473 57.9509C5.90297 57.4282 5.78063 56.9364 5.78063 56.4445C5.78063 56.4137 5.78063 56.3522 5.78063 56.3215C5.81122 55.8911 5.90297 55.4299 5.90297 54.9688V54.938L5.35244 54.9688Z" fill="#087BC1" fill-opacity="0.5"/>
<path d="M5.38287 54.9688C5.38287 54.9996 5.38287 55.061 5.38287 55.0918C5.38287 55.3992 5.5358 55.6452 5.62755 55.8911C5.90282 56.5367 5.87224 57.2438 5.87224 57.9509C5.90282 59.7647 6.30043 61.5171 6.69803 63.3002L7.24857 63.2695C6.85096 61.5171 6.48394 59.734 6.45335 57.9816C6.42277 57.2745 6.48394 56.5367 6.17809 55.8604C6.08633 55.6144 5.93341 55.3685 5.93341 55.1533C5.93341 55.1225 5.93341 55.0918 5.93341 55.061L5.38287 54.9688Z" fill="#087BC1" fill-opacity="0.5"/>
<path d="M5.19946 54.938C5.13829 56.0448 5.10771 57.1516 5.04654 58.2276C5.01595 58.9039 4.98537 59.5495 4.80186 60.1951C4.67952 60.5948 4.49601 60.9945 4.25132 61.3326C4.06781 61.6401 3.79255 61.9475 3.76196 62.3472V62.4086H4.31249V62.3779C4.31249 62.1012 4.52659 61.7938 4.74069 61.4863C4.98537 61.0867 5.19946 60.687 5.3218 60.2566C5.5359 59.5803 5.56648 58.9039 5.59707 58.2276C5.65824 57.1208 5.68882 56.0141 5.74999 54.938H5.19946Z" fill="#087BC1" fill-opacity="0.5"/>
<path d="M5.35238 55.0303C5.32179 56.2907 5.29121 57.582 5.29121 58.8732C5.29121 59.2728 5.29121 59.6725 5.29121 60.0721C5.29121 60.2259 5.29121 60.4103 5.29121 60.564C5.29121 60.9022 5.26062 61.2404 5.19945 61.5786C5.13828 61.886 4.98536 62.2242 4.86302 62.5316L4.83243 62.6238L4.86302 62.5316C4.74068 62.7775 4.64892 63.0542 4.52658 63.3002L5.07711 63.3924C5.19945 63.1465 5.29121 62.8698 5.41355 62.6238C5.53589 62.3164 5.68881 61.9782 5.74998 61.6401C5.84174 61.2711 5.84174 60.933 5.84174 60.564C5.84174 60.4103 5.84174 60.2259 5.84174 60.0721C5.84174 59.6725 5.84174 59.2728 5.84174 58.8732C5.84174 57.6127 5.87232 56.3215 5.90291 55.061L5.35238 55.0303Z" fill="#087BC1" fill-opacity="0.5"/>
<path d="M3.3643 54.4461C3.24196 54.4461 3.11962 54.4154 2.99728 54.4154C2.81377 54.4154 2.63026 54.4461 2.41616 54.4769C2.35499 54.4769 2.26324 54.5076 2.1409 54.5691C2.01856 54.6614 1.9268 54.7536 1.89622 54.9073L1.86563 55.061C1.86563 55.2762 1.95739 55.4299 2.11031 55.5529C2.29382 55.6759 2.47733 55.7374 2.63026 55.7374H2.72201C2.96669 55.7374 3.18079 55.6759 3.39489 55.5836C3.48664 55.5222 3.63957 55.4607 3.70074 55.2762C3.73132 55.2147 3.73132 55.1532 3.73132 55.0918C3.73132 54.8766 3.60898 54.7228 3.42547 54.5999C3.30313 54.5384 3.21138 54.5076 3.08904 54.5076C2.99728 54.5076 2.93611 54.5076 2.84435 54.5384L2.99728 55.0918H3.08904H3.15021L3.18079 55.061H3.15021V55.0918L3.18079 55.061H3.15021H3.24196L3.15021 55.0303V55.061H3.24196L3.15021 55.0303L3.21138 55.061L3.15021 55.0303L3.21138 55.061L3.15021 55.0303L3.08904 55.061C2.9667 55.1225 2.81377 55.1532 2.66084 55.1532H2.59967C2.50792 55.1532 2.41616 55.1225 2.38558 55.0918L2.35499 55.0303C2.35499 55.0303 2.38558 55.0303 2.44675 54.9995C2.59967 54.9688 2.7526 54.9688 2.90552 54.9688C2.99728 54.9688 3.08904 54.9688 3.18079 54.9995L3.3643 54.4461Z" fill="#087BC1" fill-opacity="0.5"/>
<path d="M2.47733 54.938C2.50791 55.2147 2.5385 55.5221 2.5385 55.7988C2.5385 56.014 2.5385 56.2599 2.5385 56.4751C2.5385 56.8748 2.5385 57.2437 2.63025 57.6434C2.69143 57.9815 2.81377 58.3197 2.90552 58.6579C2.99728 58.9961 3.02786 59.365 3.02786 59.7032C3.02786 60.2565 2.93611 60.8407 2.72201 61.3633C2.50791 61.8859 2.20206 62.4393 2.17148 63.0542H2.72201C2.7526 62.5315 3.05845 62.0089 3.27254 61.4555C3.48664 60.9021 3.60898 60.2873 3.60898 59.7032C3.60898 59.3342 3.57839 58.9653 3.48664 58.5964C3.39488 58.2582 3.27254 57.9201 3.21137 57.5819C3.1502 57.213 3.11962 56.844 3.11962 56.4751C3.11962 56.2599 3.11962 56.014 3.11962 55.7988C3.11962 55.4913 3.11962 55.2147 3.05845 54.9072L2.47733 54.938Z" fill="#087BC1" fill-opacity="0.5"/>
<path d="M2.4773 54.9072C2.20204 55.3684 2.0797 55.891 2.0797 56.3829H2.32438H2.0797H2.32438H2.0797C2.0797 57.3667 2.56906 58.289 2.72199 59.2113C2.75257 59.3957 2.75257 59.5494 2.75257 59.7339C2.75257 60.6869 2.38555 61.64 1.71268 62.4086L2.20204 62.5623C2.93608 61.763 3.33369 60.7484 3.33369 59.7339C3.33369 59.5494 3.33369 59.365 3.3031 59.1805C3.15018 58.1967 2.66082 57.3052 2.66082 56.3829H2.41613H2.66082H2.41613H2.66082C2.66082 55.9218 2.78316 55.4299 3.02784 54.9995L2.4773 54.9072Z" fill="#087BC1" fill-opacity="0.5"/>
<path d="M2.50803 55.061C2.84446 55.5529 3.02797 56.137 3.02797 56.7211C3.02797 56.9363 2.99739 57.1208 2.9668 57.336C2.90563 57.5819 2.81388 57.8279 2.78329 58.1046C2.78329 58.1968 2.75271 58.289 2.75271 58.3505C2.75271 59.0883 3.11973 59.7647 3.27265 60.441C3.33382 60.7485 3.36441 61.0252 3.36441 61.3326C3.36441 61.7015 3.30324 62.1012 3.21148 62.4701L3.76202 62.5316C3.88436 62.1319 3.94553 61.7322 3.94553 61.3326C3.94553 61.0252 3.91494 60.687 3.82319 60.3795C3.63967 59.6725 3.30324 58.9961 3.30324 58.3198C3.30324 58.2275 3.30324 58.166 3.30324 58.0738C3.33382 57.8279 3.42558 57.5819 3.48675 57.336C3.54792 57.1208 3.54792 56.9056 3.54792 56.6904C3.54792 56.0755 3.36441 55.4299 2.99739 54.8765L2.50803 55.061Z" fill="#087BC1" fill-opacity="0.5"/>
<path d="M2.56921 55.0303C2.32453 55.7681 2.07985 56.5059 1.83517 57.2745C1.71283 57.6434 1.59049 58.0431 1.52932 58.4428C1.49874 58.658 1.49874 58.8732 1.49874 59.0884C1.49874 59.5803 1.55991 60.0721 1.55991 60.5333C1.55991 60.564 1.55991 60.6255 1.55991 60.6563C1.55991 61.3326 1.40698 62.009 1.13171 62.6238L1.68225 62.7161C1.95751 62.0705 2.11044 61.3634 2.14102 60.6563C2.14102 60.6255 2.14102 60.564 2.14102 60.5333C2.14102 60.0414 2.07985 59.5495 2.07985 59.0884C2.07985 58.8732 2.07985 58.6887 2.11044 58.4735C2.17161 58.1046 2.29395 57.7049 2.41629 57.336C2.66097 56.5982 2.90565 55.8603 3.15033 55.0918L2.56921 55.0303Z" fill="#087BC1" fill-opacity="0.5"/>
<path d="M0 13.3118V11.1906C0 9.86861 1.07048 8.7926 2.38564 8.7926H20.6144C21.9295 8.7926 23 9.86861 23 11.1906V13.3118H0Z" fill="#0DFFF8"/>
<path d="M22.9694 51.3411V52.3249C22.9694 53.6468 21.8989 54.7229 20.5838 54.7229H2.38564C1.07048 54.7229 0 53.6468 0 52.3249V50.2036H22.9694V51.3411Z" fill="#0A6EA0"/>
<path d="M22.9694 32.8645H0V41.903H22.9694V32.8645Z" fill="#066489"/>
<path d="M22.9694 22.2272H0V23.088H22.9694V22.2272Z" fill="white"/>
<path d="M22.9694 18.5996H0V19.7371H22.9694V18.5996Z" fill="white"/>
<path d="M22.9694 37.0762H0V38.2137H22.9694V37.0762Z" fill="white"/>
<path d="M22.9694 41.7491H0V42.8866H22.9694V41.7491Z" fill="white"/>
<path d="M22.6024 53.5854H0.367065C0.795257 54.2617 1.5293 54.7229 2.38568 54.7229H20.6144C21.4402 54.6921 22.2048 54.2617 22.6024 53.5854Z" fill="white"/>
<path d="M22.6023 53.5854L0.305786 53.5547L0.336371 53.5854C0.764563 54.2618 1.49861 54.7229 2.35499 54.7229H20.5837C21.4707 54.7229 22.2047 54.2618 22.6023 53.5854L22.6329 53.5547L22.6023 53.5854C22.1741 54.231 21.4401 54.6922 20.5837 54.6922H2.38557C1.55978 54.6922 0.825733 54.231 0.397541 53.5854H0.366956V53.6162L22.6023 53.5854Z" fill="#087BC1"/>
<path d="M22.9694 23.0881H0V32.9874H22.9694V23.0881Z" fill="#8FFAFF"/>
<path d="M22.9694 42.8867H0V50.2036H22.9694V42.8867Z" fill="#8FFAFF"/>
<path d="M22.9694 18.538H0V22.2272H22.9694V18.538Z" fill="#087BC1"/>
<path d="M22.9694 13.0044H0V18.5382H22.9694V13.0044Z" fill="#8FFAFF"/>
</svg>
