<svg width="23" height="62" viewBox="0 0 23 62" fill="none" xmlns="http://www.w3.org/2000/svg">
<path d="M2.32761 8.90853C2.41714 8.90853 2.50666 8.93852 2.59618 8.93852C2.68571 8.93852 2.80507 8.93852 2.92443 8.87853C3.0438 8.84854 3.16316 8.75855 3.25268 8.66856C3.34221 8.57858 3.40189 8.4286 3.40189 8.27863H3.13332L3.40189 8.30862V8.27863C3.40189 8.03867 3.25268 7.85869 3.10348 7.73871C2.95427 7.64873 2.80507 7.58874 2.68571 7.55874C2.62602 7.52875 2.5365 7.52875 2.41714 7.52875C2.35746 7.52875 2.26793 7.52875 2.17841 7.58874C2.0292 7.64873 1.93968 7.7987 1.90984 7.91868C1.88 8.03867 1.85016 8.15865 1.85016 8.24863V8.30862C1.85016 8.39861 1.85016 8.54858 1.93968 8.69856C2.0292 8.84854 2.14857 8.96852 2.35746 8.96852L2.47682 8.93852L2.32761 8.39861L2.35746 8.51859V8.39861H2.32761L2.35746 8.51859V8.39861V8.4586L2.3873 8.4286C2.3873 8.4286 2.3873 8.4286 2.32761 8.39861V8.4586L2.3873 8.4286C2.3873 8.4286 2.35746 8.36861 2.35746 8.27863H2.08889H2.35746V8.21864C2.35746 8.15865 2.35746 8.09866 2.3873 8.06866V8.03867L2.35746 8.00867L2.3873 8.06866L2.35746 8.03867L2.3873 8.06866V8.03867V8.06866V8.03867V8.06866C2.41714 8.06866 2.44698 8.06866 2.50666 8.09866C2.62602 8.12865 2.71555 8.15865 2.77523 8.18864L2.83491 8.24863V8.27863H3.10348L2.83491 8.24863V8.27863H3.10348L2.83491 8.24863L2.80507 8.27863L2.71555 8.33862C2.68571 8.36861 2.65586 8.36861 2.59618 8.36861C2.5365 8.36861 2.47682 8.36861 2.3873 8.36861L2.32761 8.90853Z" fill="#087BC1" fill-opacity="0.5"/>
<path d="M2.89457 8.6686C2.89457 8.21867 3.01394 7.79874 3.01394 7.34881C3.01394 7.31882 3.01394 7.25883 3.01394 7.22883C3.01394 6.71891 2.89457 6.20899 2.80505 5.72907C2.68569 5.06918 2.59616 4.40928 2.59616 3.74939C2.59616 2.81954 2.77521 1.88969 3.28251 1.07982L2.77521 0.959839C2.26791 1.8297 2.08887 2.78954 2.08887 3.74939C2.08887 4.40928 2.17839 5.09917 2.29775 5.75907C2.38728 6.26898 2.50664 6.74891 2.50664 7.22883C2.50664 7.25883 2.50664 7.31882 2.50664 7.34881C2.4768 7.76874 2.35744 8.21867 2.35744 8.6686V8.69859L2.89457 8.6686Z" fill="#087BC1" fill-opacity="0.5"/>
<path d="M2.89452 8.66861C2.89452 8.63861 2.89452 8.57862 2.89452 8.54863C2.89452 8.24868 2.74531 8.00872 2.65579 7.76875C2.38722 7.13886 2.41706 6.44897 2.41706 5.75908C2.35738 3.98936 1.99929 2.27964 1.61136 0.539917L1.07422 0.599907C1.46215 2.30963 1.82024 4.04935 1.85008 5.75908C1.87992 6.44897 1.82024 7.16885 2.11865 7.82874C2.20818 8.06871 2.35738 8.30867 2.35738 8.51863C2.35738 8.54863 2.35738 8.57862 2.35738 8.60862L2.89452 8.66861Z" fill="#087BC1" fill-opacity="0.5"/>
<path d="M3.04388 8.69862C3.10356 7.61879 3.1334 6.53897 3.19309 5.48913C3.22293 4.82924 3.25277 4.19934 3.43181 3.56944C3.55118 3.17951 3.73022 2.78957 3.96895 2.45962C4.148 2.15967 4.41657 1.85972 4.44641 1.46978V1.40979H3.90927V1.43979C3.90927 1.70974 3.70038 2.00969 3.4915 2.30965C3.25277 2.69958 3.04388 3.08952 2.92452 3.50945C2.71563 4.16935 2.68579 4.82924 2.65595 5.45914C2.59627 6.53897 2.56643 7.61879 2.50674 8.66862L3.04388 8.69862Z" fill="#087BC1" fill-opacity="0.5"/>
<path d="M2.92441 8.60864C2.95425 7.37884 2.98409 6.11904 2.98409 4.85924C2.98409 4.4693 2.98409 4.07937 2.98409 3.68943C2.98409 3.53945 2.98409 3.35948 2.98409 3.20951C2.98409 2.87956 3.01393 2.54961 3.07361 2.21967C3.13329 1.91971 3.2825 1.58977 3.40186 1.28982L3.4317 1.19983L3.40186 1.28982C3.52122 1.04985 3.61075 0.779898 3.73011 0.539937L3.19297 0.449951C3.07361 0.689913 2.98409 0.959869 2.86472 1.19983C2.74536 1.49978 2.59615 1.82973 2.53647 2.15968C2.44695 2.51962 2.44695 2.84956 2.44695 3.20951C2.44695 3.35948 2.44695 3.53945 2.44695 3.68943C2.44695 4.07937 2.44695 4.4693 2.44695 4.85924C2.44695 6.08904 2.41711 7.34884 2.38727 8.57864L2.92441 8.60864Z" fill="#087BC1" fill-opacity="0.5"/>
<path d="M4.86401 8.87857C4.98338 8.87857 5.10274 8.90857 5.2221 8.90857C5.40115 8.90857 5.58019 8.87857 5.78908 8.84858C5.84876 8.84858 5.93829 8.81858 6.05765 8.75859C6.17701 8.66861 6.26654 8.57862 6.29638 8.42864L6.32622 8.27867C6.32622 8.0687 6.2367 7.91873 6.08749 7.79875C5.90845 7.67876 5.7294 7.61877 5.5802 7.61877H5.49067C5.25194 7.61877 5.04306 7.67876 4.83417 7.76875C4.74465 7.82874 4.59544 7.88873 4.53576 8.0687C4.50592 8.12869 4.50592 8.18868 4.50592 8.24867C4.50592 8.45864 4.62528 8.60862 4.80433 8.7286C4.92369 8.78859 5.01322 8.81858 5.13258 8.81858C5.2221 8.81858 5.28179 8.81858 5.37131 8.78859L5.2221 8.24867H5.13258H5.0729L5.04306 8.27867H5.0729V8.24867L5.04306 8.27867H5.0729H4.98338L5.0729 8.30866V8.27867H4.98338L5.0729 8.30866L5.01322 8.27867L5.0729 8.30866L5.01322 8.27867L5.0729 8.30866L5.13258 8.27867C5.25194 8.21868 5.40115 8.18868 5.55035 8.18868H5.61004C5.69956 8.18868 5.78908 8.21868 5.81892 8.24867L5.84876 8.30866C5.84876 8.30866 5.81892 8.30866 5.75924 8.33866C5.61004 8.36865 5.46083 8.36865 5.31163 8.36865C5.2221 8.36865 5.13258 8.36865 5.04306 8.33866L4.86401 8.87857Z" fill="#087BC1" fill-opacity="0.5"/>
<path d="M5.69964 8.39867C5.6698 8.09872 5.6698 7.82876 5.6698 7.52881C5.6698 7.31885 5.6698 7.07888 5.6698 6.86892C5.6698 6.47898 5.6698 6.11904 5.58028 5.7291C5.5206 5.39915 5.40123 5.06921 5.31171 4.73926C5.22219 4.40931 5.19234 4.04937 5.19234 3.71942C5.19234 3.17951 5.28187 2.6096 5.49075 2.09969C5.69964 1.58977 5.99805 1.04985 6.02789 0.449951H5.49075C5.46091 0.959869 5.1625 1.46979 4.95362 2.0097C4.74473 2.54961 4.62537 3.14952 4.62537 3.71942C4.62537 4.07937 4.65521 4.43931 4.74473 4.79925C4.83425 5.1292 4.95362 5.45914 5.0133 5.78909C5.07298 6.14903 5.10282 6.50898 5.10282 6.86892C5.10282 7.07888 5.10282 7.31885 5.10282 7.52881C5.10282 7.82876 5.10282 8.09872 5.1625 8.39867H5.69964Z" fill="#087BC1" fill-opacity="0.5"/>
<path d="M5.69959 8.42864C5.96816 7.97871 6.08752 7.46879 6.08752 6.98887H5.8488H6.08752H5.8488H6.08752C6.08752 6.02902 5.61007 5.12917 5.46086 4.22931C5.43102 4.04934 5.43102 3.89937 5.43102 3.7194C5.43102 2.78954 5.78911 1.85969 6.44561 1.10981L5.96816 0.959839C5.25198 1.73971 4.86404 2.72955 4.86404 3.7194C4.86404 3.89937 4.86404 4.07934 4.89389 4.25931C5.04309 5.21915 5.52055 6.08902 5.52055 6.98887H5.75927H5.52055H5.75927H5.52055C5.52055 7.4388 5.40118 7.91872 5.16245 8.33865L5.69959 8.42864Z" fill="#087BC1" fill-opacity="0.5"/>
<path d="M5.69964 8.27864C5.37139 7.79871 5.19235 7.2288 5.19235 6.6589C5.19235 6.44893 5.22219 6.26896 5.25203 6.05899C5.31171 5.81903 5.40124 5.57907 5.43108 5.30911C5.43108 5.21913 5.46092 5.12914 5.46092 5.06915C5.46092 4.34927 5.10283 3.68937 4.95362 3.02948C4.89394 2.72953 4.8641 2.45957 4.8641 2.15962C4.8641 1.79968 4.92378 1.40974 5.0133 1.0498L4.47617 0.989807C4.3568 1.37974 4.29712 1.76968 4.29712 2.15962C4.29712 2.45957 4.32696 2.78952 4.41648 3.08947C4.59553 3.77936 4.92378 4.43925 4.92378 5.09915C4.92378 5.18913 4.92378 5.24912 4.92378 5.33911C4.89394 5.57907 4.80442 5.81903 4.74473 6.05899C4.68505 6.26896 4.68505 6.47892 4.68505 6.68889C4.68505 7.28879 4.8641 7.91869 5.22219 8.45861L5.69964 8.27864Z" fill="#087BC1" fill-opacity="0.5"/>
<path d="M5.63995 8.30867C5.87867 7.58879 6.1174 6.8689 6.35613 6.11902C6.47549 5.75908 6.59486 5.36914 6.65454 4.97921C6.68438 4.76924 6.68438 4.55927 6.68438 4.34931C6.68438 3.86938 6.6247 3.38946 6.6247 2.93953C6.6247 2.90954 6.6247 2.84955 6.6247 2.81955C6.6247 2.15966 6.7739 1.49976 7.04247 0.899861L6.50533 0.809875C6.23677 1.43977 6.08756 2.12966 6.05772 2.81955C6.05772 2.84955 6.05772 2.90954 6.05772 2.93953C6.05772 3.41946 6.1174 3.89938 6.1174 4.34931C6.1174 4.55927 6.1174 4.73924 6.08756 4.94921C6.02788 5.30915 5.90851 5.69909 5.78915 6.05903C5.55042 6.77892 5.3117 7.4988 5.07297 8.24868L5.63995 8.30867Z" fill="#087BC1" fill-opacity="0.5"/>
<path d="M7.7885 8.69864C7.87802 8.69864 7.99739 8.69864 8.08691 8.69864C8.23612 8.69864 8.38532 8.69864 8.50468 8.66864C8.56437 8.66864 8.65389 8.63865 8.74341 8.60865C8.83293 8.57866 8.9523 8.48867 9.01198 8.3387C9.04182 8.27871 9.04182 8.21872 9.04182 8.15873C9.04182 8.09874 9.04182 8.03875 9.01198 7.97876C8.9523 7.79879 8.83293 7.6788 8.71357 7.61881C8.59421 7.55882 8.47484 7.52883 8.35548 7.49883C8.26596 7.46884 8.14659 7.43884 7.99739 7.43884C7.90786 7.43884 7.81834 7.43884 7.69898 7.49883C7.60945 7.52883 7.49009 7.61881 7.43041 7.73879C7.37073 7.88877 7.37073 8.00875 7.37073 8.06874V8.12873C7.37073 8.18872 7.37073 8.3087 7.46025 8.42868C7.54977 8.54866 7.66914 8.60865 7.7885 8.60865C7.87802 8.60865 7.99739 8.57866 8.05707 8.48867L7.6393 8.12873L7.7885 8.24871V8.06874C7.75866 8.06874 7.69898 8.09874 7.6393 8.12873L7.7885 8.24871V8.06874V8.21872L7.90786 8.12873C7.87802 8.06874 7.84818 8.06874 7.7885 8.06874V8.21872L7.90786 8.12873L7.84818 8.15873H7.90786V8.12873L7.84818 8.15873H7.90786V8.12873V8.09874V8.00875V7.97876H7.87802H7.84818H7.93771C7.99739 7.97876 8.08691 7.97876 8.14659 8.00875C8.23611 8.03875 8.32564 8.06874 8.35548 8.09874C8.41516 8.12873 8.41516 8.15873 8.41516 8.15873H8.445H8.41516H8.445H8.41516H8.50468L8.41516 8.12873V8.15873H8.50468L8.41516 8.12873L8.50468 8.15873L8.445 8.09874L8.41516 8.12873L8.50468 8.15873L8.445 8.09874L8.47484 8.12873V8.09874L8.50468 8.12873V8.09874C8.50468 8.09874 8.445 8.09874 8.41516 8.12873C8.2958 8.12873 8.14659 8.12873 8.02723 8.12873C7.93771 8.12873 7.84818 8.12873 7.75866 8.12873L7.7885 8.69864Z" fill="#087BC1" fill-opacity="0.5"/>
<path d="M8.59419 8.42864C8.59419 8.39865 8.59419 8.33866 8.59419 8.30866C8.59419 7.31882 8.41515 6.35898 8.41515 5.36914C8.41515 5.24916 8.41515 5.12917 8.41515 5.00919C8.47483 3.92937 8.80308 2.87954 9.13133 1.82971C9.2507 1.43977 9.37006 1.01984 9.37006 0.599903C9.37006 0.389937 9.34022 0.179971 9.25069 0L8.71356 0.0899855C8.77324 0.269957 8.80308 0.449928 8.80308 0.629899C8.80308 1.01984 8.68372 1.40977 8.56435 1.79971C8.2361 2.84954 7.87801 3.92937 7.81833 5.03919C7.81833 5.15917 7.81833 5.27915 7.81833 5.39913C7.81833 6.38897 7.99737 7.34882 7.99737 8.33866C7.99737 8.36865 7.99737 8.42864 7.99737 8.45864L8.59419 8.42864Z" fill="#087BC1" fill-opacity="0.5"/>
<path d="M8.53446 8.27858C8.20621 7.04878 7.87796 5.78898 7.87796 4.55918C7.87796 4.25923 7.9078 3.98927 7.93764 3.68932C8.02716 3.05942 8.23605 2.39953 8.23605 1.70964C8.23605 1.58966 8.23605 1.43968 8.20621 1.3197L7.66907 1.3497C7.69891 1.46968 7.69891 1.58966 7.69891 1.70964C7.69891 2.33954 7.49002 2.99943 7.4005 3.65933C7.37066 3.95928 7.34082 4.25923 7.34082 4.55918C7.34082 5.84897 7.66907 7.10877 8.02716 8.33857L8.53446 8.27858Z" fill="#087BC1" fill-opacity="0.5"/>
<path d="M8.59418 8.42864C8.14656 7.37881 8.11672 6.209 8.08688 5.06918C8.08688 4.97919 8.08688 4.85921 8.08688 4.76923C8.08688 4.46928 8.11672 4.16932 8.1764 3.86937C8.41513 2.96952 9.28052 2.24963 9.75797 1.31978L9.25068 1.2298C8.80306 2.09966 7.90784 2.81954 7.63927 3.83938C7.54974 4.13933 7.54974 4.46928 7.54974 4.76923C7.54974 4.85921 7.54974 4.97919 7.54974 5.06918C7.57958 6.209 7.60943 7.4088 8.05704 8.48863L8.59418 8.42864Z" fill="#087BC1" fill-opacity="0.5"/>
<path d="M8.65389 8.30868C8.80309 6.95889 8.9523 5.60911 8.9523 4.25933C8.9523 3.95938 8.9523 3.65942 8.83293 3.35947C8.74341 3.14951 8.62405 2.96953 8.50468 2.78956C8.11675 2.18966 7.7885 1.52977 7.54977 0.869873L7.01263 0.929863C7.25136 1.61975 7.57961 2.27965 7.99739 2.90954C8.11675 3.08952 8.23611 3.23949 8.2958 3.41946C8.38532 3.65942 8.41516 3.95938 8.41516 4.25933H8.68373H8.41516V4.28932C8.41516 5.6391 8.26595 6.98889 8.11675 8.30868H8.65389Z" fill="#087BC1" fill-opacity="0.5"/>
<path d="M11.0113 8.90858C11.1306 8.93858 11.25 8.96857 11.3992 8.96857C11.4589 8.96857 11.5484 8.96857 11.6081 8.93858C11.7275 8.90858 11.8468 8.84859 11.9363 8.75861C12.0259 8.66862 12.0855 8.51864 12.0855 8.36867V8.33867L11.817 8.36867L12.0855 8.33867C12.0855 8.12871 11.9363 7.97873 11.817 7.88875C11.6976 7.79876 11.5484 7.76876 11.3992 7.73877C11.3395 7.73877 11.25 7.73877 11.1903 7.73877C11.0411 7.73877 10.9218 7.76876 10.7725 7.79876C10.7129 7.79876 10.683 7.82875 10.5935 7.85875C10.5338 7.88875 10.4443 7.94874 10.4145 8.06872L10.3846 8.09871V8.24869V8.27868V8.30868C10.4145 8.45865 10.504 8.60863 10.6233 8.69862C10.7427 8.7886 10.8621 8.84859 10.9814 8.87859C11.1306 8.90858 11.2798 8.93858 11.429 8.93858C11.4887 8.93858 11.5186 8.93858 11.5783 8.93858H11.6081V8.39866H11.5783C11.5186 8.39866 11.4887 8.39866 11.429 8.39866C11.3097 8.39866 11.2202 8.39866 11.1306 8.36867C11.071 8.36867 11.0113 8.33867 10.9814 8.30868L10.9218 8.21869L10.6532 8.27868H10.9218V8.1887H10.6532L10.9218 8.27868L10.8024 8.21869L10.8621 8.33867L10.9218 8.27868L10.8024 8.21869L10.8621 8.33867V8.30868V8.33867V8.30868V8.33867H10.8919C10.9814 8.30868 11.1008 8.30868 11.1903 8.30868H11.3395C11.3992 8.30868 11.4589 8.33867 11.5186 8.36867L11.5484 8.39866H11.5186H11.4887H11.5783H11.4589H11.5484H11.429L11.3395 8.45865H11.25C11.1903 8.45865 11.1008 8.42866 10.9814 8.42866L11.0113 8.90858Z" fill="#087BC1" fill-opacity="0.5"/>
<path d="M11.3992 8.66857C11.3097 8.12866 10.9516 7.64874 10.7129 7.19881C10.4145 6.56891 10.2653 5.90902 10.2653 5.21913C10.2653 4.85918 10.2951 4.49924 10.3548 4.1393C10.5338 3.08947 10.9516 2.09963 11.3992 1.07979L10.8621 0.989807C10.4145 2.00964 9.99668 3.02948 9.81764 4.07931C9.75796 4.43925 9.69827 4.82919 9.69827 5.21913C9.69827 5.93901 9.84748 6.6289 10.1757 7.28879C10.4145 7.76872 10.7427 8.21864 10.8322 8.69857L11.3992 8.66857Z" fill="#087BC1" fill-opacity="0.5"/>
<path d="M11.4291 8.60861C11.3993 8.39864 11.3993 8.18868 11.3993 7.97871C11.3993 6.8389 11.7275 5.72907 12.0259 4.58926C12.2647 3.7194 12.4736 2.78955 12.4736 1.88969C12.4736 1.40977 12.4139 0.929847 12.2647 0.479919L11.7275 0.53991C11.8469 0.989837 11.9066 1.43976 11.9066 1.88969C11.9066 2.75955 11.6977 3.65941 11.459 4.55926C11.1606 5.69908 10.8025 6.8389 10.8025 8.00871C10.8025 8.21867 10.8025 8.45863 10.8323 8.6686L11.4291 8.60861Z" fill="#087BC1" fill-opacity="0.5"/>
<path d="M11.4887 8.60868C11.4887 8.42871 11.5186 8.24874 11.5186 8.06876C11.5186 7.28889 11.4291 6.53901 11.4291 5.78913C11.4291 5.60916 11.4291 5.39919 11.4589 5.21922C11.5186 4.01942 11.9364 2.78961 11.9364 1.52982C11.9364 1.49982 11.9364 1.46983 11.9364 1.43983C11.9364 1.04989 11.8767 0.629962 11.6081 0.27002L11.1008 0.419995C11.3097 0.719947 11.3694 1.07989 11.3694 1.43983C11.3694 1.46983 11.3694 1.49982 11.3694 1.52982C11.3694 2.75962 10.9516 3.95943 10.8621 5.21922C10.8621 5.39919 10.8322 5.60916 10.8322 5.78913C10.8322 6.56901 10.9218 7.31889 10.9218 8.06876C10.9218 8.24874 10.9218 8.42871 10.8919 8.60868H11.4887Z" fill="#087BC1" fill-opacity="0.5"/>
<path d="M11.3694 8.63858C10.9815 7.64874 10.7726 6.62891 10.7726 5.60907C10.7726 5.09915 10.8323 4.55924 10.8323 4.01933C10.8323 3.71937 10.8025 3.38943 10.7726 3.08948C10.6533 2.36959 10.325 1.7097 9.99676 1.0498L9.45963 1.13979C9.78788 1.79968 10.0863 2.45958 10.2056 3.11947C10.2653 3.41942 10.2653 3.71937 10.2653 4.01933C10.2653 4.52924 10.2056 5.06916 10.2056 5.60907C10.2056 6.6589 10.4145 7.70873 10.8025 8.72857L11.3694 8.63858Z" fill="#087BC1" fill-opacity="0.5"/>
<path d="M14.3237 8.78854C14.5326 8.66856 14.6519 8.4286 14.6519 8.21863C14.6519 8.15864 14.6519 8.09865 14.6221 8.03866C14.5624 7.82869 14.3834 7.67872 14.2342 7.58873C14.0551 7.49875 13.9059 7.46875 13.7269 7.46875H13.6672C13.6075 7.46875 13.5478 7.46875 13.4881 7.49875C13.4285 7.52874 13.3091 7.55874 13.2494 7.67872C13.1897 7.7687 13.1897 7.85869 13.1897 7.91868C13.1897 7.97867 13.1897 8.03866 13.2196 8.06865C13.2494 8.21863 13.2793 8.33861 13.3091 8.48859V8.51858L13.3986 8.66856L13.4583 8.78854L13.7269 8.84853H13.7567H13.7865C13.9954 8.84853 14.1745 8.84853 14.3834 8.84853V8.30861C14.1745 8.30861 13.9954 8.30861 13.7865 8.30861V8.57857L13.8462 8.30861L13.6075 8.4286L13.8761 8.3686C13.8462 8.21863 13.8164 8.09865 13.7865 7.94867V7.91868H13.6672L13.7567 7.97867L13.7865 7.91868H13.6672L13.7567 7.97867L13.6672 7.91868L13.697 8.03866L13.7567 7.97867L13.6672 7.91868L13.697 8.03866H13.7269H13.7567C13.8462 8.03866 13.9656 8.06865 14.0253 8.09865C14.085 8.12864 14.1148 8.15864 14.1446 8.18863V8.21863L14.0253 8.33861L14.3237 8.78854Z" fill="#087BC1" fill-opacity="0.5"/>
<path d="M14.2939 8.39863C14.264 8.24866 14.264 8.09868 14.264 7.9487C14.264 7.3488 14.3536 6.7189 14.3536 6.05901C14.3536 5.84904 14.3536 5.63908 14.3237 5.42911C14.264 4.91919 14.085 4.46926 13.9358 3.98934C13.7568 3.41943 13.6374 2.81953 13.6374 2.21963V2.18963C13.6374 1.58973 13.7866 0.989823 14.1148 0.479905L13.6075 0.359924C13.2495 0.899838 13.1003 1.55973 13.1003 2.18963H13.3688H13.1003V2.21963C13.1003 2.84952 13.2196 3.44943 13.3987 4.04933C13.5479 4.52925 13.6971 4.97918 13.7567 5.4591C13.7866 5.66907 13.7866 5.84904 13.7866 6.05901C13.7866 6.65891 13.6971 7.28881 13.6971 7.9487C13.6971 8.09868 13.6971 8.27865 13.7269 8.42863L14.2939 8.39863Z" fill="#087BC1" fill-opacity="0.5"/>
<path d="M14.264 8.33863V8.27864C14.264 7.8587 14.1148 7.43877 14.0253 7.07883C13.8462 6.44893 13.7269 5.75904 13.7269 5.12914C13.7269 4.49924 13.8462 3.86935 14.085 3.26944C14.3535 2.60955 14.8011 2.00964 15.1891 1.37975L14.6818 1.25977C14.3237 1.88966 13.8462 2.48957 13.5478 3.17946C13.2793 3.80936 13.1897 4.43925 13.1897 5.09915C13.1897 5.78904 13.3091 6.47893 13.4881 7.10882C13.6075 7.49876 13.7269 7.8887 13.7269 8.24864V8.30863L14.264 8.33863Z" fill="#087BC1" fill-opacity="0.5"/>
<path d="M14.1744 8.36858C14.1744 7.94865 14.1445 7.49872 14.1445 7.07879C14.1445 6.56887 14.1744 6.02896 14.2341 5.51904C14.3534 4.58919 14.5921 3.62934 15.0696 2.81947C15.3382 2.36955 15.7261 1.85963 15.7261 1.28972C15.7261 1.25972 15.7261 1.19973 15.7261 1.16974L15.189 1.19973C15.189 1.22973 15.189 1.25972 15.189 1.28972C15.189 1.76964 14.8309 2.21957 14.5623 2.72949C14.055 3.59935 13.8163 4.55919 13.6969 5.51904C13.6372 6.05895 13.6074 6.56887 13.6074 7.10878C13.6074 7.55871 13.6074 7.97864 13.6372 8.39858L14.1744 8.36858Z" fill="#087BC1" fill-opacity="0.5"/>
<path d="M14.264 8.30867C14.3535 7.67878 14.3833 7.04888 14.3833 6.41898C14.3833 5.84907 14.3535 5.27916 14.3535 4.70925C14.3535 3.95937 14.3833 3.20949 14.5325 2.45962C14.5624 2.24965 14.6221 2.03968 14.6221 1.79972C14.6221 1.76973 14.6221 1.73973 14.6221 1.70974C14.5922 1.40978 14.4729 1.10983 14.4729 0.869871C14.4729 0.809881 14.4729 0.74989 14.5027 0.659905L13.9656 0.599915C13.9357 0.6899 13.9357 0.779886 13.9357 0.869871C13.9357 1.16982 14.0551 1.46977 14.0849 1.73973V1.82972C14.0849 2.03968 14.0252 2.24965 13.9954 2.45962C13.8462 3.20949 13.8164 3.98937 13.8164 4.73925C13.8164 5.30916 13.8462 5.87907 13.8462 6.44897C13.8462 7.07887 13.8164 7.67878 13.7268 8.30867H14.264Z" fill="#087BC1" fill-opacity="0.5"/>
<path d="M16.3529 8.90853C16.4424 8.90853 16.5319 8.93852 16.6214 8.93852C16.711 8.93852 16.8303 8.93852 16.9497 8.87853C17.0691 8.84854 17.1884 8.75855 17.2779 8.66856C17.3675 8.57858 17.4272 8.4286 17.4272 8.27863H17.1586L17.4272 8.30862V8.27863C17.4272 8.03867 17.2779 7.85869 17.1287 7.73871C16.9795 7.64873 16.8303 7.58874 16.711 7.55874C16.6513 7.52875 16.5618 7.52875 16.4424 7.52875C16.3827 7.52875 16.2932 7.52875 16.2037 7.58874C16.0545 7.64873 15.965 7.7987 15.9351 7.91868C15.9053 8.03867 15.8754 8.15865 15.8754 8.24863V8.30862C15.8754 8.39861 15.8754 8.54858 15.9649 8.69856C16.0545 8.84854 16.1738 8.96852 16.3827 8.96852L16.5021 8.93852L16.3529 8.39861L16.3827 8.51859V8.39861H16.3529L16.3827 8.51859V8.39861V8.4586L16.4424 8.4286C16.4424 8.4286 16.4424 8.4286 16.3827 8.39861V8.4586L16.4424 8.4286C16.4424 8.4286 16.4126 8.36861 16.4126 8.27863H16.144H16.4126V8.21864C16.4126 8.15865 16.4126 8.09866 16.4424 8.06866V8.03867L16.4126 8.00867V8.03867L16.3827 8.00867V8.03867V8.00867V8.03867V8.00867V8.03867C16.4126 8.03867 16.4424 8.03867 16.5021 8.06866C16.6214 8.09866 16.711 8.12865 16.7707 8.15865L16.8303 8.21864V8.24863H17.0989L16.8303 8.21864V8.24863H17.0989L16.8303 8.21864L16.8005 8.24863L16.711 8.30862C16.711 8.36861 16.6811 8.36861 16.6214 8.36861C16.5618 8.36861 16.5021 8.36861 16.4126 8.36861L16.3529 8.90853Z" fill="#087BC1" fill-opacity="0.5"/>
<path d="M16.9198 8.36867C16.9198 7.91874 17.0392 7.49881 17.0392 7.04888C17.0392 7.01889 17.0392 6.9589 17.0392 6.9289C17.0392 6.41899 16.9198 5.90907 16.8303 5.42915C16.711 4.76925 16.6214 4.10936 16.6214 3.44946C16.6214 2.51961 16.8005 1.58976 17.3078 0.779893L16.8005 0.659912C16.2932 1.52977 16.1141 2.48962 16.1141 3.44946C16.1141 4.10936 16.2037 4.79925 16.323 5.45914C16.4125 5.96906 16.5319 6.44898 16.5319 6.9289C16.5319 6.9589 16.5319 7.01889 16.5319 7.04888C16.5021 7.46882 16.4125 7.91874 16.4125 8.36867V8.39867L16.9198 8.36867Z" fill="#087BC1" fill-opacity="0.5"/>
<path d="M16.9198 8.36868C16.9198 8.33869 16.9198 8.2787 16.9198 8.2487C16.9198 7.94875 16.7705 7.70879 16.681 7.46883C16.4125 6.83893 16.4423 6.14904 16.4423 5.45915C16.4125 3.68944 16.0245 1.97971 15.6366 0.23999L15.0995 0.269985C15.4874 1.97971 15.8455 3.71943 15.8753 5.42916C15.9052 6.11904 15.8455 6.83893 16.1439 7.49882C16.2334 7.73878 16.3826 7.97874 16.3826 8.18871C16.3826 8.21871 16.3826 8.2487 16.3826 8.2787L16.9198 8.36868Z" fill="#087BC1" fill-opacity="0.5"/>
<path d="M17.0691 8.39869C17.1288 7.31887 17.1586 6.23904 17.2183 5.18921C17.2481 4.52931 17.278 3.89941 17.457 3.26952C17.5764 2.87958 17.7554 2.48964 17.9942 2.15969C18.1732 1.85974 18.4418 1.55979 18.4716 1.16985V1.10986H17.9345V1.13986C17.9345 1.40982 17.7256 1.70977 17.5167 2.00972C17.278 2.39966 17.0691 2.78959 16.9497 3.20953C16.7408 3.86942 16.711 4.52931 16.6812 5.18921C16.6215 6.26903 16.5916 7.34886 16.532 8.39869H17.0691Z" fill="#087BC1" fill-opacity="0.5"/>
<path d="M16.9497 8.30865C16.9795 7.07885 17.0094 5.81905 17.0094 4.55925C17.0094 4.16932 17.0094 3.77938 17.0094 3.38944C17.0094 3.23947 17.0094 3.0595 17.0094 2.90952C17.0094 2.57957 17.0392 2.24963 17.0989 1.91968C17.1586 1.61973 17.3078 1.28978 17.4271 0.989828L17.457 0.899843L17.4271 0.989828C17.5465 0.749867 17.636 0.47991 17.7554 0.239949L17.2182 0.149963C17.0989 0.389925 17.0094 0.659881 16.89 0.899843C16.7706 1.19979 16.6214 1.52974 16.5617 1.85969C16.4722 2.21963 16.4722 2.54958 16.4722 2.90952C16.4722 3.0595 16.4722 3.23947 16.4722 3.38944C16.4722 3.77938 16.4722 4.16932 16.4722 4.55925C16.4722 5.78906 16.4424 7.04885 16.4125 8.27866L16.9497 8.30865Z" fill="#087BC1" fill-opacity="0.5"/>
<path d="M18.8893 8.87857C19.0086 8.87857 19.128 8.90857 19.2474 8.90857C19.4264 8.90857 19.6055 8.87857 19.8144 8.84858C19.874 8.84858 19.9636 8.81858 20.0829 8.75859C20.2023 8.66861 20.2918 8.57862 20.3217 8.42864L20.3515 8.27867C20.3515 8.0687 20.262 7.91873 20.1128 7.79875C19.9337 7.67876 19.7547 7.61877 19.6055 7.61877H19.5159C19.2772 7.61877 19.0683 7.67876 18.8594 7.76875C18.7699 7.82874 18.6207 7.88873 18.561 8.0687C18.5312 8.12869 18.5312 8.18868 18.5312 8.24867C18.5312 8.45864 18.6506 8.60862 18.8296 8.7286C18.949 8.78859 19.0385 8.81858 19.1578 8.81858C19.2474 8.81858 19.3071 8.81858 19.3966 8.78859L19.2474 8.24867H19.1578H19.0982L19.0683 8.27867H19.0982V8.24867L19.0683 8.27867H19.0982H19.0086L19.0982 8.30866V8.27867H19.0086L19.0982 8.30866L19.0385 8.27867L19.0982 8.30866L19.0385 8.27867L19.0982 8.30866L19.1578 8.27867C19.2772 8.21868 19.4264 8.18868 19.5756 8.18868H19.6353C19.7248 8.18868 19.8144 8.21868 19.8442 8.24867L19.874 8.30866C19.874 8.30866 19.8442 8.30866 19.7845 8.33866C19.6353 8.36865 19.4861 8.36865 19.3369 8.36865C19.2474 8.36865 19.1579 8.36865 19.0683 8.33866L18.8893 8.87857Z" fill="#087BC1" fill-opacity="0.5"/>
<path d="M19.7248 8.39867C19.695 8.09872 19.695 7.82876 19.695 7.52881C19.695 7.31885 19.695 7.07888 19.695 6.86892C19.695 6.47898 19.695 6.11904 19.6055 5.7291C19.5458 5.39915 19.4264 5.06921 19.3369 4.73926C19.2474 4.40931 19.2176 4.04937 19.2176 3.71942C19.2176 3.17951 19.3071 2.6096 19.516 2.09969C19.7248 1.58977 20.0233 1.04985 20.0531 0.449951H19.516C19.4861 0.959869 19.1877 1.46979 18.9788 2.0097C18.7699 2.54961 18.6506 3.14952 18.6506 3.71942C18.6506 4.07937 18.6804 4.43931 18.7699 4.79925C18.8595 5.1292 18.9788 5.45914 19.0385 5.78909C19.0982 6.14903 19.128 6.50898 19.128 6.86892C19.128 7.07888 19.128 7.31885 19.128 7.52881C19.128 7.82876 19.128 8.09872 19.1877 8.39867H19.7248Z" fill="#087BC1" fill-opacity="0.5"/>
<path d="M19.7248 8.42864C19.9934 7.97871 20.1127 7.46879 20.1127 6.98887H19.874H20.1127H19.874H20.1127C20.1127 6.02902 19.6353 5.12917 19.4861 4.22931C19.4562 4.04934 19.4562 3.89937 19.4562 3.7194C19.4562 2.78954 19.8143 1.85969 20.4708 1.10981L19.9934 0.959839C19.2772 1.73971 18.8893 2.72955 18.8893 3.7194C18.8893 3.89937 18.8893 4.07934 18.9191 4.25931C19.0683 5.21915 19.5458 6.08902 19.5458 6.98887H19.7845H19.5458H19.7845H19.5458C19.5458 7.4388 19.4264 7.91872 19.1877 8.33865L19.7248 8.42864Z" fill="#087BC1" fill-opacity="0.5"/>
<path d="M19.7249 8.27864C19.3967 7.79871 19.2176 7.2288 19.2176 6.6589C19.2176 6.44893 19.2475 6.26896 19.2773 6.05899C19.337 5.81903 19.4265 5.57907 19.4563 5.30911C19.4563 5.21913 19.4862 5.12914 19.4862 5.06915C19.4862 4.34927 19.1281 3.68937 18.9789 3.02948C18.9192 2.72953 18.8894 2.45957 18.8894 2.15962C18.8894 1.79968 18.949 1.40974 19.0386 1.0498L18.5014 0.989807C18.3821 1.37974 18.3224 1.76968 18.3224 2.15962C18.3224 2.45957 18.3522 2.78952 18.4418 3.08947C18.6208 3.77936 18.949 4.43925 18.949 5.09915C18.949 5.18913 18.949 5.24912 18.949 5.33911C18.9192 5.57907 18.8297 5.81903 18.77 6.05899C18.7103 6.26896 18.7103 6.47892 18.7103 6.68889C18.7103 7.28879 18.8894 7.91869 19.2475 8.45861L19.7249 8.27864Z" fill="#087BC1" fill-opacity="0.5"/>
<path d="M19.6652 8.30867C19.9039 7.58879 20.1426 6.8689 20.3813 6.11902C20.5007 5.75908 20.6201 5.36914 20.6797 4.97921C20.7096 4.76924 20.7096 4.55927 20.7096 4.34931C20.7096 3.86938 20.6499 3.38946 20.6499 2.93953C20.6499 2.90954 20.6499 2.84955 20.6499 2.81955C20.6499 2.15966 20.7991 1.49976 21.0677 0.899861L20.5305 0.809875C20.262 1.43977 20.1128 2.12966 20.0829 2.81955C20.0829 2.84955 20.0829 2.90954 20.0829 2.93953C20.0829 3.41946 20.1426 3.89938 20.1426 4.34931C20.1426 4.55927 20.1426 4.73924 20.1128 4.94921C20.0531 5.30915 19.9337 5.69909 19.8144 6.05903C19.5756 6.77892 19.3369 7.4988 19.0982 8.24868L19.6652 8.30867Z" fill="#087BC1" fill-opacity="0.5"/>
<path d="M19.8443 53.0915C19.7548 53.0915 19.6653 53.0615 19.5758 53.0615C19.4862 53.0615 19.3669 53.0615 19.2475 53.1215C19.1281 53.1515 19.0088 53.2415 18.9193 53.3314C18.8297 53.4214 18.7701 53.5714 18.7701 53.7214H19.0386L18.7701 53.6914V53.7214C18.7701 53.9613 18.9193 54.1413 19.0685 54.2613C19.2177 54.3513 19.3669 54.4113 19.4862 54.4413C19.5459 54.4713 19.6354 54.4713 19.7548 54.4713C19.8145 54.4713 19.904 54.4713 19.9935 54.4113C20.1427 54.3513 20.2323 54.2013 20.2621 54.0813C20.2919 53.9613 20.3218 53.8414 20.3218 53.7514V53.6914C20.3218 53.6014 20.3218 53.4514 20.2323 53.3015C20.1427 53.1515 20.0234 53.0315 19.8145 53.0315L19.6951 53.0615L19.8443 53.6014L19.8145 53.4814V53.6014H19.8443L19.8145 53.4814V53.6014V53.5414L19.7548 53.5714C19.7548 53.5714 19.7548 53.5714 19.8145 53.6014V53.5414L19.7548 53.5714C19.7548 53.5714 19.7846 53.6314 19.7846 53.7214H20.0532H19.7846V53.7814C19.7846 53.8414 19.7846 53.9014 19.7548 53.9313V53.9613L19.7846 53.9913V53.9613L19.8145 53.9913V53.9613V53.9913V53.9613V53.9913V53.9613C19.7846 53.9613 19.7548 53.9613 19.6951 53.9313C19.5758 53.9014 19.4862 53.8714 19.4265 53.8414L19.3669 53.7814V53.7514H19.0983L19.3669 53.7814V53.7514H19.0983L19.3669 53.7814L19.3967 53.7514L19.4862 53.6914C19.5161 53.6914 19.5758 53.6614 19.6354 53.6614C19.6951 53.6614 19.7548 53.6614 19.8443 53.6614V53.0915Z" fill="#087BC1" fill-opacity="0.5"/>
<path d="M19.2475 53.3314C19.2475 53.7814 19.1281 54.2013 19.1281 54.6512C19.1281 54.6812 19.1281 54.7412 19.1281 54.7712C19.1281 55.2811 19.2475 55.7911 19.337 56.271C19.4563 56.9309 19.5459 57.5908 19.5459 58.2507C19.5459 59.1805 19.3668 60.1104 18.8595 60.9202L19.3668 61.0402C19.904 60.1704 20.083 59.2105 20.083 58.2507C20.083 57.5908 19.9935 56.9009 19.8741 56.241C19.7846 55.7311 19.6652 55.2511 19.6652 54.7712C19.6652 54.7412 19.6652 54.6812 19.6652 54.6512C19.6951 54.2313 19.7846 53.7814 19.7846 53.3314V53.3015L19.2475 53.3314Z" fill="#087BC1" fill-opacity="0.5"/>
<path d="M19.2772 53.3314C19.2772 53.3614 19.2772 53.4214 19.2772 53.4514C19.2772 53.7514 19.4264 53.9913 19.5159 54.2313C19.7845 54.8612 19.7546 55.5511 19.7546 56.241C19.7845 58.0107 20.1724 59.7204 20.5604 61.4601L21.0975 61.4301C20.7096 59.7204 20.3515 57.9807 20.3216 56.2709C20.2918 55.5811 20.3515 54.8612 20.0531 54.2013C19.9635 53.9613 19.8143 53.7214 19.8143 53.5114C19.8143 53.4814 19.8143 53.4514 19.8143 53.4214L19.2772 53.3314Z" fill="#087BC1" fill-opacity="0.5"/>
<path d="M19.0981 53.3015C19.0385 54.3813 19.0086 55.4611 18.9489 56.5109C18.9191 57.1708 18.8893 57.8007 18.7102 58.4306C18.5908 58.8206 18.4118 59.2105 18.1731 59.5405C17.994 59.8404 17.7255 60.1404 17.6956 60.5303V60.5903H18.2328V60.5603C18.2328 60.2903 18.4416 59.9904 18.6505 59.6904C18.8893 59.3005 19.0981 58.9106 19.2175 58.4906C19.4264 57.8307 19.4562 57.1708 19.4861 56.5109C19.5458 55.4311 19.5756 54.3513 19.6353 53.3015H19.0981Z" fill="#087BC1" fill-opacity="0.5"/>
<path d="M19.2474 53.3914C19.2175 54.6212 19.1877 55.881 19.1877 57.1408C19.1877 57.5308 19.1877 57.9207 19.1877 58.3106C19.1877 58.4606 19.1877 58.6406 19.1877 58.7906C19.1877 59.1205 19.1579 59.4504 19.0982 59.7804C19.0385 60.0803 18.8893 60.4103 18.7699 60.7102L18.7401 60.8002L18.7699 60.7102C18.6506 60.9502 18.561 61.2202 18.4417 61.4601L18.9788 61.5501C19.0982 61.3101 19.1877 61.0402 19.3071 60.8002C19.4264 60.5003 19.5756 60.1703 19.6353 59.8404C19.7248 59.4804 19.7248 59.1505 19.7248 58.7906C19.7248 58.6406 19.7248 58.4606 19.7248 58.3106C19.7248 57.9207 19.7248 57.5308 19.7248 57.1408C19.7248 55.911 19.7547 54.6512 19.7845 53.4214L19.2474 53.3914Z" fill="#087BC1" fill-opacity="0.5"/>
<path d="M17.3077 53.1214C17.1883 53.1214 17.0689 53.0914 16.9496 53.0914C16.7705 53.0914 16.5915 53.1214 16.3826 53.1514C16.3229 53.1514 16.2334 53.1814 16.114 53.2414C15.9947 53.3314 15.9051 53.4214 15.8753 53.5714L15.8455 53.7213C15.8455 53.9313 15.935 54.0813 16.0842 54.2013C16.2632 54.3212 16.4423 54.3812 16.5915 54.3812H16.681C16.9197 54.3812 17.1286 54.3212 17.3375 54.2312C17.427 54.1713 17.5762 54.1113 17.6359 53.9313C17.6658 53.8713 17.6658 53.8113 17.6658 53.7513C17.6658 53.5414 17.5464 53.3914 17.3673 53.2714C17.248 53.2114 17.1585 53.1814 17.0391 53.1814C16.9496 53.1814 16.8899 53.1814 16.8004 53.2114L16.9496 53.7513H17.0391H17.0988L17.1286 53.7213H17.0988V53.7513L17.1286 53.7213H17.0988H17.1883L17.0988 53.6913V53.7213H17.1883L17.0988 53.6913L17.1585 53.7213L17.0988 53.6913L17.1585 53.7213L17.0988 53.6913L17.0391 53.7213C16.9197 53.7813 16.7705 53.8113 16.6213 53.8113H16.5616C16.4721 53.8113 16.3826 53.7813 16.3528 53.7513L16.3229 53.6913C16.3229 53.6913 16.3528 53.6913 16.4124 53.6613C16.5616 53.6313 16.7108 53.6313 16.8601 53.6313C16.9496 53.6313 17.0391 53.6313 17.1286 53.6613L17.3077 53.1214Z" fill="#087BC1" fill-opacity="0.5"/>
<path d="M16.4423 53.6013C16.4721 53.8713 16.502 54.1713 16.502 54.4412C16.502 54.6512 16.502 54.8911 16.502 55.1011C16.502 55.491 16.502 55.851 16.5915 56.2409C16.6512 56.5709 16.7706 56.9008 16.8601 57.2308C16.9496 57.5607 16.9794 57.9207 16.9794 58.2506C16.9794 58.7905 16.8899 59.3604 16.681 59.8703C16.4721 60.3803 16.1737 60.9202 16.1439 61.5201H16.681C16.7109 61.0102 17.0093 60.5002 17.2182 59.9603C17.4271 59.4204 17.5464 58.8205 17.5464 58.2506C17.5464 57.8907 17.5166 57.5307 17.4271 57.1708C17.3375 56.8408 17.2182 56.5109 17.1585 56.1809C17.0988 55.821 17.069 55.461 17.069 55.1011C17.069 54.8911 17.069 54.6512 17.069 54.4412C17.069 54.1413 17.069 53.8713 17.0093 53.5714L16.4423 53.6013Z" fill="#087BC1" fill-opacity="0.5"/>
<path d="M16.4423 53.5714C16.1737 54.0213 16.0544 54.5312 16.0544 55.0111H16.2931H16.0544H16.2931H16.0544C16.0544 55.971 16.5318 56.8708 16.681 57.7707C16.7109 57.9506 16.7109 58.1006 16.7109 58.2806C16.7109 59.2104 16.3528 60.1403 15.6963 60.8902L16.1737 61.0402C16.8899 60.2603 17.2779 59.2704 17.2779 58.2806C17.2779 58.1006 17.2779 57.9207 17.248 57.7407C17.0988 56.7808 16.6214 55.911 16.6214 55.0111H16.3826H16.6214H16.3826H16.6214C16.6214 54.5612 16.7407 54.0813 16.9795 53.6613L16.4423 53.5714Z" fill="#087BC1" fill-opacity="0.5"/>
<path d="M16.4722 53.7213C16.8005 54.2013 16.9795 54.7712 16.9795 55.3411C16.9795 55.5511 16.9497 55.731 16.9198 55.941C16.8602 56.181 16.7706 56.4209 16.7408 56.6909C16.7408 56.7809 16.711 56.8708 16.711 56.9308C16.711 57.6507 17.069 58.3106 17.2183 58.9705C17.2779 59.2705 17.3078 59.5404 17.3078 59.8404C17.3078 60.2003 17.2481 60.5902 17.1586 60.9502L17.6957 61.0102C17.8151 60.6202 17.8748 60.2303 17.8748 59.8404C17.8748 59.5404 17.8449 59.2105 17.7554 58.9105C17.5763 58.2206 17.2481 57.5607 17.2481 56.9008C17.2481 56.8109 17.2481 56.7509 17.2481 56.6609C17.2779 56.4209 17.3675 56.181 17.4271 55.941C17.4868 55.731 17.4868 55.5211 17.4868 55.3111C17.4868 54.7112 17.3078 54.0813 16.9497 53.5414L16.4722 53.7213Z" fill="#087BC1" fill-opacity="0.5"/>
<path d="M16.5319 53.6913C16.2932 54.4112 16.0544 55.1311 15.8157 55.881C15.6963 56.2409 15.577 56.6309 15.5173 57.0208C15.4875 57.2308 15.4875 57.4407 15.4875 57.6507C15.4875 58.1306 15.5471 58.6106 15.5471 59.0605C15.5471 59.0905 15.5471 59.1505 15.5471 59.1805C15.5471 59.8404 15.3979 60.5002 15.1294 61.1001L15.6665 61.1901C15.9351 60.5602 16.0843 59.8703 16.1141 59.1805C16.1141 59.1505 16.1141 59.0905 16.1141 59.0605C16.1141 58.5806 16.0544 58.1006 16.0544 57.6507C16.0544 57.4407 16.0544 57.2608 16.0843 57.0508C16.144 56.6909 16.2633 56.3009 16.3827 55.941C16.6214 55.2211 16.8601 54.5012 17.0989 53.7513L16.5319 53.6913Z" fill="#087BC1" fill-opacity="0.5"/>
<path d="M14.3833 53.3015C14.2938 53.3015 14.1744 53.3015 14.0849 53.3015C13.9357 53.3015 13.7865 53.3014 13.6671 53.3314C13.6075 53.3314 13.5179 53.3614 13.4284 53.3914C13.3389 53.4214 13.2195 53.5114 13.1598 53.6614C13.13 53.7214 13.13 53.7814 13.13 53.8414C13.13 53.9014 13.13 53.9613 13.1598 54.0213C13.2195 54.2013 13.3389 54.3213 13.4583 54.3813C13.5776 54.4413 13.697 54.4713 13.8163 54.5013C13.9059 54.5313 14.0252 54.5613 14.1744 54.5613C14.264 54.5613 14.3535 54.5613 14.4728 54.5013C14.5624 54.4713 14.6817 54.3813 14.7414 54.2613C14.8011 54.1113 14.8011 53.9913 14.8011 53.9314V53.8714C14.8011 53.8114 14.8011 53.6914 14.7116 53.5714C14.6221 53.4514 14.5027 53.3914 14.3833 53.3914C14.2938 53.3914 14.1744 53.4214 14.1148 53.5114L14.5325 53.8714L14.3833 53.7514V53.9314C14.4132 53.9314 14.4728 53.9014 14.5325 53.8714L14.3833 53.7514V53.9314V53.7814L14.264 53.8714C14.2938 53.9314 14.3236 53.9314 14.3833 53.9314V53.7814L14.264 53.8714L14.3236 53.8414H14.264V53.8714L14.3236 53.8414H14.264V53.8714V53.9014V53.9913V54.0213H14.2938H14.3236H14.2341C14.1744 54.0213 14.0849 54.0213 14.0252 53.9913C13.9357 53.9613 13.8462 53.9314 13.8163 53.9014C13.7567 53.8714 13.7567 53.8414 13.7567 53.8414H13.7268H13.7567H13.7268H13.7567H13.6671L13.7567 53.8714V53.8414H13.6671L13.7567 53.8714L13.6671 53.8414L13.7268 53.9014L13.7567 53.8714L13.6671 53.8414L13.7268 53.9014L13.697 53.8714V53.9014L13.6671 53.8714V53.9014C13.6671 53.9014 13.7268 53.9014 13.7567 53.8714C13.876 53.8714 14.0252 53.8714 14.1446 53.8714C14.2341 53.8714 14.3236 53.8714 14.4132 53.8714L14.3833 53.3015Z" fill="#087BC1" fill-opacity="0.5"/>
<path d="M13.5477 53.5714C13.5477 53.6014 13.5477 53.6614 13.5477 53.6914C13.5477 54.6812 13.7268 55.641 13.7268 56.6309C13.7268 56.7509 13.7268 56.8708 13.7268 56.9908C13.6671 58.0707 13.3389 59.1205 13.0106 60.1703C12.8912 60.5602 12.7719 60.9802 12.7719 61.4001C12.7719 61.6101 12.8017 61.82 12.8912 62L13.4284 61.91C13.3687 61.7301 13.3389 61.5501 13.3389 61.3701C13.3389 60.9802 13.4582 60.5902 13.5776 60.2003C13.9058 59.1505 14.2639 58.0706 14.3236 56.9608C14.3236 56.8408 14.3236 56.7209 14.3236 56.6009C14.3236 55.611 14.1446 54.6512 14.1446 53.6614C14.1446 53.6314 14.1446 53.5714 14.1446 53.5414L13.5477 53.5714Z" fill="#087BC1" fill-opacity="0.5"/>
<path d="M13.6074 53.7214C13.9356 54.9512 14.2639 56.211 14.2639 57.4408C14.2639 57.7407 14.2341 58.0107 14.2042 58.3106C14.1147 58.9405 13.9058 59.6004 13.9058 60.2903C13.9058 60.4103 13.9058 60.5603 13.9356 60.6802L14.4728 60.6503C14.4429 60.5303 14.4429 60.4103 14.4429 60.2903C14.4429 59.6604 14.6518 59.0005 14.7413 58.3406C14.7712 58.0407 14.801 57.7407 14.801 57.4408C14.801 56.151 14.4728 54.8912 14.1147 53.6614L13.6074 53.7214Z" fill="#087BC1" fill-opacity="0.5"/>
<path d="M13.5776 53.5714C14.0252 54.6212 14.0551 55.791 14.0849 56.9309C14.0849 57.0208 14.0849 57.1408 14.0849 57.2308C14.0849 57.5308 14.0551 57.8307 13.9954 58.1307C13.7567 59.0305 12.8913 59.7504 12.4138 60.6803L12.9211 60.7702C13.3687 59.9004 14.264 59.1805 14.5325 58.1607C14.6221 57.8607 14.6221 57.5308 14.6221 57.2308C14.6221 57.1408 14.6221 57.0208 14.6221 56.9309C14.5922 55.791 14.5624 54.5912 14.1148 53.5114L13.5776 53.5714Z" fill="#087BC1" fill-opacity="0.5"/>
<path d="M13.5179 53.6913C13.3687 55.0411 13.2195 56.3909 13.2195 57.7407C13.2195 58.0406 13.2195 58.3406 13.3389 58.6405C13.4284 58.8505 13.5478 59.0305 13.6671 59.2105C14.0551 59.8104 14.3833 60.4702 14.622 61.1301L15.1592 61.0702C14.9204 60.3803 14.5922 59.7204 14.1744 59.0905C14.0551 58.9105 13.9357 58.7605 13.876 58.5806C13.7865 58.3406 13.7566 58.0406 13.7566 57.7407H13.4881H13.7566V57.7107C13.7566 56.3609 13.9059 55.0111 14.0551 53.6913H13.5179Z" fill="#087BC1" fill-opacity="0.5"/>
<path d="M11.1307 53.0915C11.0113 53.0615 10.892 53.0315 10.7428 53.0315C10.6831 53.0315 10.5936 53.0315 10.5339 53.0615C10.4145 53.0915 10.2952 53.1515 10.2056 53.2415C10.1161 53.3315 10.0564 53.4814 10.0564 53.6314V53.6614L10.325 53.6314L10.0564 53.6614C10.0564 53.8714 10.2056 54.0213 10.325 54.1113C10.4444 54.2013 10.5936 54.2313 10.7428 54.2613C10.8025 54.2613 10.892 54.2613 10.9517 54.2613C11.1009 54.2613 11.2202 54.2313 11.3694 54.2013C11.4291 54.2013 11.459 54.1713 11.5485 54.1413C11.6082 54.1113 11.6977 54.0513 11.7275 53.9314L11.7574 53.9014V53.7514V53.7214V53.6914C11.7275 53.5414 11.638 53.3914 11.5186 53.3015C11.3993 53.2115 11.2799 53.1515 11.1605 53.1215C11.0113 53.0915 10.8621 53.0615 10.7129 53.0615C10.6532 53.0615 10.6234 53.0615 10.5637 53.0615H10.5339V53.6014H10.5637C10.6234 53.6014 10.6532 53.6014 10.7129 53.6014C10.8323 53.6014 10.9218 53.6014 11.0113 53.6314C11.071 53.6314 11.1307 53.6614 11.1605 53.6914L11.2202 53.7814L11.4888 53.7214H11.2202V53.8114H11.4888L11.2202 53.7214L11.3396 53.7814L11.2799 53.6614L11.2202 53.7214L11.3396 53.7814L11.2799 53.6614V53.6914V53.6614V53.6914V53.6614H11.2501C11.1605 53.6914 11.0412 53.6914 10.9517 53.6914H10.8025C10.7428 53.6914 10.6831 53.6614 10.6234 53.6314L10.5936 53.6014H10.6234H10.6532H10.5637H10.6831H10.5936H10.7129L10.8025 53.5414H10.892C10.9517 53.5414 11.0412 53.5714 11.1605 53.5714L11.1307 53.0915Z" fill="#087BC1" fill-opacity="0.5"/>
<path d="M10.7725 53.3314C10.862 53.8714 11.2201 54.3513 11.4589 54.8012C11.7573 55.4311 11.9065 56.091 11.9065 56.7809C11.9065 57.1408 11.8766 57.5008 11.817 57.8607C11.6379 58.9106 11.2201 59.9004 10.7725 60.9202L11.3097 61.0102C11.7573 59.9904 12.175 58.9705 12.3541 57.9207C12.4138 57.5608 12.4735 57.1708 12.4735 56.7809C12.4735 56.061 12.3243 55.3711 11.996 54.7112C11.7573 54.2313 11.429 53.7814 11.3395 53.3015L10.7725 53.3314Z" fill="#087BC1" fill-opacity="0.5"/>
<path d="M10.7427 53.3914C10.7725 53.6014 10.7725 53.8113 10.7725 54.0213C10.7725 55.1611 10.4443 56.2709 10.1459 57.4108C9.90716 58.2806 9.69827 59.2105 9.69827 60.1103C9.69827 60.5903 9.75795 61.0702 9.90716 61.5201L10.4443 61.4601C10.3249 61.0102 10.2653 60.5603 10.2653 60.1103C10.2653 59.2405 10.4741 58.3406 10.7129 57.4408C11.0113 56.3009 11.3694 55.1611 11.3694 53.9913C11.3694 53.7814 11.3694 53.5414 11.3395 53.3314L10.7427 53.3914Z" fill="#087BC1" fill-opacity="0.5"/>
<path d="M10.6831 53.3914C10.6831 53.5714 10.6532 53.7514 10.6532 53.9313C10.6532 54.7112 10.7428 55.4611 10.7428 56.211C10.7428 56.3909 10.7428 56.6009 10.7129 56.7809C10.6234 58.0107 10.2056 59.2405 10.2056 60.5003C10.2056 60.5303 10.2056 60.5603 10.2056 60.5903C10.2056 60.9802 10.2653 61.4001 10.5339 61.7601L11.0412 61.6101C10.8323 61.3101 10.7726 60.9502 10.7726 60.5903C10.7726 60.5603 10.7726 60.5303 10.7726 60.5003C10.7726 59.2705 11.1904 58.0707 11.2799 56.8109C11.2799 56.6309 11.3097 56.4209 11.3097 56.241C11.3097 55.4611 11.2202 54.7112 11.2202 53.9613C11.2202 53.7814 11.2202 53.6014 11.2501 53.4214L10.6831 53.3914Z" fill="#087BC1" fill-opacity="0.5"/>
<path d="M10.8025 53.3614C11.1904 54.3513 11.3993 55.3711 11.3993 56.3909C11.3993 56.9008 11.3396 57.4408 11.3396 57.9807C11.3396 58.2806 11.3694 58.6106 11.3993 58.9105C11.5186 59.6304 11.8469 60.2903 12.1751 60.9502L12.7123 60.8602C12.384 60.2003 12.0856 59.5404 11.9663 58.8805C11.9066 58.5806 11.9066 58.2806 11.9066 57.9807C11.9066 57.4707 11.9663 56.9308 11.9663 56.3909C11.9663 55.3411 11.7574 54.2913 11.3694 53.2714L10.8025 53.3614Z" fill="#087BC1" fill-opacity="0.5"/>
<path d="M7.84821 53.2114C7.63932 53.3314 7.51996 53.5714 7.51996 53.7813C7.51996 53.8413 7.51996 53.9013 7.5498 53.9613C7.60948 54.1713 7.78853 54.3212 7.93773 54.4112C8.11678 54.5012 8.26598 54.5312 8.44503 54.5312H8.50471C8.56439 54.5312 8.62407 54.5312 8.68376 54.5012C8.74344 54.4712 8.8628 54.4412 8.92248 54.3212C8.98216 54.2313 8.98217 54.1413 8.98217 54.0813C8.98217 54.0213 8.98216 53.9613 8.95232 53.9313C8.92248 53.7813 8.89264 53.6613 8.8628 53.5114V53.4814L8.77328 53.3314L8.7136 53.2114L8.44503 53.1514H8.41519H8.38535C8.17646 53.1514 7.99741 53.1514 7.78853 53.1514V53.6913C7.99741 53.6913 8.17646 53.6913 8.38535 53.6913V53.4214L8.3555 53.6613L8.59423 53.5414L8.32566 53.6014C8.3555 53.7513 8.38535 53.8713 8.41519 54.0213V54.0513H8.53455L8.44503 53.9913L8.41519 54.0513H8.53455L8.44503 53.9913L8.53455 54.0513L8.50471 53.9313L8.44503 53.9913L8.53455 54.0513L8.50471 53.9313H8.47487H8.44503C8.3555 53.9313 8.23614 53.9013 8.17646 53.8713C8.11678 53.8413 8.08694 53.8113 8.0571 53.7813V53.7513L8.11678 53.6613L7.84821 53.2114Z" fill="#087BC1" fill-opacity="0.5"/>
<path d="M7.87801 53.6013C7.90785 53.7513 7.90785 53.9013 7.90785 54.0513C7.90785 54.6512 7.81833 55.2811 7.81833 55.941C7.81833 56.1509 7.81833 56.3609 7.84817 56.5709C7.90785 57.0808 8.0869 57.5307 8.2361 58.0106C8.41515 58.5805 8.53451 59.1804 8.53451 59.7803V59.8103C8.53451 60.4102 8.38531 61.0102 8.05706 61.5201L8.56435 61.6401C8.92244 61.1001 9.07165 60.4402 9.07165 59.8103H8.80308H9.07165V59.7803C9.07165 59.1505 8.95228 58.5506 8.77324 57.9506C8.62403 57.4707 8.47483 57.0208 8.41515 56.5409C8.38531 56.3309 8.38531 56.1509 8.38531 55.941C8.38531 55.3411 8.47483 54.7112 8.47483 54.0513C8.47483 53.9013 8.47483 53.7213 8.44499 53.5714L7.87801 53.6013Z" fill="#087BC1" fill-opacity="0.5"/>
<path d="M7.90792 53.6614V53.7214C7.90792 54.1413 8.05712 54.5612 8.14665 54.9212C8.32569 55.5511 8.44506 56.241 8.44506 56.8709C8.44506 57.5008 8.32569 58.1307 8.08696 58.7306C7.8184 59.3905 7.37078 59.9904 6.98285 60.6203L7.49015 60.7402C7.84824 60.1103 8.32569 59.5104 8.6241 58.8205C8.89267 58.1906 8.98219 57.5608 8.98219 56.9009C8.98219 56.211 8.86283 55.5211 8.68378 54.8912C8.56442 54.5012 8.44506 54.1113 8.44506 53.7514V53.6914L7.90792 53.6614Z" fill="#087BC1" fill-opacity="0.5"/>
<path d="M7.99729 53.6314C7.99729 54.0513 8.02713 54.5012 8.02713 54.9212C8.02713 55.4311 7.99729 55.971 7.9376 56.4809C7.81824 57.4108 7.57951 58.3706 7.10206 59.1805C6.83349 59.6304 6.44556 60.1403 6.44556 60.7102C6.44556 60.7402 6.44556 60.8002 6.44556 60.8302L6.98269 60.8002C6.98269 60.7702 6.98269 60.7402 6.98269 60.7102C6.98269 60.2303 7.34078 59.7804 7.60935 59.2705C8.11665 58.4006 8.35538 57.4408 8.47474 56.4809C8.53442 55.941 8.56426 55.4311 8.56426 54.8912C8.56426 54.4412 8.56426 54.0213 8.53442 53.6014L7.99729 53.6314Z" fill="#087BC1" fill-opacity="0.5"/>
<path d="M7.87805 53.6913C7.78853 54.3212 7.75869 54.9511 7.75869 55.581C7.75869 56.1509 7.78853 56.7209 7.78853 57.2908C7.78853 58.0406 7.75869 58.7905 7.60948 59.5404C7.57964 59.7504 7.51996 59.9603 7.51996 60.2003C7.51996 60.2303 7.51996 60.2603 7.51996 60.2903C7.5498 60.5902 7.66916 60.8902 7.66916 61.1301C7.66916 61.1901 7.66916 61.2501 7.63932 61.3401L8.17646 61.4001C8.2063 61.3101 8.2063 61.2201 8.2063 61.1301C8.2063 60.8302 8.08694 60.5302 8.0571 60.2603V60.1703C8.0571 59.9603 8.11678 59.7504 8.14662 59.5404C8.29582 58.7905 8.32566 58.0106 8.32566 57.2608C8.32566 56.6909 8.29582 56.121 8.29582 55.551C8.29582 54.9211 8.32566 54.3212 8.41519 53.6913H7.87805Z" fill="#087BC1" fill-opacity="0.5"/>
<path d="M5.81906 53.0915C5.72953 53.0915 5.64001 53.0615 5.55049 53.0615C5.46096 53.0615 5.3416 53.0615 5.22224 53.1215C5.10287 53.1515 4.98351 53.2415 4.89399 53.3314C4.80446 53.4214 4.74478 53.5714 4.74478 53.7214H5.01335L4.74478 53.6914V53.7214C4.74478 53.9613 4.89399 54.1413 5.04319 54.2613C5.1924 54.3513 5.3416 54.4113 5.46096 54.4413C5.52065 54.4713 5.61017 54.4713 5.72953 54.4713C5.78922 54.4713 5.87874 54.4713 5.96826 54.4113C6.11747 54.3513 6.20699 54.2013 6.23683 54.0813C6.26667 53.9613 6.29651 53.8414 6.29651 53.7514V53.6914C6.29651 53.6014 6.29651 53.4514 6.20699 53.3015C6.11747 53.1515 5.9981 53.0315 5.78921 53.0315L5.66985 53.0615L5.81906 53.6014L5.78921 53.4814V53.6014H5.81906L5.78921 53.4814V53.6014V53.5414L5.72953 53.5714C5.72953 53.5714 5.72953 53.5714 5.78921 53.6014V53.5414L5.72953 53.5714C5.72953 53.5714 5.75937 53.6314 5.75937 53.7214H6.02794H5.75937V53.7814C5.75937 53.8414 5.75937 53.9014 5.72953 53.9313V53.9613L5.75937 53.9913V53.9613L5.78921 53.9913V53.9613V53.9913V53.9613V53.9913V53.9613C5.75937 53.9613 5.72953 53.9613 5.66985 53.9313C5.55049 53.9014 5.46096 53.8714 5.40128 53.8414L5.3416 53.7814V53.7514H5.07303L5.3416 53.7814V53.7514H5.07303L5.3416 53.7814L5.37144 53.7514L5.46096 53.6914C5.49081 53.6914 5.55049 53.6614 5.61017 53.6614C5.66985 53.6614 5.72953 53.6614 5.81906 53.6614V53.0915Z" fill="#087BC1" fill-opacity="0.5"/>
<path d="M5.22222 53.6314C5.22222 54.0813 5.10286 54.5012 5.10286 54.9512C5.10286 54.9812 5.10286 55.0411 5.10286 55.0711C5.10286 55.5811 5.22222 56.091 5.31174 56.5709C5.43111 57.2308 5.52063 57.8907 5.52063 58.5506C5.52063 59.4804 5.34159 60.4103 4.83429 61.2202L5.34159 61.3401C5.87872 60.4703 6.05777 59.5104 6.05777 58.5506C6.05777 57.8907 5.96825 57.2008 5.84888 56.5409C5.75936 56.031 5.64 55.5511 5.64 55.0711C5.64 55.0411 5.64 54.9812 5.64 54.9512C5.66984 54.5312 5.75936 54.0813 5.75936 53.6314V53.6014L5.22222 53.6314Z" fill="#087BC1" fill-opacity="0.5"/>
<path d="M5.25192 53.6313C5.25192 53.6613 5.25192 53.7213 5.25192 53.7513C5.25192 54.0513 5.40113 54.2912 5.49065 54.5312C5.75922 55.1611 5.72938 55.851 5.72938 56.5409C5.75922 58.3106 6.14715 60.0203 6.53508 61.76L7.07222 61.73C6.68429 60.0203 6.3262 58.2806 6.29636 56.5709C6.26652 55.881 6.3262 55.1611 6.02779 54.5012C5.93827 54.2612 5.78906 54.0213 5.78906 53.8113C5.78906 53.7813 5.78906 53.7513 5.78906 53.7213L5.25192 53.6313Z" fill="#087BC1" fill-opacity="0.5"/>
<path d="M5.07297 53.6014C5.01328 54.6812 4.98344 55.761 4.92376 56.8109C4.89392 57.4708 4.86408 58.1007 4.68503 58.7306C4.56567 59.1205 4.38662 59.5104 4.1479 59.8404C3.96885 60.1403 3.70028 60.4403 3.67044 60.8302V60.8902H4.20758V60.8602C4.20758 60.5903 4.41646 60.2903 4.62535 59.9904C4.86408 59.6004 5.07297 59.2105 5.19233 58.7905C5.40122 58.1307 5.43106 57.4708 5.4609 56.8109C5.52058 55.731 5.55042 54.6512 5.6101 53.6014H5.07297Z" fill="#087BC1" fill-opacity="0.5"/>
<path d="M5.22215 53.6913C5.19231 54.9211 5.16247 56.1809 5.16247 57.4407C5.16247 57.8307 5.16247 58.2206 5.16247 58.6106C5.16247 58.7605 5.16247 58.9405 5.16247 59.0905C5.16247 59.4204 5.13263 59.7504 5.07294 60.0803C5.01326 60.3803 4.86406 60.7102 4.74469 61.0102L4.71485 61.1001L4.74469 61.0102C4.62533 61.2501 4.53581 61.5201 4.41644 61.76L4.95358 61.85C5.07294 61.6101 5.16247 61.3401 5.28183 61.1001C5.40119 60.8002 5.5504 60.4703 5.61008 60.1403C5.6996 59.7804 5.6996 59.4504 5.6996 59.0905C5.6996 58.9405 5.6996 58.7605 5.6996 58.6106C5.6996 58.2206 5.6996 57.8307 5.6996 57.4407C5.6996 56.2109 5.72944 54.9511 5.75929 53.7213L5.22215 53.6913Z" fill="#087BC1" fill-opacity="0.5"/>
<path d="M3.28246 53.1214C3.16309 53.1214 3.04373 53.0914 2.92437 53.0914C2.74532 53.0914 2.56628 53.1214 2.35739 53.1514C2.29771 53.1514 2.20818 53.1814 2.08882 53.2414C1.96946 53.3314 1.87993 53.4214 1.85009 53.5714L1.82025 53.7213C1.82025 53.9313 1.90977 54.0813 2.05898 54.2013C2.23802 54.3212 2.41707 54.3812 2.56628 54.3812H2.6558C2.89453 54.3812 3.10341 54.3212 3.3123 54.2312C3.40182 54.1713 3.55103 54.1113 3.61071 53.9313C3.64055 53.8713 3.64055 53.8113 3.64055 53.7513C3.64055 53.5414 3.52119 53.3914 3.34214 53.2714C3.22278 53.2114 3.13325 53.1814 3.01389 53.1814C2.92437 53.1814 2.86469 53.1814 2.77516 53.2114L2.92437 53.7513H3.01389H3.07357L3.10341 53.7213H3.07357V53.7513L3.10341 53.7213H3.07357H3.16309L3.07357 53.6913V53.7213H3.16309L3.07357 53.6913L3.13325 53.7213L3.07357 53.6913L3.13325 53.7213L3.07357 53.6913L3.01389 53.7213C2.89453 53.7813 2.74532 53.8113 2.59612 53.8113H2.53643C2.44691 53.8113 2.35739 53.7813 2.32755 53.7513L2.29771 53.6913C2.29771 53.6913 2.32755 53.6913 2.38723 53.6613C2.53643 53.6313 2.68564 53.6313 2.83484 53.6313C2.92437 53.6313 3.01389 53.6313 3.10341 53.6613L3.28246 53.1214Z" fill="#087BC1" fill-opacity="0.5"/>
<path d="M2.41706 53.6013C2.4469 53.8713 2.47674 54.1713 2.47674 54.4412C2.47674 54.6512 2.47674 54.8911 2.47674 55.1011C2.47674 55.491 2.47674 55.851 2.56627 56.2409C2.62595 56.5709 2.74531 56.9008 2.83484 57.2308C2.92436 57.5607 2.9542 57.9207 2.9542 58.2506C2.9542 58.7905 2.86468 59.3604 2.65579 59.8703C2.4469 60.3803 2.14849 60.9202 2.11865 61.5201H2.65579C2.68563 61.0102 2.98404 60.5002 3.19293 59.9603C3.40181 59.4204 3.52118 58.8205 3.52118 58.2506C3.52118 57.8907 3.49134 57.5307 3.40181 57.1708C3.31229 56.8408 3.19293 56.5109 3.13324 56.1809C3.07356 55.821 3.04372 55.461 3.04372 55.1011C3.04372 54.8911 3.04372 54.6512 3.04372 54.4412C3.04372 54.1413 3.04372 53.8713 2.98404 53.5714L2.41706 53.6013Z" fill="#087BC1" fill-opacity="0.5"/>
<path d="M2.41704 53.5714C2.14848 54.0213 2.02911 54.5312 2.02911 55.0111H2.26784H2.02911H2.26784H2.02911C2.02911 55.971 2.50657 56.8708 2.65577 57.7707C2.68561 57.9506 2.68561 58.1006 2.68561 58.2806C2.68561 59.2104 2.32752 60.1403 1.67102 60.8902L2.14848 61.0402C2.86466 60.2603 3.25259 59.2704 3.25259 58.2806C3.25259 58.1006 3.25259 57.9207 3.22275 57.7407C3.07355 56.7808 2.59609 55.911 2.59609 55.0111H2.35736H2.59609H2.35736H2.59609C2.59609 54.5612 2.71545 54.0813 2.95418 53.6613L2.41704 53.5714Z" fill="#087BC1" fill-opacity="0.5"/>
<path d="M2.44699 53.7213C2.77524 54.2013 2.95429 54.7712 2.95429 55.3411C2.95429 55.5511 2.92445 55.731 2.89461 55.941C2.83492 56.181 2.7454 56.4209 2.71556 56.6909C2.71556 56.7809 2.68572 56.8708 2.68572 56.9308C2.68572 57.6507 3.04381 58.3106 3.19301 58.9705C3.2527 59.2705 3.28254 59.5404 3.28254 59.8404C3.28254 60.2003 3.22286 60.5902 3.13333 60.9502L3.67047 61.0102C3.78983 60.6202 3.84952 60.2303 3.84952 59.8404C3.84952 59.5404 3.81967 59.2105 3.73015 58.9105C3.55111 58.2206 3.22286 57.5607 3.22286 56.9008C3.22286 56.8109 3.22286 56.7509 3.22286 56.6609C3.2527 56.4209 3.34222 56.181 3.4019 55.941C3.46158 55.731 3.46158 55.5211 3.46158 55.3111C3.46158 54.7112 3.28254 54.0813 2.92445 53.5414L2.44699 53.7213Z" fill="#087BC1" fill-opacity="0.5"/>
<path d="M2.50671 53.6913C2.26798 54.4112 2.02926 55.1311 1.79053 55.881C1.67117 56.2409 1.5518 56.6309 1.49212 57.0208C1.46228 57.2308 1.46228 57.4407 1.46228 57.6507C1.46228 58.1306 1.52196 58.6106 1.52196 59.0605C1.52196 59.0905 1.52196 59.1505 1.52196 59.1805C1.52196 59.8404 1.37276 60.5002 1.10419 61.1001L1.64132 61.1901C1.90989 60.5602 2.0591 59.8703 2.08894 59.1805C2.08894 59.1505 2.08894 59.0905 2.08894 59.0605C2.08894 58.5806 2.02926 58.1006 2.02926 57.6507C2.02926 57.4407 2.02926 57.2608 2.0591 57.0508C2.11878 56.6909 2.23814 56.3009 2.35751 55.941C2.59624 55.2211 2.83496 54.5012 3.07369 53.7513L2.50671 53.6913Z" fill="#087BC1" fill-opacity="0.5"/>
<path d="M0 12.988V10.9183C0 9.62851 1.04443 8.57867 2.3276 8.57867H20.1128C21.396 8.57867 22.4404 9.62851 22.4404 10.9183V12.988H0Z" fill="#0DFFF8"/>
<path d="M22.4106 50.0919V51.0518C22.4106 52.3416 21.3661 53.3914 20.083 53.3914H2.32759C1.04443 53.3914 0 52.3416 0 51.0518V48.9821H22.4106V50.0919Z" fill="#0A6EA0"/>
<path d="M22.4106 32.0649H0V40.8835H22.4106V32.0649Z" fill="#066489"/>
<path d="M22.4106 21.6865H0V22.5263H22.4106V21.6865Z" fill="white"/>
<path d="M22.4106 18.1471H0V19.2569H22.4106V18.1471Z" fill="white"/>
<path d="M22.4106 36.1741H0V37.284H22.4106V36.1741Z" fill="white"/>
<path d="M22.4106 40.7333H0V41.8432H22.4106V40.7333Z" fill="white"/>
<path d="M22.0525 52.2816H0.358124C0.775897 52.9415 1.49208 53.3914 2.32763 53.3914H20.1128C20.9185 53.3614 21.6646 52.9415 22.0525 52.2816Z" fill="white"/>
<path d="M22.0524 52.2816L0.29837 52.2516L0.328211 52.2816C0.745985 52.9415 1.46217 53.3915 2.29771 53.3915H20.0829C20.9483 53.3915 21.6645 52.9415 22.0524 52.2816L22.0823 52.2516L22.0524 52.2816C21.6347 52.9115 20.9185 53.3615 20.0829 53.3615H2.32756C1.52185 53.3615 0.805667 52.9115 0.387893 52.2816H0.358052V52.3116L22.0524 52.2816Z" fill="#087BC1"/>
<path d="M22.4106 22.5264H0V32.1849H22.4106V22.5264Z" fill="#8FFAFF"/>
<path d="M22.4106 41.8433H0V48.9821H22.4106V41.8433Z" fill="#8FFAFF"/>
<path d="M22.4106 18.087H0V21.6864H22.4106V18.087Z" fill="#087BC1"/>
<path d="M22.4106 12.688H0V18.0871H22.4106V12.688Z" fill="#8FFAFF"/>
</svg>
