<?xml version="1.0" encoding="utf-8"?>
<!-- Generator: Adobe Illustrator 24.1.0, SVG Export Plug-In . SVG Version: 6.00 Build 0)  -->
<svg version="1.1" xmlns="http://www.w3.org/2000/svg" xmlns:xlink="http://www.w3.org/1999/xlink" x="0px" y="0px"
	 viewBox="0 0 1920 1080" style="enable-background:new 0 0 1920 1080;" xml:space="preserve">
<style type="text/css">
	.st0{fill:none;stroke:#333333;stroke-width:0.25;stroke-miterlimit:10;}
	.st1{fill:none;stroke:#CCCCCC;stroke-miterlimit:10;}
	.st2{fill:none;}
	.st3{fill:#1DAD7A;}
	.st4{fill:#A0D19C;}
	.st5{fill:#66D9E0;}
	.st6{fill:#35B6ED;}
	.st7{fill:#C7C7C7;}
	.st8{fill:#CFA149;}
	.st9{enable-background:new    ;}
	.st10{fill:#78BC2E;}
	.st11{font-family:'SourceSansPro-SemiBold';}
	.st12{font-size:20px;}
	.st13{font-family:'SourceSansPro-Regular';}
	.st14{fill:#1EAACB;}
	.st15{fill:#666666;}
	.st16{font-size:19px;}
</style>
<g id="Layer_1">
	<path class="st0" d="M63.6,827.2h1815"/>
	<path class="st1" d="M63.7,703.8h1815"/>
	<path class="st1" d="M63.7,765.8h1815"/>
	<path class="st1" d="M63.7,642.8h1815"/>
	<path class="st1" d="M63.7,581.8h1815"/>
	<path class="st1" d="M63.7,519.8h1815"/>
	<path class="st1" d="M63.7,458.8h1815"/>
	<path class="st1" d="M63.7,397.8h1815"/>
	<path class="st1" d="M63.7,336.8h1815"/>
	<path class="st1" d="M63.7,275.8h1815"/>
	<g>
		<path class="st2" d="M94.1,827.3h-20v-8c0-1.1,0.9-2,2-2h16c1.1,0,2,0.9,2,2V827.3z"/>
		<path class="st4" d="M94.1,827.3h-20v-10c0,0,0.9,0,2,0h16c1.1,0,2,0,2,0V827.3z"/>
		<path class="st5" d="M117.2,827.3h-20v-1.4c0,0,0.9,0,2,0h16c1.1,0,2,0,2,0V827.3z"/>
	</g>
	<g>
		<g>
			<path class="st2" d="M172.6,827.3h-20v-24h20V827.3z"/>
			<path class="st3" d="M172.6,827.3h-20v-24h20V827.3z"/>
			<path class="st2" d="M172.6,803.3h-20v-41c0-1.1,0.9-2,2-2h16c1.1,0,2,0.9,2,2V803.3z"/>
			<path class="st4" d="M172.6,803.3h-20v-43h20V803.3z"/>
		</g>
		<g>
			<path class="st2" d="M195.7,827.3h-20v-2.2h20V827.3z"/>
			<path class="st6" d="M195.7,827.3h-20v-2.2h20V827.3z"/>
			<path class="st2" d="M195.7,825.1h-20v-1.2c0-0.2,0.9-0.4,2-0.4h16c1.1,0,2,0.2,2,0.4V825.1z"/>
			<path class="st5" d="M195.7,825.1h-20v-1.6c0,0,0.9,0,2,0h16c1.1,0,2,0,2,0V825.1z"/>
		</g>
	</g>
	<g>
		<g>
			<path class="st2" d="M251.1,827.3h-20v-50h20V827.3z"/>
			<path class="st3" d="M251.1,827.3h-20v-50h20V827.3z"/>
			<path class="st2" d="M251.1,777.3h-20v-56c0-1.1,0.9-2,2-2h16c1.1,0,2,0.9,2,2V777.3z"/>
			<path class="st4" d="M251.1,777.3h-20v-58h2h16h2V777.3z"/>
		</g>
		<g>
			<path class="st2" d="M274.2,827.3h-20v-3.6h20V827.3z"/>
			<path class="st6" d="M274.2,827.3h-20v-3.6h20V827.3z"/>
			<path class="st2" d="M274.2,823.7h-20v-2.6c0-0.2,0.9-0.4,2-0.4h16c1.1,0,2,0.2,2,0.4V823.7z"/>
			<path class="st5" d="M274.2,823.7h-20v-3c0,0,0.9,0,2,0h16c1.1,0,2,0,2,0V823.7z"/>
		</g>
	</g>
	<g>
		<path class="st2" d="M329.6,827.3h-20v-80h20V827.3z"/>
		<path class="st3" d="M329.6,827.3h-20v-80h20V827.3z"/>
		<path class="st2" d="M329.6,747.3h-20v-68c0-1.1,0.9-2,2-2h16c1.1,0,2,0.9,2,2V747.3z"/>
		<path class="st4" d="M329.6,747.3h-20v-70c0,0,0.9,0,2,0h16c1.1,0,2,0,2,0V747.3z"/>
	</g>
	<g>
		<path class="st2" d="M353.3,827.3h-20v-4.2h20V827.3z"/>
		<path class="st6" d="M353.3,827.3h-20v-4.2h20V827.3z"/>
		<path class="st2" d="M353.3,823.1h-20V817c0-0.2,0.9-0.4,2-0.4h16c1.1,0,2,0.2,2,0.4V823.1z"/>
		<path class="st5" d="M353.3,823.1h-20v-6.5c0,0,0.9,0,2,0h16c1.1,0,2,0,2,0V823.1z"/>
	</g>
	<g>
		<path class="st2" d="M408.1,827.3h-20v-96h20V827.3z"/>
		<path class="st3" d="M408.1,827.3h-20v-96h20V827.3z"/>
		<path class="st2" d="M408.1,731.3h-20v-61c0-1.1,0.9-2,2-2h16c1.1,0,2,0.9,2,2V731.3z"/>
		<path class="st4" d="M408.1,731.3h-20v-63c0,0,0.9,0,2,0h16c1.1,0,2,0,2,0V731.3z"/>
	</g>
	<g>
		<path class="st2" d="M431.8,827.3h-20v-5.2h20V827.3z"/>
		<path class="st6" d="M431.8,827.3h-20v-5.2h20V827.3z"/>
		<path class="st2" d="M431.8,822.1h-20V818c0-0.2,0.9-0.4,2-0.4h16c1.1,0,2,0.2,2,0.4V822.1z"/>
		<path class="st5" d="M431.8,822.1h-20v-4.6c0,0,0.9,0,2,0h16c1.1,0,2,0,2,0V822.1z"/>
	</g>
	<g>
		<path class="st2" d="M486.6,827.3h-20v-101h20V827.3z"/>
		<path class="st3" d="M486.6,827.3h-20v-101h20V827.3z"/>
		<path class="st2" d="M486.6,726.3h-20v-65c0-1.1,0.9-2,2-2h16c1.1,0,2,0.9,2,2V726.3z"/>
		<path class="st4" d="M486.6,726.3h-20v-67c0,0,0.9,0,2,0h16c1.1,0,2,0,2,0V726.3z"/>
	</g>
	<g>
		<path class="st2" d="M510.3,827.3h-20v-5.2h20V827.3z"/>
		<path class="st6" d="M510.3,827.3h-20v-5.2h20V827.3z"/>
		<path class="st2" d="M510.3,822.1h-20v-3.8c0-0.2,0.9-0.4,2-0.4h16c1.1,0,2,0.2,2,0.4V822.1z"/>
		<path class="st5" d="M510.3,822.1h-20V818c0,0,0.9,0,2,0h16c1.1,0,2,0,2,0V822.1z"/>
	</g>
	<g>
		<g>
			<path class="st2" d="M565.1,827.3h-20v-99h20V827.3z"/>
			<path class="st3" d="M565.1,827.3h-20v-99h20V827.3z"/>
			<path class="st2" d="M565.1,728.3h-20v-81c0-1.1,0.9-2,2-2h16c1.1,0,2,0.9,2,2V728.3z"/>
			<path class="st4" d="M565.1,728.3h-20v-83c0,0,0.9,0,2,0h16c1.1,0,2,0,2,0V728.3z"/>
		</g>
		<g>
			<path class="st2" d="M588.2,827.3h-20v-6.5h20V827.3z"/>
			<path class="st6" d="M588.2,827.3h-20v-6.5h20V827.3z"/>
			<path class="st2" d="M588.2,820.7h-20v-6.1c0-0.2,0.9-0.4,2-0.4h16c1.1,0,2,0.2,2,0.4V820.7z"/>
			<path class="st5" d="M588.2,820.7h-20v-6.5c0,0,0.9,0,2,0h16c1.1,0,2,0,2,0V820.7z"/>
		</g>
	</g>
	<g>
		<path class="st2" d="M643.6,827.3h-20v-101h20V827.3z"/>
		<path class="st3" d="M643.6,827.3h-20v-101h20V827.3z"/>
		<path class="st2" d="M643.6,726.3h-20v-94c0-1.1,0.9-2,2-2h16c1.1,0,2,0.9,2,2V726.3z"/>
		<path class="st4" d="M643.6,726.3h-20v-96c0,0,0.9,0,2,0h16c1.1,0,2,0,2,0V726.3z"/>
	</g>
	<g>
		<path class="st2" d="M667.3,827.3h-20v-6.7h20V827.3z"/>
		<path class="st6" d="M667.3,827.3h-20v-6.7h20V827.3z"/>
		<path class="st2" d="M667.3,820.5h-20v-4.8c0-0.2,0.9-0.4,2-0.4h16c1.1,0,2,0.2,2,0.4V820.5z"/>
		<path class="st5" d="M667.3,820.5h-20v-5.2c0,0,0.9,0,2,0h16c1.1,0,2,0,2,0V820.5z"/>
	</g>
	<g>
		<path class="st2" d="M722.1,827.3h-20v-85h20V827.3z"/>
		<path class="st3" d="M722.1,827.3h-20v-85h20V827.3z"/>
		<path class="st2" d="M722.1,742.3h-20v-74c0-1.1,0.9-2,2-2h16c1.1,0,2,0.9,2,2V742.3z"/>
		<path class="st4" d="M722.1,742.3h-20v-76c0,0,0.9,0,2,0h16c1.1,0,2,0,2,0V742.3z"/>
	</g>
	<g>
		<path class="st2" d="M745.8,827.3h-20v-5h20V827.3z"/>
		<path class="st6" d="M745.8,827.3h-20v-5h20V827.3z"/>
		<path class="st2" d="M745.8,822.3h-20V816c0-0.2,0.9-0.4,2-0.4h16c1.1,0,2,0.2,2,0.4V822.3z"/>
		<path class="st5" d="M745.8,822.3h-20v-6.7c0,0,0.9,0,2,0h16c1.1,0,2,0,2,0V822.3z"/>
	</g>
	<g>
		<path class="st2" d="M800.6,827.3h-20v-80h20V827.3z"/>
		<path class="st3" d="M800.6,827.3h-20v-80h20V827.3z"/>
		<path class="st2" d="M800.6,747.3h-20v-61c0-1.1,0.9-2,2-2h16c1.1,0,2,0.9,2,2V747.3z"/>
		<path class="st4" d="M800.6,747.3h-20v-63c0,0,0.9,0,2,0h16c1.1,0,2,0,2,0V747.3z"/>
	</g>
	<g>
		<path class="st2" d="M824.3,827.3h-20v-5.7h20V827.3z"/>
		<path class="st6" d="M824.3,827.3h-20v-5.7h20V827.3z"/>
		<path class="st2" d="M824.3,821.5h-20v-5.7c0-0.2,0.9-0.4,2-0.4h16c1.1,0,2,0.2,2,0.4V821.5z"/>
		<path class="st5" d="M824.3,821.5h-20v-6.1c0,0,0.9,0,2,0h16c1.1,0,2,0,2,0V821.5z"/>
	</g>
	<g>
		<path class="st2" d="M879.1,827.3h-20v-103h20V827.3z"/>
		<path class="st3" d="M879.1,827.3h-20v-103h20V827.3z"/>
		<path class="st2" d="M879.1,724.3h-20v-64c0-1.1,0.9-2,2-2h16c1.1,0,2,0.9,2,2V724.3z"/>
		<path class="st4" d="M879.1,724.3h-20v-66c0,0,0.9,0,2,0h16c1.1,0,2,0,2,0V724.3z"/>
	</g>
	<g>
		<path class="st2" d="M902.8,827.3h-20v-6.3h20V827.3z"/>
		<path class="st6" d="M902.8,827.3h-20v-6.3h20V827.3z"/>
		<path class="st2" d="M902.8,820.9h-20v-5.5c0-0.2,0.9-0.4,2-0.4h16c1.1,0,2,0.2,2,0.4V820.9z"/>
		<path class="st5" d="M902.8,820.9h-20V815c0,0,0.9,0,2,0h16c1.1,0,2,0,2,0V820.9z"/>
	</g>
	<g>
		<path class="st2" d="M957.6,827.3h-20v-21h20V827.3z"/>
		<path class="st3" d="M957.6,827.3h-20v-21h20V827.3z"/>
		<path class="st2" d="M957.6,806.3h-20v-10c0-1.1,0.9-2,2-2h16c1.1,0,2,0.9,2,2V806.3z"/>
		<path class="st4" d="M957.6,806.3h-20v-12h20V806.3z"/>
	</g>
	<g>
		<path class="st2" d="M980.7,827.3h-20v-5.2h20V827.3z"/>
		<path class="st6" d="M980.7,827.3h-20v-5.2h20V827.3z"/>
		<path class="st2" d="M980.7,822.1h-20v-6.7c0-0.2,0.9-0.4,2-0.4h16c1.1,0,2,0.2,2,0.4V822.1z"/>
		<path class="st5" d="M980.7,822.1h-20V815c0,0,0.9,0,2,0h16c1.1,0,2,0,2,0V822.1z"/>
	</g>
	<g>
		<path class="st2" d="M1036.1,827.3h-20v-3h20V827.3z"/>
		<path class="st3" d="M1036.1,827.3h-20v-3h20V827.3z"/>
		<path class="st2" d="M1036.1,824.3h-20v-1.5c0-0.8,0.7-1.5,1.5-1.5h17c0.8,0,1.5,0.7,1.5,1.5V824.3z"/>
		<path class="st4" d="M1036.1,824.3h-20v-3c0,0,0.7,0,1.5,0h17c0.8,0,1.5,0,1.5,0V824.3z"/>
	</g>
	<g>
		<path class="st2" d="M1059.8,827.3h-20v-5h20V827.3z"/>
		<path class="st6" d="M1059.8,827.3h-20v-5h20V827.3z"/>
		<path class="st2" d="M1059.8,822.3h-20v-7.1c0-0.2,0.9-0.4,2-0.4h16c1.1,0,2,0.2,2,0.4V822.3z"/>
		<path class="st5" d="M1059.8,822.3h-20v-7.5c0,0,0.9,0,2,0h16c1.1,0,2,0,2,0V822.3z"/>
	</g>
	<g>
		<path class="st2" d="M1114.6,827.3h-20v-6h20V827.3z"/>
		<path class="st3" d="M1114.6,827.3h-20v-6h20V827.3z"/>
		<path class="st2" d="M1114.6,821.3h-20v-9c0-1.1,0.9-2,2-2h16c1.1,0,2,0.9,2,2V821.3z"/>
		<path class="st4" d="M1114.6,821.3h-20v-11c0,0,0.9,0,2,0h16c1.1,0,2,0,2,0V821.3z"/>
	</g>
	<g>
		<path class="st2" d="M1138.3,827.3h-20v-3.6h20V827.3z"/>
		<path class="st6" d="M1138.3,827.3h-20v-3.6h20V827.3z"/>
		<path class="st2" d="M1138.3,823.7h-20V813c0-0.2,0.9-0.4,2-0.4h16c1.1,0,2,0.2,2,0.4V823.7z"/>
		<path class="st5" d="M1138.3,823.7h-20v-11.1c0,0,0.9,0,2,0h16c1.1,0,2,0,2,0V823.7z"/>
	</g>
	<g>
		<g>
			<path class="st2" d="M1193.1,827.3h-20v-23h20V827.3z"/>
			<path class="st3" d="M1193.1,827.3h-20v-23h20V827.3z"/>
			<path class="st2" d="M1193.1,804.3h-20v-28c0-1.1,0.9-2,2-2h16c1.1,0,2,0.9,2,2V804.3z"/>
			<path class="st4" d="M1193.1,804.3h-20v-30c0,0,0.9,0,2,0h16c1.1,0,2,0,2,0V804.3z"/>
		</g>
		<g>
			<path class="st2" d="M1216.2,827.3h-20v-5.9h20V827.3z"/>
			<path class="st6" d="M1216.2,827.3h-20v-5.9h20V827.3z"/>
			<path class="st2" d="M1216.2,821.3h-20v-14.1c0-0.2,0.9-0.4,2-0.4h16c1.1,0,2,0.2,2,0.4V821.3z"/>
			<path class="st5" d="M1216.2,821.3h-20v-14.5c0,0,0.9,0,2,0h16c1.1,0,2,0,2,0V821.3z"/>
		</g>
	</g>
	<g>
		<path class="st2" d="M1271.6,827.3h-20v-8h20V827.3z"/>
		<path class="st3" d="M1271.6,827.3h-20v-8h20V827.3z"/>
		<path class="st2" d="M1271.6,819.3h-20v-23c0-1.1,0.9-2,2-2h16c1.1,0,2,0.9,2,2V819.3z"/>
		<path class="st4" d="M1271.6,819.3h-20v-25c0,0,0.9,0,2,0h16c1.1,0,2,0,2,0V819.3z"/>
	</g>
	<g>
		<path class="st2" d="M1295.2,827.3h-20v-4.8h20V827.3z"/>
		<path class="st6" d="M1295.2,827.3h-20v-4.8h20V827.3z"/>
		<path class="st2" d="M1295.2,822.5h-20v-15.3c0-0.2,0.9-0.4,2-0.4h16c1.1,0,2,0.2,2,0.4V822.5z"/>
		<path class="st5" d="M1295.2,822.5h-20v-15.7c0,0,0.9,0,2,0h16c1.1,0,2,0,2,0V822.5z"/>
	</g>
	<g>
		<path class="st2" d="M1350.1,827.3h-20v-18h20V827.3z"/>
		<path class="st3" d="M1350.1,827.3h-20v-18h20V827.3z"/>
		<path class="st2" d="M1350.1,809.3h-20v-47c0-1.1,0.9-2,2-2h16c1.1,0,2,0.9,2,2V809.3z"/>
		<path class="st4" d="M1350.1,809.3h-20v-49c0,0,0.9,0,2,0h16c1.1,0,2,0,2,0V809.3z"/>
	</g>
	<g>
		<path class="st2" d="M1373.7,827.3h-20v-5.7h20V827.3z"/>
		<path class="st6" d="M1373.7,827.3h-20v-5.7h20V827.3z"/>
		<path class="st2" d="M1373.7,821.5h-20v-15.8c0-0.2,0.9-0.4,2-0.4h16c1.1,0,2,0.2,2,0.4V821.5z"/>
		<path class="st5" d="M1373.7,821.5h-20v-16.2c0,0,0.9,0,2,0h16c1.1,0,2,0,2,0V821.5z"/>
	</g>
	<g>
		<path class="st2" d="M1428.6,827.3h-20v-47h20V827.3z"/>
		<path class="st3" d="M1428.6,827.3h-20v-47h20V827.3z"/>
		<path class="st2" d="M1428.6,780.3h-20v-42c0-1.1,0.9-2,2-2h16c1.1,0,2,0.9,2,2V780.3z"/>
		<path class="st4" d="M1428.6,780.3h-20v-44c0,0,0.9,0,2,0h16c1.1,0,2,0,2,0V780.3z"/>
	</g>
	<g>
		<path class="st2" d="M1452.2,827.3h-20v-5.7h20V827.3z"/>
		<path class="st6" d="M1452.2,827.3h-20v-5.7h20V827.3z"/>
		<path class="st2" d="M1452.2,821.5h-20V809c0-0.2,0.9-0.4,2-0.4h16c1.1,0,2,0.2,2,0.4V821.5z"/>
		<path class="st5" d="M1452.2,821.5h-20v-12.9c0,0,0.9,0,2,0h16c1.1,0,2,0,2,0V821.5z"/>
	</g>
	<g>
		<g>
			<path class="st2" d="M1507.1,827.3h-20v-14h20V827.3z"/>
			<path class="st3" d="M1507.1,827.3h-20v-14h20V827.3z"/>
			<path class="st2" d="M1507.1,813.3h-20v-4c0-1.1,0.9-2,2-2h16c1.1,0,2,0.9,2,2V813.3z"/>
			<path class="st4" d="M1507.1,813.3h-20v-6c0,0,0.9,0,2,0h16c1.1,0,2,0,2,0V813.3z"/>
		</g>
		<g>
			<path class="st2" d="M1530.2,827.3h-20v-5.9h20V827.3z"/>
			<path class="st6" d="M1530.2,827.3h-20v-5.9h20V827.3z"/>
			<path class="st2" d="M1530.2,821.3h-20v-20c0-0.2,0.9-0.4,2-0.4h16c1.1,0,2,0.2,2,0.4V821.3z"/>
			<path class="st5" d="M1530.2,821.3h-20v-20.4c0,0,0.9,0,2,0h16c1.1,0,2,0,2,0V821.3z"/>
		</g>
	</g>
	<g>
		<path class="st2" d="M1585.6,827.3h-20v-11h20V827.3z"/>
		<path class="st3" d="M1585.6,827.3h-20v-11h20V827.3z"/>
		<path class="st2" d="M1585.6,816.3h-20v-10c0-1.1,0.9-2,2-2h16c1.1,0,2,0.9,2,2V816.3z"/>
		<path class="st4" d="M1585.6,816.3h-20v-12c0,0,0.9,0,2,0h16c1.1,0,2,0,2,0V816.3z"/>
	</g>
	<g>
		<path class="st2" d="M1609.2,827.3h-20v-7.1h20V827.3z"/>
		<path class="st6" d="M1609.2,827.3h-20v-7.1h20V827.3z"/>
		<path class="st2" d="M1609.2,820.1h-20v-20.4c0-0.2,0.9-0.4,2-0.4h16c1.1,0,2,0.2,2,0.4V820.1z"/>
		<path class="st5" d="M1609.2,820.1h-20v-20.8c0,0,0.9,0,2,0h16c1.1,0,2,0,2,0V820.1z"/>
	</g>
	<g>
		<path class="st2" d="M1664.1,827.3h-20v-44h20V827.3z"/>
		<path class="st3" d="M1664.1,827.3h-20v-44h20V827.3z"/>
		<path class="st2" d="M1664.1,783.3h-20v-25c0-1.1,0.9-2,2-2h16c1.1,0,2,0.9,2,2V783.3z"/>
		<path class="st4" d="M1664.1,783.3h-20v-27c0,0,0.9,0,2,0h16c1.1,0,2,0,2,0V783.3z"/>
	</g>
	<g>
		<path class="st2" d="M1687.7,827.3h-20v-6.7h20V827.3z"/>
		<path class="st6" d="M1687.7,827.3h-20v-6.7h20V827.3z"/>
		<path class="st2" d="M1687.7,820.5h-20v-17.4c0-0.2,0.9-0.4,2-0.4h16c1.1,0,2,0.2,2,0.4V820.5z"/>
		<path class="st5" d="M1687.7,820.5h-20v-17.8c0,0,0.9,0,2,0h16c1.1,0,2,0,2,0V820.5z"/>
	</g>
	<g>
		<path class="st2" d="M1742.6,827.3h-20v-37h20V827.3z"/>
		<path class="st3" d="M1742.6,827.3h-20v-37h20V827.3z"/>
		<path class="st2" d="M1742.6,790.3h-20v-22c0-1.1,0.9-2,2-2h16c1.1,0,2,0.9,2,2V790.3z"/>
		<path class="st4" d="M1742.6,790.3h-20v-24c0,0,0.9,0,2,0h16c1.1,0,2,0,2,0V790.3z"/>
	</g>
	<g>
		<path class="st2" d="M1766.2,827.3h-20v-7.3h20V827.3z"/>
		<path class="st6" d="M1766.2,827.3h-20v-7.3h20V827.3z"/>
		<path class="st2" d="M1766.2,819.9h-20v-17.4c0-0.2,0.9-0.4,2-0.4h16c1.1,0,2,0.2,2,0.4V819.9z"/>
		<path class="st5" d="M1766.2,819.9h-20v-17.8c0,0,0.9,0,2,0h16c1.1,0,2,0,2,0V819.9z"/>
	</g>
	<g>
		<path class="st2" d="M1821.1,827.3h-20v-56h20V827.3z"/>
		<path class="st3" d="M1821.1,827.3h-20v-56h20V827.3z"/>
		<path class="st2" d="M1821.1,771.3h-20v-40c0-1.1,0.9-2,2-2h16c1.1,0,2,0.9,2,2V771.3z"/>
		<path class="st4" d="M1821.1,771.3h-20v-42c0,0,0.9,0,2,0h16c1.1,0,2,0,2,0V771.3z"/>
	</g>
	<g>
		<path class="st6" d="M1844.7,827.3h-20v-7.3h20V827.3z"/>
		<path class="st5" d="M1844.7,819.9h-20v-16c0,0,0.9,0,2,0h16c1.1,0,2,0,2,0V819.9z"/>
	</g>
	<path class="st7" d="M141.4,827.3h-20v-6.7h20V827.3z"/>
	<g>
		<path class="st2" d="M219.9,827.3h-20v-41.7h20V827.3z"/>
		<path class="st8" d="M219.9,827.3h-20v-41.7h20V827.3z"/>
		<path class="st2" d="M219.9,785.6h-20v-20c0-1.8,0.9-3.3,2-3.3h16c1.1,0,2,1.5,2,3.3V785.6z"/>
		<path class="st7" d="M219.9,785.6h-20v-23.4h20V785.6z"/>
	</g>
	<g>
		<path class="st2" d="M298.3,827.3h-20v-56.8h20V827.3z"/>
		<path class="st8" d="M298.3,827.3h-20v-56.8h20V827.3z"/>
		<path class="st2" d="M298.3,770.5h-20v-28.4c0-1.8,0.9-3.3,2-3.3h16c1.1,0,2,1.5,2,3.3V770.5z"/>
		<path class="st7" d="M298.3,770.5h-20v-31.7h2h16h2V770.5z"/>
	</g>
	<g>
		<path class="st2" d="M376.9,827.3h-20v-55.1h20V827.3z"/>
		<path class="st8" d="M376.9,827.3h-20v-55.1h20V827.3z"/>
		<path class="st2" d="M376.9,772.2h-20v-68.4c0-1.8,0.9-3.3,2-3.3h16c1.1,0,2,1.5,2,3.3V772.2z"/>
		<path class="st7" d="M376.9,772.2h-20v-71.8c0,0,0.9,0,2,0h16c1.1,0,2,0,2,0V772.2z"/>
	</g>
	<g>
		<path class="st2" d="M455.4,827.3h-20V715.4h20V827.3z"/>
		<path class="st8" d="M455.4,827.3h-20V715.4h20V827.3z"/>
		<path class="st2" d="M455.4,715.4h-20v-36.7c0-1.8,0.9-3.3,2-3.3h16c1.1,0,2,1.5,2,3.3V715.4z"/>
		<path class="st7" d="M455.4,715.4h-20v-40.1c0,0,0.9,0,2,0h16c1.1,0,2,0,2,0V715.4z"/>
	</g>
	<g>
		<path class="st2" d="M533.9,827.3h-20V693.7h20V827.3z"/>
		<path class="st8" d="M533.9,827.3h-20V693.7h20V827.3z"/>
		<path class="st2" d="M533.9,693.7h-20v-35.1c0-1.8,0.9-3.3,2-3.3h16c1.1,0,2,1.5,2,3.3V693.7z"/>
		<path class="st7" d="M533.9,693.7h-20v-38.4c0,0,0.9,0,2,0h16c1.1,0,2,0,2,0V693.7z"/>
	</g>
	<g>
		<path class="st2" d="M612.4,827.3h-20V687.1h20V827.3z"/>
		<path class="st8" d="M612.4,827.3h-20V687.1h20V827.3z"/>
		<path class="st2" d="M612.4,687.1h-20v-56.8c0-1.8,0.9-3.3,2-3.3h16c1.1,0,2,1.5,2,3.3V687.1z"/>
		<path class="st7" d="M612.4,687.1h-20V627c0,0,0.9,0,2,0h16c1.1,0,2,0,2,0V687.1z"/>
	</g>
	<g>
		<path class="st2" d="M690.9,827.3h-20V623.6h20V827.3z"/>
		<path class="st8" d="M690.9,827.3h-20V623.6h20V827.3z"/>
		<path class="st2" d="M690.9,623.6h-20v-51.8c0-1.8,0.9-3.3,2-3.3h16c1.1,0,2,1.5,2,3.3V623.6z"/>
		<path class="st7" d="M690.9,623.6h-20v-55.1c0,0,0.9,0,2,0h16c1.1,0,2,0,2,0V623.6z"/>
	</g>
	<g>
		<path class="st2" d="M769.4,827.2h-20V708.6h20V827.2z"/>
		<path class="st8" d="M769.4,827.2h-20V708.6h20V827.2z"/>
		<path class="st2" d="M769.4,708.6h-20v-68.4c0-1.8,0.9-3.3,2-3.3h16c1.1,0,2,1.5,2,3.3V708.6z"/>
		<path class="st7" d="M769.4,708.6h-20v-71.8c0,0,0.9,0,2,0h16c1.1,0,2,0,2,0V708.6z"/>
	</g>
	<g>
		<path class="st2" d="M847.9,827.3h-20V697.1h20V827.3z"/>
		<path class="st8" d="M847.9,827.3h-20V697.1h20V827.3z"/>
		<path class="st2" d="M847.9,697.1h-20v-68.4c0-1.8,0.9-3.3,2-3.3h16c1.1,0,2,1.5,2,3.3V697.1z"/>
		<path class="st7" d="M847.9,697.1h-20v-71.8c0,0,0.9,0,2,0h16c1.1,0,2,0,2,0V697.1z"/>
	</g>
	<g>
		<path class="st2" d="M926.4,827.3h-20V637h20V827.3z"/>
		<path class="st8" d="M926.4,827.3h-20V637h20V827.3z"/>
		<path class="st2" d="M926.4,637h-20v-46.7c0-1.8,0.9-3.3,2-3.3h16c1.1,0,2,1.5,2,3.3V637z"/>
		<path class="st7" d="M926.4,637h-20v-50.1c0,0,0.9,0,2,0h16c1.1,0,2,0,2,0V637z"/>
	</g>
	<g>
		<path class="st2" d="M1004.9,827.3h-20V697.1h20V827.3z"/>
		<path class="st8" d="M1004.9,827.3h-20V697.1h20V827.3z"/>
		<path class="st2" d="M1004.9,697.1h-20V637c0-1.8,0.9-3.3,2-3.3h16c1.1,0,2,1.5,2,3.3V697.1z"/>
		<path class="st7" d="M1004.9,697.1h-20v-63.4c0,0,0.9,0,2,0h16c1.1,0,2,0,2,0V697.1z"/>
	</g>
	<g>
		<path class="st2" d="M1083.4,827.3h-20V727.1h20V827.3z"/>
		<path class="st8" d="M1083.4,827.3h-20V727.1h20V827.3z"/>
		<path class="st2" d="M1083.4,727.1h-20v-61.8c0-1.8,0.9-3.3,2-3.3h16c1.1,0,2,1.5,2,3.3V727.1z"/>
		<path class="st7" d="M1083.4,727.1h-20V662c0,0,0.9,0,2,0h16c1.1,0,2,0,2,0V727.1z"/>
	</g>
	<g>
		<path class="st2" d="M1161.9,827.3h-20v-85.1h20V827.3z"/>
		<path class="st8" d="M1161.9,827.3h-20v-85.1h20V827.3z"/>
		<path class="st2" d="M1161.9,742.1h-20V638.6c0-1.8,0.9-3.3,2-3.3h16c1.1,0,2,1.5,2,3.3V742.1z"/>
		<path class="st7" d="M1161.9,742.1h-20V635.3c0,0,0.9,0,2,0h16c1.1,0,2,0,2,0V742.1z"/>
	</g>
	<g>
		<path class="st2" d="M1239.6,827.3h-20V703.7h20V827.3z"/>
		<path class="st8" d="M1239.6,827.3h-20V703.7h20V827.3z"/>
		<path class="st2" d="M1239.6,703.7h-20v-96.8c0-1.8,0.9-3.3,2-3.3h16c1.1,0,2,1.5,2,3.3V703.7z"/>
		<path class="st7" d="M1239.6,703.7h-20V603.6c0,0,0.9,0,2,0h16c1.1,0,2,0,2,0V703.7z"/>
	</g>
	<g>
		<path class="st2" d="M1318.9,827.3h-20V682h20V827.3z"/>
		<path class="st8" d="M1318.9,827.3h-20V682h20V827.3z"/>
		<path class="st2" d="M1318.9,682h-20V465c0-1.8,0.9-3.3,2-3.3h16c1.1,0,2,1.5,2,3.3V682z"/>
		<path class="st7" d="M1318.9,682h-20V461.7c0,0,0.9,0,2,0h16c1.1,0,2,0,2,0V682z"/>
	</g>
	<g>
		<path class="st2" d="M1397.4,827.3h-20V642h20V827.3z"/>
		<path class="st8" d="M1397.4,827.3h-20V642h20V827.3z"/>
		<path class="st2" d="M1397.4,642h-20v-232c0-1.8,0.9-3.3,2-3.3h16c1.1,0,2,1.5,2,3.3V642z"/>
		<path class="st7" d="M1397.4,642h-20V406.6c0,0,0.9,0,2,0h16c1.1,0,2,0,2,0V642z"/>
	</g>
	<g>
		<path class="st2" d="M1475.9,827.3h-20V590.2h20V827.3z"/>
		<path class="st8" d="M1475.9,827.3h-20V590.2h20V827.3z"/>
		<path class="st2" d="M1475.9,590.2h-20v-202c0-1.8,0.9-3.3,2-3.3h16c1.1,0,2,1.5,2,3.3V590.2z"/>
		<path class="st7" d="M1475.9,590.2h-20V384.9c0,0,0.9,0,2,0h16c1.1,0,2,0,2,0V590.2z"/>
	</g>
	<g>
		<path class="st2" d="M1553.4,827.3h-20V608.6h20V827.3z"/>
		<path class="st8" d="M1553.4,827.3h-20V608.6h20V827.3z"/>
		<path class="st2" d="M1553.4,608.6h-20V323.1c0-1.8,0.9-3.3,2-3.3h16c1.1,0,2,1.5,2,3.3V608.6z"/>
		<path class="st7" d="M1553.4,608.6h-20V319.8c0,0,0.9,0,2,0h16c1.1,0,2,0,2,0V608.6z"/>
	</g>
	<g>
		<path class="st2" d="M1632.9,827.3h-20V637h20V827.3z"/>
		<path class="st8" d="M1632.9,827.3h-20V637h20V827.3z"/>
		<path class="st2" d="M1632.9,637h-20V293.1c0-1.8,0.9-3.3,2-3.3h16c1.1,0,2,1.5,2,3.3V637z"/>
		<path class="st7" d="M1632.9,637h-20V289.7c0,0,0.9,0,2,0h16c1.1,0,2,0,2,0V637z"/>
	</g>
	<g>
		<path class="st2" d="M1711.4,827.3h-20V571.9h20V827.3z"/>
		<path class="st8" d="M1711.4,827.3h-20V571.9h20V827.3z"/>
		<path class="st2" d="M1711.4,571.9h-20V253c0-1.8,0.9-3.3,2-3.3h16c1.1,0,2,1.5,2,3.3V571.9z"/>
		<path class="st7" d="M1711.4,571.9h-20V249.7c0,0,0.9,0,2,0h16c1.1,0,2,0,2,0V571.9z"/>
	</g>
	<g>
		<path class="st2" d="M1789.9,827.3h-20V648.7h20V827.3z"/>
		<path class="st8" d="M1789.9,827.3h-20V648.7h20V827.3z"/>
		<path class="st2" d="M1789.9,648.7h-20V430c0-1.8,0.9-3.3,2-3.3h16c1.1,0,2,1.5,2,3.3V648.7z"/>
		<path class="st7" d="M1789.9,648.7h-20v-222c0,0,0.9,0,2,0h16c1.1,0,2,0,2,0V648.7z"/>
	</g>
	<g>
		<path class="st2" d="M1868.4,827.3h-20V633.6h20V827.3z"/>
		<path class="st8" d="M1868.4,827.3h-20V633.6h20V827.3z"/>
		<path class="st2" d="M1868.4,633.6h-20V455c0-1.8,0.9-3.3,2-3.3h16c1.1,0,2,1.5,2,3.3V633.6z"/>
		<path class="st7" d="M1868.4,633.6h-20v-182c0,0,0.9,0,2,0h16c1.1,0,2,0,2,0V633.6z"/>
	</g>
	<g transform="translate(2,5)">
		<g>
			<text transform="matrix(1 0 0 1 80.0205 188.3077)" class="st9"><tspan x="0" y="0" class="st10 st11 st12">renewed </tspan><tspan x="0" y="20" class="st10 st13 st12">members</tspan></text>
		</g>
	</g>
	<g transform="translate(2,5)">
		<g>
			<text transform="matrix(1 0 0 1 277.6012 188.3078)" class="st9"><tspan x="0" y="0" class="st10 st11 st12">new </tspan><tspan x="0" y="20" class="st10 st13 st12">members</tspan></text>
		</g>
	</g>
	<g transform="translate(2,5)">
		<g>
			<text transform="matrix(1 0 0 1 277.6015 136.1387)" class="st9"><tspan x="0" y="0" class="st14 st11 st12">new </tspan><tspan x="0" y="20" class="st14 st13 st12">borrowers</tspan></text>
		</g>
	</g>
	<g transform="translate(2,5)">
		<g>
			<text transform="matrix(1 0 0 1 80.0205 136.139)" class="st9"><tspan x="0" y="0" class="st14 st11 st12">renewed </tspan><tspan x="0" y="20" class="st14 st13 st12">borrowers</tspan></text>
		</g>
	</g>
	<g transform="translate(2,5)">
		<g>
			<text transform="matrix(1 0 0 1 80.0208 85.6895)" class="st9"><tspan x="0" y="0" class="st15 st13 st12">borrowing events</tspan><tspan x="0" y="20" class="st15 st11 st12">renewed members</tspan></text>
		</g>
	</g>
	<g transform="translate(2,5)">
		<g>
			<text transform="matrix(1 0 0 1 277.6012 85.6904)" class="st9"><tspan x="0" y="0" class="st15 st13 st12">borrowing events</tspan><tspan x="0" y="20" class="st15 st11 st12">new members</tspan></text>
		</g>
	</g>
	<path class="st4" d="M256.6,183.1c0-0.6,0.5-1.1,1.1-1.1h10.8c0.6,0,1.1,0.5,1.1,1.1v10.8c0,0.6-0.5,1.1-1.1,1.1h-10.8
		c-0.6,0-1.1-0.5-1.1-1.1V183.1z"/>
	<path class="st3" d="M60.9,184.1c0-0.6,0.5-1.1,1.1-1.1h10.8c0.6,0,1.1,0.5,1.1,1.1v10.8c0,0.6-0.5,1.1-1.1,1.1H62
		c-0.6,0-1.1-0.5-1.1-1.1V184.1z"/>
	<path class="st5" d="M256.6,132c0-0.6,0.5-1.1,1.1-1.1h10.8c0.6,0,1.1,0.5,1.1,1.1v10.8c0,0.6-0.5,1.1-1.1,1.1h-10.8
		c-0.6,0-1.1-0.5-1.1-1.1V132z"/>
	<path class="st6" d="M60.9,133c0-0.6,0.5-1.1,1.1-1.1h10.8c0.6,0,1.1,0.5,1.1,1.1v10.8c0,0.6-0.5,1.1-1.1,1.1H62
		c-0.6,0-1.1-0.5-1.1-1.1V133z"/>
	<path class="st7" d="M256.6,80.5c0-0.6,0.5-1.1,1.1-1.1h10.8c0.6,0,1.1,0.5,1.1,1.1v10.8c0,0.6-0.5,1.1-1.1,1.1h-10.8
		c-0.6,0-1.1-0.5-1.1-1.1V80.5z"/>
	<path class="st8" d="M60.9,81.5c0-0.6,0.5-1.1,1.1-1.1h10.8c0.6,0,1.1,0.5,1.1,1.1v10.8c0,0.6-0.5,1.1-1.1,1.1H62
		c-0.6,0-1.1-0.5-1.1-1.1V81.5z"/>
	<rect x="74.1" y="827.3" class="st15" width="67.3" height="2"/>
	<rect x="152.6" y="827.3" class="st15" width="67.3" height="2"/>
	<rect x="231.1" y="827.3" class="st15" width="67.3" height="2"/>
	<rect x="309.6" y="827.3" class="st15" width="67.3" height="2"/>
	<rect x="388.1" y="827.3" class="st15" width="67.3" height="2"/>
	<rect x="466.6" y="827.3" class="st15" width="67.3" height="2"/>
	<rect x="545.1" y="827.3" class="st15" width="67.3" height="2"/>
	<rect x="623.6" y="827.3" class="st15" width="67.3" height="2"/>
	<rect x="702.1" y="827.3" class="st15" width="67.3" height="2"/>
	<rect x="780.6" y="827.3" class="st15" width="67.3" height="2"/>
	<rect x="859.1" y="827.3" class="st15" width="67.3" height="2"/>
	<rect x="937.6" y="827.3" class="st15" width="67.3" height="2"/>
	<rect x="1016.1" y="827.3" class="st15" width="67.3" height="2"/>
	<rect x="1094.6" y="827.3" class="st15" width="67.3" height="2"/>
	<rect x="1173.1" y="827.3" class="st15" width="67.3" height="2"/>
	<rect x="1251.6" y="827.3" class="st15" width="67.3" height="2"/>
	<rect x="1330.1" y="827.3" class="st15" width="67.3" height="2"/>
	<rect x="1408.6" y="827.3" class="st15" width="67.3" height="2"/>
	<rect x="1487.1" y="827.3" class="st15" width="67.3" height="2"/>
	<rect x="1565.6" y="827.3" class="st15" width="67.3" height="2"/>
	<rect x="1644.1" y="827.3" class="st15" width="67.3" height="2"/>
	<rect x="1722.6" y="827.3" class="st15" width="67.3" height="2"/>
	<rect x="1801.1" y="827.3" class="st15" width="67.3" height="2"/>
</g>
<g id="Layer_3">
</g>
<g id="Layer_4">
	<g>
		<text transform="matrix(1 0 0 1 45.3488 831.5579)" class="st15 st11 st16">0</text>
	</g>
	<g>
		<text transform="matrix(1 0 0 1 25.8555 769.2206)" class="st15 st11 st16">200</text>
	</g>
	<g>
		<text transform="matrix(1 0 0 1 25.8547 706.2206)" class="st15 st11 st16">400</text>
	</g>
	<g>
		<text transform="matrix(1 0 0 1 25.8555 646.2852)" class="st15 st11 st16">600</text>
	</g>
	<g>
		<text transform="matrix(1 0 0 1 25.8553 585.2206)" class="st15 st11 st16">800</text>
	</g>
	<g>
		<text transform="matrix(1 0 0 1 16.1086 524.2206)" class="st15 st11 st16">1000</text>
	</g>
	<g>
		<text transform="matrix(1 0 0 1 16.1077 464.2206)" class="st15 st11 st16">1200</text>
	</g>
	<g>
		<text transform="matrix(1 0 0 1 16.1086 402.2206)" class="st15 st11 st16">1400</text>
	</g>
	<g>
		<text transform="matrix(1 0 0 1 16.1086 341.2206)" class="st15 st11 st16">1600</text>
	</g>
	<g>
		<text transform="matrix(1 0 0 1 16.1086 279.2206)" class="st15 st11 st16">1800</text>
	</g>
</g>
<g id="Layer_5">
</g>
<g id="Layer_6">
</g>
<g id="Layer_7">
	<g>
		<text transform="matrix(1 0 0 1 1013.4474 854.2181)" class="st15 st11 st12">1931</text>
	</g>
	<g>
		<text transform="matrix(1 0 0 1 1094.5254 854.2181)" class="st15 st11 st12">1932</text>
	</g>
	<g>
		<text transform="matrix(1 0 0 1 1173.4061 854.2181)" class="st15 st11 st12">1933</text>
	</g>
	<g>
		<text transform="matrix(1 0 0 1 1486.7438 854.2175)" class="st15 st11 st12">1937</text>
	</g>
	<g>
		<text transform="matrix(1 0 0 1 1566.2264 854.2175)" class="st15 st11 st12">1938</text>
	</g>
	<g>
		<text transform="matrix(1 0 0 1 1645.0653 854.2175)" class="st15 st11 st12">1939</text>
	</g>
	<g>
		<text transform="matrix(1 0 0 1 780.515 854.2177)" class="st15 st11 st12">1928</text>
	</g>
	<g>
		<text transform="matrix(1 0 0 1 859.3535 854.2177)" class="st15 st11 st12">1929</text>
	</g>
	<g>
		<text transform="matrix(1 0 0 1 938.6263 854.2177)" class="st15 st11 st12">1930</text>
	</g>
	<g>
		<text transform="matrix(1 0 0 1 1252.2448 854.2179)" class="st15 st11 st12">1934</text>
	</g>
	<g>
		<text transform="matrix(1 0 0 1 1330.4253 854.2179)" class="st15 st11 st12">1935</text>
	</g>
	<g>
		<text transform="matrix(1 0 0 1 1409.4177 854.2179)" class="st15 st11 st12">1936</text>
	</g>
	<g>
		<text transform="matrix(1 0 0 1 1724.4365 854.218)" class="st15 st11 st12">1940</text>
	</g>
	<g>
		<text transform="matrix(1 0 0 1 1799.3262 854.218)" class="st15 st11 st12">1941</text>
	</g>
	<g>
		<text transform="matrix(1 0 0 1 71.3753 854.2179)" class="st15 st11 st12">1919</text>
	</g>
	<g>
		<text transform="matrix(1 0 0 1 152.9154 854.2179)" class="st15 st11 st12">1920</text>
	</g>
	<g>
		<text transform="matrix(1 0 0 1 227.9457 854.2179)" class="st15 st11 st12">1921</text>
	</g>
	<g>
		<text transform="matrix(1 0 0 1 308.8141 854.2179)" class="st15 st11 st12">1922</text>
	</g>
	<g>
		<text transform="matrix(1 0 0 1 387.6948 854.2179)" class="st15 st11 st12">1923</text>
	</g>
	<g>
		<text transform="matrix(1 0 0 1 466.323 854.2179)" class="st15 st11 st12">1924</text>
	</g>
	<g>
		<text transform="matrix(1 0 0 1 544.7139 854.2177)" class="st15 st11 st12">1925</text>
	</g>
	<g>
		<text transform="matrix(1 0 0 1 623.7061 854.2177)" class="st15 st11 st12">1926</text>
	</g>
	<g>
		<text transform="matrix(1 0 0 1 700.8929 854.2177)" class="st15 st11 st12">1927</text>
	</g>
</g>
</svg>
