<?xml version="1.0" standalone="no"?>
<!DOCTYPE svg PUBLIC "-//W3C//DTD SVG 20010904//EN"
 "http://www.w3.org/TR/2001/REC-SVG-20010904/DTD/svg10.dtd">
<svg version="1.0" xmlns="http://www.w3.org/2000/svg"
 width="421.000000pt" height="421.000000pt" viewBox="0 0 421.000000 421.000000"
 preserveAspectRatio="xMidYMid meet">
<metadata>
Created by potrace 1.11, written by Peter Selinger 2001-2013
</metadata>
<g transform="translate(0.000000,421.000000) scale(0.100000,-0.100000)"
fill="#000000" stroke="none">
<path d="M2145 3776 c-412 -237 -765 -442 -783 -456 -81 -60 -140 -202 -129
-309 3 -30 19 -82 36 -116 29 -58 71 -98 690 -656 363 -326 675 -601 693 -611
18 -9 54 -17 79 -18 l46 0 31 -67 c145 -321 115 -669 -83 -948 -56 -79 -192
-209 -282 -268 -202 -134 -475 -206 -728 -193 -148 8 -328 40 -439 77 -50 17
-97 32 -104 33 -19 2 -64 -107 -49 -116 33 -22 238 -79 352 -99 181 -32 426
-32 572 -1 404 87 707 311 873 647 88 179 105 252 104 460 -1 152 -4 180 -28
270 -15 54 -45 137 -67 184 l-39 84 20 42 c25 51 26 122 3 172 -13 27 -190
192 -633 590 -338 305 -616 557 -618 561 -1 4 319 192 713 417 393 226 714
413 715 416 0 6 -179 320 -189 330 -3 4 -343 -187 -756 -425z"/>
</g>
</svg>
