<svg width="62" height="16" viewBox="0 0 62 16" fill="none" xmlns="http://www.w3.org/2000/svg">
<rect width="62" height="16" fill="transparent"/>
<path d="M0 8C0 3.58172 3.58172 0 8 0H62V16H8C3.58172 16 0 12.4183 0 8V8Z" fill="#C4C4C4"/>
<g opacity="0.8">
<path d="M8.00093 15.0767C11.9477 15.0767 15.1471 11.8772 15.1471 7.93051C15.1471 3.98378 11.9477 0.784317 8.00093 0.784317C4.05419 0.784317 0.854736 3.98378 0.854736 7.93051C0.854736 11.8772 4.05419 15.0767 8.00093 15.0767Z" fill="white"/>
<path d="M7.91568 0C10.1339 0 12.0226 0.774443 13.5801 2.32259C14.3256 3.06828 14.8924 3.92054 15.2795 4.87862C15.6663 5.83695 15.8604 6.85401 15.8604 7.9303C15.8604 9.01601 15.6688 10.0333 15.2869 10.9817C14.9045 11.9304 14.3402 12.7685 13.5948 13.4954C12.8208 14.2599 11.9428 14.8455 10.9607 15.2515C9.97904 15.6574 8.96397 15.8604 7.91618 15.8604C6.86838 15.8604 5.8652 15.6601 4.90687 15.2584C3.94879 14.8574 3.0896 14.2768 2.32953 13.5169C1.56946 12.7571 0.991288 11.9002 0.594773 10.9465C0.198258 9.99292 0 8.98776 0 7.9303C0 6.88226 0.200488 5.87462 0.601712 4.90687C1.00294 3.93913 1.58606 3.07299 2.35059 2.30821C3.86107 0.769735 5.71601 0 7.91568 0ZM7.94443 1.43043C6.13186 1.43043 4.60701 2.06312 3.37013 3.328C2.74686 3.96069 2.26782 4.67095 1.93276 5.45927C1.59721 6.24759 1.42993 7.07135 1.42993 7.93055C1.42993 8.78033 1.59721 9.59938 1.93276 10.3872C2.26807 11.176 2.74686 11.8793 3.37013 12.4977C3.99315 13.1162 4.69623 13.5878 5.48033 13.914C6.2637 14.2396 7.08523 14.4024 7.94443 14.4024C8.79396 14.4024 9.61722 14.2376 10.416 13.907C11.2137 13.5762 11.9329 13.0999 12.5752 12.4768C13.8119 11.2685 14.4299 9.75328 14.4299 7.9308C14.4299 7.05276 14.2693 6.22206 13.9484 5.43845C13.628 4.65484 13.1603 3.95648 12.5472 3.34237C11.2719 2.06783 9.73816 1.43043 7.94443 1.43043ZM7.84505 6.61362L6.78264 7.16602C6.66913 6.93034 6.53011 6.76479 6.36506 6.67037C6.19976 6.5762 6.04636 6.52887 5.9046 6.52887C5.19683 6.52887 4.84244 6.99601 4.84244 7.9308C4.84244 8.35556 4.93215 8.69508 5.11133 8.95009C5.29075 9.2051 5.55518 9.33272 5.9046 9.33272C6.36729 9.33272 6.69293 9.10597 6.88201 8.65295L7.85893 9.14859C7.65125 9.53594 7.36328 9.84026 6.99502 10.0621C6.62725 10.2841 6.22107 10.3949 5.77722 10.3949C5.0692 10.3949 4.49772 10.178 4.06354 9.74337C3.62935 9.30918 3.41226 8.70499 3.41226 7.93104C3.41226 7.17568 3.63183 6.57645 4.07072 6.1326C4.50962 5.689 5.06424 5.46695 5.73485 5.46695C6.71696 5.46646 7.42003 5.84884 7.84505 6.61362ZM12.4191 6.61362L11.3711 7.16602C11.2578 6.93034 11.1183 6.76479 10.9532 6.67037C10.7877 6.5762 10.6293 6.52887 10.4789 6.52887C9.77087 6.52887 9.41649 6.99601 9.41649 7.9308C9.41649 8.35556 9.50645 8.69508 9.68562 8.95009C9.8648 9.2051 10.129 9.33272 10.4789 9.33272C10.9411 9.33272 11.267 9.10597 11.4556 8.65295L12.4469 9.14859C12.23 9.53594 11.9371 9.84026 11.5693 10.0621C11.2011 10.2841 10.7998 10.3949 10.3656 10.3949C9.64795 10.3949 9.07474 10.178 8.64552 9.74337C8.2153 9.30918 8.00068 8.70499 8.00068 7.93104C8.00068 7.17568 8.22 6.57645 8.65939 6.1326C9.09804 5.689 9.65266 5.46695 10.323 5.46695C11.3049 5.46646 12.004 5.84884 12.4191 6.61362Z" fill="black"/>
</g>
<path d="M18.6235 12V5.48H20.8535C21.1935 5.48 21.5068 5.50667 21.7935 5.56C22.0868 5.60667 22.3402 5.69333 22.5535 5.82C22.7735 5.94667 22.9435 6.11333 23.0635 6.32C23.1902 6.52667 23.2535 6.78667 23.2535 7.1C23.2535 7.24667 23.2335 7.39333 23.1935 7.54C23.1535 7.68667 23.0968 7.82333 23.0235 7.95C22.9502 8.07667 22.8602 8.19 22.7535 8.29C22.6535 8.39 22.5368 8.46333 22.4035 8.51V8.55C22.5702 8.59 22.7235 8.65333 22.8635 8.74C23.0035 8.82 23.1268 8.92333 23.2335 9.05C23.3402 9.17667 23.4235 9.32667 23.4835 9.5C23.5435 9.66667 23.5735 9.86 23.5735 10.08C23.5735 10.4133 23.5068 10.7 23.3735 10.94C23.2468 11.18 23.0668 11.38 22.8335 11.54C22.6068 11.6933 22.3402 11.81 22.0335 11.89C21.7268 11.9633 21.3968 12 21.0435 12H18.6235ZM20.0935 8.09H20.7835C21.1435 8.09 21.4035 8.02 21.5635 7.88C21.7302 7.74 21.8135 7.55333 21.8135 7.32C21.8135 7.06667 21.7302 6.88667 21.5635 6.78C21.3968 6.67333 21.1402 6.62 20.7935 6.62H20.0935V8.09ZM20.0935 10.86H20.9235C21.7302 10.86 22.1335 10.5667 22.1335 9.98C22.1335 9.69333 22.0335 9.49 21.8335 9.37C21.6335 9.24333 21.3302 9.18 20.9235 9.18H20.0935V10.86ZM25.6224 12V9.68L23.6524 5.48H25.2324L25.8124 6.98C25.9058 7.22667 25.9924 7.46667 26.0724 7.7C26.1591 7.92667 26.2491 8.16667 26.3424 8.42H26.3824C26.4758 8.16667 26.5658 7.92667 26.6524 7.7C26.7458 7.46667 26.8391 7.22667 26.9324 6.98L27.5224 5.48H29.0624L27.0924 9.68V12H25.6224ZM28.6546 9.99V8.95H31.1146V9.99H28.6546ZM32.3149 12V5.48H33.8249L35.5249 8.72L36.1649 10.16H36.2049C36.1716 9.81333 36.1316 9.42667 36.0849 9C36.0449 8.57333 36.0249 8.16667 36.0249 7.78V5.48H37.4249V12H35.9149L34.2149 8.75L33.5749 7.33H33.5349C33.5683 7.69 33.6049 8.07667 33.6449 8.49C33.6916 8.90333 33.7149 9.30333 33.7149 9.69V12H32.3149ZM41.6853 12.12C41.272 12.12 40.882 12.05 40.5153 11.91C40.1486 11.7633 39.8253 11.55 39.5453 11.27C39.272 10.99 39.0553 10.6433 38.8953 10.23C38.7353 9.81 38.6553 9.32667 38.6553 8.78C38.6553 8.24 38.7386 7.76 38.9053 7.34C39.072 6.91333 39.2953 6.55333 39.5753 6.26C39.8553 5.96667 40.182 5.74333 40.5553 5.59C40.9286 5.43667 41.322 5.36 41.7353 5.36C42.1553 5.36 42.532 5.44667 42.8653 5.62C43.1986 5.78667 43.4753 5.98333 43.6953 6.21L42.9153 7.15C42.7486 6.99667 42.572 6.87333 42.3853 6.78C42.2053 6.68 41.9986 6.63 41.7653 6.63C41.5453 6.63 41.3353 6.68 41.1353 6.78C40.942 6.87333 40.772 7.01 40.6253 7.19C40.4853 7.37 40.372 7.59 40.2853 7.85C40.2053 8.11 40.1653 8.40333 40.1653 8.73C40.1653 9.40333 40.3086 9.92667 40.5953 10.3C40.882 10.6667 41.2653 10.85 41.7453 10.85C42.012 10.85 42.2486 10.7933 42.4553 10.68C42.6686 10.56 42.8553 10.4133 43.0153 10.24L43.7953 11.16C43.2486 11.8 42.5453 12.12 41.6853 12.12ZM44.0843 9.99V8.95H46.5443V9.99H44.0843ZM49.4709 12.12C49.0443 12.12 48.6176 12.0433 48.1909 11.89C47.7709 11.73 47.3943 11.4933 47.0609 11.18L47.9009 10.17C48.1343 10.37 48.3909 10.5333 48.6709 10.66C48.9576 10.7867 49.2376 10.85 49.5109 10.85C49.8176 10.85 50.0443 10.7933 50.1909 10.68C50.3443 10.5667 50.4209 10.4133 50.4209 10.22C50.4209 10.12 50.3976 10.0333 50.3509 9.96C50.3109 9.88667 50.2476 9.82333 50.1609 9.77C50.0809 9.71 49.9809 9.65667 49.8609 9.61C49.7476 9.55667 49.6209 9.5 49.4809 9.44L48.6309 9.08C48.4643 9.01333 48.3009 8.92667 48.1409 8.82C47.9876 8.71333 47.8476 8.59 47.7209 8.45C47.6009 8.30333 47.5043 8.13667 47.4309 7.95C47.3576 7.75667 47.3209 7.54 47.3209 7.3C47.3209 7.03333 47.3776 6.78333 47.4909 6.55C47.6043 6.31 47.7643 6.10333 47.9709 5.93C48.1776 5.75 48.4209 5.61 48.7009 5.51C48.9876 5.41 49.3009 5.36 49.6409 5.36C50.0209 5.36 50.3943 5.43333 50.7609 5.58C51.1343 5.72667 51.4609 5.94 51.7409 6.22L50.9909 7.15C50.7776 6.98333 50.5643 6.85667 50.3509 6.77C50.1376 6.67667 49.9009 6.63 49.6409 6.63C49.3876 6.63 49.1843 6.68333 49.0309 6.79C48.8843 6.89 48.8109 7.03333 48.8109 7.22C48.8109 7.32 48.8343 7.40667 48.8809 7.48C48.9343 7.54667 49.0043 7.61 49.0909 7.67C49.1843 7.72333 49.2909 7.77667 49.4109 7.83C49.5309 7.87667 49.6609 7.93 49.8009 7.99L50.6409 8.33C51.0409 8.49 51.3543 8.71 51.5809 8.99C51.8143 9.27 51.9309 9.64 51.9309 10.1C51.9309 10.3733 51.8743 10.6333 51.7609 10.88C51.6543 11.12 51.4943 11.3333 51.2809 11.52C51.0743 11.7 50.8176 11.8467 50.5109 11.96C50.2043 12.0667 49.8576 12.12 49.4709 12.12ZM54.5676 8.7L54.4076 9.3H55.7976L55.6476 8.7C55.5542 8.37333 55.4642 8.02667 55.3776 7.66C55.2909 7.29333 55.2042 6.94 55.1176 6.6H55.0776C54.9976 6.94667 54.9142 7.30333 54.8276 7.67C54.7476 8.03 54.6609 8.37333 54.5676 8.7ZM52.2076 12L54.2476 5.48H56.0176L58.0576 12H56.4976L56.0976 10.45H54.1076L53.7076 12H52.2076Z" fill="black"/>
</svg>
