<svg width="37" height="28" viewBox="0 0 37 28" fill="none" xmlns="http://www.w3.org/2000/svg">
<g clip-path="url(#clip0)">
<rect width="37" height="27.75" fill="white"/>
<path d="M30.525 0V21.275H0L6.475 27.75H37V6.475L30.525 0Z" fill="white"/>
<path d="M2.84436 2.98312H4.87012V3.3855H4.06536V5.9385H3.64449V3.3855H2.84436V2.98312Z" fill="white"/>
<path d="M7.40014 4.54637H5.75364V5.9385H5.33276V2.98312H5.75364V4.144H7.40014V2.98312H7.82102V5.9385H7.40014V4.54637Z" fill="white"/>
<path d="M9.9993 4.144V4.54637H9.02804V5.53612H10.3369V5.9385H8.60254V2.98312H10.2907V3.3855H9.02342V4.144H9.9993Z" fill="white"/>
<path d="M13.5514 2.94152C13.9723 2.94152 14.3747 3.11265 14.6336 3.39939L14.3515 3.67689C14.1804 3.48727 13.8705 3.34389 13.556 3.34389C12.9502 3.34389 12.483 3.82489 12.483 4.46314C12.483 5.12914 12.964 5.58239 13.593 5.58239C13.7562 5.58058 13.917 5.54226 14.0634 5.47023C14.2099 5.3982 14.3383 5.2943 14.4394 5.16614L14.74 5.43439C14.601 5.6047 14.4261 5.74229 14.2279 5.83741C14.0296 5.93253 13.8129 5.98284 13.593 5.98476C12.7097 5.98476 12.0622 5.33726 12.0622 4.46314C12.0575 3.60752 12.7004 2.94152 13.5514 2.94152Z" fill="white"/>
<path d="M16.613 4.144V4.54637H15.6417V5.53612H16.9506V5.9385H15.2208V2.98312H16.909V3.3855H15.6417V4.144H16.613Z" fill="white"/>
<path d="M17.945 3.76937V5.9385H17.5242V2.98312H17.8202L19.5915 5.15225V2.98312H20.0124V5.9385H19.7164L17.945 3.76937Z" fill="white"/>
<path d="M20.4747 2.98312H22.5005V3.3855H21.7004V5.9385H21.2795V3.3855H20.4794V2.98312H20.4747Z" fill="white"/>
<path d="M24.3598 4.144V4.54637H23.3885V5.53612H24.6974V5.9385H22.9677V2.98312H24.6557V3.3855H23.3885V4.144H24.3598Z" fill="white"/>
<path d="M25.6872 4.54637V5.9385H25.2664V2.98312H26.3024C26.5706 2.98312 26.7417 3.04787 26.8759 3.15425C26.9668 3.22691 27.0402 3.31909 27.0906 3.42398C27.141 3.52886 27.1672 3.64374 27.1672 3.76012C27.1672 3.8765 27.141 3.99139 27.0906 4.09627C27.0402 4.20115 26.9668 4.29334 26.8759 4.366C26.7756 4.44728 26.6562 4.50143 26.529 4.52325L27.5881 5.93387H27.0794L26.0295 4.54175H25.6872V4.54637V4.54637ZM26.2792 4.144C26.4689 4.144 26.566 4.10237 26.6354 4.033C26.7063 3.9617 26.7461 3.8653 26.7464 3.76475C26.7467 3.71489 26.737 3.66547 26.718 3.6194C26.6989 3.57333 26.6708 3.53154 26.6354 3.4965C26.566 3.42712 26.4689 3.3855 26.2792 3.3855H25.6872V4.144H26.2792Z" fill="white"/>
<path d="M4.55118 8.1215V8.52388H3.57993V9.916H3.15906V6.96062H4.84718V7.363H3.57993V8.1215H4.55118Z" fill="white"/>
<path d="M6.53519 6.91903C7.37232 6.91903 8.01057 7.57578 8.01057 8.44065C8.01057 9.3009 7.3677 9.96228 6.53519 9.96228C5.69807 9.96228 5.05981 9.30553 5.05981 8.44065C5.05981 7.57578 5.70269 6.91903 6.53519 6.91903ZM6.53519 9.55528C7.14107 9.55528 7.5897 9.0789 7.5897 8.43603C7.5897 7.79778 7.13644 7.31678 6.53519 7.31678C5.92932 7.31678 5.48069 7.79778 5.48069 8.43603C5.48069 9.0789 5.93394 9.55528 6.53519 9.55528Z" fill="white"/>
<path d="M8.98618 8.52388V9.916H8.56531V6.96062H9.6013C9.86955 6.96062 10.0407 7.02537 10.1748 7.13175C10.2657 7.20441 10.3391 7.29659 10.3895 7.40148C10.44 7.50636 10.4662 7.62125 10.4662 7.73762C10.4662 7.854 10.44 7.96889 10.3895 8.07377C10.3391 8.17866 10.2657 8.27084 10.1748 8.3435C10.0746 8.42478 9.95512 8.47893 9.82792 8.50075L10.887 9.91138H10.3783L9.32843 8.51925H8.98618V8.52388V8.52388ZM9.57355 8.1215C9.76318 8.1215 9.8603 8.07987 9.92967 8.0105C10.0006 7.9392 10.0405 7.8428 10.0407 7.74225C10.0415 7.69233 10.032 7.64278 10.0129 7.59664C9.99384 7.55051 9.9655 7.50877 9.92967 7.474C9.8603 7.40463 9.76318 7.363 9.57355 7.363H8.98156V8.1215H9.57355V8.1215Z" fill="white"/>
<path d="M12.6307 9.916V6.96062H13.5187C13.9858 6.96062 14.2911 7.06237 14.5316 7.23812C14.7167 7.3779 14.8667 7.55899 14.9694 7.76696C15.0722 7.97492 15.125 8.20402 15.1236 8.436C15.1269 8.66781 15.0754 8.89712 14.9733 9.10527C14.8713 9.31342 14.7215 9.49454 14.5362 9.63388C14.2957 9.80963 13.9858 9.91138 13.5187 9.91138H12.6307V9.916ZM14.3373 7.61275C14.1523 7.45088 13.9072 7.363 13.491 7.363H13.047V9.51362H13.491C13.9026 9.51362 14.1477 9.42575 14.3373 9.26388C14.452 9.15878 14.5434 9.0308 14.6055 8.8882C14.6677 8.7456 14.6992 8.59155 14.6981 8.436C14.7002 8.28098 14.6691 8.12729 14.6069 7.98529C14.5447 7.84329 14.4528 7.71626 14.3373 7.61275V7.61275Z" fill="white"/>
<path d="M15.6697 6.96062H16.0906V9.916H15.6697V6.96062Z" fill="white"/>
<path d="M19.3187 9.40725C19.179 9.57678 19.004 9.71383 18.8059 9.80887C18.6078 9.90392 18.3914 9.95468 18.1717 9.95763C17.2884 9.95763 16.6409 9.31013 16.6409 8.436C16.6409 7.585 17.2837 6.91438 18.1347 6.91438C18.5556 6.91438 18.958 7.0855 19.217 7.37225L18.9349 7.64975C18.7637 7.46013 18.4539 7.31675 18.1394 7.31675C17.5335 7.31675 17.0664 7.79775 17.0664 8.436C17.0664 9.102 17.5474 9.55525 18.1764 9.55525C18.4445 9.56118 18.7046 9.46344 18.9025 9.28238V8.52388H18.0561V8.1215H19.3234L19.3187 9.40725V9.40725Z" fill="white"/>
<path d="M19.994 6.96062H20.4149V9.916H19.994V6.96062Z" fill="white"/>
<path d="M20.8818 6.96062H22.9076V7.363H22.1074V9.916H21.6866V7.363H20.8865V6.96062H20.8818Z" fill="white"/>
<path d="M24.7529 9.1575H23.5088L23.1989 9.916H22.7595L23.9852 6.96062H24.2812L25.5068 9.916H25.0674L24.7529 9.1575ZM23.6753 8.75513H24.5864L24.1285 7.659L23.6753 8.75513Z" fill="white"/>
<path d="M26.3485 9.51362H27.6574V9.916H25.9276V6.96062H26.3485V9.51362Z" fill="white"/>
<path d="M5.22643 12.4968H3.57993V13.889H3.15906V10.9336H3.57993V12.0945H5.22643V10.9336H5.6473V13.889H5.22643V12.4968Z" fill="white"/>
<path d="M6.56268 13.5466C6.37306 13.3385 6.25281 13.0656 6.25281 12.6679V10.9381H6.67368V12.691C6.67368 12.9685 6.74306 13.1442 6.85868 13.2737C6.93802 13.357 7.03345 13.4234 7.13919 13.4687C7.24493 13.514 7.35877 13.5374 7.47381 13.5374C7.58885 13.5374 7.70269 13.514 7.80843 13.4687C7.91416 13.4234 8.0096 13.357 8.08893 13.2737C8.20918 13.1442 8.27393 12.9685 8.27393 12.691V10.9381H8.69481V12.6679C8.69481 13.0656 8.57456 13.3385 8.38493 13.5466C8.26709 13.6707 8.12498 13.7692 7.96744 13.8361C7.80991 13.9029 7.64031 13.9366 7.46918 13.9351C7.29943 13.9366 7.13121 13.9028 6.97518 13.836C6.81915 13.7691 6.67869 13.6706 6.56268 13.5466V13.5466Z" fill="white"/>
<path d="M10.7945 13.2599H10.4985L9.63364 11.9047V13.8935H9.21277V10.9381H9.50877L10.6465 12.7419L11.7843 10.9381H12.0803V13.8935H11.6594V11.9047L10.7945 13.2599Z" fill="white"/>
<path d="M14.4532 13.1305H13.2091L12.8992 13.889H12.4598L13.6855 10.9336H13.9815L15.2071 13.889H14.7677L14.4532 13.1305ZM13.3802 12.7327H14.2913L13.8335 11.6366L13.3802 12.7327Z" fill="white"/>
<path d="M16.0071 11.7244V13.8935H15.5862V10.9381H15.8822L17.6536 13.1072V10.9381H18.0744V13.8935H17.7784L16.0071 11.7244Z" fill="white"/>
<path d="M18.8147 10.9381H19.2356V13.8935H18.8147V10.9381Z" fill="white"/>
<path d="M19.8644 10.9381H21.8901V11.3405H21.09V13.8935H20.6691V11.3405H19.869V10.9381H19.8644Z" fill="white"/>
<path d="M22.4268 10.9381H22.8476V13.8935H22.4268V10.9381Z" fill="white"/>
<path d="M25.0027 12.099V12.5014H24.0315V13.4911H25.3403V13.8935H23.6106V10.9381H25.2987V11.3405H24.0315V12.099H25.0027V12.099Z" fill="white"/>
<path d="M25.9278 13.1535C26.099 13.3662 26.3441 13.5327 26.6493 13.5327C26.9222 13.5327 27.1627 13.357 27.1627 13.0887C27.1627 12.6355 26.5383 12.5846 26.1452 12.3302C25.9325 12.1915 25.7706 11.988 25.7706 11.6781C25.7706 11.248 26.1498 10.8919 26.6632 10.8919C26.9551 10.8932 27.237 10.9981 27.4587 11.1879L27.209 11.4977C27.0628 11.3697 26.876 11.2976 26.6817 11.2942C26.4366 11.2942 26.1915 11.433 26.1915 11.692C26.1915 12.0666 26.8205 12.1499 27.1997 12.3996C27.3986 12.5291 27.5836 12.7372 27.5836 13.0749C27.5836 13.5929 27.1812 13.9305 26.6678 13.9305C26.4691 13.9312 26.2727 13.8871 26.0933 13.8014C25.9139 13.7157 25.7562 13.5907 25.6318 13.4356L25.9278 13.1535Z" fill="white"/>
<path d="M6.07249 16.5576V17.8665H5.65161V14.9111H6.77086C7.05761 14.9111 7.24261 14.9851 7.38598 15.1053C7.47729 15.1827 7.55066 15.2791 7.60097 15.3877C7.65129 15.4963 7.67735 15.6146 7.67735 15.7343C7.67735 15.854 7.65129 15.9723 7.60097 16.0809C7.55066 16.1896 7.47729 16.2859 7.38598 16.3633C7.24261 16.4836 7.05761 16.5576 6.77086 16.5576H6.07249V16.5576ZM6.74773 16.1598C6.95123 16.1598 7.06223 16.109 7.13623 16.0303C7.21325 15.9529 7.25648 15.8482 7.25648 15.739C7.25648 15.6298 7.21325 15.525 7.13623 15.4476C7.06223 15.369 6.95123 15.3181 6.74773 15.3181H6.07249V16.1645H6.74773V16.1598Z" fill="white"/>
<path d="M8.50059 16.4743V17.8665H8.07971V14.9111H9.11109C9.37934 14.9111 9.55046 14.9758 9.68459 15.0822C9.7755 15.1549 9.84889 15.247 9.89933 15.3519C9.94977 15.4568 9.97596 15.5717 9.97596 15.6881C9.97596 15.8045 9.94977 15.9193 9.89933 16.0242C9.84889 16.1291 9.7755 16.2213 9.68459 16.294C9.58435 16.3752 9.4649 16.4294 9.33771 16.4512L10.3968 17.8618H9.88809L8.83821 16.4697L8.50059 16.4743V16.4743ZM9.08796 16.072C9.27759 16.072 9.37471 16.0303 9.44409 15.961C9.51498 15.8897 9.55487 15.7933 9.55509 15.6927C9.55587 15.6428 9.54643 15.5932 9.52734 15.5471C9.50825 15.501 9.47992 15.4592 9.44409 15.4245C9.37471 15.3551 9.27759 15.3135 9.08796 15.3135H8.49596V16.072H9.08796Z" fill="white"/>
<path d="M10.7345 14.9111H11.1554V17.8665H10.7345V14.9111Z" fill="white"/>
<path d="M12.113 15.6973V17.8665H11.6921V14.9111H11.9881L13.7595 17.0802V14.9111H14.1804V17.8665H13.8844L12.113 15.6973Z" fill="white"/>
<path d="M16.0488 14.8694C16.4697 14.8694 16.8721 15.0405 17.1311 15.3272L16.849 15.6047C16.6778 15.4151 16.368 15.2717 16.0535 15.2717C15.4476 15.2717 14.9805 15.7527 14.9805 16.391C14.9805 17.057 15.4615 17.5102 16.0905 17.5102C16.2537 17.5084 16.4144 17.4701 16.5608 17.3981C16.7073 17.3261 16.8358 17.2222 16.9368 17.094L17.2375 17.3622C17.0984 17.5326 16.9235 17.6702 16.7253 17.7653C16.5271 17.8604 16.3103 17.9107 16.0905 17.9126C15.2071 17.9126 14.5596 17.2651 14.5596 16.391C14.555 15.54 15.1978 14.8694 16.0488 14.8694Z" fill="white"/>
<path d="M18.9903 16.072V16.4743H18.019V17.4641H19.3279V17.8665H17.5981V14.9111H19.2863V15.3135H18.019V16.072H18.9903V16.072Z" fill="white"/>
<path d="M19.6285 14.9111H21.6543V15.3135H20.8542V17.8665H20.4333V15.3135H19.6332L19.6285 14.9111V14.9111Z" fill="white"/>
<path d="M23.1943 14.8694C24.0314 14.8694 24.6697 15.5261 24.6697 16.391C24.6697 17.2512 24.0268 17.9126 23.1943 17.9126C22.3571 17.9126 21.7189 17.2559 21.7189 16.391C21.7189 15.5307 22.3618 14.8694 23.1943 14.8694ZM23.1943 17.5102C23.8001 17.5102 24.2488 17.0339 24.2488 16.391C24.2488 15.7527 23.7955 15.2717 23.1943 15.2717C22.593 15.2717 22.1398 15.7527 22.1398 16.391C22.1398 17.0339 22.593 17.5102 23.1943 17.5102Z" fill="white"/>
<path d="M25.4559 15.6973V17.8665H25.035V14.9111H25.331L27.1024 17.0802V14.9111H27.5233V17.8665H27.2273L25.4559 15.6973Z" fill="white"/>
<path d="M4.44011 16.7194C4.34759 16.8066 4.22497 16.8546 4.09786 16.8536C3.86661 16.8536 3.55211 16.6732 3.55211 16.317C3.55189 16.1771 3.60645 16.0426 3.70412 15.9423C3.80179 15.8421 3.93481 15.784 4.07474 15.7805C4.17158 15.7783 4.26679 15.8058 4.34761 15.8592V15.8083H4.61123V16.4095C4.6072 16.457 4.61515 16.5047 4.63436 16.5483C4.64502 16.5667 4.66068 16.5816 4.67951 16.5915C4.69834 16.6013 4.71957 16.6056 4.74073 16.6038C4.88873 16.6038 4.92111 16.3957 4.92111 16.2523C4.92111 15.8037 4.54649 15.4892 4.13024 15.4892C3.91511 15.4928 3.70996 15.5806 3.55869 15.7336C3.40743 15.8866 3.32205 16.0927 3.32084 16.3079C3.31964 16.5231 3.40269 16.7301 3.55222 16.8849C3.70176 17.0396 3.90591 17.1296 4.12099 17.1357C4.29944 17.1388 4.47377 17.0818 4.61586 16.9738L4.76848 17.2004C4.58582 17.3374 4.36318 17.4105 4.13486 17.4086C3.84532 17.4061 3.56841 17.2897 3.36411 17.0845C3.1598 16.8793 3.04456 16.6019 3.04334 16.3124C3.04213 16.0228 3.15503 15.7445 3.35761 15.5376C3.56018 15.3307 3.8361 15.2119 4.12561 15.207C4.68986 15.207 5.19398 15.6464 5.19398 16.243C5.19398 16.5668 5.05061 16.8443 4.73148 16.8443C4.67677 16.8458 4.62238 16.8355 4.57207 16.8139C4.52176 16.7923 4.47674 16.7601 4.44011 16.7194V16.7194ZM4.11174 16.5992C4.15433 16.6006 4.19672 16.5927 4.23589 16.5759C4.27507 16.5591 4.31005 16.5339 4.33836 16.502C4.33431 16.4652 4.33276 16.4281 4.33374 16.391V16.1135C4.30451 16.0848 4.2698 16.0622 4.23166 16.0471C4.19353 16.032 4.15274 16.0247 4.11174 16.0257C4.03569 16.0257 3.96275 16.0559 3.90897 16.1097C3.8552 16.1634 3.82499 16.2364 3.82499 16.3124C3.82499 16.3885 3.8552 16.4614 3.90897 16.5152C3.96275 16.569 4.03569 16.5992 4.11174 16.5992V16.5992Z" fill="white"/>
</g>
<defs>
<clipPath id="clip0">
<rect width="37" height="27.75" fill="white"/>
</clipPath>
</defs>
</svg>
