<svg width="204" height="33" viewBox="0 0 204 33" fill="none" xmlns="http://www.w3.org/2000/svg">
<path d="M15.2041 2L3.92092 8.47934C3.12446 8.87603 2.99172 9.93388 3.65543 10.4628L13.213 19.0579" stroke="#CE2949" stroke-width="3" stroke-miterlimit="10"/>
<path d="M3.6543 10.4619L13.2118 19.057" stroke="#CE2949" stroke-width="3" stroke-miterlimit="10" stroke-linecap="round"/>
<path d="M1 31.355C1.9292 31.7517 2.85841 32.0162 3.92035 32.1484C7.76991 32.8095 11.2212 31.4872 13.3451 28.8426C14.9381 26.7269 15.2035 24.6112 14.8053 22.6277C14.4071 20.6443 13.2124 18.793 11.6195 17.4707" stroke="#CE2949" stroke-miterlimit="10"/>
<path d="M28.5801 33C28.2188 33 27.9111 32.873 27.6572 32.6191C27.4033 32.3652 27.2764 32.0576 27.2764 31.6963V14.6162H21.7686C21.4072 14.6162 21.0996 14.4893 20.8457 14.2354C20.5918 13.9814 20.4648 13.6738 20.4648 13.3125C20.4648 12.9512 20.5918 12.6436 20.8457 12.3896C21.0996 12.1357 21.4072 12.0088 21.7686 12.0088H28.5801C28.9414 12.0088 29.249 12.1357 29.5029 12.3896C29.7568 12.6436 29.8838 12.9512 29.8838 13.3125V31.6963C29.8838 32.0576 29.7568 32.3652 29.5029 32.6191C29.249 32.873 28.9414 33 28.5801 33ZM53.4385 33C53.6045 33 53.7705 32.9658 53.9365 32.8975C54.2783 32.751 54.5127 32.5166 54.6396 32.1943C54.708 32.0283 54.7422 31.8574 54.7422 31.6816C54.7422 31.5254 54.7129 31.3643 54.6543 31.1982L47.0664 12.7998C46.793 12.2627 46.3926 11.9941 45.8652 11.9941C45.3379 11.9941 44.9375 12.2627 44.6641 12.7998L37.0908 31.1982C37.0225 31.3643 36.9883 31.5303 36.9883 31.6963C36.9883 32.2627 37.2568 32.6631 37.7939 32.8975C37.9697 32.9658 38.1406 33 38.3066 33C38.8633 33 39.2588 32.7314 39.4932 32.1943L45.8652 16.7256L52.2373 32.1943C52.5303 32.7314 52.9307 33 53.4385 33ZM60.4404 33C60.0791 33 59.7715 32.873 59.5176 32.6191C59.2637 32.3652 59.1367 32.0576 59.1367 31.6963V22.4971C59.1367 22.1357 59.2637 21.8281 59.5176 21.5742C59.7715 21.3203 60.0791 21.1934 60.4404 21.1934H66.6514C67.5498 21.1934 68.3164 20.876 68.9512 20.2412C69.5859 19.6064 69.9033 18.8398 69.9033 17.9414C69.9033 16.9844 69.5859 16.1885 68.9512 15.5537C68.3164 14.9189 67.5498 14.6016 66.6514 14.6016H60.4404C60.0791 14.6016 59.7715 14.4746 59.5176 14.2207C59.2637 13.9668 59.1367 13.6592 59.1367 13.2979C59.1367 12.9365 59.2637 12.6289 59.5176 12.375C59.7715 12.1211 60.0791 11.9941 60.4404 11.9941H66.6514C68.2627 11.9941 69.6396 12.5703 70.7822 13.7227C71.9346 14.8652 72.5107 16.2422 72.5107 17.8535C72.5107 19.5332 71.9346 20.9443 70.7822 22.0869C69.6396 23.2295 68.2627 23.8008 66.6514 23.8008H61.7441V31.6963C61.7441 32.0576 61.6172 32.3652 61.3633 32.6191C61.1094 32.873 60.8018 33 60.4404 33ZM70.9434 33C70.4551 33 70.0645 32.751 69.7715 32.2529L67.1494 26.6279C67.0713 26.4424 67.0322 26.2568 67.0322 26.0713C67.0322 25.5439 67.2812 25.1533 67.7793 24.8994C67.9648 24.8213 68.1504 24.7822 68.3359 24.7822C68.8633 24.7822 69.2539 25.0312 69.5078 25.5293L72.1299 31.1396C72.208 31.3252 72.2471 31.5107 72.2471 31.6963C72.2471 32.2334 71.998 32.6289 71.5 32.8828C71.3145 32.9609 71.1289 33 70.9434 33ZM83.8633 33C83.502 33 83.1943 32.873 82.9404 32.6191C82.6865 32.3652 82.5596 32.0576 82.5596 31.6963V14.6162H77.0518C76.6904 14.6162 76.3828 14.4893 76.1289 14.2354C75.875 13.9814 75.748 13.6738 75.748 13.3125C75.748 12.9512 75.875 12.6436 76.1289 12.3896C76.3828 12.1357 76.6904 12.0088 77.0518 12.0088H83.8633C84.2246 12.0088 84.5322 12.1357 84.7861 12.3896C85.04 12.6436 85.167 12.9512 85.167 13.3125V31.6963C85.167 32.0576 85.04 32.3652 84.7861 32.6191C84.5322 32.873 84.2246 33 83.8633 33ZM117.101 33C117.374 33 117.633 32.9072 117.877 32.7217C118.209 32.4482 118.375 32.1016 118.375 31.6816C118.375 31.3984 118.282 31.1348 118.097 30.8906L108.546 18.6885C108.263 18.3564 107.921 18.1904 107.521 18.1904C107.12 18.1904 106.778 18.3564 106.495 18.6885L99.2734 27.917V13.2979C99.2734 12.9365 99.1465 12.6289 98.8926 12.375C98.6387 12.1211 98.3311 11.9941 97.9697 11.9941C97.6084 11.9941 97.3008 12.1211 97.0469 12.375C96.793 12.6289 96.666 12.9365 96.666 13.2979V31.6963C96.666 32.2529 96.959 32.6631 97.5449 32.9268C97.6816 32.9756 97.8232 33 97.9697 33C98.3799 32.9902 98.7217 32.8242 98.9951 32.502L107.521 21.6035L116.046 32.502C116.319 32.834 116.671 33 117.101 33ZM133.258 33C135.191 33 136.949 32.5264 138.531 31.5791C140.123 30.6318 141.393 29.3672 142.34 27.7852C143.287 26.1934 143.761 24.4355 143.761 22.5117C143.761 20.5781 143.287 18.8203 142.34 17.2383C141.393 15.6465 140.123 14.377 138.531 13.4297C136.949 12.4824 135.191 12.0088 133.258 12.0088C132.906 12.0088 132.604 12.1357 132.35 12.3896C132.096 12.6436 131.969 12.9512 131.969 13.3125C131.969 13.6738 132.096 13.9814 132.35 14.2354C132.604 14.4893 132.906 14.6162 133.258 14.6162C134.713 14.6162 136.036 14.9727 137.228 15.6855C138.429 16.3887 139.381 17.3408 140.084 18.542C140.797 19.7334 141.153 21.0566 141.153 22.5117C141.153 23.957 140.797 25.2803 140.084 26.4814C139.381 27.6729 138.429 28.625 137.228 29.3379C136.036 30.041 134.713 30.3926 133.258 30.3926C131.812 30.3926 130.489 30.041 129.288 29.3379C128.097 28.625 127.145 27.6729 126.432 26.4814C125.729 25.2803 125.377 23.957 125.377 22.5117C125.377 22.1504 125.25 21.8428 124.996 21.5889C124.742 21.335 124.435 21.208 124.073 21.208C123.712 21.208 123.404 21.335 123.15 21.5889C122.896 21.8428 122.77 22.1504 122.77 22.5117C122.77 24.4355 123.243 26.1934 124.19 27.7852C125.138 29.3672 126.402 30.6318 127.984 31.5791C129.576 32.5264 131.334 33 133.258 33ZM149.474 33C149.112 33 148.805 32.873 148.551 32.6191C148.297 32.3652 148.17 32.0576 148.17 31.6963V22.4971C148.17 22.1357 148.297 21.8281 148.551 21.5742C148.805 21.3203 149.112 21.1934 149.474 21.1934H155.685C156.583 21.1934 157.35 20.876 157.984 20.2412C158.619 19.6064 158.937 18.8398 158.937 17.9414C158.937 16.9844 158.619 16.1885 157.984 15.5537C157.35 14.9189 156.583 14.6016 155.685 14.6016H149.474C149.112 14.6016 148.805 14.4746 148.551 14.2207C148.297 13.9668 148.17 13.6592 148.17 13.2979C148.17 12.9365 148.297 12.6289 148.551 12.375C148.805 12.1211 149.112 11.9941 149.474 11.9941H155.685C157.296 11.9941 158.673 12.5703 159.815 13.7227C160.968 14.8652 161.544 16.2422 161.544 17.8535C161.544 19.5332 160.968 20.9443 159.815 22.0869C158.673 23.2295 157.296 23.8008 155.685 23.8008H150.777V31.6963C150.777 32.0576 150.65 32.3652 150.396 32.6191C150.143 32.873 149.835 33 149.474 33ZM159.977 33C159.488 33 159.098 32.751 158.805 32.2529L156.183 26.6279C156.104 26.4424 156.065 26.2568 156.065 26.0713C156.065 25.5439 156.314 25.1533 156.812 24.8994C156.998 24.8213 157.184 24.7822 157.369 24.7822C157.896 24.7822 158.287 25.0312 158.541 25.5293L161.163 31.1396C161.241 31.3252 161.28 31.5107 161.28 31.6963C161.28 32.2334 161.031 32.6289 160.533 32.8828C160.348 32.9609 160.162 33 159.977 33ZM173.38 33C175.294 33 177.037 32.5312 178.609 31.5938C180.182 30.6562 181.437 29.4014 182.374 27.8291C183.312 26.2471 183.78 24.499 183.78 22.585C183.78 20.5537 183.312 18.752 182.374 17.1797C181.437 15.5977 180.182 14.3379 178.609 13.4004C177.037 12.4629 175.294 11.9941 173.38 11.9941H167.55C167.188 11.9941 166.881 12.1211 166.627 12.375C166.373 12.6289 166.246 12.9365 166.246 13.2979C166.246 13.6592 166.373 13.9668 166.627 14.2207C166.881 14.4746 167.188 14.6016 167.55 14.6016H173.38C174.815 14.6016 176.124 14.9531 177.306 15.6562C178.487 16.3594 179.43 17.3018 180.133 18.4834C180.836 19.665 181.188 20.9736 181.188 22.4092C181.188 23.9619 180.836 25.3291 180.133 26.5107C179.43 27.6924 178.487 28.6348 177.306 29.3379C176.124 30.041 174.815 30.3926 173.38 30.3926H167.55C167.188 30.3926 166.881 30.5195 166.627 30.7734C166.373 31.0273 166.246 31.335 166.246 31.6963C166.246 32.0576 166.373 32.3652 166.627 32.6191C166.881 32.873 167.188 33 167.55 33H173.38ZM194.576 33C194.225 33 193.922 32.873 193.668 32.6191C193.414 32.3652 193.287 32.0576 193.287 31.6963C193.287 31.335 193.414 31.0273 193.668 30.7734C193.922 30.5195 194.225 30.3926 194.576 30.3926C195.709 30.3926 196.671 30.0703 197.462 29.4258C198.263 28.7812 198.663 28.0049 198.663 27.0967C198.663 25.9443 198.316 25.1582 197.623 24.7383C196.939 24.3184 195.826 23.9717 194.283 23.6982C193.561 23.5713 192.848 23.4102 192.145 23.2148C189.312 22.4336 187.896 20.6611 187.896 17.8975C187.896 16.2764 188.551 14.8896 189.859 13.7373C191.168 12.5752 192.74 11.9941 194.576 11.9941C194.938 11.9941 195.245 12.1211 195.499 12.375C195.753 12.6289 195.88 12.9365 195.88 13.2979C195.88 13.6592 195.753 13.9668 195.499 14.2207C195.245 14.4746 194.938 14.6016 194.576 14.6016C193.453 14.6016 192.491 14.9238 191.69 15.5684C190.899 16.2129 190.504 16.9893 190.504 17.8975C190.504 18.9912 190.831 19.7383 191.485 20.1387C192.149 20.5391 193.248 20.876 194.781 21.1494C195.514 21.2764 196.241 21.4424 196.964 21.6475C199.835 22.4385 201.271 24.2549 201.271 27.0967C201.271 28.7275 200.616 30.1191 199.308 31.2715C197.999 32.4238 196.422 33 194.576 33Z" fill="#E0CEFF"/>
</svg>
