<svg width="12" height="25" viewBox="0 0 12 25" fill="none" xmlns="http://www.w3.org/2000/svg">
<g opacity="0.5">
<path fill-rule="evenodd" clip-rule="evenodd" d="M1.86018 5.00586L10.5774 0L11.7348 2.01548L3.21651 6.9071L10.3906 13.3587L8.83649 15.0869L1.45321 8.44712C0.267729 7.46665 0.58869 5.66986 1.86018 5.00586Z" fill="black"/>
<path fill-rule="evenodd" clip-rule="evenodd" d="M1.34438 6.78646C1.77353 6.30925 2.50829 6.27029 2.9855 6.69945L10.3899 13.3582C10.8671 13.7874 10.9061 14.5221 10.4769 14.9993C10.0478 15.4765 9.31301 15.5155 8.8358 15.0863L1.43139 8.42759C0.954179 7.99843 0.915221 7.26368 1.34438 6.78646Z" fill="black"/>
<path fill-rule="evenodd" clip-rule="evenodd" d="M8.62658 12.6951C9.91991 13.7687 10.899 15.2778 11.2271 16.9121C11.5552 18.5462 11.3325 20.3002 10.0255 22.0362L10.0219 22.041L10.0181 22.0457C8.27989 24.2101 5.46514 25.2783 2.35775 24.7475C1.50056 24.6399 0.748313 24.4253 -4.57764e-05 24.1058L0.304136 23.3933C0.992939 23.6874 1.67783 23.8821 2.46237 23.9798L2.47125 23.9809L2.48007 23.9824C5.33153 24.4722 7.85892 23.4935 9.41026 21.5653C10.5681 20.0248 10.7562 18.5023 10.4675 17.0646C10.1786 15.6256 9.30655 14.2664 8.13175 13.2912L8.62658 12.6951Z" fill="black"/>
</g>
</svg>
