<svg width="131" height="20" viewBox="0 0 131 20" fill="none" xmlns="http://www.w3.org/2000/svg">
<g opacity="0.5">
<path d="M17.2519 19.3945C17.0139 19.3945 16.8114 19.3109 16.6442 19.1437C16.477 18.9765 16.3934 18.7739 16.3934 18.536V7.28871H12.7665C12.5285 7.28871 12.326 7.20512 12.1588 7.03792C11.9916 6.87072 11.908 6.66815 11.908 6.43022C11.908 6.19228 11.9916 5.98971 12.1588 5.82252C12.326 5.65532 12.5285 5.57172 12.7665 5.57172H17.2519C17.4898 5.57172 17.6924 5.65532 17.8596 5.82252C18.0268 5.98971 18.1104 6.19228 18.1104 6.43022V18.536C18.1104 18.7739 18.0268 18.9765 17.8596 19.1437C17.6924 19.3109 17.4898 19.3945 17.2519 19.3945Z" fill="black"/>
<path d="M33.6212 19.3945C33.7305 19.3945 33.8399 19.372 33.9492 19.327C34.1742 19.2305 34.3286 19.0762 34.4122 18.864C34.4572 18.7546 34.4797 18.6421 34.4797 18.5264C34.4797 18.4235 34.4604 18.3174 34.4218 18.208L29.4252 6.0926C29.2451 5.73892 28.9815 5.56207 28.6342 5.56207C28.287 5.56207 28.0233 5.73892 27.8432 6.0926L22.8562 18.208C22.8112 18.3174 22.7887 18.4267 22.7887 18.536C22.7887 18.909 22.9656 19.1726 23.3192 19.327C23.435 19.372 23.5475 19.3945 23.6569 19.3945C24.0234 19.3945 24.2838 19.2177 24.4382 18.864L28.6342 8.67774L32.8302 18.864C33.0232 19.2177 33.2868 19.3945 33.6212 19.3945Z" fill="black"/>
<path d="M38.232 19.3945C37.9941 19.3945 37.7915 19.3109 37.6243 19.1437C37.4571 18.9765 37.3735 18.7739 37.3735 18.536V12.4783C37.3735 12.2403 37.4571 12.0378 37.6243 11.8706C37.7915 11.7034 37.9941 11.6198 38.232 11.6198H42.3219C42.9136 11.6198 43.4184 11.4108 43.8364 10.9928C44.2544 10.5748 44.4634 10.07 44.4634 9.47837C44.4634 8.84816 44.2544 8.32406 43.8364 7.90606C43.4184 7.48807 42.9136 7.27907 42.3219 7.27907H38.232C37.9941 7.27907 37.7915 7.19547 37.6243 7.02827C37.4571 6.86107 37.3735 6.65851 37.3735 6.42057C37.3735 6.18263 37.4571 5.98007 37.6243 5.81287C37.7915 5.64567 37.9941 5.56207 38.232 5.56207H42.3219C43.383 5.56207 44.2897 5.94148 45.0421 6.70031C45.8009 7.4527 46.1804 8.35942 46.1804 9.42049C46.1804 10.5266 45.8009 11.4558 45.0421 12.2082C44.2897 12.9606 43.383 13.3368 42.3219 13.3368H39.0905V18.536C39.0905 18.7739 39.0069 18.9765 38.8397 19.1437C38.6725 19.3109 38.47 19.3945 38.232 19.3945ZM45.1482 19.3945C44.8267 19.3945 44.5695 19.2305 44.3765 18.9025L42.6499 15.1985C42.5985 15.0763 42.5727 14.9541 42.5727 14.8319C42.5727 14.4847 42.7367 14.2274 43.0647 14.0602C43.1869 14.0088 43.309 13.9831 43.4312 13.9831C43.7785 13.9831 44.0357 14.147 44.2029 14.475L45.9296 18.1694C45.981 18.2916 46.0067 18.4138 46.0067 18.536C46.0067 18.8897 45.8427 19.1501 45.5148 19.3173C45.3926 19.3688 45.2704 19.3945 45.1482 19.3945Z" fill="black"/>
<path d="M53.656 19.3945C53.4181 19.3945 53.2155 19.3109 53.0483 19.1437C52.8811 18.9765 52.7975 18.7739 52.7975 18.536V7.28871H49.1706C48.9327 7.28871 48.7301 7.20512 48.5629 7.03792C48.3957 6.87072 48.3121 6.66815 48.3121 6.43022C48.3121 6.19228 48.3957 5.98971 48.5629 5.82252C48.7301 5.65532 48.9327 5.57172 49.1706 5.57172H53.656C53.894 5.57172 54.0965 5.65532 54.2637 5.82252C54.4309 5.98971 54.5145 6.19228 54.5145 6.43022V18.536C54.5145 18.7739 54.4309 18.9765 54.2637 19.1437C54.0965 19.3109 53.894 19.3945 53.656 19.3945Z" fill="black"/>
<path d="M75.5429 19.3945C75.723 19.3945 75.8934 19.3334 76.0541 19.2112C76.2728 19.0312 76.3821 18.8029 76.3821 18.5264C76.3821 18.3399 76.321 18.1662 76.1988 18.0055L69.9096 9.97031C69.7231 9.75167 69.498 9.64235 69.2344 9.64235C68.9707 9.64235 68.7457 9.75167 68.5592 9.97031L63.8037 16.0473V6.42057C63.8037 6.18263 63.7201 5.98007 63.5529 5.81287C63.3857 5.64567 63.1831 5.56207 62.9452 5.56207C62.7072 5.56207 62.5047 5.64567 62.3375 5.81287C62.1703 5.98007 62.0867 6.18263 62.0867 6.42057V18.536C62.0867 18.9025 62.2796 19.1726 62.6654 19.3463C62.7555 19.3784 62.8487 19.3945 62.9452 19.3945C63.2153 19.3881 63.4403 19.2787 63.6204 19.0665L69.2344 11.8899L74.8484 19.0665C75.0284 19.2852 75.2599 19.3945 75.5429 19.3945Z" fill="black"/>
<path d="M86.1825 19.3945C87.4558 19.3945 88.6133 19.0826 89.6551 18.4588C90.7033 17.8351 91.5393 17.0023 92.163 15.9605C92.7868 14.9123 93.0987 13.7548 93.0987 12.4879C93.0987 11.2147 92.7868 10.0571 92.163 9.01536C91.5393 7.96715 90.7033 7.13116 89.6551 6.50738C88.6133 5.88361 87.4558 5.57172 86.1825 5.57172C85.951 5.57172 85.7516 5.65532 85.5844 5.82252C85.4172 5.98971 85.3336 6.19228 85.3336 6.43022C85.3336 6.66815 85.4172 6.87072 85.5844 7.03792C85.7516 7.20512 85.951 7.28871 86.1825 7.28871C87.1407 7.28871 88.012 7.52343 88.7966 7.99288C89.5875 8.45588 90.2145 9.08288 90.6775 9.87385C91.147 10.6584 91.3817 11.5298 91.3817 12.4879C91.3817 13.4397 91.147 14.311 90.6775 15.102C90.2145 15.8866 89.5875 16.5135 88.7966 16.983C88.012 17.446 87.1407 17.6775 86.1825 17.6775C85.2307 17.6775 84.3594 17.446 83.5684 16.983C82.7839 16.5135 82.1569 15.8866 81.6874 15.102C81.2244 14.311 80.9929 13.4397 80.9929 12.4879C80.9929 12.25 80.9093 12.0474 80.7421 11.8802C80.5749 11.713 80.3724 11.6294 80.1344 11.6294C79.8965 11.6294 79.6939 11.713 79.5267 11.8802C79.3595 12.0474 79.2759 12.25 79.2759 12.4879C79.2759 13.7548 79.5878 14.9123 80.2116 15.9605C80.8354 17.0023 81.6681 17.8351 82.7099 18.4588C83.7581 19.0826 84.9156 19.3945 86.1825 19.3945Z" fill="black"/>
<path d="M96.8606 19.3945C96.6227 19.3945 96.4201 19.3109 96.2529 19.1437C96.0857 18.9765 96.0022 18.7739 96.0022 18.536V12.4783C96.0022 12.2403 96.0857 12.0378 96.2529 11.8706C96.4201 11.7034 96.6227 11.6198 96.8606 11.6198H100.951C101.542 11.6198 102.047 11.4108 102.465 10.9928C102.883 10.5748 103.092 10.07 103.092 9.47837C103.092 8.84816 102.883 8.32406 102.465 7.90606C102.047 7.48807 101.542 7.27907 100.951 7.27907H96.8606C96.6227 7.27907 96.4201 7.19547 96.2529 7.02827C96.0857 6.86107 96.0022 6.65851 96.0022 6.42057C96.0022 6.18263 96.0857 5.98007 96.2529 5.81287C96.4201 5.64567 96.6227 5.56207 96.8606 5.56207H100.951C102.012 5.56207 102.918 5.94148 103.671 6.70031C104.43 7.4527 104.809 8.35942 104.809 9.42049C104.809 10.5266 104.43 11.4558 103.671 12.2082C102.918 12.9606 102.012 13.3368 100.951 13.3368H97.7191V18.536C97.7191 18.7739 97.6355 18.9765 97.4683 19.1437C97.3011 19.3109 97.0986 19.3945 96.8606 19.3945ZM103.777 19.3945C103.455 19.3945 103.198 19.2305 103.005 18.9025L101.279 15.1985C101.227 15.0763 101.201 14.9541 101.201 14.8319C101.201 14.4847 101.365 14.2274 101.693 14.0602C101.815 14.0088 101.938 13.9831 102.06 13.9831C102.407 13.9831 102.664 14.147 102.832 14.475L104.558 18.1694C104.61 18.2916 104.635 18.4138 104.635 18.536C104.635 18.8897 104.471 19.1501 104.143 19.3173C104.021 19.3688 103.899 19.3945 103.777 19.3945Z" fill="black"/>
<path d="M112.603 19.3945C113.863 19.3945 115.011 19.0858 116.047 18.4685C117.082 17.8511 117.908 17.0248 118.526 15.9894C119.143 14.9477 119.452 13.7966 119.452 12.5362C119.452 11.1986 119.143 10.0121 118.526 8.97677C117.908 7.935 117.082 7.10544 116.047 6.48809C115.011 5.87075 113.863 5.56207 112.603 5.56207H108.764C108.526 5.56207 108.323 5.64567 108.156 5.81287C107.989 5.98007 107.905 6.18263 107.905 6.42057C107.905 6.65851 107.989 6.86107 108.156 7.02827C108.323 7.19547 108.526 7.27907 108.764 7.27907H112.603C113.548 7.27907 114.41 7.51057 115.188 7.97358C115.966 8.43659 116.587 9.05715 117.05 9.83527C117.513 10.6134 117.744 11.4751 117.744 12.4204C117.744 13.4429 117.513 14.3432 117.05 15.1213C116.587 15.8994 115.966 16.52 115.188 16.983C114.41 17.446 113.548 17.6775 112.603 17.6775H108.764C108.526 17.6775 108.323 17.7611 108.156 17.9283C107.989 18.0955 107.905 18.2981 107.905 18.536C107.905 18.7739 107.989 18.9765 108.156 19.1437C108.323 19.3109 108.526 19.3945 108.764 19.3945H112.603Z" fill="black"/>
<path d="M126.561 19.3945C126.329 19.3945 126.13 19.3109 125.963 19.1437C125.796 18.9765 125.712 18.7739 125.712 18.536C125.712 18.2981 125.796 18.0955 125.963 17.9283C126.13 17.7611 126.329 17.6775 126.561 17.6775C127.307 17.6775 127.94 17.4653 128.461 17.0409C128.988 16.6164 129.252 16.1052 129.252 15.5071C129.252 14.7483 129.024 14.2306 128.567 13.9541C128.117 13.6776 127.384 13.4493 126.368 13.2693C125.892 13.1857 125.423 13.0796 124.96 12.9509C123.095 12.4365 122.162 11.2693 122.162 9.44943C122.162 8.38193 122.593 7.46877 123.455 6.70995C124.316 5.9447 125.352 5.56207 126.561 5.56207C126.799 5.56207 127.001 5.64567 127.169 5.81287C127.336 5.98007 127.419 6.18263 127.419 6.42057C127.419 6.65851 127.336 6.86107 127.169 7.02827C127.001 7.19547 126.799 7.27907 126.561 7.27907C125.821 7.27907 125.188 7.49128 124.661 7.91571C124.14 8.34013 123.879 8.85137 123.879 9.44943C123.879 10.1697 124.095 10.6616 124.525 10.9253C124.963 11.1889 125.686 11.4108 126.696 11.5908C127.178 11.6744 127.657 11.7838 128.133 11.9188C130.024 12.4397 130.969 13.6358 130.969 15.5071C130.969 16.5811 130.538 17.4974 129.676 18.2563C128.815 19.0151 127.776 19.3945 126.561 19.3945Z" fill="black"/>
<path fill-rule="evenodd" clip-rule="evenodd" d="M1.47749 3.97579L8.40087 6.10352e-05L9.32009 1.60079L2.55471 5.48579L8.25249 10.6098L7.01819 11.9823L1.15427 6.70889C0.212744 5.9302 0.467656 4.50315 1.47749 3.97579Z" fill="black"/>
<path fill-rule="evenodd" clip-rule="evenodd" d="M1.06766 5.38985C1.4085 5.01084 1.99205 4.9799 2.37106 5.32074L8.25176 10.6092C8.63077 10.9501 8.66171 11.5336 8.32087 11.9126C7.98003 12.2916 7.39647 12.3226 7.01746 11.9817L1.13676 6.69325C0.757755 6.35241 0.726814 5.76886 1.06766 5.38985Z" fill="black"/>
<path fill-rule="evenodd" clip-rule="evenodd" d="M6.8514 10.0827C7.87859 10.9354 8.65616 12.134 8.91676 13.432C9.17732 14.7297 9.00051 16.1228 7.96247 17.5015L7.95957 17.5054L7.95656 17.5091C6.57606 19.2281 4.34053 20.0765 1.8726 19.6549C1.1918 19.5695 0.594358 19.399 0 19.1453L0.241586 18.5794C0.788644 18.813 1.33259 18.9677 1.95569 19.0452L1.96274 19.0461L1.96975 19.0473C4.23442 19.4363 6.24172 18.659 7.47381 17.1276C8.39341 15.9041 8.54276 14.6949 8.3135 13.5531C8.08404 12.4102 7.39144 11.3307 6.4584 10.5561L6.8514 10.0827Z" fill="black"/>
</g>
</svg>
