<svg width="27" height="72" viewBox="0 0 27 72" fill="none" xmlns="http://www.w3.org/2000/svg">
<path d="M2.70041 10.3354C2.80427 10.3354 2.90814 10.3702 3.012 10.3702C3.11586 10.3702 3.25434 10.3702 3.39282 10.3006C3.5313 10.2658 3.66979 10.1614 3.77365 10.057C3.87751 9.95263 3.94675 9.77863 3.94675 9.60464H3.63517L3.94675 9.63943V9.60464C3.94675 9.32624 3.77365 9.11744 3.60055 8.97825C3.42744 8.87385 3.25434 8.80425 3.11586 8.76945C3.04662 8.73465 2.94276 8.73465 2.80427 8.73465C2.73503 8.73465 2.63117 8.73465 2.52731 8.80425C2.35421 8.87385 2.25035 9.04784 2.21573 9.18704C2.1811 9.32624 2.14648 9.46544 2.14648 9.56984V9.63943C2.14648 9.74383 2.14648 9.91783 2.25035 10.0918C2.35421 10.2658 2.49269 10.405 2.73503 10.405L2.87352 10.3702L2.70041 9.74383L2.73503 9.88303V9.74383H2.70041L2.73503 9.88303V9.74383V9.81343L2.76965 9.77863C2.76965 9.77863 2.76965 9.77863 2.70041 9.74383V9.81343L2.76965 9.77863C2.76965 9.77863 2.73503 9.70903 2.73503 9.60464H2.42345H2.73503V9.53504C2.73503 9.46544 2.73503 9.39584 2.76965 9.36104V9.32624L2.73503 9.29144L2.76965 9.36104L2.73503 9.32624L2.76965 9.36104V9.32624V9.36104V9.32624V9.36104C2.80427 9.36104 2.83889 9.36104 2.90814 9.39584C3.04662 9.43064 3.15048 9.46544 3.21972 9.50024L3.28896 9.56984V9.60464H3.60055L3.28896 9.56984V9.60464H3.60055L3.28896 9.56984L3.25434 9.60464L3.15048 9.67423C3.11586 9.70903 3.08124 9.70903 3.012 9.70903C2.94276 9.70903 2.87352 9.70903 2.76965 9.70903L2.70041 10.3354Z" fill="#087BC1"/>
<path d="M3.35809 10.057C3.35809 9.53505 3.49658 9.04785 3.49658 8.52586C3.49658 8.49106 3.49658 8.42146 3.49658 8.38667C3.49658 7.79508 3.35809 7.20348 3.25423 6.64669C3.11575 5.88111 3.01189 5.11552 3.01189 4.34993C3.01189 3.27115 3.21961 2.19237 3.80816 1.25278L3.21961 1.11359C2.63106 2.12277 2.42334 3.23635 2.42334 4.34993C2.42334 5.11552 2.5272 5.91591 2.66568 6.68149C2.76954 7.27308 2.90803 7.82987 2.90803 8.38667C2.90803 8.42146 2.90803 8.49106 2.90803 8.52586C2.87341 9.01305 2.73492 9.53505 2.73492 10.057V10.0918L3.35809 10.057Z" fill="#087BC1"/>
<path d="M3.35819 10.057C3.35819 10.0222 3.35819 9.95262 3.35819 9.91782C3.35819 9.56983 3.18509 9.29143 3.08122 9.01303C2.76964 8.28225 2.80426 7.48186 2.80426 6.68147C2.73502 4.62831 2.31957 2.64474 1.86951 0.626373L1.24634 0.695972C1.6964 2.67954 2.11185 4.69791 2.14647 6.68147C2.18109 7.48186 2.11185 8.31705 2.45806 9.08263C2.56192 9.36103 2.73502 9.63942 2.73502 9.88302C2.73502 9.91782 2.73502 9.95262 2.73502 9.98742L3.35819 10.057Z" fill="#087BC1"/>
<path d="M3.53137 10.0919C3.60061 8.83907 3.63523 7.58629 3.70447 6.36831C3.7391 5.60272 3.77372 4.87194 3.98144 4.14115C4.11992 3.68876 4.32764 3.23636 4.60461 2.85357C4.81233 2.50558 5.12392 2.15758 5.15854 1.70519V1.63559H4.53537V1.67039C4.53537 1.98358 4.29302 2.33158 4.05068 2.67957C3.77372 3.13196 3.53137 3.58436 3.39289 4.07155C3.15055 4.83714 3.11593 5.60272 3.08131 6.33351C3.01206 7.58629 2.97744 8.83907 2.9082 10.0571L3.53137 10.0919Z" fill="#087BC1"/>
<path d="M3.3927 9.98745C3.42732 8.56067 3.46194 7.09909 3.46194 5.63752C3.46194 5.18513 3.46194 4.73273 3.46194 4.28034C3.46194 4.10634 3.46194 3.89755 3.46194 3.72355C3.46194 3.34076 3.49656 2.95796 3.5658 2.57517C3.63504 2.22717 3.80815 1.84438 3.94663 1.49639L3.98125 1.39199L3.94663 1.49639C4.08511 1.21799 4.18897 0.904797 4.32745 0.626401L3.70428 0.522003C3.5658 0.800399 3.46194 1.11359 3.32346 1.39199C3.18498 1.73998 3.01187 2.12278 2.94263 2.50557C2.83877 2.92316 2.83877 3.30596 2.83877 3.72355C2.83877 3.89755 2.83877 4.10634 2.83877 4.28034C2.83877 4.73273 2.83877 5.18513 2.83877 5.63752C2.83877 7.06429 2.80415 8.52587 2.76953 9.95265L3.3927 9.98745Z" fill="#087BC1"/>
<path d="M5.64298 10.3006C5.78147 10.3006 5.91995 10.3354 6.05843 10.3354C6.26615 10.3354 6.47388 10.3006 6.71622 10.2658C6.78546 10.2658 6.88932 10.231 7.02781 10.1614C7.16629 10.057 7.27015 9.95263 7.30477 9.77864L7.33939 9.60464C7.33939 9.36104 7.23553 9.18704 7.06243 9.04785C6.8547 8.90865 6.64698 8.83905 6.47388 8.83905H6.37002C6.09305 8.83905 5.85071 8.90865 5.60836 9.01305C5.5045 9.08265 5.3314 9.15225 5.26216 9.36104C5.22754 9.43064 5.22754 9.50024 5.22754 9.56984C5.22754 9.81343 5.36602 9.98743 5.57374 10.1266C5.71223 10.1962 5.81609 10.231 5.95457 10.231C6.05843 10.231 6.12767 10.231 6.23153 10.1962L6.05843 9.56984H5.95457H5.88533L5.85071 9.60464H5.88533V9.56984L5.85071 9.60464H5.88533H5.78147L5.88533 9.63944V9.60464H5.78147L5.88533 9.63944L5.81609 9.60464L5.88533 9.63944L5.81609 9.60464L5.88533 9.63944L5.95457 9.60464C6.09305 9.53504 6.26615 9.50024 6.43926 9.50024H6.5085C6.61236 9.50024 6.71622 9.53504 6.75084 9.56984L6.78546 9.63944C6.78546 9.63944 6.75084 9.63944 6.6816 9.67424C6.5085 9.70904 6.33539 9.70904 6.16229 9.70904C6.05843 9.70904 5.95457 9.70904 5.85071 9.67424L5.64298 10.3006Z" fill="#087BC1"/>
<path d="M6.61255 9.74385C6.57793 9.39585 6.57793 9.08266 6.57793 8.73467C6.57793 8.49107 6.57793 8.21267 6.57793 7.96908C6.57793 7.51669 6.57793 7.09909 6.47407 6.6467C6.40483 6.26391 6.26634 5.88111 6.16248 5.49832C6.05862 5.11553 6.024 4.69793 6.024 4.31514C6.024 3.68875 6.12786 3.02756 6.37021 2.43597C6.61255 1.84438 6.95875 1.21799 6.99338 0.522003H6.37021C6.33559 1.11359 5.98938 1.70518 5.74704 2.33157C5.50469 2.95796 5.36621 3.65395 5.36621 4.31514C5.36621 4.73273 5.40083 5.15033 5.50469 5.56792C5.60855 5.95071 5.74704 6.33351 5.81628 6.7163C5.88552 7.13389 5.92014 7.55149 5.92014 7.96908C5.92014 8.21267 5.92014 8.49107 5.92014 8.73467C5.92014 9.08266 5.92014 9.39585 5.98938 9.74385H6.61255Z" fill="#087BC1"/>
<path d="M6.61244 9.77864C6.92403 9.25665 7.06251 8.66506 7.06251 8.10827H6.78554H7.06251H6.78554H7.06251C7.06251 6.99469 6.50858 5.95071 6.33548 4.90672C6.30086 4.69793 6.30086 4.52393 6.30086 4.31513C6.30086 3.23635 6.7163 2.15757 7.47795 1.28758L6.92403 1.11359C6.09313 2.01837 5.64307 3.16675 5.64307 4.31513C5.64307 4.52393 5.64307 4.73273 5.67769 4.94152C5.85079 6.05511 6.40472 7.06429 6.40472 8.10827H6.68168H6.40472H6.68168H6.40472C6.40472 8.63026 6.26624 9.18705 5.98927 9.67425L6.61244 9.77864Z" fill="#087BC1"/>
<path d="M6.61252 9.60464C6.23169 9.04785 6.02397 8.38666 6.02397 7.72547C6.02397 7.48187 6.05859 7.27307 6.09321 7.02948C6.16245 6.75108 6.26631 6.47269 6.30093 6.15949C6.30093 6.0551 6.33555 5.9507 6.33555 5.8811C6.33555 5.04591 5.92011 4.28032 5.747 3.51474C5.67776 3.16674 5.64314 2.85355 5.64314 2.50555C5.64314 2.08796 5.71238 1.63557 5.81624 1.21798L5.19307 1.14838C5.05459 1.60077 4.98535 2.05316 4.98535 2.50555C4.98535 2.85355 5.01997 3.23634 5.12383 3.58434C5.33156 4.38472 5.71238 5.15031 5.71238 5.9159C5.71238 6.0203 5.71238 6.08989 5.71238 6.19429C5.67776 6.47269 5.5739 6.75108 5.50466 7.02948C5.43542 7.27307 5.43542 7.51667 5.43542 7.76027C5.43542 8.45626 5.64314 9.18704 6.05859 9.81343L6.61252 9.60464Z" fill="#087BC1"/>
<path d="M6.54329 9.63943C6.82025 8.80425 7.09722 7.96906 7.37418 7.09907C7.51266 6.68148 7.65115 6.22909 7.72039 5.7767C7.75501 5.5331 7.75501 5.2895 7.75501 5.04591C7.75501 4.48912 7.68577 3.93233 7.68577 3.41033C7.68577 3.37554 7.68577 3.30594 7.68577 3.27114C7.68577 2.50555 7.85887 1.73996 8.17045 1.04397L7.54728 0.939575C7.2357 1.67036 7.0626 2.47075 7.02798 3.27114C7.02798 3.30594 7.02798 3.37554 7.02798 3.41033C7.02798 3.96713 7.09722 4.52392 7.09722 5.04591C7.09722 5.2895 7.09722 5.4983 7.0626 5.7419C6.99336 6.15949 6.85487 6.61188 6.71639 7.02948C6.43943 7.86466 6.16246 8.69985 5.8855 9.56983L6.54329 9.63943Z" fill="#087BC1"/>
<path d="M9.03596 10.0918C9.13982 10.0918 9.2783 10.0918 9.38216 10.0918C9.55526 10.0918 9.72837 10.0918 9.86685 10.057C9.93609 10.057 10.04 10.0222 10.1438 9.98743C10.2477 9.95263 10.3862 9.84823 10.4554 9.67423C10.49 9.60463 10.49 9.53503 10.49 9.46543C10.49 9.39584 10.49 9.32624 10.4554 9.25664C10.3862 9.04784 10.2477 8.90864 10.1092 8.83905C9.97071 8.76945 9.83223 8.73465 9.69375 8.69985C9.58988 8.66505 9.4514 8.63025 9.2783 8.63025C9.17444 8.63025 9.07058 8.63025 8.93209 8.69985C8.82823 8.73465 8.68975 8.83905 8.62051 8.97824C8.55127 9.15224 8.55127 9.29144 8.55127 9.36104V9.43064C8.55127 9.50023 8.55127 9.63943 8.65513 9.77863C8.75899 9.91783 8.89747 9.98743 9.03596 9.98743C9.13982 9.98743 9.2783 9.95263 9.34754 9.84823L8.86285 9.43064L9.03596 9.56983V9.36104C9.00134 9.36104 8.93209 9.39584 8.86285 9.43064L9.03596 9.56983V9.36104V9.53503L9.17444 9.43064C9.13982 9.36104 9.1052 9.36104 9.03596 9.36104V9.53503L9.17444 9.43064L9.1052 9.46543H9.17444V9.43064L9.1052 9.46543H9.17444V9.43064V9.39584V9.29144V9.25664H9.13982H9.1052H9.20906C9.2783 9.25664 9.38216 9.25664 9.4514 9.29144C9.55526 9.32624 9.65913 9.36104 9.69375 9.39584C9.76299 9.43064 9.76299 9.46543 9.76299 9.46543H9.79761H9.76299H9.79761H9.76299H9.86685L9.76299 9.43064V9.46543H9.86685L9.76299 9.43064L9.86685 9.46543L9.79761 9.39584L9.76299 9.43064L9.86685 9.46543L9.79761 9.39584L9.83223 9.43064V9.39584L9.86685 9.43064V9.39584C9.86685 9.39584 9.79761 9.39584 9.76299 9.43064C9.62451 9.43064 9.4514 9.43064 9.31292 9.43064C9.20906 9.43064 9.1052 9.43064 9.00134 9.43064L9.03596 10.0918Z" fill="#087BC1"/>
<path d="M9.97069 9.77864C9.97069 9.74384 9.97069 9.67424 9.97069 9.63944C9.97069 8.49106 9.76297 7.37748 9.76297 6.2291C9.76297 6.0899 9.76297 5.9507 9.76297 5.8115C9.83221 4.55872 10.213 3.34074 10.5939 2.12276C10.7323 1.67037 10.8708 1.18318 10.8708 0.695988C10.8708 0.452392 10.8362 0.208797 10.7323 0L10.1092 0.104398C10.1784 0.313195 10.213 0.521991 10.213 0.730788C10.213 1.18318 10.0746 1.63557 9.93607 2.08797C9.55524 3.30594 9.1398 4.55872 9.07056 5.8463C9.07056 5.9855 9.07056 6.1247 9.07056 6.2639C9.07056 7.41228 9.27828 8.52586 9.27828 9.67424C9.27828 9.70904 9.27828 9.77864 9.27828 9.81344L9.97069 9.77864Z" fill="#087BC1"/>
<path d="M9.90142 9.60465C9.5206 8.17788 9.13977 6.7163 9.13977 5.28953C9.13977 4.94153 9.17439 4.62834 9.20901 4.28034C9.31287 3.54955 9.55522 2.78397 9.55522 1.98358C9.55522 1.84438 9.55522 1.67039 9.5206 1.53119L8.89743 1.56599C8.93205 1.70519 8.93205 1.84438 8.93205 1.98358C8.93205 2.71437 8.6897 3.47996 8.58584 4.24554C8.55122 4.59354 8.5166 4.94153 8.5166 5.28953C8.5166 6.7859 8.89743 8.24748 9.31287 9.67425L9.90142 9.60465Z" fill="#087BC1"/>
<path d="M9.97075 9.77862C9.45144 8.56064 9.41682 7.20346 9.3822 5.88108C9.3822 5.77669 9.3822 5.63749 9.3822 5.53309C9.3822 5.1851 9.41682 4.8371 9.48606 4.48911C9.76303 3.44512 10.767 2.60994 11.3209 1.53116L10.7324 1.42676C10.2131 2.43594 9.17448 3.27113 8.8629 4.45431C8.75903 4.8023 8.75903 5.1851 8.75903 5.53309C8.75903 5.63749 8.75903 5.77669 8.75903 5.88108C8.79365 7.20346 8.82827 8.59544 9.34758 9.84822L9.97075 9.77862Z" fill="#087BC1"/>
<path d="M10.0399 9.63944C10.213 8.07347 10.3861 6.50749 10.3861 4.94152C10.3861 4.59353 10.3861 4.24553 10.2476 3.89754C10.1437 3.65394 10.0052 3.44514 9.86677 3.23635C9.4167 2.54036 9.03588 1.77477 8.75891 1.00919L8.13574 1.07878C8.41271 1.87917 8.79353 2.64476 9.27822 3.37555C9.4167 3.58434 9.55518 3.75834 9.62442 3.96714C9.72829 4.24553 9.76291 4.59353 9.76291 4.94152H10.0745H9.76291V4.97632C9.76291 6.54229 9.5898 8.10827 9.4167 9.63944H10.0399Z" fill="#087BC1"/>
<path d="M12.7749 10.3354C12.9134 10.3702 13.0518 10.405 13.2249 10.405C13.2942 10.405 13.3981 10.405 13.4673 10.3702C13.6058 10.3354 13.7443 10.2658 13.8481 10.1614C13.952 10.057 14.0212 9.88303 14.0212 9.70903V9.67423L13.7096 9.70903L14.0212 9.67423C14.0212 9.43063 13.8481 9.25664 13.7096 9.15224C13.5712 9.04784 13.3981 9.01304 13.2249 8.97824C13.1557 8.97824 13.0518 8.97824 12.9826 8.97824C12.8095 8.97824 12.671 9.01304 12.4979 9.04784C12.4287 9.04784 12.3941 9.08264 12.2902 9.11744C12.221 9.15224 12.1171 9.22184 12.0825 9.36103L12.0479 9.39583V9.56983V9.60463V9.63943C12.0825 9.81343 12.1863 9.98742 12.3248 10.0918C12.4633 10.1962 12.6018 10.2658 12.7403 10.3006C12.9134 10.3354 13.0865 10.3702 13.2596 10.3702C13.3288 10.3702 13.3634 10.3702 13.4327 10.3702H13.4673V9.74383H13.4327C13.3634 9.74383 13.3288 9.74383 13.2596 9.74383C13.1211 9.74383 13.0172 9.74383 12.9134 9.70903C12.8441 9.70903 12.7749 9.67423 12.7403 9.63943L12.671 9.53503L12.3594 9.60463H12.671V9.50023H12.3594L12.671 9.60463L12.5325 9.53503L12.6018 9.67423L12.671 9.60463L12.5325 9.53503L12.6018 9.67423V9.63943V9.67423V9.63943V9.67423H12.6364C12.7403 9.63943 12.8787 9.63943 12.9826 9.63943H13.1557C13.2249 9.63943 13.2942 9.67423 13.3634 9.70903L13.3981 9.74383H13.3634H13.3288H13.4327H13.2942H13.3981H13.2596L13.1557 9.81343H13.0518C12.9826 9.81343 12.8787 9.77863 12.7403 9.77863L12.7749 10.3354Z" fill="#087BC1"/>
<path d="M13.2251 10.057C13.1212 9.43064 12.7058 8.87385 12.4288 8.35186C12.0826 7.62107 11.9095 6.85548 11.9095 6.0551C11.9095 5.6375 11.9441 5.21991 12.0134 4.80232C12.2211 3.58434 12.7058 2.43596 13.2251 1.25277L12.6019 1.14838C12.0826 2.33156 11.5979 3.51474 11.3902 4.73272C11.321 5.15031 11.2517 5.6027 11.2517 6.0551C11.2517 6.89028 11.4248 7.69067 11.8056 8.45626C12.0826 9.01305 12.4634 9.53504 12.5673 10.0918L13.2251 10.057Z" fill="#087BC1"/>
<path d="M13.2597 9.98744C13.2251 9.74384 13.2251 9.50024 13.2251 9.25665C13.2251 7.93427 13.606 6.64669 13.9522 5.32431C14.2291 4.31513 14.4715 3.23635 14.4715 2.19237C14.4715 1.63558 14.4022 1.07878 14.2291 0.556793L13.606 0.626392C13.7444 1.14838 13.8137 1.67037 13.8137 2.19237C13.8137 3.20155 13.5713 4.24553 13.2944 5.28951C12.9482 6.61189 12.5327 7.93427 12.5327 9.29145C12.5327 9.53504 12.5327 9.81344 12.5673 10.057L13.2597 9.98744Z" fill="#087BC1"/>
<path d="M13.3288 9.98744C13.3288 9.77864 13.3634 9.56985 13.3634 9.36105C13.3634 8.45627 13.2595 7.58628 13.2595 6.7163C13.2595 6.5075 13.2595 6.2639 13.2942 6.05511C13.3634 4.66313 13.8481 3.23635 13.8481 1.77478C13.8481 1.73998 13.8481 1.70518 13.8481 1.67038C13.8481 1.21799 13.7789 0.730795 13.4673 0.313202L12.8787 0.487199C13.1211 0.835193 13.1903 1.25279 13.1903 1.67038C13.1903 1.70518 13.1903 1.73998 13.1903 1.77478C13.1903 3.20155 12.7056 4.59353 12.6018 6.05511C12.6018 6.2639 12.5671 6.5075 12.5671 6.7163C12.5671 7.62108 12.671 8.49107 12.671 9.36105C12.671 9.56985 12.671 9.77864 12.6364 9.98744H13.3288Z" fill="#087BC1"/>
<path d="M13.1906 10.0222C12.7405 8.87386 12.4982 7.69068 12.4982 6.5075C12.4982 5.91591 12.5674 5.28952 12.5674 4.66313C12.5674 4.31514 12.5328 3.93234 12.4982 3.58435C12.3597 2.74916 11.9788 1.98357 11.598 1.21799L10.9749 1.32239C11.3557 2.08797 11.7019 2.85356 11.8404 3.61915C11.9096 3.96714 11.9096 4.31514 11.9096 4.66313C11.9096 5.25472 11.8404 5.88111 11.8404 6.5075C11.8404 7.72548 12.0827 8.94346 12.5328 10.1266L13.1906 10.0222Z" fill="#087BC1"/>
<path d="M16.6178 10.1962C16.8602 10.057 16.9987 9.77865 16.9987 9.53505C16.9987 9.46546 16.9987 9.39586 16.964 9.32626C16.8948 9.08266 16.6871 8.90867 16.514 8.80427C16.3062 8.69987 16.1331 8.66507 15.9254 8.66507H15.8562C15.7869 8.66507 15.7177 8.66507 15.6485 8.69987C15.5792 8.73467 15.4407 8.76947 15.3715 8.90867C15.3022 9.01306 15.3022 9.11746 15.3022 9.18706C15.3022 9.25666 15.3022 9.32626 15.3369 9.36106C15.3715 9.53505 15.4061 9.67425 15.4407 9.84825V9.88305L15.5446 10.057L15.6138 10.1962L15.9254 10.2658H15.96H15.9947C16.237 10.2658 16.4447 10.2658 16.6871 10.2658V9.63945C16.4447 9.63945 16.237 9.63945 15.9947 9.63945V9.95265L16.0639 9.63945L15.7869 9.77865L16.0985 9.70905C16.0639 9.53505 16.0293 9.39586 15.9947 9.22186V9.18706H15.8562L15.96 9.25666L15.9947 9.18706H15.8562L15.96 9.25666L15.8562 9.18706L15.8908 9.32626L15.96 9.25666L15.8562 9.18706L15.8908 9.32626H15.9254H15.96C16.0639 9.32626 16.2024 9.36106 16.2716 9.39586C16.3409 9.43066 16.3755 9.46546 16.4101 9.50026V9.53505L16.2716 9.67425L16.6178 10.1962Z" fill="#087BC1"/>
<path d="M16.5833 9.74385C16.5487 9.56985 16.5487 9.39585 16.5487 9.22186C16.5487 8.52587 16.6525 7.79508 16.6525 7.02949C16.6525 6.7859 16.6525 6.5423 16.6179 6.29871C16.5487 5.70712 16.341 5.18512 16.1679 4.62833C15.9601 3.96714 15.8217 3.27116 15.8217 2.57517V2.54037C15.8217 1.84438 15.9948 1.14839 16.3756 0.5568L15.787 0.417603C15.3716 1.04399 15.1985 1.80958 15.1985 2.54037H15.5101H15.1985V2.57517C15.1985 3.30595 15.337 4.00194 15.5447 4.69793C15.7178 5.25472 15.8909 5.77671 15.9601 6.3335C15.9948 6.5771 15.9948 6.7859 15.9948 7.02949C15.9948 7.72548 15.8909 8.45627 15.8909 9.22186C15.8909 9.39585 15.8909 9.60465 15.9255 9.77865L16.5833 9.74385Z" fill="#087BC1"/>
<path d="M16.5486 9.67424V9.60464C16.5486 9.11745 16.3755 8.63026 16.2716 8.21267C16.0639 7.48188 15.9254 6.68149 15.9254 5.9507C15.9254 5.21992 16.0639 4.48913 16.3409 3.79314C16.6524 3.02755 17.1718 2.33156 17.6218 1.60078L17.0333 1.46158C16.6178 2.19237 16.0639 2.88835 15.7177 3.68874C15.4061 4.41953 15.3022 5.15032 15.3022 5.9159C15.3022 6.71629 15.4407 7.51668 15.6485 8.24747C15.7869 8.69986 15.9254 9.15225 15.9254 9.56984V9.63944L16.5486 9.67424Z" fill="#087BC1"/>
<path d="M16.4447 9.70904C16.4447 9.22185 16.41 8.69986 16.41 8.21266C16.41 7.62107 16.4447 6.99468 16.5139 6.40309C16.6524 5.32431 16.9293 4.21073 17.4833 3.27115C17.7949 2.74915 18.2449 2.15756 18.2449 1.49638C18.2449 1.46158 18.2449 1.39198 18.2449 1.35718L17.6218 1.39198C17.6218 1.42678 17.6218 1.46158 17.6218 1.49638C17.6218 2.05317 17.2063 2.57516 16.8947 3.16675C16.3062 4.17593 16.0292 5.28951 15.8907 6.40309C15.8215 7.02948 15.7869 7.62107 15.7869 8.24746C15.7869 8.76945 15.7869 9.25665 15.8215 9.74384L16.4447 9.70904Z" fill="#087BC1"/>
<path d="M16.5487 9.63943C16.6526 8.90865 16.6872 8.17786 16.6872 7.44707C16.6872 6.78588 16.6526 6.12469 16.6526 5.4635C16.6526 4.59352 16.6872 3.72353 16.8603 2.85355C16.8949 2.60995 16.9642 2.36636 16.9642 2.08796C16.9642 2.05316 16.9642 2.01836 16.9642 1.98356C16.9295 1.63557 16.7911 1.28757 16.7911 1.00918C16.7911 0.93958 16.7911 0.869981 16.8257 0.765583L16.2025 0.695984C16.1679 0.800382 16.1679 0.90478 16.1679 1.00918C16.1679 1.35717 16.3064 1.70517 16.341 2.01836V2.12276C16.341 2.36636 16.2717 2.60995 16.2371 2.85355C16.064 3.72353 16.0294 4.62832 16.0294 5.4983C16.0294 6.15949 16.064 6.82068 16.064 7.48187C16.064 8.21266 16.0294 8.90865 15.9255 9.63943H16.5487Z" fill="#087BC1"/>
<path d="M18.9721 10.3354C19.076 10.3354 19.1799 10.3702 19.2837 10.3702C19.3876 10.3702 19.5261 10.3702 19.6645 10.3006C19.803 10.2658 19.9415 10.1614 20.0454 10.057C20.1492 9.95263 20.2185 9.77863 20.2185 9.60464H19.9069L20.2185 9.63943V9.60464C20.2185 9.32624 20.0454 9.11744 19.8723 8.97825C19.6992 8.87385 19.5261 8.80425 19.3876 8.76945C19.3183 8.73465 19.2145 8.73465 19.076 8.73465C19.0068 8.73465 18.9029 8.73465 18.799 8.80425C18.6259 8.87385 18.5221 9.04784 18.4875 9.18704C18.4528 9.32624 18.4182 9.46544 18.4182 9.56984V9.63943C18.4182 9.74383 18.4182 9.91783 18.5221 10.0918C18.6259 10.2658 18.7644 10.405 19.0068 10.405L19.1452 10.3702L18.9721 9.74383L19.0068 9.88303V9.74383H18.9721L19.0068 9.88303V9.74383V9.81343L19.076 9.77863C19.076 9.77863 19.076 9.77863 19.0068 9.74383V9.81343L19.076 9.77863C19.076 9.77863 19.0414 9.70903 19.0414 9.60464H18.7298H19.0414V9.53504C19.0414 9.46544 19.0414 9.39584 19.076 9.36104V9.32624L19.0414 9.29144V9.32624L19.0068 9.29144V9.32624V9.29144V9.32624V9.29144V9.32624C19.0414 9.32624 19.076 9.32624 19.1452 9.36104C19.2837 9.39584 19.3876 9.43064 19.4568 9.46544L19.5261 9.53504V9.56984H19.8376L19.5261 9.53504V9.56984H19.8376L19.5261 9.53504L19.4914 9.56984L19.3876 9.63943C19.3876 9.70903 19.353 9.70903 19.2837 9.70903C19.2145 9.70903 19.1452 9.70903 19.0414 9.70903L18.9721 10.3354Z" fill="#087BC1"/>
<path d="M19.6298 9.70905C19.6298 9.18706 19.7683 8.69986 19.7683 8.17787C19.7683 8.14307 19.7683 8.07347 19.7683 8.03867C19.7683 7.44708 19.6298 6.85549 19.526 6.2987C19.3875 5.53312 19.2836 4.76753 19.2836 4.00194C19.2836 2.92316 19.4913 1.84438 20.0799 0.904792L19.4913 0.765594C18.9028 1.77478 18.6951 2.88836 18.6951 4.00194C18.6951 4.76753 18.7989 5.56791 18.9374 6.3335C19.0413 6.92509 19.1798 7.48188 19.1798 8.03867C19.1798 8.07347 19.1798 8.14307 19.1798 8.17787C19.1451 8.66506 19.0413 9.18706 19.0413 9.70905V9.74385L19.6298 9.70905Z" fill="#087BC1"/>
<path d="M19.6297 9.70902C19.6297 9.67423 19.6297 9.60463 19.6297 9.56983C19.6297 9.22183 19.4566 8.94344 19.3527 8.66504C19.0411 7.93425 19.0757 7.13387 19.0757 6.33348C19.0411 4.28031 18.5911 2.29675 18.141 0.278381L17.5178 0.313181C17.9679 2.29675 18.3833 4.31511 18.418 6.29868C18.4526 7.09907 18.3833 7.93425 18.7295 8.69984C18.8334 8.97824 19.0065 9.25663 19.0065 9.50023C19.0065 9.53503 19.0065 9.56983 19.0065 9.60463L19.6297 9.70902Z" fill="#087BC1"/>
<path d="M19.8031 9.74383C19.8723 8.49105 19.907 7.23827 19.9762 6.02029C20.0108 5.2547 20.0454 4.52391 20.2532 3.79313C20.3916 3.34073 20.5994 2.88834 20.8763 2.50555C21.0841 2.15755 21.3956 1.80956 21.4303 1.35717V1.28757H20.8071V1.32237C20.8071 1.63556 20.5648 1.98356 20.3224 2.33155C20.0454 2.78394 19.8031 3.23633 19.6646 3.72353C19.4223 4.48911 19.3877 5.2547 19.353 6.02029C19.2838 7.27307 19.2492 8.52585 19.1799 9.74383H19.8031Z" fill="#087BC1"/>
<path d="M19.6644 9.63945C19.699 8.21268 19.7337 6.7511 19.7337 5.28953C19.7337 4.83713 19.7337 4.38474 19.7337 3.93235C19.7337 3.75835 19.7337 3.54956 19.7337 3.37556C19.7337 2.99276 19.7683 2.60997 19.8375 2.22718C19.9068 1.87918 20.0799 1.49639 20.2184 1.1484L20.253 1.044L20.2184 1.1484C20.3568 0.87 20.4607 0.556805 20.5992 0.278409L19.976 0.174011C19.8375 0.452407 19.7337 0.765601 19.5952 1.044C19.4567 1.39199 19.2836 1.77478 19.2144 2.15758C19.1105 2.57517 19.1105 2.95797 19.1105 3.37556C19.1105 3.54956 19.1105 3.75835 19.1105 3.93235C19.1105 4.38474 19.1105 4.83713 19.1105 5.28953C19.1105 6.7163 19.0759 8.17788 19.0413 9.60466L19.6644 9.63945Z" fill="#087BC1"/>
<path d="M21.9147 10.3006C22.0532 10.3006 22.1917 10.3354 22.3302 10.3354C22.5379 10.3354 22.7456 10.3006 22.988 10.2658C23.0572 10.2658 23.1611 10.231 23.2995 10.1614C23.438 10.057 23.5419 9.95263 23.5765 9.77864L23.6111 9.60464C23.6111 9.36104 23.5073 9.18704 23.3342 9.04785C23.1264 8.90865 22.9187 8.83905 22.7456 8.83905H22.6417C22.3648 8.83905 22.1224 8.90865 21.8801 9.01305C21.7762 9.08265 21.6031 9.15225 21.5339 9.36104C21.4993 9.43064 21.4993 9.50024 21.4993 9.56984C21.4993 9.81343 21.6377 9.98743 21.8455 10.1266C21.984 10.1962 22.0878 10.231 22.2263 10.231C22.3302 10.231 22.3994 10.231 22.5033 10.1962L22.3302 9.56984H22.2263H22.1571L22.1224 9.60464H22.1571V9.56984L22.1224 9.60464H22.1571H22.0532L22.1571 9.63944V9.60464H22.0532L22.1571 9.63944L22.0878 9.60464L22.1571 9.63944L22.0878 9.60464L22.1571 9.63944L22.2263 9.60464C22.3648 9.53504 22.5379 9.50024 22.711 9.50024H22.7802C22.8841 9.50024 22.988 9.53504 23.0226 9.56984L23.0572 9.63944C23.0572 9.63944 23.0226 9.63944 22.9533 9.67424C22.7802 9.70904 22.6071 9.70904 22.434 9.70904C22.3302 9.70904 22.2263 9.70904 22.1224 9.67424L21.9147 10.3006Z" fill="#087BC1"/>
<path d="M22.884 9.74385C22.8494 9.39585 22.8494 9.08266 22.8494 8.73467C22.8494 8.49107 22.8494 8.21267 22.8494 7.96908C22.8494 7.51669 22.8494 7.09909 22.7456 6.6467C22.6763 6.26391 22.5378 5.88111 22.434 5.49832C22.3301 5.11553 22.2955 4.69793 22.2955 4.31514C22.2955 3.68875 22.3993 3.02756 22.6417 2.43597C22.884 1.84438 23.2302 1.21799 23.2649 0.522003H22.6417C22.6071 1.11359 22.2609 1.70518 22.0185 2.33157C21.7762 2.95796 21.6377 3.65395 21.6377 4.31514C21.6377 4.73273 21.6723 5.15033 21.7762 5.56792C21.88 5.95071 22.0185 6.33351 22.0878 6.7163C22.157 7.13389 22.1916 7.55149 22.1916 7.96908C22.1916 8.21267 22.1916 8.49107 22.1916 8.73467C22.1916 9.08266 22.1916 9.39585 22.2609 9.74385H22.884Z" fill="#087BC1"/>
<path d="M22.8842 9.77864C23.1958 9.25665 23.3342 8.66506 23.3342 8.10827H23.0573H23.3342H23.0573H23.3342C23.3342 6.99469 22.7803 5.95071 22.6072 4.90672C22.5726 4.69793 22.5726 4.52393 22.5726 4.31513C22.5726 3.23635 22.988 2.15757 23.7497 1.28758L23.1958 1.11359C22.3649 2.01837 21.9148 3.16675 21.9148 4.31513C21.9148 4.52393 21.9148 4.73273 21.9494 4.94152C22.1225 6.05511 22.6764 7.06429 22.6764 8.10827H22.9534H22.6764H22.9534H22.6764C22.6764 8.63026 22.538 9.18705 22.261 9.67425L22.8842 9.77864Z" fill="#087BC1"/>
<path d="M22.8842 9.60464C22.5034 9.04785 22.2957 8.38666 22.2957 7.72547C22.2957 7.48187 22.3303 7.27307 22.3649 7.02948C22.4342 6.75108 22.538 6.47269 22.5727 6.15949C22.5727 6.0551 22.6073 5.9507 22.6073 5.8811C22.6073 5.04591 22.1918 4.28032 22.0187 3.51474C21.9495 3.16674 21.9149 2.85355 21.9149 2.50555C21.9149 2.08796 21.9841 1.63557 22.088 1.21798L21.4648 1.14838C21.3263 1.60077 21.2571 2.05316 21.2571 2.50555C21.2571 2.85355 21.2917 3.23634 21.3956 3.58434C21.6033 4.38472 21.9841 5.15031 21.9841 5.9159C21.9841 6.0203 21.9841 6.08989 21.9841 6.19429C21.9495 6.47269 21.8456 6.75108 21.7764 7.02948C21.7071 7.27307 21.7071 7.51667 21.7071 7.76027C21.7071 8.45626 21.9149 9.18704 22.3303 9.81343L22.8842 9.60464Z" fill="#087BC1"/>
<path d="M22.815 9.63943C23.092 8.80425 23.3689 7.96906 23.6459 7.09907C23.7844 6.68148 23.9229 6.22909 23.9921 5.7767C24.0267 5.5331 24.0267 5.2895 24.0267 5.04591C24.0267 4.48912 23.9575 3.93233 23.9575 3.41033C23.9575 3.37554 23.9575 3.30594 23.9575 3.27114C23.9575 2.50555 24.1306 1.73996 24.4422 1.04397L23.819 0.939575C23.5074 1.67036 23.3343 2.47075 23.2997 3.27114C23.2997 3.30594 23.2997 3.37554 23.2997 3.41033C23.2997 3.96713 23.3689 4.52392 23.3689 5.04591C23.3689 5.2895 23.3689 5.4983 23.3343 5.7419C23.2651 6.15949 23.1266 6.61188 22.9881 7.02948C22.7112 7.86466 22.4342 8.69985 22.1572 9.56983L22.815 9.63943Z" fill="#087BC1"/>
<path d="M23.0227 61.595C22.9188 61.595 22.815 61.5602 22.7111 61.5602C22.6073 61.5602 22.4688 61.5602 22.3303 61.6298C22.1918 61.6646 22.0533 61.769 21.9495 61.8734C21.8456 61.9778 21.7764 62.1518 21.7764 62.3257H22.088L21.7764 62.291V62.3257C21.7764 62.6041 21.9495 62.8129 22.1226 62.9521C22.2957 63.0565 22.4688 63.1261 22.6073 63.1609C22.6765 63.1957 22.7804 63.1957 22.9188 63.1957C22.9881 63.1957 23.0919 63.1957 23.1958 63.1261C23.3689 63.0565 23.4728 62.8825 23.5074 62.7433C23.542 62.6041 23.5766 62.4649 23.5766 62.3605V62.291C23.5766 62.1866 23.5766 62.0126 23.4728 61.8386C23.3689 61.6646 23.2304 61.5254 22.9881 61.5254L22.8496 61.5602L23.0227 62.1866L22.9881 62.0474V62.1866H23.0227L22.9881 62.0474V62.1866V62.117L22.9188 62.1518C22.9188 62.1518 22.9188 62.1518 22.9881 62.1866V62.117L22.9188 62.1518C22.9188 62.1518 22.9535 62.2213 22.9535 62.3257H23.265H22.9535V62.3953C22.9535 62.4649 22.9535 62.5345 22.9188 62.5693V62.6041L22.9535 62.6389V62.6041L22.9881 62.6389V62.6041V62.6389V62.6041V62.6389V62.6041C22.9535 62.6041 22.9188 62.6041 22.8496 62.5693C22.7111 62.5345 22.6073 62.4997 22.538 62.4649L22.4688 62.3953V62.3605H22.1572L22.4688 62.3953V62.3605H22.1572L22.4688 62.3953L22.5034 62.3605L22.6073 62.291C22.6419 62.291 22.7111 62.2561 22.7804 62.2561C22.8496 62.2561 22.9188 62.2561 23.0227 62.2561V61.595Z" fill="#087BC1"/>
<path d="M22.3302 61.8734C22.3302 62.3954 22.1917 62.8826 22.1917 63.4046C22.1917 63.4394 22.1917 63.5089 22.1917 63.5437C22.1917 64.1353 22.3302 64.7269 22.4341 65.2837C22.5725 66.0493 22.6764 66.8149 22.6764 67.5805C22.6764 68.6593 22.4687 69.7381 21.8801 70.6776L22.4687 70.8168C23.0918 69.8077 23.2996 68.6941 23.2996 67.5805C23.2996 66.8149 23.1957 66.0145 23.0572 65.2489C22.9534 64.6573 22.8149 64.1005 22.8149 63.5437C22.8149 63.5089 22.8149 63.4394 22.8149 63.4046C22.8495 62.9174 22.9534 62.3954 22.9534 61.8734V61.8386L22.3302 61.8734Z" fill="#087BC1"/>
<path d="M22.3647 61.8734C22.3647 61.9082 22.3647 61.9778 22.3647 62.0126C22.3647 62.3606 22.5378 62.639 22.6417 62.9173C22.9533 63.6481 22.9187 64.4485 22.9187 65.2489C22.9533 67.3021 23.4034 69.2856 23.8534 71.304L24.4766 71.2692C24.0265 69.2856 23.6111 67.2673 23.5765 65.2837C23.5418 64.4833 23.6111 63.6481 23.2649 62.8826C23.161 62.6042 22.9879 62.3258 22.9879 62.0822C22.9879 62.0474 22.9879 62.0126 22.9879 61.9778L22.3647 61.8734Z" fill="#087BC1"/>
<path d="M22.1572 61.8386C22.088 63.0914 22.0533 64.3441 21.9841 65.5621C21.9495 66.3277 21.9149 67.0585 21.7071 67.7893C21.5686 68.2417 21.3609 68.6941 21.084 69.0769C20.8762 69.4249 20.5646 69.7728 20.53 70.2252V70.2948H21.1532V70.26C21.1532 69.9468 21.3955 69.5989 21.6379 69.2509C21.9149 68.7985 22.1572 68.3461 22.2957 67.8589C22.538 67.0933 22.5726 66.3277 22.6073 65.5621C22.6765 64.3093 22.7111 63.0566 22.7804 61.8386H22.1572Z" fill="#087BC1"/>
<path d="M22.3303 61.943C22.2956 63.3697 22.261 64.8313 22.261 66.2929C22.261 66.7453 22.261 67.1977 22.261 67.6501C22.261 67.8241 22.261 68.0329 22.261 68.2069C22.261 68.5897 22.2264 68.9724 22.1572 69.3552C22.0879 69.7032 21.9148 70.086 21.7763 70.434L21.7417 70.5384L21.7763 70.434C21.6379 70.7124 21.534 71.0256 21.3955 71.304L22.0187 71.4084C22.1572 71.13 22.261 70.8168 22.3995 70.5384C22.538 70.1904 22.7111 69.8076 22.7803 69.4248C22.8842 69.0072 22.8842 68.6245 22.8842 68.2069C22.8842 68.0329 22.8842 67.8241 22.8842 67.6501C22.8842 67.1977 22.8842 66.7453 22.8842 66.2929C22.8842 64.8661 22.9188 63.4045 22.9534 61.9778L22.3303 61.943Z" fill="#087BC1"/>
<path d="M20.0797 61.6298C19.9412 61.6298 19.8027 61.595 19.6643 61.595C19.4565 61.595 19.2488 61.6298 19.0065 61.6646C18.9372 61.6646 18.8334 61.6994 18.6949 61.769C18.5564 61.8734 18.4525 61.9778 18.4179 62.1518L18.3833 62.3258C18.3833 62.5694 18.4872 62.7434 18.6603 62.8825C18.868 63.0217 19.0757 63.0913 19.2488 63.0913H19.3527C19.6296 63.0913 19.872 63.0217 20.1143 62.9173C20.2182 62.8477 20.3913 62.7781 20.4605 62.5694C20.4952 62.4998 20.4952 62.4302 20.4952 62.3606C20.4952 62.117 20.3567 61.943 20.1489 61.8038C20.0105 61.7342 19.9066 61.6994 19.7681 61.6994C19.6643 61.6994 19.595 61.6994 19.4912 61.7342L19.6643 62.3606H19.7681H19.8374L19.872 62.3258H19.8374V62.3606L19.872 62.3258H19.8374H19.9412L19.8374 62.291V62.3258H19.9412L19.8374 62.291L19.9066 62.3258L19.8374 62.291L19.9066 62.3258L19.8374 62.291L19.7681 62.3258C19.6296 62.3954 19.4565 62.4302 19.2834 62.4302H19.2142C19.1103 62.4302 19.0065 62.3954 18.9718 62.3606L18.9372 62.291C18.9372 62.291 18.9719 62.291 19.0411 62.2562C19.2142 62.2214 19.3873 62.2214 19.5604 62.2214C19.6643 62.2214 19.7681 62.2214 19.872 62.2562L20.0797 61.6298Z" fill="#087BC1"/>
<path d="M19.0759 62.1866C19.1106 62.4997 19.1452 62.8477 19.1452 63.1609C19.1452 63.4045 19.1452 63.6829 19.1452 63.9265C19.1452 64.3789 19.1452 64.7965 19.249 65.2489C19.3183 65.6317 19.4568 66.0145 19.5606 66.3973C19.6645 66.7801 19.6991 67.1977 19.6991 67.5805C19.6991 68.2069 19.5952 68.868 19.3529 69.4596C19.1106 70.0512 18.7644 70.6776 18.7297 71.3736H19.3529C19.3875 70.782 19.7337 70.1904 19.9761 69.564C20.2184 68.9376 20.3569 68.2416 20.3569 67.5805C20.3569 67.1629 20.3223 66.7453 20.2184 66.3277C20.1146 65.9449 19.9761 65.5621 19.9068 65.1793C19.8376 64.7617 19.803 64.3441 19.803 63.9265C19.803 63.6829 19.803 63.4045 19.803 63.1609C19.803 62.8129 19.803 62.4997 19.7337 62.1517L19.0759 62.1866Z" fill="#087BC1"/>
<path d="M19.0757 62.1517C18.7641 62.6737 18.6257 63.2653 18.6257 63.8221H18.9026H18.6257H18.9026H18.6257C18.6257 64.9357 19.1796 65.9797 19.3527 67.0237C19.3873 67.2325 19.3873 67.4065 19.3873 67.6153C19.3873 68.694 18.9719 69.7728 18.2102 70.6428L18.7641 70.8168C19.595 69.912 20.0451 68.7636 20.0451 67.6153C20.0451 67.4065 20.0451 67.1977 20.0105 66.9889C19.8374 65.8753 19.2834 64.8661 19.2834 63.8221H19.0065H19.2834H19.0065H19.2834C19.2834 63.3001 19.4219 62.7433 19.6989 62.2561L19.0757 62.1517Z" fill="#087BC1"/>
<path d="M19.1106 62.3258C19.4914 62.8826 19.6991 63.5437 19.6991 64.2049C19.6991 64.4485 19.6645 64.6573 19.6299 64.9009C19.5607 65.1793 19.4568 65.4577 19.4222 65.7709C19.4222 65.8753 19.3876 65.9797 19.3876 66.0493C19.3876 66.8845 19.803 67.6501 19.9761 68.4157C20.0453 68.7637 20.08 69.0769 20.08 69.4248C20.08 69.8424 20.0107 70.2948 19.9069 70.7124L20.53 70.782C20.6685 70.3296 20.7378 69.8772 20.7378 69.4248C20.7378 69.0769 20.7031 68.6941 20.5993 68.3461C20.3916 67.5457 20.0107 66.7801 20.0107 66.0145C20.0107 65.9101 20.0107 65.8405 20.0107 65.7361C20.0453 65.4577 20.1492 65.1793 20.2185 64.9009C20.2877 64.6573 20.2877 64.4137 20.2877 64.1701C20.2877 63.4741 20.08 62.7434 19.6645 62.117L19.1106 62.3258Z" fill="#087BC1"/>
<path d="M19.1799 62.291C18.9029 63.1261 18.626 63.9613 18.349 64.8313C18.2105 65.2489 18.072 65.7013 18.0028 66.1537C17.9682 66.3973 17.9682 66.6409 17.9682 66.8845C17.9682 67.4413 18.0374 67.9981 18.0374 68.52C18.0374 68.5548 18.0374 68.6244 18.0374 68.6592C18.0374 69.4248 17.8643 70.1904 17.5527 70.8864L18.1759 70.9908C18.4875 70.26 18.6606 69.4596 18.6952 68.6592C18.6952 68.6244 18.6952 68.5548 18.6952 68.52C18.6952 67.9633 18.626 67.4065 18.626 66.8845C18.626 66.6409 18.626 66.4321 18.6606 66.1885C18.7298 65.7709 18.8683 65.3185 19.0068 64.9009C19.2838 64.0657 19.5607 63.2305 19.8377 62.3606L19.1799 62.291Z" fill="#087BC1"/>
<path d="M16.687 61.8386C16.5831 61.8386 16.4446 61.8386 16.3408 61.8386C16.1677 61.8386 15.9946 61.8386 15.8561 61.8734C15.7868 61.8734 15.683 61.9082 15.5791 61.943C15.4753 61.9778 15.3368 62.0822 15.2675 62.2562C15.2329 62.3258 15.2329 62.3954 15.2329 62.465C15.2329 62.5346 15.2329 62.6042 15.2675 62.6738C15.3368 62.8826 15.4753 63.0218 15.6137 63.0914C15.7522 63.161 15.8907 63.1958 16.0292 63.2306C16.133 63.2654 16.2715 63.3002 16.4446 63.3002C16.5485 63.3002 16.6524 63.3002 16.7908 63.2306C16.8947 63.1958 17.0332 63.0914 17.1024 62.9522C17.1717 62.7782 17.1717 62.639 17.1717 62.5694V62.4998C17.1717 62.4302 17.1717 62.291 17.0678 62.1518C16.9639 62.0126 16.8255 61.943 16.687 61.943C16.5831 61.943 16.4446 61.9778 16.3754 62.0822L16.8601 62.4998L16.687 62.3606V62.5694C16.7216 62.5694 16.7908 62.5346 16.8601 62.4998L16.687 62.3606V62.5694V62.3954L16.5485 62.4998C16.5831 62.5694 16.6177 62.5694 16.687 62.5694V62.3954L16.5485 62.4998L16.6177 62.465H16.5485V62.4998L16.6177 62.465H16.5485V62.4998V62.5346V62.639V62.6738H16.5831H16.6177H16.5139C16.4446 62.6738 16.3408 62.6738 16.2715 62.639C16.1677 62.6042 16.0638 62.5694 16.0292 62.5346C15.9599 62.4998 15.9599 62.465 15.9599 62.465H15.9253H15.9599H15.9253H15.9599H15.8561L15.9599 62.4998V62.465H15.8561L15.9599 62.4998L15.8561 62.465L15.9253 62.5346L15.9599 62.4998L15.8561 62.465L15.9253 62.5346L15.8907 62.4998V62.5346L15.8561 62.4998V62.5346C15.8561 62.5346 15.9253 62.5346 15.9599 62.4998C16.0984 62.4998 16.2715 62.4998 16.41 62.4998C16.5139 62.4998 16.6177 62.4998 16.7216 62.4998L16.687 61.8386Z" fill="#087BC1"/>
<path d="M15.7178 62.1518C15.7178 62.1866 15.7178 62.2562 15.7178 62.291C15.7178 63.4394 15.9255 64.5529 15.9255 65.7013C15.9255 65.8405 15.9255 65.9797 15.9255 66.1189C15.8562 67.3717 15.4754 68.5897 15.0946 69.8076C14.9561 70.26 14.8176 70.7472 14.8176 71.2344C14.8176 71.478 14.8522 71.7216 14.9561 71.9304L15.5793 71.826C15.51 71.6172 15.4754 71.4084 15.4754 71.1996C15.4754 70.7472 15.6139 70.2948 15.7524 69.8424C16.1332 68.6245 16.5487 67.3717 16.6179 66.0841C16.6179 65.9449 16.6179 65.8057 16.6179 65.6665C16.6179 64.5181 16.4102 63.4045 16.4102 62.2562C16.4102 62.2214 16.4102 62.1518 16.4102 62.117L15.7178 62.1518Z" fill="#087BC1"/>
<path d="M15.7869 62.3258C16.1677 63.7525 16.5485 65.2141 16.5485 66.6409C16.5485 66.9889 16.5139 67.3021 16.4793 67.6501C16.3754 68.3809 16.1331 69.1465 16.1331 69.9468C16.1331 70.086 16.1331 70.26 16.1677 70.3992L16.7909 70.3644C16.7562 70.2252 16.7562 70.086 16.7562 69.9468C16.7562 69.2161 16.9986 68.4505 17.1024 67.6849C17.1371 67.3369 17.1717 66.9889 17.1717 66.6409C17.1717 65.1445 16.7909 63.6829 16.3754 62.2562L15.7869 62.3258Z" fill="#087BC1"/>
<path d="M15.7523 62.1518C16.2716 63.3697 16.3062 64.7269 16.3409 66.0493C16.3409 66.1537 16.3409 66.2929 16.3409 66.3973C16.3409 66.7453 16.3062 67.0933 16.237 67.4413C15.96 68.4852 14.956 69.3204 14.4021 70.3992L14.9906 70.5036C15.51 69.4944 16.5486 68.6592 16.8602 67.4761C16.964 67.1281 16.964 66.7453 16.964 66.3973C16.964 66.2929 16.964 66.1537 16.964 66.0493C16.9294 64.7269 16.8948 63.3349 16.3755 62.0822L15.7523 62.1518Z" fill="#087BC1"/>
<path d="M15.6831 62.291C15.51 63.8569 15.3369 65.4229 15.3369 66.9889C15.3369 67.3369 15.3369 67.6849 15.4754 68.0329C15.5793 68.2765 15.7177 68.4852 15.8562 68.694C16.3063 69.39 16.6871 70.1556 16.9641 70.9212L17.5872 70.8516C17.3103 70.0512 16.9295 69.2856 16.4448 68.5548C16.3063 68.3461 16.1678 68.1721 16.0986 67.9633C15.9947 67.6849 15.9601 67.3369 15.9601 66.9889H15.6485H15.9601V66.9541C15.9601 65.3881 16.1332 63.8221 16.3063 62.291H15.6831Z" fill="#087BC1"/>
<path d="M12.9136 61.595C12.7751 61.5602 12.6366 61.5254 12.4635 61.5254C12.3943 61.5254 12.2904 61.5254 12.2212 61.5602C12.0827 61.595 11.9442 61.6646 11.8403 61.769C11.7365 61.8734 11.6672 62.0474 11.6672 62.2213V62.2562L11.9788 62.2213L11.6672 62.2562C11.6672 62.4997 11.8403 62.6737 11.9788 62.7781C12.1173 62.8825 12.2904 62.9173 12.4635 62.9521C12.5327 62.9521 12.6366 62.9521 12.7059 62.9521C12.879 62.9521 13.0174 62.9173 13.1905 62.8825C13.2598 62.8825 13.2944 62.8477 13.3983 62.8129C13.4675 62.7781 13.5714 62.7085 13.606 62.5693L13.6406 62.5345V62.3606V62.3257V62.291C13.606 62.117 13.5021 61.943 13.3636 61.8386C13.2252 61.7342 13.0867 61.6646 12.9482 61.6298C12.7751 61.595 12.602 61.5602 12.4289 61.5602C12.3596 61.5602 12.325 61.5602 12.2558 61.5602H12.2212V62.1866H12.2558C12.325 62.1866 12.3596 62.1866 12.4289 62.1866C12.5674 62.1866 12.6712 62.1866 12.7751 62.2213C12.8443 62.2213 12.9136 62.2562 12.9482 62.291L13.0174 62.3953L13.329 62.3257H13.0174V62.4301H13.329L13.0174 62.3257L13.1559 62.3953L13.0867 62.2562L13.0174 62.3257L13.1559 62.3953L13.0867 62.2562V62.291V62.2562V62.291V62.2562H13.0521C12.9482 62.291 12.8097 62.291 12.7059 62.291H12.5327C12.4635 62.291 12.3943 62.2561 12.325 62.2213L12.2904 62.1866H12.325H12.3596H12.2558H12.3943H12.2904H12.4289L12.5327 62.117H12.6366C12.7059 62.117 12.8097 62.1518 12.9482 62.1518L12.9136 61.595Z" fill="#087BC1"/>
<path d="M12.498 61.8734C12.6019 62.4998 13.0174 63.0566 13.2943 63.5785C13.6405 64.3093 13.8136 65.0749 13.8136 65.8753C13.8136 66.2929 13.779 66.7105 13.7098 67.1281C13.502 68.3461 13.0174 69.4945 12.498 70.6776L13.1212 70.782C13.6405 69.5989 14.1252 68.4157 14.3329 67.1977C14.4022 66.7801 14.4714 66.3277 14.4714 65.8753C14.4714 65.0401 14.2983 64.2397 13.9175 63.4741C13.6405 62.9174 13.2597 62.3954 13.1558 61.8386L12.498 61.8734Z" fill="#087BC1"/>
<path d="M12.4634 61.943C12.498 62.1866 12.498 62.4302 12.498 62.6738C12.498 63.9961 12.1172 65.2837 11.771 66.6061C11.4941 67.6153 11.2517 68.6941 11.2517 69.738C11.2517 70.2948 11.321 70.8516 11.4941 71.3736L12.1172 71.304C11.9787 70.782 11.9095 70.26 11.9095 69.738C11.9095 68.7289 12.1518 67.6849 12.4288 66.6409C12.775 65.3185 13.1905 63.9961 13.1905 62.639C13.1905 62.3954 13.1905 62.117 13.1558 61.8734L12.4634 61.943Z" fill="#087BC1"/>
<path d="M12.3943 61.943C12.3943 62.1518 12.3596 62.3606 12.3596 62.5693C12.3596 63.4741 12.4635 64.3441 12.4635 65.2141C12.4635 65.4229 12.4635 65.6665 12.4289 65.8753C12.325 67.3021 11.8403 68.7288 11.8403 70.1904C11.8403 70.2252 11.8403 70.26 11.8403 70.2948C11.8403 70.7472 11.9096 71.2344 12.2212 71.652L12.8097 71.478C12.5674 71.13 12.4981 70.7124 12.4981 70.2948C12.4981 70.26 12.4981 70.2252 12.4981 70.1904C12.4981 68.7636 12.9828 67.3717 13.0867 65.9101C13.0867 65.7013 13.1213 65.4577 13.1213 65.2489C13.1213 64.3441 13.0174 63.4741 13.0174 62.6041C13.0174 62.3954 13.0174 62.1866 13.052 61.9778L12.3943 61.943Z" fill="#087BC1"/>
<path d="M12.5327 61.9082C12.9828 63.0565 13.2251 64.2397 13.2251 65.4229C13.2251 66.0145 13.1559 66.6409 13.1559 67.2673C13.1559 67.6153 13.1905 67.9981 13.2251 68.3461C13.3636 69.1812 13.7444 69.9468 14.1253 70.7124L14.7484 70.608C14.3676 69.8424 14.0214 69.0768 13.8829 68.3112C13.8137 67.9633 13.8137 67.6153 13.8137 67.2673C13.8137 66.6757 13.8829 66.0493 13.8829 65.4229C13.8829 64.2049 13.6406 62.9869 13.1905 61.8038L12.5327 61.9082Z" fill="#087BC1"/>
<path d="M9.10519 61.7342C8.86285 61.8734 8.72437 62.1518 8.72437 62.3954C8.72437 62.465 8.72436 62.5346 8.75899 62.6042C8.82823 62.8478 9.03595 63.0218 9.20905 63.1262C9.41678 63.2306 9.58988 63.2654 9.7976 63.2654H9.86684C9.93608 63.2654 10.0053 63.2654 10.0746 63.2306C10.1438 63.1958 10.2823 63.161 10.3515 63.0218C10.4208 62.9174 10.4208 62.813 10.4208 62.7434C10.4208 62.6738 10.4208 62.6042 10.3861 62.5694C10.3515 62.3954 10.3169 62.2562 10.2823 62.0822V62.0474L10.1784 61.8734L10.1092 61.7342L9.7976 61.6646H9.76298H9.72836C9.48602 61.6646 9.27829 61.6646 9.03595 61.6646V62.291C9.27829 62.291 9.48602 62.291 9.72836 62.291V61.9778L9.69374 62.2562L9.9707 62.117L9.65912 62.1866C9.69374 62.3606 9.72836 62.4998 9.76298 62.6738V62.7086H9.90146L9.7976 62.639L9.76298 62.7086H9.90146L9.7976 62.639L9.90146 62.7086L9.86684 62.5694L9.7976 62.639L9.90146 62.7086L9.86684 62.5694H9.83222H9.7976C9.69374 62.5694 9.55526 62.5346 9.48602 62.4998C9.41677 62.465 9.38215 62.4302 9.34753 62.3954V62.3606L9.41678 62.2562L9.10519 61.7342Z" fill="#087BC1"/>
<path d="M9.1398 62.1866C9.17442 62.3605 9.17442 62.5345 9.17442 62.7085C9.17442 63.4045 9.07056 64.1353 9.07056 64.9009C9.07056 65.1445 9.07056 65.3881 9.10518 65.6317C9.17442 66.2233 9.38214 66.7453 9.55524 67.3021C9.76297 67.9633 9.90145 68.6592 9.90145 69.3552V69.39C9.90145 70.086 9.72835 70.782 9.34752 71.3736L9.93607 71.5128C10.3515 70.8864 10.5246 70.1208 10.5246 69.39H10.213H10.5246V69.3552C10.5246 68.6244 10.3861 67.9285 10.1784 67.2325C10.0053 66.6757 9.83221 66.1537 9.76297 65.5969C9.72835 65.3533 9.72835 65.1445 9.72835 64.9009C9.72835 64.2049 9.83221 63.4741 9.83221 62.7085C9.83221 62.5345 9.83221 62.3257 9.79759 62.1517L9.1398 62.1866Z" fill="#087BC1"/>
<path d="M9.17455 62.2562V62.3258C9.17455 62.813 9.34766 63.3001 9.45152 63.7177C9.65924 64.4485 9.79772 65.2489 9.79772 65.9797C9.79772 66.7105 9.65924 67.4413 9.38228 68.1373C9.07069 68.9029 8.55138 69.5988 8.10132 70.3296L8.68987 70.4688C9.10531 69.738 9.65924 69.0421 10.0054 68.2417C10.317 67.5109 10.4209 66.7801 10.4209 66.0145C10.4209 65.2141 10.2824 64.4137 10.0747 63.6829C9.93621 63.2306 9.79772 62.7782 9.79772 62.3606V62.291L9.17455 62.2562Z" fill="#087BC1"/>
<path d="M9.27829 62.2214C9.27829 62.7086 9.31291 63.2305 9.31291 63.7177C9.31291 64.3093 9.27829 64.9357 9.20905 65.5273C9.07057 66.6061 8.79361 67.7197 8.23968 68.6593C7.92809 69.1813 7.47803 69.7728 7.47803 70.434C7.47803 70.4688 7.47803 70.5384 7.47803 70.5732L8.1012 70.5384C8.1012 70.5036 8.1012 70.4688 8.1012 70.434C8.1012 69.8772 8.51664 69.3552 8.82823 68.7637C9.41677 67.7545 9.69374 66.6409 9.83222 65.5273C9.90146 64.9009 9.93608 64.3093 9.93608 63.6829C9.93608 63.161 9.93608 62.6738 9.90146 62.1866L9.27829 62.2214Z" fill="#087BC1"/>
<path d="M9.13981 62.291C9.03595 63.0217 9.00133 63.7525 9.00133 64.4833C9.00133 65.1445 9.03595 65.8057 9.03595 66.4669C9.03595 67.3369 9.00133 68.2069 8.82823 69.0768C8.79361 69.3204 8.72437 69.564 8.72437 69.8424C8.72437 69.8772 8.72437 69.912 8.72437 69.9468C8.75899 70.2948 8.89747 70.6428 8.89747 70.9212C8.89747 70.9908 8.89747 71.0604 8.86285 71.1648L9.48602 71.2344C9.52064 71.13 9.52064 71.0256 9.52064 70.9212C9.52064 70.5732 9.38215 70.2252 9.34753 69.912V69.8076C9.34753 69.564 9.41677 69.3204 9.4514 69.0768C9.6245 68.2069 9.65912 67.3021 9.65912 66.4321C9.65912 65.7709 9.6245 65.1097 9.6245 64.4485C9.6245 63.7177 9.65912 63.0217 9.76298 62.291H9.13981Z" fill="#087BC1"/>
<path d="M6.75098 61.595C6.64712 61.595 6.54325 61.5602 6.43939 61.5602C6.33553 61.5602 6.19705 61.5602 6.05857 61.6298C5.92008 61.6646 5.7816 61.769 5.67774 61.8734C5.57388 61.9778 5.50464 62.1518 5.50464 62.3257H5.81622L5.50464 62.291V62.3257C5.50464 62.6041 5.67774 62.8129 5.85084 62.9521C6.02395 63.0565 6.19705 63.1261 6.33553 63.1609C6.40477 63.1957 6.50863 63.1957 6.64712 63.1957C6.71636 63.1957 6.82022 63.1957 6.92408 63.1261C7.09718 63.0565 7.20104 62.8825 7.23566 62.7433C7.27028 62.6041 7.3049 62.4649 7.3049 62.3605V62.291C7.3049 62.1866 7.3049 62.0126 7.20104 61.8386C7.09718 61.6646 6.9587 61.5254 6.71636 61.5254L6.57787 61.5602L6.75098 62.1866L6.71636 62.0474V62.1866H6.75098L6.71636 62.0474V62.1866V62.117L6.64712 62.1518C6.64712 62.1518 6.64712 62.1518 6.71636 62.1866V62.117L6.64712 62.1518C6.64712 62.1518 6.68174 62.2213 6.68174 62.3257H6.99332H6.68174V62.3953C6.68174 62.4649 6.68174 62.5345 6.64712 62.5693V62.6041L6.68174 62.6389V62.6041L6.71636 62.6389V62.6041V62.6389V62.6041V62.6389V62.6041C6.68174 62.6041 6.64712 62.6041 6.57787 62.5693C6.43939 62.5345 6.33553 62.4997 6.26629 62.4649L6.19705 62.3953V62.3605H5.88546L6.19705 62.3953V62.3605H5.88546L6.19705 62.3953L6.23167 62.3605L6.33553 62.291C6.37015 62.291 6.43939 62.2561 6.50863 62.2561C6.57787 62.2561 6.64712 62.2561 6.75098 62.2561V61.595Z" fill="#087BC1"/>
<path d="M6.05871 62.2214C6.05871 62.7434 5.92023 63.2306 5.92023 63.7525C5.92023 63.7873 5.92023 63.8569 5.92023 63.8917C5.92023 64.4833 6.05871 65.0749 6.16257 65.6317C6.30105 66.3973 6.40491 67.1629 6.40491 67.9285C6.40491 69.0073 6.19719 70.086 5.60864 71.0256L6.19719 71.1648C6.82036 70.1556 7.02808 69.0421 7.02808 67.9285C7.02808 67.1629 6.92422 66.3625 6.78574 65.5969C6.68188 65.0053 6.5434 64.4485 6.5434 63.8917C6.5434 63.8569 6.5434 63.7873 6.5434 63.7525C6.57802 63.2654 6.68188 62.7434 6.68188 62.2214V62.1866L6.05871 62.2214Z" fill="#087BC1"/>
<path d="M6.09326 62.2214C6.09326 62.2562 6.09326 62.3258 6.09326 62.3606C6.09326 62.7086 6.26636 62.9869 6.37023 63.2653C6.68181 63.9961 6.64719 64.7965 6.64719 65.5969C6.68181 67.6501 7.13188 69.6336 7.58194 71.652L8.20511 71.6172C7.75505 69.6336 7.3396 67.6153 7.30498 65.6317C7.27036 64.8313 7.3396 63.9961 6.9934 63.2305C6.88953 62.9522 6.71643 62.6738 6.71643 62.4302C6.71643 62.3954 6.71643 62.3606 6.71643 62.3258L6.09326 62.2214Z" fill="#087BC1"/>
<path d="M5.88546 62.1866C5.81622 63.4393 5.7816 64.6921 5.71236 65.9101C5.67774 66.6757 5.64312 67.4065 5.4354 68.1373C5.29692 68.5897 5.08919 69.0421 4.81223 69.4248C4.60451 69.7728 4.29292 70.1208 4.2583 70.5732V70.6428H4.88147V70.608C4.88147 70.2948 5.12381 69.9468 5.36616 69.5988C5.64312 69.1465 5.88546 68.6941 6.02395 68.2069C6.26629 67.4413 6.30091 66.6757 6.33553 65.9101C6.40477 64.6573 6.43939 63.4045 6.50863 62.1866H5.88546Z" fill="#087BC1"/>
<path d="M6.05853 62.291C6.02391 63.7177 5.98929 65.1793 5.98929 66.6409C5.98929 67.0933 5.98929 67.5457 5.98929 67.9981C5.98929 68.1721 5.98929 68.3809 5.98929 68.5548C5.98929 68.9376 5.95467 69.3204 5.88543 69.7032C5.81619 70.0512 5.64309 70.434 5.5046 70.782L5.46998 70.8864L5.5046 70.782C5.36612 71.0604 5.26226 71.3736 5.12378 71.652L5.74695 71.7564C5.88543 71.478 5.98929 71.1648 6.12777 70.8864C6.26626 70.5384 6.43936 70.1556 6.5086 69.7728C6.61246 69.3552 6.61246 68.9724 6.61246 68.5548C6.61246 68.3809 6.61246 68.1721 6.61246 67.9981C6.61246 67.5457 6.61246 67.0933 6.61246 66.6409C6.61246 65.2141 6.64708 63.7525 6.6817 62.3258L6.05853 62.291Z" fill="#087BC1"/>
<path d="M3.80822 61.6298C3.66974 61.6298 3.53126 61.595 3.39278 61.595C3.18505 61.595 2.97733 61.6298 2.73499 61.6646C2.66574 61.6646 2.56188 61.6994 2.4234 61.769C2.28492 61.8734 2.18106 61.9778 2.14644 62.1518L2.11182 62.3258C2.11182 62.5694 2.21568 62.7434 2.38878 62.8825C2.5965 63.0217 2.80423 63.0913 2.97733 63.0913H3.08119C3.35815 63.0913 3.6005 63.0217 3.84284 62.9173C3.9467 62.8477 4.11981 62.7781 4.18905 62.5694C4.22367 62.4998 4.22367 62.4302 4.22367 62.3606C4.22367 62.117 4.08519 61.943 3.87746 61.8038C3.73898 61.7342 3.63512 61.6994 3.49664 61.6994C3.39278 61.6994 3.32353 61.6994 3.21967 61.7342L3.39278 62.3606H3.49664H3.56588L3.6005 62.3258H3.56588V62.3606L3.6005 62.3258H3.56588H3.66974L3.56588 62.291V62.3258H3.66974L3.56588 62.291L3.63512 62.3258L3.56588 62.291L3.63512 62.3258L3.56588 62.291L3.49664 62.3258C3.35815 62.3954 3.18505 62.4302 3.01195 62.4302H2.94271C2.83885 62.4302 2.73499 62.3954 2.70037 62.3606L2.66574 62.291C2.66574 62.291 2.70037 62.291 2.76961 62.2562C2.94271 62.2214 3.11581 62.2214 3.28891 62.2214C3.39278 62.2214 3.49664 62.2214 3.6005 62.2562L3.80822 61.6298Z" fill="#087BC1"/>
<path d="M2.80421 62.1866C2.83883 62.4997 2.87345 62.8477 2.87345 63.1609C2.87345 63.4045 2.87345 63.6829 2.87345 63.9265C2.87345 64.3789 2.87345 64.7965 2.97732 65.2489C3.04656 65.6317 3.18504 66.0145 3.2889 66.3973C3.39276 66.7801 3.42738 67.1977 3.42738 67.5805C3.42738 68.2069 3.32352 68.868 3.08118 69.4596C2.83883 70.0512 2.49263 70.6776 2.45801 71.3736H3.08118C3.1158 70.782 3.462 70.1904 3.70435 69.564C3.94669 68.9376 4.08517 68.2416 4.08517 67.5805C4.08517 67.1629 4.05055 66.7453 3.94669 66.3277C3.84283 65.9449 3.70435 65.5621 3.6351 65.1793C3.56586 64.7617 3.53124 64.3441 3.53124 63.9265C3.53124 63.6829 3.53124 63.4045 3.53124 63.1609C3.53124 62.8129 3.53124 62.4997 3.462 62.1517L2.80421 62.1866Z" fill="#087BC1"/>
<path d="M2.80423 62.1517C2.49265 62.6737 2.35417 63.2653 2.35417 63.8221H2.63113H2.35417H2.63113H2.35417C2.35417 64.9357 2.90809 65.9797 3.0812 67.0237C3.11582 67.2325 3.11582 67.4065 3.11582 67.6153C3.11582 68.694 2.70037 69.7728 1.93872 70.6428L2.49265 70.8168C3.32354 69.912 3.77361 68.7636 3.77361 67.6153C3.77361 67.4065 3.77361 67.1977 3.73899 66.9889C3.56588 65.8753 3.01196 64.8661 3.01196 63.8221H2.73499H3.01196H2.73499H3.01196C3.01196 63.3001 3.15044 62.7433 3.4274 62.2561L2.80423 62.1517Z" fill="#087BC1"/>
<path d="M2.83887 62.3258C3.21969 62.8826 3.42742 63.5437 3.42742 64.2049C3.42742 64.4485 3.3928 64.6573 3.35817 64.9009C3.28893 65.1793 3.18507 65.4577 3.15045 65.7709C3.15045 65.8753 3.11583 65.9797 3.11583 66.0493C3.11583 66.8845 3.53128 67.6501 3.70438 68.4157C3.77362 68.7637 3.80824 69.0769 3.80824 69.4248C3.80824 69.8424 3.739 70.2948 3.63514 70.7124L4.25831 70.782C4.39679 70.3296 4.46603 69.8772 4.46603 69.4248C4.46603 69.0769 4.43141 68.6941 4.32755 68.3461C4.11983 67.5457 3.739 66.7801 3.739 66.0145C3.739 65.9101 3.739 65.8405 3.739 65.7361C3.77362 65.4577 3.87748 65.1793 3.94672 64.9009C4.01596 64.6573 4.01596 64.4137 4.01596 64.1701C4.01596 63.4741 3.80824 62.7434 3.3928 62.117L2.83887 62.3258Z" fill="#087BC1"/>
<path d="M2.90817 62.291C2.63121 63.1261 2.35424 63.9613 2.07728 64.8313C1.9388 65.2489 1.80031 65.7013 1.73107 66.1537C1.69645 66.3973 1.69645 66.6409 1.69645 66.8845C1.69645 67.4413 1.76569 67.9981 1.76569 68.52C1.76569 68.5548 1.76569 68.6244 1.76569 68.6592C1.76569 69.4248 1.59259 70.1904 1.28101 70.8864L1.90417 70.9908C2.21576 70.26 2.38886 69.4596 2.42348 68.6592C2.42348 68.6244 2.42348 68.5548 2.42348 68.52C2.42348 67.9633 2.35424 67.4065 2.35424 66.8845C2.35424 66.6409 2.35424 66.4321 2.38886 66.1885C2.4581 65.7709 2.59659 65.3185 2.73507 64.9009C3.01203 64.0657 3.289 63.2305 3.56596 62.3606L2.90817 62.291Z" fill="#087BC1"/>
<path d="M0 15.0682V12.667C0 11.1706 1.21172 9.95264 2.7004 9.95264H23.3342C24.8229 9.95264 26.0346 11.1706 26.0346 12.667V15.0682H0Z" fill="#0DFFF8"/>
<path d="M26 58.115V59.2286C26 60.725 24.7883 61.943 23.2996 61.943H2.7004C1.21172 61.943 0 60.725 0 59.2286V56.8275H26V58.115Z" fill="#0A6EA0"/>
<path d="M26 37.2006H0V47.4316H26V37.2006Z" fill="#066489"/>
<path d="M26 25.16H0V26.1344H26V25.16Z" fill="white"/>
<path d="M26 21.0536H0V22.3412H26V21.0536Z" fill="white"/>
<path d="M26 41.9681H0V43.2557H26V41.9681Z" fill="white"/>
<path d="M26 47.2576H0V48.5452H26V47.2576Z" fill="white"/>
<path d="M25.5846 60.6554H0.415527C0.900214 61.421 1.73111 61.943 2.70048 61.943H23.3343C24.2691 61.9082 25.1346 61.421 25.5846 60.6554Z" fill="white"/>
<path d="M25.5845 60.6554L0.346191 60.6206L0.380812 60.6554C0.865499 61.421 1.69639 61.943 2.66577 61.943H23.2996C24.3036 61.943 25.1345 61.421 25.5845 60.6554L25.6192 60.6206L25.5845 60.6554C25.0999 61.3862 24.269 61.9082 23.2996 61.9082H2.70039C1.76563 61.9082 0.93474 61.3862 0.450053 60.6554H0.415432V60.6902L25.5845 60.6554Z" fill="#087BC1"/>
<path d="M26 26.1344H0V37.3398H26V26.1344Z" fill="#8FFAFF"/>
<path d="M26 48.5452H0V56.8275H26V48.5452Z" fill="#8FFAFF"/>
<path d="M26 20.984H0V25.16H26V20.984Z" fill="#087BC1"/>
<path d="M26 14.7202H0V20.9841H26V14.7202Z" fill="#8FFAFF"/>
</svg>
