<svg width="90" height="41" viewBox="0 0 90 41" fill="none" xmlns="http://www.w3.org/2000/svg">
<path d="M7.06831 40.7642L0.862045 35.0784L42.372 35.0784L51.9604 40.7642L7.06831 40.7642Z" fill="#C7A6FF"/>
<path d="M51.9548 6.21648L51.9565 40.7676L41.2651 35.1376L41.2651 0.768013L51.9548 6.21648Z" fill="#C7A6FF"/>
<path d="M89.4919 6.37868L89.4919 40.7642L87.497 38.4643L87.497 3.74125L89.4919 6.37868Z" fill="#C7A6FF"/>
<path d="M87.497 3.74121L47.0938 3.74122V38.0849H87.497V22.5188V3.74121Z" fill="#AE80FF"/>
<path d="M56.7928 28.3311V13.9431H65.4608V16.0991H59.3448V19.7731H64.5148V21.9291H59.3448V26.1751H65.6808V28.3311H56.7928ZM72.8327 28.5951C71.8647 28.5951 70.926 28.4117 70.0167 28.0451C69.122 27.6784 68.33 27.1577 67.6407 26.4831L69.1367 24.7451C69.65 25.2291 70.2367 25.6251 70.8967 25.9331C71.5567 26.2264 72.2167 26.3731 72.8767 26.3731C73.698 26.3731 74.3214 26.2044 74.7467 25.8671C75.172 25.5297 75.3847 25.0824 75.3847 24.5251C75.3847 24.2317 75.326 23.9824 75.2087 23.7771C75.106 23.5717 74.952 23.3957 74.7467 23.2491C74.556 23.0877 74.3214 22.9411 74.0427 22.8091C73.7787 22.6771 73.4854 22.5451 73.1627 22.4131L71.1827 21.5551C70.8307 21.4084 70.4787 21.2251 70.1267 21.0051C69.7894 20.7851 69.4814 20.5211 69.2027 20.2131C68.924 19.9051 68.6967 19.5457 68.5207 19.1351C68.3594 18.7244 68.2787 18.2551 68.2787 17.7271C68.2787 17.1551 68.396 16.6271 68.6307 16.1431C68.88 15.6444 69.2174 15.2117 69.6427 14.8451C70.068 14.4784 70.574 14.1924 71.1607 13.9871C71.762 13.7817 72.4147 13.6791 73.1187 13.6791C73.9547 13.6791 74.7614 13.8477 75.5387 14.1851C76.316 14.5077 76.9834 14.9477 77.5407 15.5051L76.2427 17.1331C75.7734 16.7517 75.2894 16.4511 74.7907 16.2311C74.292 16.0111 73.7347 15.9011 73.1187 15.9011C72.4294 15.9011 71.8794 16.0551 71.4687 16.3631C71.058 16.6564 70.8527 17.0671 70.8527 17.5951C70.8527 17.8737 70.9114 18.1157 71.0287 18.3211C71.1607 18.5117 71.3294 18.6877 71.5347 18.8491C71.7547 18.9957 72.004 19.1351 72.2827 19.2671C72.5614 19.3844 72.8474 19.5017 73.1407 19.6191L75.0987 20.4331C75.524 20.6091 75.9127 20.8144 76.2647 21.0491C76.6167 21.2837 76.9174 21.5551 77.1667 21.8631C77.4307 22.1711 77.636 22.5304 77.7827 22.9411C77.9294 23.3371 78.0027 23.7991 78.0027 24.3271C78.0027 24.9137 77.8854 25.4637 77.6507 25.9771C77.416 26.4904 77.0714 26.9451 76.6167 27.3411C76.1767 27.7224 75.634 28.0304 74.9887 28.2651C74.358 28.4851 73.6394 28.5951 72.8327 28.5951Z" fill="#3D206C"/>
<path d="M41.2653 0.768066H0.862061V35.2281H41.2653V0.768066Z" fill="#E0CEFF"/>
<path d="M9.60036 25.416V10.984H17.9164V12.524H11.4264V17.056H16.9044V18.618H11.4264V23.854H18.1364V25.416H9.60036ZM21.2019 25.416V10.984H23.0939L28.3079 20.048L29.8699 23.04H29.9579C29.9139 22.3067 29.8626 21.5513 29.8039 20.774C29.7599 19.982 29.7379 19.2047 29.7379 18.442V10.984H31.4759V25.416H29.5839L24.3479 16.33L22.7859 13.36H22.6979C22.7566 14.0933 22.8079 14.8413 22.8519 15.604C22.9106 16.352 22.9399 17.1073 22.9399 17.87V25.416H21.2019Z" fill="#3D206C"/>
<path d="M49.562 40.7642L47.0569 38.085L87.7401 38.085L89.4919 40.7642L49.562 40.7642Z" fill="#C7A6FF"/>
</svg>
