<svg width="100" height="41" viewBox="0 0 100 41" fill="none" xmlns="http://www.w3.org/2000/svg">
<path d="M48.0554 4.02441H0.919189V37.9589H48.0554V4.02441Z" fill="#AE80FF"/>
<path d="M12.5738 28.4934V14.1054H21.2418V16.2614H15.1258V19.9354H20.2958V22.0914H15.1258V26.3374H21.4618V28.4934H12.5738ZM24.4117 28.4934V14.1054H27.0297L31.5177 22.2014L32.9917 25.2594H33.0797C33.021 24.5114 32.9477 23.7121 32.8597 22.8614C32.7864 21.9961 32.7497 21.1601 32.7497 20.3534V14.1054H35.1917V28.4934H32.5737L28.0857 20.3974L26.6117 17.3394H26.5237C26.5824 18.1021 26.6484 18.9014 26.7217 19.7374C26.8097 20.5734 26.8537 21.3947 26.8537 22.2014V28.4934H24.4117Z" fill="#3D206C"/>
<path d="M99.8684 8.55804L99.8684 39.998L89.217 34.0864L89.217 0.0831798L99.8684 8.55804Z" fill="#C7A6FF"/>
<path d="M89.2169 0.231445H43.3091V34.163H89.2169V18.5879V0.231445Z" fill="#E0CEFF"/>
<path d="M55.9842 24.6992V10.2672H64.3002V11.8072H57.8102V16.3392H63.2882V17.9012H57.8102V23.1372H64.5202V24.6992H55.9842ZM71.5897 24.9632C70.5777 24.9632 69.639 24.7726 68.7737 24.3912C67.9084 24.0099 67.1604 23.4892 66.5297 22.8292L67.6297 21.5532C68.143 22.0959 68.7444 22.5359 69.4337 22.8732C70.1377 23.1959 70.8637 23.3572 71.6117 23.3572C72.565 23.3572 73.3057 23.1446 73.8337 22.7192C74.3617 22.2792 74.6257 21.7072 74.6257 21.0032C74.6257 20.6366 74.5597 20.3286 74.4277 20.0792C74.3104 19.8152 74.1417 19.5952 73.9217 19.4192C73.7164 19.2286 73.467 19.0599 73.1737 18.9132C72.8804 18.7666 72.565 18.6126 72.2277 18.4512L70.1597 17.5492C69.8224 17.4026 69.4777 17.2266 69.1257 17.0212C68.7737 16.8159 68.4584 16.5666 68.1797 16.2732C67.901 15.9799 67.6737 15.6352 67.4977 15.2392C67.3217 14.8286 67.2337 14.3592 67.2337 13.8312C67.2337 13.2886 67.3437 12.7826 67.5637 12.3132C67.7984 11.8439 68.1137 11.4406 68.5097 11.1032C68.9204 10.7512 69.397 10.4799 69.9397 10.2892C70.497 10.0986 71.1057 10.0032 71.7657 10.0032C72.631 10.0032 73.4304 10.1719 74.1637 10.5092C74.897 10.8319 75.5204 11.2572 76.0337 11.7852L75.0437 12.9732C74.6037 12.5479 74.1124 12.2179 73.5697 11.9832C73.0417 11.7339 72.4404 11.6092 71.7657 11.6092C70.959 11.6092 70.3064 11.7999 69.8077 12.1812C69.3237 12.5479 69.0817 13.0612 69.0817 13.7212C69.0817 14.0732 69.1477 14.3739 69.2797 14.6232C69.4264 14.8579 69.617 15.0706 69.8517 15.2612C70.0864 15.4372 70.343 15.5986 70.6217 15.7452C70.9004 15.8772 71.1864 16.0019 71.4797 16.1192L73.5257 16.9992C73.9364 17.1752 74.325 17.3806 74.6917 17.6152C75.0584 17.8352 75.3737 18.0992 75.6377 18.4072C75.9017 18.7006 76.107 19.0526 76.2537 19.4632C76.415 19.8592 76.4957 20.3212 76.4957 20.8492C76.4957 21.4212 76.3784 21.9566 76.1437 22.4552C75.9237 22.9539 75.601 23.3939 75.1757 23.7752C74.7504 24.1419 74.237 24.4352 73.6357 24.6552C73.0344 24.8606 72.3524 24.9632 71.5897 24.9632Z" fill="#3D206C"/>
<path d="M50.3203 40.0676L43.3092 34.163L89.2583 34.0711L99.9182 40.0676L50.3203 40.0676Z" fill="#C7A6FF"/>
<path d="M4.27315 40.0835L0.918117 37.9592L48.4215 37.9592L52.0085 40.0689L4.27315 40.0835Z" fill="#C7A6FF"/>
</svg>
