<svg width="33" height="24" viewBox="0 0 33 24" fill="none" xmlns="http://www.w3.org/2000/svg">
<rect x="0.931152" y="0.5" width="31" height="23" rx="1.5" fill="white" stroke="#4C2A85"/>
<path d="M9.07721 17.5V7.004H15.1252V8.124H10.4052V11.42H14.3892V12.556H10.4052V16.364H15.2852V17.5H9.07721ZM20.4267 17.692C19.6907 17.692 19.008 17.5533 18.3787 17.276C17.7494 16.9987 17.2054 16.62 16.7467 16.14L17.5467 15.212C17.92 15.6067 18.3574 15.9267 18.8587 16.172C19.3707 16.4067 19.8987 16.524 20.4427 16.524C21.136 16.524 21.6747 16.3693 22.0587 16.06C22.4427 15.74 22.6347 15.324 22.6347 14.812C22.6347 14.5453 22.5867 14.3213 22.4907 14.14C22.4054 13.948 22.2827 13.788 22.1227 13.66C21.9734 13.5213 21.792 13.3987 21.5787 13.292C21.3654 13.1853 21.136 13.0733 20.8907 12.956L19.3867 12.3C19.1414 12.1933 18.8907 12.0653 18.6347 11.916C18.3787 11.7667 18.1494 11.5853 17.9467 11.372C17.744 11.1587 17.5787 10.908 17.4507 10.62C17.3227 10.3213 17.2587 9.98 17.2587 9.596C17.2587 9.20133 17.3387 8.83333 17.4987 8.492C17.6694 8.15067 17.8987 7.85733 18.1867 7.612C18.4854 7.356 18.832 7.15867 19.2267 7.02C19.632 6.88133 20.0747 6.812 20.5547 6.812C21.184 6.812 21.7654 6.93467 22.2987 7.18C22.832 7.41467 23.2854 7.724 23.6587 8.108L22.9387 8.972C22.6187 8.66267 22.2614 8.42267 21.8667 8.252C21.4827 8.07067 21.0454 7.98 20.5547 7.98C19.968 7.98 19.4934 8.11867 19.1307 8.396C18.7787 8.66267 18.6027 9.036 18.6027 9.516C18.6027 9.772 18.6507 9.99067 18.7467 10.172C18.8534 10.3427 18.992 10.4973 19.1627 10.636C19.3334 10.764 19.52 10.8813 19.7227 10.988C19.9254 11.084 20.1334 11.1747 20.3467 11.26L21.8347 11.9C22.1334 12.028 22.416 12.1773 22.6827 12.348C22.9494 12.508 23.1787 12.7 23.3707 12.924C23.5627 13.1373 23.712 13.3933 23.8187 13.692C23.936 13.98 23.9947 14.316 23.9947 14.7C23.9947 15.116 23.9094 15.5053 23.7387 15.868C23.5787 16.2307 23.344 16.5507 23.0347 16.828C22.7254 17.0947 22.352 17.308 21.9147 17.468C21.4774 17.6173 20.9814 17.692 20.4267 17.692Z" fill="black"/>
</svg>
