<svg width="33" height="25" viewBox="0 0 33 25" fill="none" xmlns="http://www.w3.org/2000/svg">
<g opacity="0.8">
<rect x="0.931152" y="1.35107" width="31" height="23" rx="1.5" fill="#3D206C" stroke="#38235B"/>
<path d="M8.3399 18.3511V7.85507H14.3879V8.97507H9.6679V12.2711H13.6519V13.4071H9.6679V17.2151H14.5479V18.3511H8.3399ZM16.7774 18.3511V7.85507H18.1534L21.9454 14.4471L23.0814 16.6231H23.1454C23.1134 16.0897 23.0761 15.5404 23.0334 14.9751C23.0014 14.3991 22.9854 13.8337 22.9854 13.2791V7.85507H24.2494V18.3511H22.8734L19.0654 11.7431L17.9294 9.58307H17.8654C17.9081 10.1164 17.9454 10.6604 17.9774 11.2151C18.0201 11.7591 18.0414 12.3084 18.0414 12.8631V18.3511H16.7774Z" fill="#E0CEFF"/>
<path d="M8.3399 18.3511H7.3399V19.3511H8.3399V18.3511ZM8.3399 7.85507V6.85507H7.3399V7.85507H8.3399ZM14.3879 7.85507H15.3879V6.85507H14.3879V7.85507ZM14.3879 8.97507V9.97507H15.3879V8.97507H14.3879ZM9.6679 8.97507V7.97507H8.6679V8.97507H9.6679ZM9.6679 12.2711H8.6679V13.2711H9.6679V12.2711ZM13.6519 12.2711H14.6519V11.2711H13.6519V12.2711ZM13.6519 13.4071V14.4071H14.6519V13.4071H13.6519ZM9.6679 13.4071V12.4071H8.6679V13.4071H9.6679ZM9.6679 17.2151H8.6679V18.2151H9.6679V17.2151ZM14.5479 17.2151H15.5479V16.2151H14.5479V17.2151ZM14.5479 18.3511V19.3511H15.5479V18.3511H14.5479ZM9.3399 18.3511V7.85507H7.3399V18.3511H9.3399ZM8.3399 8.85507H14.3879V6.85507H8.3399V8.85507ZM13.3879 7.85507V8.97507H15.3879V7.85507H13.3879ZM14.3879 7.97507H9.6679V9.97507H14.3879V7.97507ZM8.6679 8.97507V12.2711H10.6679V8.97507H8.6679ZM9.6679 13.2711H13.6519V11.2711H9.6679V13.2711ZM12.6519 12.2711V13.4071H14.6519V12.2711H12.6519ZM13.6519 12.4071H9.6679V14.4071H13.6519V12.4071ZM8.6679 13.4071V17.2151H10.6679V13.4071H8.6679ZM9.6679 18.2151H14.5479V16.2151H9.6679V18.2151ZM13.5479 17.2151V18.3511H15.5479V17.2151H13.5479ZM14.5479 17.3511H8.3399V19.3511H14.5479V17.3511ZM16.7774 18.3511H15.7774V19.3511H16.7774V18.3511ZM16.7774 7.85507V6.85507H15.7774V7.85507H16.7774ZM18.1534 7.85507L19.0202 7.35644L18.7318 6.85507H18.1534V7.85507ZM21.9454 14.4471L22.8319 13.9843L22.8224 13.9662L22.8122 13.9484L21.9454 14.4471ZM23.0814 16.6231L22.1949 17.0859L22.4754 17.6231H23.0814V16.6231ZM23.1454 16.6231V17.6231H24.2072L24.1436 16.5632L23.1454 16.6231ZM23.0334 14.9751L22.0349 15.0305L22.0355 15.0404L22.0362 15.0503L23.0334 14.9751ZM22.9854 7.85507V6.85507H21.9854V7.85507H22.9854ZM24.2494 7.85507H25.2494V6.85507H24.2494V7.85507ZM24.2494 18.3511V19.3511H25.2494V18.3511H24.2494ZM22.8734 18.3511L22.007 18.8504L22.2955 19.3511H22.8734V18.3511ZM19.0654 11.7431L18.1803 12.2086L18.1893 12.2256L18.199 12.2424L19.0654 11.7431ZM17.9294 9.58307L18.8145 9.1176L18.5333 8.58307H17.9294V9.58307ZM17.8654 9.58307V8.58307H16.7822L16.8686 9.66282L17.8654 9.58307ZM17.9774 11.2151L16.9791 11.2727L16.9797 11.283L16.9805 11.2933L17.9774 11.2151ZM18.0414 18.3511V19.3511H19.0414V18.3511H18.0414ZM17.7774 18.3511V7.85507H15.7774V18.3511H17.7774ZM16.7774 8.85507H18.1534V6.85507H16.7774V8.85507ZM17.2866 8.3537L21.0786 14.9457L22.8122 13.9484L19.0202 7.35644L17.2866 8.3537ZM21.0589 14.9099L22.1949 17.0859L23.9679 16.1603L22.8319 13.9843L21.0589 14.9099ZM23.0814 17.6231H23.1454V15.6231H23.0814V17.6231ZM24.1436 16.5632C24.1113 16.0244 24.0736 15.47 24.0306 14.8998L22.0362 15.0503C22.0785 15.6109 22.1155 16.1551 22.1472 16.683L24.1436 16.5632ZM24.0319 14.9196C24.0008 14.3613 23.9854 13.8145 23.9854 13.2791H21.9854C21.9854 13.853 22.002 14.4368 22.0349 15.0305L24.0319 14.9196ZM23.9854 13.2791V7.85507H21.9854V13.2791H23.9854ZM22.9854 8.85507H24.2494V6.85507H22.9854V8.85507ZM23.2494 7.85507V18.3511H25.2494V7.85507H23.2494ZM24.2494 17.3511H22.8734V19.3511H24.2494V17.3511ZM23.7398 17.8518L19.9318 11.2438L18.199 12.2424L22.007 18.8504L23.7398 17.8518ZM19.9505 11.2776L18.8145 9.1176L17.0443 10.0485L18.1803 12.2086L19.9505 11.2776ZM17.9294 8.58307H17.8654V10.5831H17.9294V8.58307ZM16.8686 9.66282C16.9106 10.1885 16.9475 10.7251 16.9791 11.2727L18.9757 11.1575C18.9433 10.5957 18.9055 10.0443 18.8622 9.50333L16.8686 9.66282ZM16.9805 11.2933C17.0211 11.8108 17.0414 12.3341 17.0414 12.8631H19.0414C19.0414 12.2827 19.0191 11.7073 18.9743 11.1369L16.9805 11.2933ZM17.0414 12.8631V18.3511H19.0414V12.8631H17.0414ZM18.0414 17.3511H16.7774V19.3511H18.0414V17.3511Z" fill="#38235B"/>
</g>
</svg>
