<svg width="90" height="40" viewBox="0 0 90 40" fill="none" xmlns="http://www.w3.org/2000/svg">
<path d="M42.8669 3.59741H0.867188V38.0595H42.8669V3.59741Z" fill="#AE80FF"/>
<path d="M3.93464 40L0.867187 38.0596L44.2988 38.0596L47.5784 39.9867L3.93464 40Z" fill="#C7A6FF"/>
<path d="M11.5824 27.8928V14.8128H19.4624V16.7728H13.9024V20.1128H18.6024V22.0728H13.9024V25.9328H19.6624V27.8928H11.5824ZM22.3441 27.8928V14.8128H24.7241L28.8041 22.1728L30.1441 24.9528H30.2241C30.1707 24.2728 30.1041 23.5462 30.0241 22.7728C29.9574 21.9862 29.9241 21.2262 29.9241 20.4928V14.8128H32.1441V27.8928H29.7641L25.6841 20.5328L24.3441 17.7528H24.2641C24.3174 18.4462 24.3774 19.1728 24.4441 19.9328C24.5241 20.6928 24.5641 21.4395 24.5641 22.1728V27.8928H22.3441Z" fill="#3D206C"/>
<path d="M45.1546 39.9856L39.051 34.592L79.1343 34.592L89.4998 39.9856L45.1546 39.9856Z" fill="#C7A6FF"/>
<path d="M89.4919 8.67871L89.4919 39.9824L79.0511 34.8213L79.0511 -5.31143e-05L89.4919 8.67871Z" fill="#C7A6FF"/>
<path d="M79.051 0.132568H39.051V34.5921H79.051V18.7746V0.132568Z" fill="#E0CEFF"/>
<path d="M50.0471 24.4268V11.3068H57.6071V12.7068H51.7071V16.8268H56.6871V18.2468H51.7071V23.0068H57.8071V24.4268H50.0471ZM64.2339 24.6668C63.3139 24.6668 62.4606 24.4934 61.6739 24.1468C60.8873 23.8001 60.2073 23.3268 59.6339 22.7268L60.6339 21.5668C61.1006 22.0601 61.6473 22.4601 62.2739 22.7668C62.9139 23.0601 63.5739 23.2068 64.2539 23.2068C65.1206 23.2068 65.7939 23.0134 66.2739 22.6268C66.7539 22.2268 66.9939 21.7068 66.9939 21.0668C66.9939 20.7334 66.9339 20.4534 66.8139 20.2268C66.7073 19.9868 66.5539 19.7868 66.3539 19.6268C66.1673 19.4534 65.9406 19.3001 65.6739 19.1668C65.4073 19.0334 65.1206 18.8934 64.8139 18.7468L62.9339 17.9268C62.6273 17.7934 62.3139 17.6334 61.9939 17.4468C61.6739 17.2601 61.3873 17.0334 61.1339 16.7668C60.8806 16.5001 60.6739 16.1868 60.5139 15.8268C60.3539 15.4534 60.2739 15.0268 60.2739 14.5468C60.2739 14.0534 60.3739 13.5934 60.5739 13.1668C60.7873 12.7401 61.0739 12.3734 61.4339 12.0668C61.8073 11.7468 62.2406 11.5001 62.7339 11.3268C63.2406 11.1534 63.7939 11.0668 64.3939 11.0668C65.1806 11.0668 65.9073 11.2201 66.5739 11.5268C67.2406 11.8201 67.8073 12.2068 68.2739 12.6868L67.3739 13.7668C66.9739 13.3801 66.5273 13.0801 66.0339 12.8668C65.5539 12.6401 65.0073 12.5268 64.3939 12.5268C63.6606 12.5268 63.0673 12.7001 62.6139 13.0468C62.1739 13.3801 61.9539 13.8468 61.9539 14.4468C61.9539 14.7668 62.0139 15.0401 62.1339 15.2668C62.2673 15.4801 62.4406 15.6734 62.6539 15.8468C62.8673 16.0068 63.1006 16.1534 63.3539 16.2868C63.6073 16.4068 63.8673 16.5201 64.1339 16.6268L65.9939 17.4268C66.3673 17.5868 66.7206 17.7734 67.0539 17.9868C67.3873 18.1868 67.6739 18.4268 67.9139 18.7068C68.1539 18.9734 68.3406 19.2934 68.4739 19.6668C68.6206 20.0268 68.6939 20.4468 68.6939 20.9268C68.6939 21.4468 68.5873 21.9334 68.3739 22.3868C68.1739 22.8401 67.8806 23.2401 67.4939 23.5868C67.1073 23.9201 66.6406 24.1868 66.0939 24.3868C65.5473 24.5734 64.9273 24.6668 64.2339 24.6668Z" fill="#3D206C"/>
</svg>
