<svg width="33" height="25" viewBox="0 0 33 25" fill="none" xmlns="http://www.w3.org/2000/svg">
<g opacity="0.8">
<rect x="0.931152" y="1.35107" width="31" height="23" rx="1.5" fill="#3D206C" stroke="#38235B"/>
<path d="M9.07721 18.3511V7.85507H15.1252V8.97507H10.4052V12.2711H14.3892V13.4071H10.4052V17.2151H15.2852V18.3511H9.07721ZM20.4267 18.5431C19.6907 18.5431 19.008 18.4044 18.3787 18.1271C17.7494 17.8497 17.2054 17.4711 16.7467 16.9911L17.5467 16.0631C17.92 16.4577 18.3574 16.7777 18.8587 17.0231C19.3707 17.2577 19.8987 17.3751 20.4427 17.3751C21.136 17.3751 21.6747 17.2204 22.0587 16.9111C22.4427 16.5911 22.6347 16.1751 22.6347 15.6631C22.6347 15.3964 22.5867 15.1724 22.4907 14.9911C22.4054 14.7991 22.2827 14.6391 22.1227 14.5111C21.9734 14.3724 21.792 14.2497 21.5787 14.1431C21.3654 14.0364 21.136 13.9244 20.8907 13.8071L19.3867 13.1511C19.1414 13.0444 18.8907 12.9164 18.6347 12.7671C18.3787 12.6177 18.1494 12.4364 17.9467 12.2231C17.744 12.0097 17.5787 11.7591 17.4507 11.4711C17.3227 11.1724 17.2587 10.8311 17.2587 10.4471C17.2587 10.0524 17.3387 9.68441 17.4987 9.34307C17.6694 9.00174 17.8987 8.70841 18.1867 8.46307C18.4854 8.20707 18.832 8.00974 19.2267 7.87107C19.632 7.73241 20.0747 7.66307 20.5547 7.66307C21.184 7.66307 21.7654 7.78574 22.2987 8.03107C22.832 8.26574 23.2854 8.57507 23.6587 8.95907L22.9387 9.82307C22.6187 9.51374 22.2614 9.27374 21.8667 9.10307C21.4827 8.92174 21.0454 8.83107 20.5547 8.83107C19.968 8.83107 19.4934 8.96974 19.1307 9.24707C18.7787 9.51374 18.6027 9.88707 18.6027 10.3671C18.6027 10.6231 18.6507 10.8417 18.7467 11.0231C18.8534 11.1937 18.992 11.3484 19.1627 11.4871C19.3334 11.6151 19.52 11.7324 19.7227 11.8391C19.9254 11.9351 20.1334 12.0257 20.3467 12.1111L21.8347 12.7511C22.1334 12.8791 22.416 13.0284 22.6827 13.1991C22.9494 13.3591 23.1787 13.5511 23.3707 13.7751C23.5627 13.9884 23.712 14.2444 23.8187 14.5431C23.936 14.8311 23.9947 15.1671 23.9947 15.5511C23.9947 15.9671 23.9094 16.3564 23.7387 16.7191C23.5787 17.0817 23.344 17.4017 23.0347 17.6791C22.7254 17.9457 22.352 18.1591 21.9147 18.3191C21.4774 18.4684 20.9814 18.5431 20.4267 18.5431Z" fill="#E0CEFF"/>
<path d="M9.07721 18.3511H8.07721V19.3511H9.07721V18.3511ZM9.07721 7.85507V6.85507H8.07721V7.85507H9.07721ZM15.1252 7.85507H16.1252V6.85507H15.1252V7.85507ZM15.1252 8.97507V9.97507H16.1252V8.97507H15.1252ZM10.4052 8.97507V7.97507H9.40521V8.97507H10.4052ZM10.4052 12.2711H9.40521V13.2711H10.4052V12.2711ZM14.3892 12.2711H15.3892V11.2711H14.3892V12.2711ZM14.3892 13.4071V14.4071H15.3892V13.4071H14.3892ZM10.4052 13.4071V12.4071H9.40521V13.4071H10.4052ZM10.4052 17.2151H9.40521V18.2151H10.4052V17.2151ZM15.2852 17.2151H16.2852V16.2151H15.2852V17.2151ZM15.2852 18.3511V19.3511H16.2852V18.3511H15.2852ZM10.0772 18.3511V7.85507H8.07721V18.3511H10.0772ZM9.07721 8.85507H15.1252V6.85507H9.07721V8.85507ZM14.1252 7.85507V8.97507H16.1252V7.85507H14.1252ZM15.1252 7.97507H10.4052V9.97507H15.1252V7.97507ZM9.40521 8.97507V12.2711H11.4052V8.97507H9.40521ZM10.4052 13.2711H14.3892V11.2711H10.4052V13.2711ZM13.3892 12.2711V13.4071H15.3892V12.2711H13.3892ZM14.3892 12.4071H10.4052V14.4071H14.3892V12.4071ZM9.40521 13.4071V17.2151H11.4052V13.4071H9.40521ZM10.4052 18.2151H15.2852V16.2151H10.4052V18.2151ZM14.2852 17.2151V18.3511H16.2852V17.2151H14.2852ZM15.2852 17.3511H9.07721V19.3511H15.2852V17.3511ZM18.3787 18.1271L18.782 17.212L18.782 17.212L18.3787 18.1271ZM16.7467 16.9911L15.9893 16.3381L15.3966 17.0257L16.0237 17.6819L16.7467 16.9911ZM17.5467 16.0631L18.2732 15.3759L17.5123 14.5715L16.7893 15.4101L17.5467 16.0631ZM18.8587 17.0231L18.4192 17.9213L18.4305 17.9269L18.4421 17.9321L18.8587 17.0231ZM22.0587 16.9111L22.686 17.6898L22.6925 17.6846L22.6989 17.6793L22.0587 16.9111ZM22.4907 14.9911L21.5769 15.3972L21.5908 15.4286L21.6069 15.459L22.4907 14.9911ZM22.1227 14.5111L21.4423 15.2439L21.4692 15.2689L21.498 15.2919L22.1227 14.5111ZM20.8907 13.8071L21.3222 12.9049L21.3065 12.8974L21.2905 12.8905L20.8907 13.8071ZM19.3867 13.1511L19.7865 12.2345L19.7854 12.234L19.3867 13.1511ZM17.4507 11.4711L16.5315 11.865L16.5369 11.8772L17.4507 11.4711ZM17.4987 9.34307L16.6043 8.89586L16.5986 8.90718L16.5932 8.91864L17.4987 9.34307ZM18.1867 8.46307L18.8352 9.22432L18.8375 9.22233L18.1867 8.46307ZM19.2267 7.87107L18.903 6.92488L18.8952 6.92761L19.2267 7.87107ZM22.2987 8.03107L21.8808 8.93956L21.8884 8.94304L21.896 8.94639L22.2987 8.03107ZM23.6587 8.95907L24.4269 9.59926L25.0033 8.90757L24.3757 8.262L23.6587 8.95907ZM22.9387 9.82307L22.2437 10.5421L23.0177 11.2903L23.7069 10.4633L22.9387 9.82307ZM21.8667 9.10307L21.4397 10.0073L21.4546 10.0144L21.4698 10.0209L21.8667 9.10307ZM19.1307 9.24707L19.7346 10.0442L19.7382 10.0414L19.1307 9.24707ZM18.7467 11.0231L17.8629 11.491L17.8797 11.5227L17.8987 11.5531L18.7467 11.0231ZM19.1627 11.4871L18.5321 12.2632L18.5472 12.2754L18.5627 12.2871L19.1627 11.4871ZM19.7227 11.8391L19.257 12.724L19.2756 12.7338L19.2946 12.7428L19.7227 11.8391ZM20.3467 12.1111L20.7418 11.1924L20.73 11.1874L20.7181 11.1826L20.3467 12.1111ZM21.8347 12.7511L21.4396 13.6697L21.4408 13.6702L21.8347 12.7511ZM22.6827 13.1991L22.1437 14.0413L22.1558 14.0491L22.1682 14.0566L22.6827 13.1991ZM23.3707 13.7751L22.6115 14.4259L22.6193 14.435L22.6274 14.444L23.3707 13.7751ZM23.8187 14.5431L22.877 14.8794L22.8843 14.9001L22.8926 14.9204L23.8187 14.5431ZM23.7387 16.7191L22.8339 16.2933L22.8287 16.3043L22.8238 16.3154L23.7387 16.7191ZM23.0347 17.6791L23.6876 18.4365L23.695 18.4301L23.7023 18.4236L23.0347 17.6791ZM21.9147 18.3191L22.2379 19.2654L22.2481 19.2619L22.2583 19.2582L21.9147 18.3191ZM20.4267 17.5431C19.8197 17.5431 19.2755 17.4295 18.782 17.212L17.9754 19.0422C18.7406 19.3793 19.5617 19.5431 20.4267 19.5431V17.5431ZM18.782 17.212C18.2685 16.9857 17.8343 16.6818 17.4697 16.3002L16.0237 17.6819C16.5765 18.2604 17.2302 18.7138 17.9754 19.0422L18.782 17.212ZM17.5041 17.644L18.3041 16.716L16.7893 15.4101L15.9893 16.3381L17.5041 17.644ZM16.8202 16.7503C17.2781 17.2343 17.8133 17.6248 18.4192 17.9213L19.2983 16.1249C18.9014 15.9307 18.562 15.6812 18.2732 15.3759L16.8202 16.7503ZM18.4421 17.9321C19.08 18.2246 19.7498 18.3751 20.4427 18.3751V16.3751C20.0476 16.3751 19.6614 16.2909 19.2754 16.114L18.4421 17.9321ZM20.4427 18.3751C21.2732 18.3751 22.0644 18.1906 22.686 17.6898L21.4314 16.1323C21.285 16.2502 20.9989 16.3751 20.4427 16.3751V18.3751ZM22.6989 17.6793C23.3172 17.164 23.6347 16.4635 23.6347 15.6631H21.6347C21.6347 15.8866 21.5682 16.0181 21.4185 16.1429L22.6989 17.6793ZM23.6347 15.6631C23.6347 15.2806 23.5663 14.8854 23.3745 14.5232L21.6069 15.459C21.6072 15.4594 21.6347 15.5122 21.6347 15.6631H23.6347ZM23.4045 14.5849C23.2559 14.2505 23.0356 13.9608 22.7474 13.7302L21.498 15.2919C21.5298 15.3174 21.5548 15.3476 21.5769 15.3972L23.4045 14.5849ZM22.8032 13.7783C22.5735 13.565 22.3102 13.3908 22.0259 13.2486L21.1315 15.0375C21.2739 15.1087 21.3733 15.1798 21.4423 15.2439L22.8032 13.7783ZM22.0259 13.2486C21.8067 13.139 21.5721 13.0245 21.3222 12.9049L20.4593 14.7092C20.7 14.8244 20.9241 14.9338 21.1315 15.0375L22.0259 13.2486ZM21.2905 12.8905L19.7865 12.2345L18.9869 14.0677L20.4909 14.7237L21.2905 12.8905ZM19.7854 12.234C19.5798 12.1446 19.3642 12.0349 19.1386 11.9033L18.1308 13.6309C18.4172 13.7979 18.703 13.9442 18.988 14.0681L19.7854 12.234ZM19.1386 11.9033C18.9636 11.8012 18.8088 11.6787 18.6717 11.5343L17.2217 12.9118C17.4899 13.1942 17.7938 13.4343 18.1308 13.6309L19.1386 11.9033ZM18.6717 11.5343C18.5531 11.4094 18.4495 11.2561 18.3645 11.0649L16.5369 11.8772C16.7079 12.2621 16.935 12.61 17.2217 12.9118L18.6717 11.5343ZM18.3699 11.0772C18.304 10.9235 18.2587 10.7199 18.2587 10.4471H16.2587C16.2587 10.9423 16.3414 11.4214 16.5316 11.865L18.3699 11.0772ZM18.2587 10.4471C18.2587 10.1921 18.3094 9.96977 18.4042 9.76751L16.5932 8.91864C16.3681 9.39905 16.2587 9.91276 16.2587 10.4471H18.2587ZM18.3931 9.79029C18.5043 9.56801 18.6503 9.38178 18.8352 9.22432L17.5382 7.70183C17.1471 8.03504 16.8345 8.43547 16.6043 8.89586L18.3931 9.79029ZM18.8375 9.22233C19.0362 9.052 19.273 8.91475 19.5582 8.81453L18.8952 6.92761C18.3911 7.10473 17.9345 7.36215 17.5359 7.70382L18.8375 9.22233ZM19.5504 8.81724C19.8398 8.71823 20.1717 8.66307 20.5547 8.66307V6.66307C19.9777 6.66307 19.4243 6.74658 18.903 6.92491L19.5504 8.81724ZM20.5547 8.66307C21.0503 8.66307 21.4878 8.75879 21.8808 8.93956L22.7166 7.12258C22.0429 6.81269 21.3177 6.66307 20.5547 6.66307V8.66307ZM21.896 8.94639C22.3219 9.1338 22.6657 9.37227 22.9417 9.65615L24.3757 8.262C23.905 7.77787 23.3422 7.39768 22.7014 7.11576L21.896 8.94639ZM22.8905 8.31889L22.1705 9.18289L23.7069 10.4633L24.4269 9.59926L22.8905 8.31889ZM23.6337 9.10408C23.2302 8.71403 22.7727 8.40536 22.2636 8.18522L21.4698 10.0209C21.7501 10.1421 22.0072 10.3134 22.2437 10.5421L23.6337 9.10408ZM22.2937 8.19883C21.7569 7.94535 21.1701 7.83107 20.5547 7.83107V9.83107C20.9206 9.83107 21.2085 9.89813 21.4397 10.0073L22.2937 8.19883ZM20.5547 7.83107C19.8116 7.83107 19.1046 8.00818 18.5233 8.45272L19.7382 10.0414C19.8822 9.9313 20.1245 9.83107 20.5547 9.83107V7.83107ZM18.5269 8.44998C17.9013 8.92391 17.6027 9.60548 17.6027 10.3671H19.6027C19.6027 10.1687 19.6562 10.1036 19.7346 10.0442L18.5269 8.44998ZM17.6027 10.3671C17.6027 10.7465 17.674 11.1341 17.8629 11.491L19.6305 10.5552C19.6274 10.5494 19.6027 10.4996 19.6027 10.3671H17.6027ZM17.8987 11.5531C18.0689 11.8255 18.2838 12.0614 18.5321 12.2632L19.7933 10.711C19.7003 10.6354 19.6378 10.562 19.5947 10.4931L17.8987 11.5531ZM18.5627 12.2871C18.7788 12.4491 19.0108 12.5944 19.257 12.724L20.1885 10.9542C20.0293 10.8704 19.888 10.781 19.7627 10.6871L18.5627 12.2871ZM19.2946 12.7428C19.5164 12.8479 19.7433 12.9467 19.9753 13.0396L20.7181 11.1826C20.5234 11.1047 20.3344 11.0223 20.1508 10.9353L19.2946 12.7428ZM19.9516 13.0297L21.4396 13.6697L22.2298 11.8324L20.7418 11.1924L19.9516 13.0297ZM21.4408 13.6702C21.6904 13.7772 21.9244 13.901 22.1437 14.0413L23.2218 12.3568C22.9077 12.1558 22.5764 11.981 22.2286 11.8319L21.4408 13.6702ZM22.1682 14.0566C22.3477 14.1643 22.4931 14.2878 22.6115 14.4259L24.13 13.1243C23.8643 12.8144 23.551 12.5539 23.1972 12.3416L22.1682 14.0566ZM22.6274 14.444C22.7235 14.5508 22.8095 14.6906 22.877 14.8794L24.7604 14.2067C24.6146 13.7982 24.4019 13.426 24.114 13.1061L22.6274 14.444ZM22.8926 14.9204C22.9511 15.064 22.9947 15.267 22.9947 15.5511H24.9947C24.9947 15.0671 24.9209 14.5981 24.7448 14.1658L22.8926 14.9204ZM22.9947 15.5511C22.9947 15.8256 22.9395 16.0689 22.8339 16.2933L24.6435 17.1449C24.8793 16.6439 24.9947 16.1086 24.9947 15.5511H22.9947ZM22.8238 16.3154C22.7239 16.5419 22.576 16.7473 22.3672 16.9345L23.7023 18.4236C24.1121 18.0562 24.4336 17.6215 24.6536 17.1227L22.8238 16.3154ZM22.3818 16.9217C22.1756 17.0994 21.9109 17.2556 21.5711 17.38L22.2583 19.2582C22.7931 19.0625 23.2751 18.7921 23.6876 18.4365L22.3818 16.9217ZM21.5916 17.3727C21.2767 17.4802 20.8928 17.5431 20.4267 17.5431V19.5431C21.07 19.5431 21.678 19.4566 22.2379 19.2654L21.5916 17.3727Z" fill="#38235B"/>
</g>
</svg>
