<svg width="33" height="24" viewBox="0 0 33 24" fill="none" xmlns="http://www.w3.org/2000/svg">
<rect x="0.931152" y="0.5" width="31" height="23" rx="1.5" fill="white" stroke="#4C2A85"/>
<path d="M8.3399 17.5V7.004H14.3879V8.124H9.6679V11.42H13.6519V12.556H9.6679V16.364H14.5479V17.5H8.3399ZM16.7774 17.5V7.004H18.1534L21.9454 13.596L23.0814 15.772H23.1454C23.1134 15.2387 23.0761 14.6893 23.0334 14.124C23.0014 13.548 22.9854 12.9827 22.9854 12.428V7.004H24.2494V17.5H22.8734L19.0654 10.892L17.9294 8.732H17.8654C17.9081 9.26533 17.9454 9.80933 17.9774 10.364C18.0201 10.908 18.0414 11.4573 18.0414 12.012V17.5H16.7774Z" fill="black"/>
</svg>
