<svg width="298" height="301" viewBox="0 0 298 301" fill="none" xmlns="http://www.w3.org/2000/svg">
<path fill-rule="evenodd" clip-rule="evenodd" d="M64 189L81 170L84.0137 173L73 185L87.166 185L87.166 189L64 189Z" fill="#F6F6F6"/>
<path fill-rule="evenodd" clip-rule="evenodd" d="M267.5 284L270 281L270.5 282L269.742 283L271.173 283L271.173 284L267.5 284Z" fill="#F6F6F6"/>
<path fill-rule="evenodd" clip-rule="evenodd" d="M148 95.6416L148 116.514L143.792 116.514L143.792 106.397L137.628 113.365L134.638 110.72L148 95.6416Z" fill="#F6F6F6"/>
<path fill-rule="evenodd" clip-rule="evenodd" d="M283 266.586L283 270.232L282 270.232L282 268.804L281.182 269.743L280.584 269.214L283 266.586Z" fill="#F6F6F6"/>
<path fill-rule="evenodd" clip-rule="evenodd" d="M200.433 189.004L200.435 46.649L204 46.649L204 185.473L256 185.473L256 188.846L200.433 189.004Z" fill="#F6F6F6"/>
<path fill-rule="evenodd" clip-rule="evenodd" d="M287 284.035L286.966 264.639L289.997 264.639L289.997 281.004L297 281.004L297 284L287 284.035Z" fill="#F6F6F6"/>
<path fill-rule="evenodd" clip-rule="evenodd" d="M148.038 189L131.038 189L131.038 184.73L144.218 184.73L144.218 170L148.038 170L148.038 189Z" fill="#F6F6F6"/>
<path fill-rule="evenodd" clip-rule="evenodd" d="M283 284L280 284L280 283L282 283L282 281L283 281L283 284Z" fill="#F6F6F6"/>
<path fill-rule="evenodd" clip-rule="evenodd" d="M243.038 300L234.038 300L234.038 296.941L239.974 296.941L239.974 287L243.038 287L243.038 300Z" fill="#F6F6F6"/>
<path fill-rule="evenodd" clip-rule="evenodd" d="M243.038 263L234.038 263L234.038 266.059L239.974 266.059L239.974 276L243.038 276L243.038 263Z" fill="#F6F6F6"/>
<path fill-rule="evenodd" clip-rule="evenodd" d="M216 300L225 300L225 296.941L219.064 296.941L219.064 287L216 287L216 300Z" fill="#F6F6F6"/>
<path fill-rule="evenodd" clip-rule="evenodd" d="M216 263L225 263L225 266.059L219.064 266.059L219.064 276L216 276L216 263Z" fill="#F6F6F6"/>
<path fill-rule="evenodd" clip-rule="evenodd" d="M200.038 241.803H256.038V245.859H204.052V300H200.038L200.038 241.803Z" fill="#F6F6F6"/>
<path fill-rule="evenodd" clip-rule="evenodd" d="M287.038 291L297.038 291V294H290V300H287.038V291Z" fill="#F6F6F6"/>
<path fill-rule="evenodd" clip-rule="evenodd" d="M147.845 241.995L147.859 299.995L143.867 300L143.867 246L9.05173 246L9.05207 242L147.845 241.995Z" fill="#F6F6F6"/>
<path fill-rule="evenodd" clip-rule="evenodd" d="M283 290.998L283 300.008L280 300.008L280 294L268.223 294L268.222 291L283 290.998Z" fill="#F6F6F6"/>
<path fill-rule="evenodd" clip-rule="evenodd" d="M150.404 6.36892L3.03802 191.154L0.537965 188.154L147.283 3.87894L150.404 6.36892Z" fill="#F6F6F6"/>
<path fill-rule="evenodd" clip-rule="evenodd" d="M262.492 283.223L279.514 256L277.396 254.803L259.817 281.553L251.841 294H262.536V291H257.273L262.492 283.223Z" fill="#F6F6F6"/>
</svg>
